<?xml version="1.0" encoding="utf-8"?>
<!-- Generator: Adobe Illustrator 23.0.2, SVG Export Plug-In . SVG Version: 6.00 Build 0)  -->
<svg version="1.1" id="Layer_1" xmlns="http://www.w3.org/2000/svg" xmlns:xlink="http://www.w3.org/1999/xlink" x="0px" y="0px"
	 viewBox="0 0 900 900" style="enable-background:new 0 0 900 900;" xml:space="preserve">
<g transform="translate(0.000000,900.000000) scale(0.100000,-0.100000)">
	<path d="M3774,3105c-4-16,0-34,10-50c15-23,21-25,70-19c41,5,59,3,77-10c13-9,29-16,36-16c16,0,17,32,2,47c-19,19-4,39,61,83
		c64,43,62,40,154,243c24,51,30,57,57,57c37,0,47-22,60-140c6-47,17-128,25-180c8-53,14-128,14-168c0-62-5-82-39-154
		c-21-46-42-94-46-108s-16-41-26-60c-11-19-19-38-19-43s-11-32-24-60c-67-147-72-184-23-200c45-15,73-2,96,46c12,24,21,50,21,58
		s4,19,9,25c5,5,19,34,31,64c24,60,27,66,98,221l49,106l90,12c49,6,107,11,129,11c36,0,42-4,57-35c9-20,17-46,17-58c1-12,7-33,15-47
		s14-37,15-52c0-27,52-143,105-238c32-57,90-120,111-120c61,0,71,60,23,142c-67,112-112,205-120,243c-16,80-37,164-43,174
		c-18,28-38,206-43,382c-6,194-6,197,15,203c12,4,29,3,39-2c31-17,153-149,153-166c0-9,11-34,25-56c21-34,31-40,58-40
		c93,0,62,148-57,277c-31,33-56,63-56,66c0,2,19,17,42,32s86,72,139,126c81,83,104,114,142,191c80,161,90,203,95,378
		c4,186-10,255-86,414c-43,89-61,113-153,207c-128,131-226,199-339,235c-160,52-311,70-455,54c-120-13-268-61-352-115
		c-17-11-50-31-73-45c-51-30-207-190-246-251c-51-79-58-95-107-239c-19-57-21-85-21-235c1-142,5-181,23-239c11-38,25-74,31-80
		c5-5,10-18,10-29c0-10,14-38,30-62c17-24,30-47,30-51c0-19,155-185,226-241c23-18,64-44,92-58c60-30,68-40,54-68
		c-25-52-67-153-75-178c-5-17-108-89-126-89 M4640,5050c202-40,282-82,432-228c89-87,113-117,147-185c63-126,81-202,81-337
		c0-139-19-220-80-343c-82-164-249-311-430-376c-112-41-360-54-487-27c-34,7-114,39-178,71c-107,54-123,65-209,156
		c-51,54-101,113-110,131s-21,40-25,48c-30,50-63,155-72,224c-31,238,36,454,190,620c42,45,152,136,165,136c3,0,25,14,49,30
		c25,17,52,30,61,30c10,0,29,6,44,13c25,13,102,32,162,41C4430,5061,4596,5059,4640,5050z M4689,3388c4-13,11-105,15-205l6-181
		l-27-6c-16-2-63-8-105-11c-93-8-118,2-118,48c0,18-5,50-10,72c-13,56-30,272-24,290c5,12,30,15,130,15
		C4676,3410,4681,3409,4689,3388z"/>
	<path d="M4208,4419c-30-17-20-38,27-61c25-12,45-25,45-29c0-5-13-28-30-52c-23-34-30-56-30-92c0-43,4-52,43-91c69-68,118-70,187-8
		c22,20,40,40,40,45s12,33,26,64c32,66,30,70-64,116c-37,18-74,39-82,45c-19,15-131,74-139,74C4228,4430,4217,4425,4208,4419z"/>
	<path d="M5045,4356c-16-8-68-28-115-45c-47-18-102-39-122-48c-53-22-59-50-17-80c9-7,19-30,23-52c7-44,61-100,99-102
		c66-4,95,8,122,51c28,44,32,95,11,125c-34,50-30,61,29,89c30,15,55,31,55,35C5130,4370,5099,4379,5045,4356z"/>
	<path d="M4536,3861c-37-8-44-26-15-42c32-17,244-25,253-10c13,20-13,40-57,45C4635,3864,4565,3867,4536,3861z"/>
</g>
<g transform="translate(0.000000,900.000000) scale(0.100000,-0.100000)">
	<path d="M-5957.4,3082.3c-4-16,0-34,10-50c15-23,21-25,70-19c41,5,59,3,77-10c13-9,29-16,36-16c16,0,17,32,2,47c-19,19-4,39,61,83
		c64,43,62,40,154,243c24,51,30,57,57,57c37,0,47-22,60-140c6-47,17-128,25-180c8-53,14-128,14-168c0-62-5-82-39-154
		c-21-46-42-94-46-108s-16-41-26-60c-11-19-19-38-19-43s-11-32-24-60c-67-147-72-184-23-200c45-15,73-2,96,46c12,24,21,50,21,58
		s4,19,9,25c5,5,19,34,31,64c24,60,27,66,98,221l49,106l90,12c49,6,107,11,129,11c36,0,42-4,57-35c9-20,17-46,17-58c1-12,7-33,15-47
		s14-37,15-52c0-27,52-143,105-238c32-57,90-120,111-120c61,0,71,60,23,142c-67,112-112,205-120,243c-16,80-37,164-43,174
		c-18,28-38,206-43,382c-6,194-6,197,15,203c12,4,29,3,39-2c31-17,153-149,153-166c0-9,11-34,25-56c21-34,31-40,58-40
		c93,0,62,148-57,277c-31,33-56,63-56,66c0,2,19,17,42,32s86,72,139,126c81,83,104,114,142,191c80,161,90,203,95,378
		c4,186-10,255-86,414c-43,89-61,113-153,207c-128,131-226,199-339,235c-160,52-311,70-455,54c-120-13-268-61-352-115
		c-17-11-50-31-73-45c-51-30-207-190-246-251c-51-79-58-95-107-239c-19-57-21-85-21-235c1-142,5-181,23-239c11-38,25-74,31-80
		c5-5,10-18,10-29c0-10,14-38,30-62c17-24,30-47,30-51c0-19,155-185,226-241c23-18,64-44,92-58c60-30,68-40,54-68
		c-25-52-67-153-75-178c-5-17-108-89-126-89 M-5091.4,5027.3c202-40,282-82,432-228c89-87,113-117,147-185c63-126,81-202,81-337
		c0-139-19-220-80-343c-82-164-249-311-430-376c-112-41-360-54-487-27c-34,7-114,39-178,71c-107,54-123,65-209,156
		c-51,54-101,113-110,131s-21,40-25,48c-30,50-63,155-72,224c-31,238,36,454,190,620c42,45,152,136,165,136c3,0,25,14,49,30
		c25,17,52,30,61,30c10,0,29,6,44,13c25,13,102,32,162,41C-5301.4,5038.3-5135.4,5036.3-5091.4,5027.3z M-5042.4,3365.3
		c4-13,11-105,15-205l6-181l-27-6c-16-2-63-8-105-11c-93-8-118,2-118,48c0,18-5,50-10,72c-13,56-30,272-24,290c5,12,30,15,130,15
		C-5055.4,3387.3-5050.4,3386.3-5042.4,3365.3z"/>
	<path d="M-5523.4,4396.3c-30-17-20-38,27-61c25-12,45-25,45-29c0-5-13-28-30-52c-23-34-30-56-30-92c0-43,4-52,43-91
		c69-68,118-70,187-8c22,20,40,40,40,45s12,33,26,64c32,66,30,70-64,116c-37,18-74,39-82,45c-19,15-131,74-139,74
		C-5503.4,4407.3-5514.4,4402.3-5523.4,4396.3z"/>
	<path d="M-4686.4,4333.3c-16-8-68-28-115-45c-47-18-102-39-122-48c-53-22-59-50-17-80c9-7,19-30,23-52c7-44,61-100,99-102
		c66-4,95,8,122,51c28,44,32,95,11,125c-34,50-30,61,29,89c30,15,55,31,55,35C-4601.4,4347.3-4632.4,4356.3-4686.4,4333.3z"/>
	<path d="M-5195.4,3838.3c-37-8-44-26-15-42c32-17,244-25,253-10c13,20-13,40-57,45C-5096.4,3841.3-5166.4,3844.3-5195.4,3838.3z"/>
</g>
<g transform="translate(0.000000,300.000000) scale(0.100000,-0.100000)">
	<path d="M-7653.8-1157.6c-3.6-22.5,10.8-37.9,346-381.6c192.2-196.7,376.9-386.9,409.7-421.9c59.4-63.5,59.4-63.5,31.8-63.3
		c-15.5,0.5-57.4,17.5-93.6,35.7c-63.9,34.7-65.3,34.7-55.7,6.8c6.4-21.4,15.9-31.7,39.6-43.8c37.5-19.6,43.7-26.2,33.5-35.8
		c-3.7-3.4-7.9-3.3-9.1,2.4c-1.3,4.3-21.8,4.3-46.1-2c-39.2-9.3-42.8-11.3-31.9-23c22.5-24.1,72.2-18.7,105.1,12.1
		c23.4,21.9,38.4,27.7,68.8,26l37.4-2l237.4-243.5l237.4-243.5l-36.1-0.9c-64.4,0-66.4-18.3-3.5-21.1l60-2.7l207.3-212.8
		c179.2-184.3,209.4-212.2,224.4-207.7c34.3,10.2,76.4,42.7,96.7,76.7l22.4,34.6l-681.2,723.9c-673,713.7-681.2,722.5-681.7,752.2
		c-0.2,16.3,7.2,46.5,16.4,66c17.6,38.3,14,58.3-6.5,39.1c-9.5-8.9-12.2-4.5-16.8,26.7c-5.5,46.9-20.3,48.1-28.2,2.4
		c-5.1-25.3-10.3-34.3-18.7-29.8c-23,10-9.5-30.8,16-49.4c22.8-17,32.4-46.4,19.3-58.7c-3.7-3.4-91.3,84.4-194.4,194.7
		c-170.9,182.6-189.4,199.5-207.3,195.1C-7593.1-1014.6-7643.8-1092.2-7653.8-1157.6z M-7575.5-1037.9l24.8,23.2l175.7-184.9
		c96.4-101.6,180.4-190,186.6-196.6c13.7-13.2-19.6-78.6-60.5-116.8l-25.6-23.9l-181,193.5c-140,149.7-178.8,195.6-172.3,201.7
		c5.1,4.8,6.8,11.8,3.3,15.5s0.7,19.8,9,35.8C-7606.4-1073.6-7588.7-1050.2-7575.5-1037.9z M-7159.7-1425.3
		c-0.7-19.8-48.3-90.4-78.2-117c-19.7-17-18.1-11.4,9.5,29.4C-7165.1-1418.1-7158.5-1410.5-7159.7-1425.3z M-7155.9-1458.7
		c11.9,18,14,15.8,232.7-213.7l221.5-232.4l-21.9-20.5c-11.7-10.9-32.7-26.5-46.5-35.2c-23.9-15.5-26-14.7-57.2,24.6
		c-19.1,21.9-33.5,35.8-33.6,31.5c-0.9-4.9,11.3-22.3,24.9-38.3c14.3-15.3,26.5-32.7,27.8-37c4.4-16.4-27.5-18.9-41.9-3.6
		c-11.6,12.4-10.8,14.5,3.2,11.2c11.9-2.5-45.3,63.1-184.1,208.5c-110.8,115.5-199.5,213.3-196.5,216c2.9,2.7,18.2-6.3,33.3-19.5
		l28.9-25l-23.9,27c-21.8,26.2-21.6,30.4-0.9,58C-7176.7-1490.5-7161.9-1468.4-7155.9-1458.7z M-6813.3-2003.6
		c4.2-0.1,32.4,18,62.9,41.1l55.1,40.6l-54.9-54.1c-30.7-28.7-59.7-51.8-66.1-50.9C-6828-2022.9-6826-2003.2-6813.3-2003.6z
		 M-6801-2038.7l59.2,55.3l59.2,55.3l232.3-248.3l232.3-248.3l-32.1-30.1c-17.5-16.4-42.9-36.1-56.7-44.8l-24.6-16.2l-209.7,224.2
		c-115.4,123.4-220.8,230.2-235.4,238.5L-6801-2038.7z M-6321.2-2523.8c4.3,2.7,31.2,23.7,62.4,47.4l55.2,43.4l-55.6-54.7
		c-32.9-32.2-57.6-51.1-61.7-46.8C-6325-2530-6324.8-2525.8-6321.2-2523.8z M-6281.9-2532.2l40.9,38.3c21.9,20.5,43,37.5,46.6,38.1
		c12.7-0.4,399.8-421.6,393.2-427.7c-3.7-3.4-9.6-13.1-14.2-21.5c-6.8-13.2-17.1-5.1-79.4,58.5l-72.5,74.6l62.7-71.4
		c34.1-39.3,61.8-77.8,61.5-84.8c-0.3-9.9-5.3-9-14.9-0.2c-10.9,11.7-12.3,11.7-6.5-3.3c5.2-14.3,2.9-17.8-16.2-19.3
		c-30.6-3.9-166.4,122.3-158.6,146.1c3.2,11.2-5.5,24.9-28.9,47c-20.6,17.7-35.2,25.9-37.5,19.6c-1.6-7-5-2-8.8,10.9
		s-41.2,60.1-86.9,109L-6281.9-2532.2z"/>
	<path d="M-7613.1-1104.5c-0.1-4.2,27.3-30.6,59.6-59.3c32.3-28.7,54.4-43.6,49.1-34.9c-5.4,8.7-32.1,35.7-58.9,58.6
		C-7590.9-1116.6-7612.3-1101-7613.1-1104.5z"/>
	<path d="M-7302.2-1412.1c-4.4-4.1,7-22.2,25.5-40.5c27.4-27.8,30.8-30,22.3-10.6c-6.6,13-18.1,31-26.2,41.2
		C-7288.1-1412.5-7298.5-1408.6-7302.2-1412.1z"/>
	<path d="M-6724.8-2024.9c8.8-12.3,27.2-32,41-43.8s7-1.6-15.5,22.5C-6721.9-2022.2-6733.6-2012.6-6724.8-2024.9z"/>
	<path d="M-6393.2-2369.3c16.6-33.8,61.6-82,82-87.6c11.9-2.5-0.3,13.5-37.8,53.6C-6387.3-2363.8-6400.4-2352.7-6393.2-2369.3z"/>
	<path d="M-6624.2-2400.5c-5.6-20.3,31.3-80.3,66.4-110.5l37.9-31.7l-63.6-18.4c-35-10.9-84.8-19.1-111-20.3
		c-26.9-0.5-47.6-4.8-47.8-10.4c-0.1-4.2,15-17.5,34.4-29.4c47.9-27.8,137.7-30.1,177.4-5.2l31.8,20.2l-2.1-43.1
		c-0.4-33.2,4.7-49,25.9-71.6c30.7-32.9,36.4-31.6,32.9,10.2c-1.5,17.7,2.3,48.7,7.3,69.8c6.4,21,5.3,51.5-1.3,67.3
		c-8,15.8-10.3,31.5-7.3,34.2c9.5,8.9-4.9,63.8-25.1,97.1c-21.5,34.7-35.9,25.3-23.9-15.5l7.5-28.6l-31.3,17.3
		c-17.4,9.8-47.8,30.6-68.5,46.9C-6604.5-2405.4-6623.3-2395.5-6624.2-2400.5z M-6576-2462.2c-8.1,13-6.6,14.4,4.5,8.3
		c106.5-53.8,126.5-67.9,105.8-72.2c-6.4-1.9-16.2,2.7-22.3,9.2c-5.5,5.8-25.6,17.1-44.5,24.1
		C-6552-2484.9-6571.4-2471.6-6576-2462.2z M-6703.2-2605.8c18.8,10.7,214,53.7,218.1,47.9c9.5-11.6-11.9-37.1-31.6-36.4
		c-12,1.1-9.8,4.6,10.5,16.6c35.4,22.2,1.8,11.3-71.5-23.1c-41.7-19.8-63.8-24-91.8-16C-6690-2612.6-6705.3-2606.5-6703.2-2605.8z
		 M-6480.5-2611.1l11.9,37.1l-3.2-33.1c-2-18.3-1.2-35.3,1.6-38.3c2-2.2,4.3-20.7,4.4-38.4l-0.4-34.7l-13.7,35.1
		C-6487.9-2661.8-6488.3-2633.5-6480.5-2611.1z"/>
</g>
<g transform="translate(0.000000,300.000000) scale(0.100000,-0.100000)">
	<path d="M2048.5-1157.6c-3.6-22.5,10.8-37.9,346-381.6c192.2-196.7,376.9-386.9,409.7-421.9c59.4-63.5,59.4-63.5,31.8-63.3
		c-15.5,0.5-57.4,17.5-93.6,35.7c-63.9,34.7-65.3,34.7-55.7,6.8c6.4-21.4,15.9-31.7,39.6-43.8c37.5-19.6,43.7-26.2,33.5-35.8
		c-3.7-3.4-7.9-3.3-9.1,2.4c-1.3,4.3-21.8,4.3-46.1-2c-39.2-9.3-42.8-11.3-31.9-23c22.5-24.1,72.2-18.7,105.1,12.1
		c23.4,21.9,38.4,27.7,68.8,26l37.4-2l237.4-243.5l237.4-243.5l-36.1-0.9c-64.4,0-66.4-18.3-3.5-21.1l60-2.7l207.3-212.8
		c179.2-184.3,209.4-212.2,224.4-207.7c34.3,10.2,76.4,42.7,96.7,76.7l22.4,34.6L3248.8-2145c-673,713.7-681.2,722.5-681.7,752.2
		c-0.2,16.3,7.2,46.5,16.4,66c17.6,38.3,14,58.3-6.5,39.1c-9.5-8.9-12.2-4.5-16.8,26.7c-5.5,46.9-20.3,48.1-28.2,2.4
		c-5.1-25.3-10.3-34.3-18.7-29.8c-23,10-9.5-30.8,16-49.4c22.8-17,32.4-46.4,19.3-58.7c-3.7-3.4-91.3,84.4-194.4,194.7
		c-170.9,182.6-189.4,199.5-207.3,195.1C2109.2-1014.6,2058.5-1092.2,2048.5-1157.6z M2126.8-1037.9l24.8,23.2l175.7-184.9
		c96.4-101.6,180.4-190,186.6-196.6c13.7-13.2-19.6-78.6-60.5-116.8l-25.6-23.9l-181,193.5c-140,149.7-178.8,195.6-172.3,201.7
		c5.1,4.8,6.8,11.8,3.3,15.5s0.7,19.8,9,35.8C2095.9-1073.6,2113.6-1050.2,2126.8-1037.9z M2542.6-1425.3
		c-0.7-19.8-48.3-90.4-78.2-117c-19.7-17-18.1-11.4,9.5,29.4C2537.2-1418.1,2543.8-1410.5,2542.6-1425.3z M2546.4-1458.7
		c11.9,18,14,15.8,232.7-213.7l221.5-232.4l-21.9-20.5c-11.7-10.9-32.7-26.5-46.5-35.2c-23.9-15.5-26-14.7-57.2,24.6
		c-19.1,21.9-33.5,35.8-33.6,31.5c-0.9-4.9,11.3-22.3,24.9-38.3c14.3-15.3,26.5-32.7,27.8-37c4.4-16.4-27.5-18.9-41.9-3.6
		c-11.6,12.4-10.8,14.5,3.2,11.2c11.9-2.5-45.3,63.1-184.1,208.5c-110.8,115.5-199.5,213.3-196.5,216c2.9,2.7,18.2-6.3,33.3-19.5
		l28.9-25l-23.9,27c-21.8,26.2-21.6,30.4-0.9,58C2525.6-1490.5,2540.4-1468.4,2546.4-1458.7z M2889-2003.6
		c4.2-0.1,32.4,18,62.9,41.1l55.1,40.6l-54.9-54.1c-30.7-28.7-59.7-51.8-66.1-50.9C2874.3-2022.9,2876.3-2003.2,2889-2003.6z
		 M2901.3-2038.7l59.2,55.3l59.2,55.3l232.3-248.3l232.3-248.3l-32.1-30.1c-17.5-16.4-42.9-36.1-56.7-44.8l-24.6-16.2l-209.7,224.2
		c-115.4,123.4-220.8,230.2-235.4,238.5L2901.3-2038.7z M3381.1-2523.8c4.3,2.7,31.2,23.7,62.4,47.4l55.2,43.4l-55.6-54.7
		c-32.9-32.2-57.6-51.1-61.7-46.8C3377.3-2530,3377.5-2525.8,3381.1-2523.8z M3420.4-2532.2l40.9,38.3c21.9,20.5,43,37.5,46.6,38.1
		c12.7-0.4,399.8-421.6,393.2-427.7c-3.7-3.4-9.6-13.1-14.2-21.5c-6.8-13.2-17.1-5.1-79.4,58.5l-72.5,74.6l62.7-71.4
		c34.1-39.3,61.8-77.8,61.5-84.8c-0.3-9.9-5.3-9-14.9-0.2c-10.9,11.7-12.3,11.7-6.5-3.3c5.2-14.3,2.9-17.8-16.2-19.3
		c-30.6-3.9-166.4,122.3-158.6,146.1c3.2,11.2-5.5,24.9-28.9,47c-20.6,17.7-35.2,25.9-37.5,19.6c-1.6-7-5-2-8.8,10.9
		s-41.2,60.1-86.9,109L3420.4-2532.2z"/>
	<path d="M2089.2-1104.5c-0.1-4.2,27.3-30.6,59.6-59.3c32.3-28.7,54.4-43.6,49.1-34.9c-5.4,8.7-32.1,35.7-58.9,58.6
		C2111.4-1116.6,2090-1101,2089.2-1104.5z"/>
	<path d="M2400.1-1412.1c-4.4-4.1,7-22.2,25.5-40.5c27.4-27.8,30.8-30,22.3-10.6c-6.6,13-18.1,31-26.2,41.2
		C2414.2-1412.5,2403.8-1408.6,2400.1-1412.1z"/>
	<path d="M2977.5-2024.9c8.8-12.3,27.2-32,41-43.8s7-1.6-15.5,22.5C2980.4-2022.2,2968.7-2012.6,2977.5-2024.9z"/>
	<path d="M3309.1-2369.3c16.6-33.8,61.6-82,82-87.6c11.9-2.5-0.3,13.5-37.8,53.6C3315-2363.8,3301.9-2352.7,3309.1-2369.3z"/>
	<path d="M3078.1-2400.5c-5.6-20.3,31.3-80.3,66.4-110.5l37.9-31.7l-63.6-18.4c-35-10.9-84.8-19.1-111-20.3
		c-26.9-0.5-47.6-4.8-47.8-10.4c-0.1-4.2,15-17.5,34.4-29.4c47.9-27.8,137.7-30.1,177.4-5.2l31.8,20.2l-2.1-43.1
		c-0.4-33.2,4.7-49,25.9-71.6c30.7-32.9,36.4-31.6,32.9,10.2c-1.5,17.7,2.3,48.7,7.3,69.8c6.4,21,5.3,51.5-1.3,67.3
		c-8,15.8-10.3,31.5-7.3,34.2c9.5,8.9-4.9,63.8-25.1,97.1c-21.5,34.7-35.9,25.3-23.9-15.5l7.5-28.6l-31.3,17.3
		c-17.4,9.8-47.8,30.6-68.5,46.9C3097.8-2405.4,3079-2395.5,3078.1-2400.5z M3126.3-2462.2c-8.1,13-6.6,14.4,4.5,8.3
		c106.5-53.8,126.5-67.9,105.8-72.2c-6.4-1.9-16.2,2.7-22.3,9.2c-5.5,5.8-25.6,17.1-44.5,24.1
		C3150.3-2484.9,3130.9-2471.6,3126.3-2462.2z M2999.1-2605.8c18.8,10.7,214,53.7,218.1,47.9c9.5-11.6-11.9-37.1-31.6-36.4
		c-12,1.1-9.8,4.6,10.5,16.6c35.4,22.2,1.8,11.3-71.5-23.1c-41.7-19.8-63.8-24-91.8-16C3012.3-2612.6,2997-2606.5,2999.1-2605.8z
		 M3221.8-2611.1l11.9,37.1l-3.2-33.1c-2-18.3-1.2-35.3,1.6-38.3c2-2.2,4.3-20.7,4.4-38.4l-0.4-34.7l-13.7,35.1
		C3214.4-2661.8,3214-2633.5,3221.8-2611.1z"/>
</g>
</svg>
