<?xml version="1.0" encoding="utf-8"?>
<!-- Generator: Adobe Illustrator 23.0.2, SVG Export Plug-In . SVG Version: 6.00 Build 0)  -->
<svg version="1.1" id="Layer_1" xmlns="http://www.w3.org/2000/svg" xmlns:xlink="http://www.w3.org/1999/xlink" x="0px" y="0px"
	 viewBox="0 0 900 900" style="enable-background:new 0 0 900 900;" xml:space="preserve">
<g transform="translate(0.000000,900.000000) scale(0.100000,-0.100000)">
	<path d="M3794,3105c-5-38-3-45,16-55c20-11,45-9,83,5c8,4,28-6,45-20c41-34,56-25,37,22c-8,19-15,37-15,38c0,2,30,27,68,57
		c58,48,73,68,115,149c26,52,47,102,47,111c0,24,23,28,58,11c29-14,32-20,32-62c0-25,7-95,15-156c30-232,36-295,30-317
		c-4-13-28-68-54-123s-53-116-60-135s-22-62-33-95c-12-33-27-75-35-93s-13-49-11-69c3-33,7-39,36-47c51-14,74,2,95,70
		c11,33,25,74,33,92s14,39,14,47c0,17,15,52,82,192c27,56,52,104,57,107c4,3,63,8,132,12c140,8,142,7,153-61c19-112,45-208,62-228
		c11-12,37-48,58-79c46-70,132-158,152-158c34,0,54,20,54,54c0,25-16,55-67,125c-87,118-112,161-113,188c0,12-6,48-14,80
		c-29,120-46,253-56,419c-16,268-16,260,25,274c19,6,43,9,54,5c32-10,158-150,166-183c11-53,41-82,85-82c34,0,39,3,45,30
		c4,16,3,40,0,52c-17,58-68,148-109,193c-50,54-56,77-28,101c65,55,164,157,199,204c44,59,113,189,113,213c0,8,8,32,17,53
		c15,33,18,70,17,244v205l-32,75c-18,41-32,79-32,84c0,22-120,186-180,247c-77,77-205,164-285,195c-164,62-335,91-460,77
		c-132-14-242-46-364-106c-134-67-315-249-393-397c-52-100-88-258-88-389c0-196,66-378,196-542c32-41,63-77,68-81c6-3,25-18,41-32
		c38-33,164-120,188-129c10-4,17-17,17-31c0-24-53-144-80-182c-20-27-70-64-86-64 M4640,5036c99-22,148-40,238-87
		c68-36,103-63,188-151c57-58,108-117,114-130c5-13,14-30,19-38c13-24,38-82,58-135c26-73,26-357,0-430c-32-87-80-179-111-217
		c-17-20-39-48-49-62c-26-38-143-129-212-165c-33-18-99-45-147-62c-82-27-96-29-250-29c-164,0-208,7-328,51c-107,40-334,244-385,347
		c-92,182-115,346-74,519c34,144,90,245,198,356c124,128,235,189,436,236C4397,5053,4568,5052,4640,5036z M4666,3398
		c5-7,11-58,15-113s10-144,14-197c7-80,5-98-6-102c-8-2-58-9-112-16c-120-15-124-13-138,86c-5,38-17,116-25,174c-9,58-14,119-12,135
		c3,29,5,30,63,36C4579,3412,4658,3411,4666,3398z"/>
	<path d="M4190,4411c-14-28-15-27,35-57c25-14,45-30,45-34c0-5-11-22-25-38c-21-25-25-40-25-92c0-76,18-110,71-133
		c65-28,103-23,152,22c44,41,95,146,84,175c-3,8-39,31-79,51s-80,42-88,49c-20,16-138,76-150,76C4205,4430,4196,4421,4190,4411z"/>
	<path d="M5000,4334c-82-32-122-47-184-71c-57-21-64-33-43-76c8-18,25-55,37-84c22-51,34-60,97-78c33-9,100,12,118,38
		c21,30,20,121-2,158c-21,35-13,46,50,70c33,13,43,22,45,43c3,23,0,26-25,26C5078,4360,5036,4348,5000,4334z"/>
	<path d="M4496,3852c-23-38,43-56,188-50c83,3,106,17,65,39C4719,3857,4505,3866,4496,3852z"/>
</g>
<g transform="translate(0.000000,900.000000) scale(0.100000,-0.100000)">
	<path d="M-5998,3105c-5-38-3-45,16-55c20-11,45-9,83,5c8,4,28-6,45-20c41-34,56-25,37,22c-8,19-15,37-15,38c0,2,30,27,68,57
		c58,48,73,68,115,149c26,52,47,102,47,111c0,24,23,28,58,11c29-14,32-20,32-62c0-25,7-95,15-156c30-232,36-295,30-317
		c-4-13-28-68-54-123s-53-116-60-135s-22-62-33-95c-12-33-27-75-35-93s-13-49-11-69c3-33,7-39,36-47c51-14,74,2,95,70
		c11,33,25,74,33,92s14,39,14,47c0,17,15,52,82,192c27,56,52,104,57,107c4,3,63,8,132,12c140,8,142,7,153-61c19-112,45-208,62-228
		c11-12,37-48,58-79c46-70,132-158,152-158c34,0,54,20,54,54c0,25-16,55-67,125c-87,118-112,161-113,188c0,12-6,48-14,80
		c-29,120-46,253-56,419c-16,268-16,260,25,274c19,6,43,9,54,5c32-10,158-150,166-183c11-53,41-82,85-82c34,0,39,3,45,30
		c4,16,3,40,0,52c-17,58-68,148-109,193c-50,54-56,77-28,101c65,55,164,157,199,204c44,59,113,189,113,213c0,8,8,32,17,53
		c15,33,18,70,17,244v205l-32,75c-18,41-32,79-32,84c0,22-120,186-180,247c-77,77-205,164-285,195c-164,62-335,91-460,77
		c-132-14-242-46-364-106c-134-67-315-249-393-397c-52-100-88-258-88-389c0-196,66-378,196-542c32-41,63-77,68-81c6-3,25-18,41-32
		c38-33,164-120,188-129c10-4,17-17,17-31c0-24-53-144-80-182c-20-27-70-64-86-64 M-5152,5036c99-22,148-40,238-87
		c68-36,103-63,188-151c57-58,108-117,114-130c5-13,14-30,19-38c13-24,38-82,58-135c26-73,26-357,0-430c-32-87-80-179-111-217
		c-17-20-39-48-49-62c-26-38-143-129-212-165c-33-18-99-45-147-62c-82-27-96-29-250-29c-164,0-208,7-328,51c-107,40-334,244-385,347
		c-92,182-115,346-74,519c34,144,90,245,198,356c124,128,235,189,436,236C-5395,5053-5224,5052-5152,5036z M-5126,3398
		c5-7,11-58,15-113s10-144,14-197c7-80,5-98-6-102c-8-2-58-9-112-16c-120-15-124-13-138,86c-5,38-17,116-25,174c-9,58-14,119-12,135
		c3,29,5,30,63,36C-5213,3412-5134,3411-5126,3398z"/>
	<path d="M-5602,4411c-14-28-15-27,35-57c25-14,45-30,45-34c0-5-11-22-25-38c-21-25-25-40-25-92c0-76,18-110,71-133
		c65-28,103-23,152,22c44,41,95,146,84,175c-3,8-39,31-79,51s-80,42-88,49c-20,16-138,76-150,76C-5587,4430-5596,4421-5602,4411z"/>
	<path d="M-4792,4334c-82-32-122-47-184-71c-57-21-64-33-43-76c8-18,25-55,37-84c22-51,34-60,97-78c33-9,100,12,118,38
		c21,30,20,121-2,158c-21,35-13,46,50,70c33,13,43,22,45,43c3,23,0,26-25,26C-4714,4360-4756,4348-4792,4334z"/>
	<path d="M-5296,3852c-23-38,43-56,188-50c83,3,106,17,65,39C-5073,3857-5287,3866-5296,3852z"/>
</g>
<g transform="translate(0.000000,300.000000) scale(0.100000,-0.100000)">
	<path d="M-7659.6-1083.3c-4.2-22.4,9.8-38.1,336.1-390.3c187.1-201.6,366.9-396.4,398.7-432.3c57.8-65,57.8-65,30.2-64.1
		c-15.5,0.9-57,19-92.7,38.1c-63,36.3-64.4,36.4-55.5,8.2c5.8-21.6,15.1-32.1,38.4-44.8c37-20.6,43-27.3,32.5-36.6
		c-3.7-3.3-8-3.1-9.1,2.7c-1.2,4.3-21.7,4.8-46.1-0.8c-39.4-8.3-43.1-10.2-32.5-22.2c21.9-24.7,71.7-20.5,105.4,9.4
		c23.9,21.3,39.1,26.7,69.4,24.2l37.4-2.9l231-249.5l231-249.5h-36.1c-64.4,1.7-66.9-16.6-4.1-21l60-4.3l201.7-218.1
		c174.4-188.8,203.9-217.5,219-213.4c34.5,9.3,77.5,40.8,98.6,74.2l23.3,34l-662.4,741.1c-654.5,730.7-662.5,739.7-662.2,769.4
		c0.3,16.3,8.4,46.3,18,65.5c18.5,37.9,15.5,57.9-5.5,39.3c-9.7-8.6-12.3-4.2-16.1,27.2c-4.3,47-19.1,48.6-28.2,3.1
		c-5.7-25.2-11.2-34-19.4-29.3c-22.8,10.6-10.3-30.6,14.8-49.7c22.3-17.6,31.2-47.2,17.8-59.1c-3.7-3.3-89.1,86.7-189.4,199.6
		c-166,186.9-184.1,204.3-202.1,200.4C-7595.3-941.9-7648-1018.1-7659.6-1083.3z M-7578.3-965.6l25.4,22.6l170.9-189.3
		c93.7-104,175.5-194.5,181.5-201.3c13.4-13.5-21.6-78.1-63.5-115.2l-26.2-23.2l-176,198.1c-136.2,153.3-173.8,200.1-167,206.1
		c5.2,4.6,7.1,11.6,3.7,15.4s1.2,19.8,9.9,35.5C-7610.1-1000.5-7591.8-977.5-7578.3-965.6z M-7172.6-1363.5
		c-1.2-19.8-50.6-89.1-81.2-114.9c-20.1-16.5-18.4-11,10.2,29.1C-7177.8-1356.1-7171-1348.8-7172.6-1363.5z M-7169.6-1397
		c12.4,17.7,14.4,15.4,227.2-219.6l215.4-238l-22.4-19.9c-12-10.6-33.4-25.7-47.3-34c-24.3-14.9-26.3-14-56.5,26
		c-18.5,22.3-32.5,36.6-32.8,32.4c-1-4.9,10.7-22.6,23.9-39c13.9-15.7,25.7-33.4,26.8-37.7c4-16.5-28-18.2-41.9-2.5
		c-11.3,12.7-10.5,14.8,3.5,11.1c11.9-2.8-43.7,64.2-178.7,213.1c-107.8,118.3-193.9,218.3-190.9,221s18-6.7,32.8-20.4l28.2-25.8
		l-23.2,27.6c-21.1,26.7-20.8,31,0.6,58C-7191.3-1428.3-7175.8-1406.6-7169.6-1397z M-6841.1-1950.5c4.2-0.3,32.9,17.2,64,39.4
		l56.1,39.2l-56.2-52.6c-31.4-27.9-61.1-50.2-67.4-49.1C-6856.3-1969.4-6853.8-1949.8-6841.1-1950.5z M-6829.7-1985.9l60.6,53.8
		l60.6,53.8l225.8-254.2l225.8-254.2l-32.9-29.2c-17.9-15.9-43.9-34.9-57.8-43.3l-25-15.5l-203.9,229.5
		c-112.2,126.3-214.9,235.8-229.2,244.5L-6829.7-1985.9z M-6362.5-2483.1c4.4,2.6,31.8,22.9,63.6,45.8l56.3,42l-57-53.3
		c-33.7-31.3-58.9-49.6-62.9-45.2C-6366.4-2489.3-6366.2-2485-6362.5-2483.1z M-6323.4-2492.5l41.9,37.2
		c22.4,19.9,43.9,36.4,47.5,36.9c12.7-0.8,388.9-431.7,382.1-437.7c-3.7-3.3-10-12.9-14.7-21.1c-7.1-13-17.3-4.6-77.9,60.6
		l-70.6,76.4l60.9-73c33-40.2,59.8-79.3,59.4-86.4c-0.6-9.9-5.5-8.9-14.9,0.2c-10.6,12-12,12-6.6-3.2c4.8-14.5,2.5-17.9-16.7-18.8
		c-30.6-3.1-163.2,126.5-154.8,150.1c3.5,11.1-4.9,25.1-27.6,47.7c-20.2,18.2-34.5,26.8-37,20.6c-1.8-7-5.1-1.8-8.6,11.1
		c-3.5,13-39.6,61.1-84.1,111.2L-6323.4-2492.5z"/>
	<path d="M-7617.6-1031.2c-0.3-4.2,26.5-31.3,58-60.8s53.3-44.9,48.2-36.1s-31.1,36.5-57.4,60.1
		C-7595.7-1043.9-7616.7-1027.7-7617.6-1031.2z"/>
	<path d="M-7314.7-1346.6c-4.5-4,6.5-22.3,24.5-41.1c26.6-28.5,30.1-30.8,22-11.2c-6.3,13.1-17.3,31.5-25.2,41.9
		C-7300.5-1347.5-7310.9-1343.3-7314.7-1346.6z"/>
	<path d="M-6753.2-1974.1c8.5-12.5,26.4-32.7,39.8-44.9c13.4-12.2,7-1.8-14.9,22.8C-6750.2-1971.5-6761.7-1961.6-6753.2-1974.1z"/>
	<path d="M-6430.5-2326.8c15.7-34.2,59.5-83.6,79.7-89.7c11.9-2.8,0.1,13.5-36.4,54.6C-6424.5-2321.5-6437.3-2310.1-6430.5-2326.8z"
		/>
	<path d="M-6662.2-2352.1c-6.2-20.2,29.2-81.1,63.5-112.1l37-32.6l-64-16.8c-35.3-10-85.3-16.9-111.5-17.5
		c-26.9,0.2-47.7-3.6-48-9.2c-0.3-4.2,14.5-17.9,33.6-30.3c47.2-29,136.8-33.6,177.2-9.8l32.3,19.3l-3.3-43
		c-1.3-33.2,3.5-49.1,24.1-72.3c29.9-33.6,35.6-32.6,33.1,9.4c-1.1,17.8,3.6,48.7,9.1,69.6c6.9,20.8,6.6,51.3,0.4,67.3
		c-7.6,16-9.5,31.7-6.5,34.4c9.7,8.6-3.3,63.9-22.6,97.7c-20.6,35.2-35.3,26.2-24.3-14.9l6.8-28.7l-30.8,18.1
		c-17.1,10.2-47,31.8-67.3,48.6C-6642.7-2357.5-6661.2-2347.2-6662.2-2352.1z M-6615.6-2415.1c-7.7,13.2-6.2,14.5,4.7,8.2
		c105-56.5,124.7-71.1,104-74.9c-6.5-1.7-16.1,3.1-22.1,9.8c-5.3,6-25.2,17.8-43.8,25.3C-6592.2-2438.4-6611.2-2424.5-6615.6-2415.1
		z M-6746.5-2555.4c19,10.2,215.4,48.2,219.3,42.3c9.2-11.9-12.8-36.8-32.6-35.6c-12,1.4-9.6,4.8,10.9,16.4
		c36,21.2,2.1,11.2-72.1-21.2c-42.2-18.8-64.4-22.4-92.2-13.7C-6733.4-2562.5-6748.6-2555.9-6746.5-2555.4z M-6524-2566.4l12.8,36.8
		l-4.1-33.1c-2.5-18.3-2.1-35.3,0.6-38.3c2-2.2,3.7-20.8,3.4-38.5l-1.3-34.6l-12.8,35.5C-6532.6-2616.9-6532.4-2588.6-6524-2566.4z"
		/>
</g>
<g transform="translate(0.000000,300.000000) scale(0.100000,-0.100000)">
	<path d="M2090.2-1083.3c-4.2-22.4,9.8-38.1,336.1-390.3c187.1-201.6,366.9-396.4,398.7-432.3c57.8-65,57.8-65,30.2-64.1
		c-15.5,0.9-57,19-92.7,38.1c-63,36.3-64.4,36.4-55.5,8.2c5.8-21.6,15.1-32.1,38.4-44.8c37-20.6,43-27.3,32.5-36.6
		c-3.7-3.3-8-3.1-9.1,2.7c-1.2,4.3-21.7,4.8-46.1-0.8c-39.4-8.3-43.1-10.2-32.5-22.2c21.9-24.7,71.7-20.5,105.4,9.4
		c23.9,21.3,39.1,26.7,69.4,24.2l37.4-2.9l231-249.5l231-249.5h-36.1c-64.4,1.7-66.9-16.6-4.1-21l60-4.3l201.7-218.1
		c174.4-188.8,203.9-217.5,219-213.4c34.5,9.3,77.5,40.8,98.6,74.2l23.3,34l-662.4,741.1c-654.5,730.7-662.5,739.7-662.2,769.4
		c0.3,16.3,8.4,46.3,18,65.5c18.5,37.9,15.5,57.9-5.5,39.3c-9.7-8.6-12.3-4.2-16.1,27.2c-4.3,47-19.1,48.6-28.2,3.1
		c-5.7-25.2-11.2-34-19.4-29.3c-22.8,10.6-10.3-30.6,14.8-49.7c22.3-17.6,31.2-47.2,17.8-59.1c-3.7-3.3-89.1,86.7-189.4,199.6
		c-166,186.9-184.1,204.3-202.1,200.4C2154.5-941.9,2101.8-1018.1,2090.2-1083.3z M2171.5-965.6l25.4,22.6l170.9-189.3
		c93.7-104,175.5-194.5,181.5-201.3c13.4-13.5-21.6-78.1-63.5-115.2l-26.2-23.2l-176,198.1c-136.2,153.3-173.8,200.1-167,206.1
		c5.2,4.6,7.1,11.6,3.7,15.4s1.2,19.8,9.9,35.5C2139.7-1000.5,2158-977.5,2171.5-965.6z M2577.2-1363.5
		c-1.2-19.8-50.6-89.1-81.2-114.9c-20.1-16.5-18.4-11,10.2,29.1C2572-1356.1,2578.8-1348.8,2577.2-1363.5z M2580.2-1397
		c12.4,17.7,14.4,15.4,227.2-219.6l215.4-238l-22.4-19.9c-12-10.6-33.4-25.7-47.3-34c-24.3-14.9-26.3-14-56.5,26
		c-18.5,22.3-32.5,36.6-32.8,32.4c-1-4.9,10.7-22.6,23.9-39c13.9-15.7,25.7-33.4,26.8-37.7c4-16.5-28-18.2-41.9-2.5
		c-11.3,12.7-10.5,14.8,3.5,11.1c11.9-2.8-43.7,64.2-178.7,213.1c-107.8,118.3-193.9,218.3-190.9,221s18-6.7,32.8-20.4l28.2-25.8
		l-23.2,27.6c-21.1,26.7-20.8,31,0.6,58C2558.5-1428.3,2574-1406.6,2580.2-1397z M2908.7-1950.5c4.2-0.3,32.9,17.2,64,39.4
		l56.1,39.2l-56.2-52.6c-31.4-27.9-61.1-50.2-67.4-49.1C2893.5-1969.4,2896-1949.8,2908.7-1950.5z M2920.1-1985.9l60.6,53.8
		l60.6,53.8l225.8-254.2l225.8-254.2l-32.9-29.2c-17.9-15.9-43.9-34.9-57.8-43.3l-25-15.5l-203.9,229.5
		c-112.2,126.3-214.9,235.8-229.2,244.5L2920.1-1985.9z M3387.3-2483.1c4.4,2.6,31.8,22.9,63.6,45.8l56.3,42l-57-53.3
		c-33.7-31.3-58.9-49.6-62.9-45.2C3383.4-2489.3,3383.6-2485,3387.3-2483.1z M3426.4-2492.5l41.9,37.2
		c22.4,19.9,43.9,36.4,47.5,36.9c12.7-0.8,388.9-431.7,382.1-437.7c-3.7-3.3-10-12.9-14.7-21.1c-7.1-13-17.3-4.6-77.9,60.6
		l-70.6,76.4l60.9-73c33-40.2,59.8-79.3,59.4-86.4c-0.6-9.9-5.5-8.9-14.9,0.2c-10.6,12-12,12-6.6-3.2c4.8-14.5,2.5-17.9-16.7-18.8
		c-30.6-3.1-163.2,126.5-154.8,150.1c3.5,11.1-4.9,25.1-27.6,47.7c-20.2,18.2-34.5,26.8-37,20.6c-1.8-7-5.1-1.8-8.6,11.1
		c-3.5,13-39.6,61.1-84.1,111.2L3426.4-2492.5z"/>
	<path d="M2132.2-1031.2c-0.3-4.2,26.5-31.3,58-60.8s53.3-44.9,48.2-36.1s-31.1,36.5-57.4,60.1
		C2154.1-1043.9,2133.1-1027.7,2132.2-1031.2z"/>
	<path d="M2435.1-1346.6c-4.5-4,6.5-22.3,24.5-41.1c26.6-28.5,30.1-30.8,22-11.2c-6.3,13.1-17.3,31.5-25.2,41.9
		C2449.3-1347.5,2438.9-1343.3,2435.1-1346.6z"/>
	<path d="M2996.6-1974.1c8.5-12.5,26.4-32.7,39.8-44.9c13.4-12.2,7-1.8-14.9,22.8C2999.6-1971.5,2988.1-1961.6,2996.6-1974.1z"/>
	<path d="M3319.3-2326.8c15.7-34.2,59.5-83.6,79.7-89.7c11.9-2.8,0.1,13.5-36.4,54.6C3325.3-2321.5,3312.5-2310.1,3319.3-2326.8z"/>
	<path d="M3087.6-2352.1c-6.2-20.2,29.2-81.1,63.5-112.1l37-32.6l-64-16.8c-35.3-10-85.3-16.9-111.5-17.5c-26.9,0.2-47.7-3.6-48-9.2
		c-0.3-4.2,14.5-17.9,33.6-30.3c47.2-29,136.8-33.6,177.2-9.8l32.3,19.3l-3.3-43c-1.3-33.2,3.5-49.1,24.1-72.3
		c29.9-33.6,35.6-32.6,33.1,9.4c-1.1,17.8,3.6,48.7,9.1,69.6c6.9,20.8,6.6,51.3,0.4,67.3c-7.6,16-9.5,31.7-6.5,34.4
		c9.7,8.6-3.3,63.9-22.6,97.7c-20.6,35.2-35.3,26.2-24.3-14.9l6.8-28.7l-30.8,18.1c-17.1,10.2-47,31.8-67.3,48.6
		C3107.1-2357.5,3088.6-2347.2,3087.6-2352.1z M3134.2-2415.1c-7.7,13.2-6.2,14.5,4.7,8.2c105-56.5,124.7-71.1,104-74.9
		c-6.5-1.7-16.1,3.1-22.1,9.8c-5.3,6-25.2,17.8-43.8,25.3C3157.6-2438.4,3138.6-2424.5,3134.2-2415.1z M3003.3-2555.4
		c19,10.2,215.4,48.2,219.3,42.3c9.2-11.9-12.8-36.8-32.6-35.6c-12,1.4-9.6,4.8,10.9,16.4c36,21.2,2.1,11.2-72.1-21.2
		c-42.2-18.8-64.4-22.4-92.2-13.7C3016.4-2562.5,3001.2-2555.9,3003.3-2555.4z M3225.8-2566.4l12.8,36.8l-4.1-33.1
		c-2.5-18.3-2.1-35.3,0.6-38.3c2-2.2,3.7-20.8,3.4-38.5l-1.3-34.6l-12.8,35.5C3217.2-2616.9,3217.4-2588.6,3225.8-2566.4z"/>
</g>
</svg>
