<?xml version="1.0" encoding="utf-8"?>
<!-- Generator: Adobe Illustrator 23.0.2, SVG Export Plug-In . SVG Version: 6.00 Build 0)  -->
<svg version="1.1" id="Layer_1" xmlns="http://www.w3.org/2000/svg" xmlns:xlink="http://www.w3.org/1999/xlink" x="0px" y="0px"
	 viewBox="0 0 900 900" style="enable-background:new 0 0 900 900;" xml:space="preserve">
<g transform="translate(0.000000,900.000000) scale(0.100000,-0.100000)">
	<path d="M3764,3071c-6-37-4-40,26-56c26-13,38-15,57-6c37,17,56,13,86-15c40-37,57-18,28,29c-11,19-21,37-21,40c0,2,36,29,80,58
		c44,30,80,57,80,61s20,51,45,104c25,52,45,102,45,109c0,20,36,37,60,30c22-7,22-7,44-165c35-263,40-336,27-397c-7-32-19-68-27-80
		s-14-31-14-41s-7-27-15-38c-8-10-15-24-15-31c0-6-17-49-39-95c-93-200-100-234-48-251c45-15,73-2,96,46c12,24,21,47,21,52
		c0,6,13,37,29,70c34,68,91,206,91,217c0,4,12,32,26,62c30,64,45,71,174,81c47,4,93,9,102,11c18,5,37-28,68-116
		c70-201,137-343,186-394c37-38,53-43,85-26c33,18,23,66-40,189c-32,64-73,159-91,211s-43,124-57,160c-23,59-27,86-36,302
		c-11,251-9,268,34,268c29,0,209-187,209-217c0-22,38-43,77-43c34,0,42,4,47,23c13,52-29,127-129,236c-30,32-55,65-55,74
		c0,8,17,26,38,40c20,13,66,53,102,88c150,146,220,274,261,479c23,116,24,180,3,285c-22,113-30,137-85,250c-93,194-306,381-509,449
		c-128,43-312,62-440,46c-129-16-199-38-336-106c-129-65-338-281-390-404c-47-110-84-274-84-371c0-61,30-223,53-285
		c45-123,91-197,186-296c98-103,172-165,235-195c20-9,36-24,37-32c3-39-5-68-33-125c-16-34-35-72-42-86c-6-14-21-29-32-35
		c-10-5-34-20-51-32c-31-23-63-30-63-14 M4654,5039c137-36,231-75,277-115c8-8,20-14,26-14c20,0,180-165,214-220
		c69-111,93-178,114-313c14-89,14-107-1-190c-8-51-23-110-31-132c-34-87-78-172-107-207c-17-20-39-48-49-62c-26-37-142-128-212-166
		c-33-17-100-45-150-61c-83-27-100-29-245-29s-162,2-245,29c-154,51-242,107-354,228c-108,116-165,231-197,399c-17,88-17,96,1,195
		c33,194,84,298,204,422c119,124,217,178,421,235C4368,5052,4604,5052,4654,5039z M4687,3280c6-69,12-160,12-203c1-74,0-78-25-87
		c-14-6-66-10-115-10h-90l-14,33c-7,18-18,82-24,143c-5,60-15,132-21,158c-16,72-9,84,53,89c29,2,88,3,132,3l80-1L4687,3280z"/>
	<path d="M4174,4396c-8-20,9-42,45-59c34-16,38-43,10-73c-17-18-24-40-27-83c-4-54-2-60,28-94c41-47,95-65,149-48
		c47,14,99,62,107,99c3,15,12,40,21,55c13,25,13,30-1,51c-8,13-37,34-63,46c-26,13-80,42-119,66C4241,4406,4184,4421,4174,4396z"/>
	<path d="M5045,4347c-16-5-39-16-50-23c-11-8-27-14-37-14c-9,0-32-6-50-14s-59-25-90-37s-60-29-63-37s3-38,14-66s24-64,30-81
		c15-38,61-65,115-65c35,0,48,6,79,38s37,45,37,81c0,24-7,58-16,77c-16,32-15,36,1,54c10,11,28,20,40,20c23,0,55,28,55,48
		S5077,4358,5045,4347z"/>
	<path d="M4491,3841c-32-20-2-37,87-49c49-7,102-12,119-12c30,0,53,15,53,36C4750,3839,4523,3861,4491,3841z"/>
</g>
<g transform="translate(0.000000,900.000000) scale(0.100000,-0.100000)">
	<path d="M-5876.4,3093.7c-6-37-4-40,26-56c26-13,38-15,57-6c37,17,56,13,86-15c40-37,57-18,28,29c-11,19-21,37-21,40
		c0,2,36,29,80,58c44,30,80,57,80,61s20,51,45,104c25,52,45,102,45,109c0,20,36,37,60,30c22-7,22-7,44-165c35-263,40-336,27-397
		c-7-32-19-68-27-80s-14-31-14-41s-7-27-15-38c-8-10-15-24-15-31c0-6-17-49-39-95c-93-200-100-234-48-251c45-15,73-2,96,46
		c12,24,21,47,21,52c0,6,13,37,29,70c34,68,91,206,91,217c0,4,12,32,26,62c30,64,45,71,174,81c47,4,93,9,102,11c18,5,37-28,68-116
		c70-201,137-343,186-394c37-38,53-43,85-26c33,18,23,66-40,189c-32,64-73,159-91,211s-43,124-57,160c-23,59-27,86-36,302
		c-11,251-9,268,34,268c29,0,209-187,209-217c0-22,38-43,77-43c34,0,42,4,47,23c13,52-29,127-129,236c-30,32-55,65-55,74
		c0,8,17,26,38,40c20,13,66,53,102,88c150,146,220,274,261,479c23,116,24,180,3,285c-22,113-30,137-85,250c-93,194-306,381-509,449
		c-128,43-312,62-440,46c-129-16-199-38-336-106c-129-65-338-281-390-404c-47-110-84-274-84-371c0-61,30-223,53-285
		c45-123,91-197,186-296c98-103,172-165,235-195c20-9,36-24,37-32c3-39-5-68-33-125c-16-34-35-72-42-86c-6-14-21-29-32-35
		c-10-5-34-20-51-32c-31-23-63-30-63-14 M-4986.4,5061.7c137-36,231-75,277-115c8-8,20-14,26-14c20,0,180-165,214-220
		c69-111,93-178,114-313c14-89,14-107-1-190c-8-51-23-110-31-132c-34-87-78-172-107-207c-17-20-39-48-49-62c-26-37-142-128-212-166
		c-33-17-100-45-150-61c-83-27-100-29-245-29s-162,2-245,29c-154,51-242,107-354,228c-108,116-165,231-197,399c-17,88-17,96,1,195
		c33,194,84,298,204,422c119,124,217,178,421,235C-5272.4,5074.7-5036.4,5074.7-4986.4,5061.7z M-4953.4,3302.7c6-69,12-160,12-203
		c1-74,0-78-25-87c-14-6-66-10-115-10h-90l-14,33c-7,18-18,82-24,143c-5,60-15,132-21,158c-16,72-9,84,53,89c29,2,88,3,132,3l80-1
		L-4953.4,3302.7z"/>
	<path d="M-5466.4,4418.7c-8-20,9-42,45-59c34-16,38-43,10-73c-17-18-24-40-27-83c-4-54-2-60,28-94c41-47,95-65,149-48
		c47,14,99,62,107,99c3,15,12,40,21,55c13,25,13,30-1,51c-8,13-37,34-63,46c-26,13-80,42-119,66
		C-5399.4,4428.7-5456.4,4443.7-5466.4,4418.7z"/>
	<path d="M-4595.4,4369.7c-16-5-39-16-50-23c-11-8-27-14-37-14c-9,0-32-6-50-14s-59-25-90-37s-60-29-63-37s3-38,14-66s24-64,30-81
		c15-38,61-65,115-65c35,0,48,6,79,38s37,45,37,81c0,24-7,58-16,77c-16,32-15,36,1,54c10,11,28,20,40,20c23,0,55,28,55,48
		S-4563.4,4380.7-4595.4,4369.7z"/>
	<path d="M-5149.4,3863.7c-32-20-2-37,87-49c49-7,102-12,119-12c30,0,53,15,53,36C-4890.4,3861.7-5117.4,3883.7-5149.4,3863.7z"/>
</g>
<g transform="translate(0.000000,300.000000) scale(0.100000,-0.100000)">
	<path d="M-7616.4-1200.5c-2.9-22.6,11.8-37.5,356.6-371.7c197.7-191.2,387.7-376.1,421.4-410.2c61.2-61.8,61.2-61.8,33.6-62.4
		c-15.6,0.1-57.9,15.9-94.6,33c-64.9,32.9-66.3,32.9-55.8,5.2c7-21.2,16.8-31.2,40.8-42.6c38.1-18.6,44.4-25,34.5-34.8
		c-3.6-3.5-7.8-3.5-9.2,2.2c-1.4,4.3-21.9,3.7-46-3.3c-38.9-10.4-42.5-12.5-31.2-23.9c23.2-23.5,72.7-16.6,104.7,15
		c22.7,22.5,37.6,28.8,68,27.9l37.5-0.9l244.1-236.7l244.1-236.7l-36.1-1.9c-64.4-1.8-65.9-20.2-2.9-21.2l60.1-1l213.2-206.9
		c184.3-179.2,215.3-206.2,230.2-201.3c34,11.1,75.2,44.9,94.5,79.4l21.4,35.2l-701.3,704.4c-692.9,694.5-701.3,703-702.6,732.7
		c-0.6,16.3,5.9,46.6,14.5,66.4c16.5,38.8,12.3,58.6-7.6,38.9c-9.2-9.1-12-4.9-17.5,26.3c-6.8,46.7-21.7,47.5-28.3,1.6
		c-4.4-25.4-9.4-34.6-17.8-30.3c-23.3,9.3-8.6-31.1,17.4-48.9c23.2-16.4,33.7-45.4,20.9-58.1c-3.6-3.5-93.6,81.8-199.8,189.1
		c-175.8,177.7-194.9,194.1-212.6,189.2C-7559.8-1055.8-7608.3-1134.8-7616.4-1200.5z M-7541.6-1078.5l24.2,23.9l180.8-179.8
		c99.2-98.8,185.7-184.8,192-191.2c14.1-12.8-17.4-79.1-57.2-118.5l-24.9-24.6l-186.4,188.4c-144.2,145.7-184.3,190.5-177.9,196.8
		c5,4.9,6.4,12,2.9,15.5c-3.5,3.6,0.1,19.8,8,36C-7571.4-1115.1-7554.3-1091.2-7541.6-1078.5z M-7115-1454.1
		c-0.1-19.8-45.7-91.7-74.9-119.1c-19.2-17.6-17.7-11.9,8.6,29.7C-7120.6-1447-7114.2-1439.3-7115-1454.1z M-7110.2-1487.4
		c11.4,18.3,13.5,16.2,238.6-207l227.9-226.1l-21.3-21.1c-11.4-11.3-32-27.4-45.4-36.5c-23.4-16.1-25.5-15.4-57.9,22.9
		c-19.7,21.3-34.5,34.8-34.5,30.6c-0.7-4.9,11.9-22,26-37.6c14.8-14.9,27.4-32,28.8-36.2c4.9-16.3-27-19.7-41.7-4.7
		c-12,12.1-11.2,14.2,2.9,11.3c12-2.2-47.1,61.8-189.9,203.2c-114,112.3-205.4,207.6-202.5,210.4c2.8,2.8,18.4-5.8,33.8-18.6
		l29.6-24.2l-24.6,26.3c-22.5,25.6-22.5,29.8-2.5,58C-7130.2-1519.8-7115.9-1497.2-7110.2-1487.4z M-6752.4-2022.4
		c4.2,0,31.9,18.9,61.7,42.8l54,42.1l-53.3-55.6c-29.9-29.5-58.3-53.4-64.6-52.7C-6766.6-2042.1-6765.1-2022.4-6752.4-2022.4z
		 M-6739.1-2057.1l57.6,57l57.6,57l239.2-241.7l239.2-241.7l-31.3-30.9c-17.1-16.9-41.9-37.3-55.4-46.4l-24.1-16.8l-216.1,218.1
		c-118.9,120.1-227.2,223.9-242,231.8L-6739.1-2057.1z M-6245.9-2528.5c4.3,2.8,30.5,24.6,61.1,49.2l54,45l-54-56.3
		c-32-33.1-56.1-52.7-60.4-48.5C-6249.5-2534.9-6249.5-2530.6-6245.9-2528.5z M-6206.4-2535.8l39.8,39.4
		c21.3,21.1,41.9,38.7,45.5,39.4c12.7-0.1,411.5-410.2,405.1-416.5c-3.6-3.5-9.3-13.4-13.5-21.8c-6.4-13.4-17-5.6-81,56.3
		l-74.6,72.5l64.7-69.6c35.2-38.4,63.9-76,63.9-83.1c-0.1-9.9-5-9.2-14.9-0.6c-11.3,11.4-12.7,11.4-6.4-3.5
		c5.6-14.2,3.4-17.7-15.7-19.7c-30.4-4.8-169.8,117.6-162.6,141.6c2.9,11.3-6.2,24.8-30.2,46.1c-21.1,17.1-35.9,24.9-38.1,18.6
		c-1.5-7.1-5-2.1-9.1,10.7s-42.8,58.9-90,106.5L-6206.4-2535.8z"/>
	<path d="M-7577.3-1146.2c0-4.2,28.1-29.8,61.2-57.6c33.1-27.8,55.6-42,50-33.5s-33.1,34.8-60.5,56.9
		C-7554.7-1157.7-7576.5-1142.7-7577.3-1146.2z"/>
	<path d="M-7257.8-1444.9c-4.3-4.2,7.7-22,26.7-39.7c28.1-27,31.7-29.2,22.6-10c-7,12.8-18.9,30.5-27.4,40.4
		C-7243.7-1445-7254.2-1441.4-7257.8-1444.9z"/>
	<path d="M-6663.4-2041.3c9.1-12.1,28.1-31.3,42.2-42.6c14.1-11.4,7.1-1.5-16.1,22C-6660.6-2038.5-6672.5-2029.2-6663.4-2041.3z"/>
	<path d="M-6322.2-2376.1c17.5-33.3,63.9-80.2,84.4-85.3c12-2.2-0.6,13.4-39.3,52.5C-6316.5-2370.5-6329.9-2359.8-6322.2-2376.1z"/>
	<path d="M-6552.2-2413.8c-5.1-20.5,33.5-79.4,69.4-108.6l38.7-30.6l-63-20.2c-34.7-11.8-84.3-21.5-110.4-23.5
		c-26.9-1.3-47.4-6.1-47.4-11.8c0-4.2,15.5-17.1,35.2-28.5c48.7-26.4,138.5-26.2,177.5-0.2l31.2,21.1l-0.9-43.1
		c0.5-33.2,6.1-48.8,27.9-70.9c31.7-32,37.3-30.6,32.6,11.1c-2,17.7,1,48.8,5.3,70c5.8,21.2,3.8,51.6-3.2,67.2
		c-8.4,15.6-11.2,31.2-8.3,34c9.2,9.1-6.7,63.7-27.8,96.3c-22.4,34.1-36.6,24.2-23.4-16.1l8.3-28.3l-31.7,16.4
		c-17.6,9.3-48.6,29.2-69.8,44.9C-6532.4-2418.1-6551.5-2408.8-6552.2-2413.8z M-6502.3-2474.2c-8.4,12.8-7,14.2,4.3,8.5
		c107.9-50.8,128.4-64.3,107.8-69.2c-6.4-2.1-16.3,2.2-22.6,8.6c-5.6,5.7-26.1,16.4-45.1,22.9
		C-6477.7-2496.2-6497.4-2483.4-6502.3-2474.2z M-6625.4-2621.3c18.4,11.2,212.4,59.7,216.7,54c9.8-11.4-10.8-37.4-30.6-37.3
		c-12,0.8-9.9,4.3,10,16.9c34.8,23.2,1.5,11.3-70.8-25.1c-41.1-21-63.1-25.8-91.3-18.6C-6612-2627.7-6627.6-2622-6625.4-2621.3z
		 M-6402.7-2620.3l10.8,37.4l-2.3-33.2c-1.5-18.4-0.2-35.4,2.6-38.2c2.1-2.1,4.8-20.5,5.5-38.2l0.5-34.7l-14.7,34.7
		C-6408.6-2671.2-6409.9-2642.9-6402.7-2620.3z"/>
</g>
<g transform="translate(0.000000,300.000000) scale(0.100000,-0.100000)">
	<path d="M1973.8-1200.5c-2.9-22.6,11.8-37.5,356.6-371.7c197.7-191.2,387.7-376.1,421.4-410.2c61.2-61.8,61.2-61.8,33.6-62.4
		c-15.6,0.1-57.9,15.9-94.6,33c-64.9,32.9-66.3,32.9-55.8,5.2c7-21.2,16.8-31.2,40.8-42.6c38.1-18.6,44.4-25,34.5-34.8
		c-3.6-3.5-7.8-3.5-9.2,2.2c-1.4,4.3-21.9,3.7-46-3.3c-38.9-10.4-42.5-12.5-31.2-23.9c23.2-23.5,72.7-16.6,104.7,15
		c22.7,22.5,37.6,28.8,68,27.9l37.5-0.9l244.1-236.7l244.1-236.7l-36.1-1.9c-64.4-1.8-65.9-20.2-2.9-21.2l60.1-1l213.2-206.9
		c184.3-179.2,215.3-206.2,230.2-201.3c34,11.1,75.2,44.9,94.5,79.4l21.4,35.2l-701.3,704.4c-692.9,694.5-701.3,703-702.6,732.7
		c-0.6,16.3,5.9,46.6,14.5,66.4c16.5,38.8,12.3,58.6-7.6,38.9c-9.2-9.1-12-4.9-17.5,26.3c-6.8,46.7-21.7,47.5-28.3,1.6
		c-4.4-25.4-9.4-34.6-17.8-30.3c-23.3,9.3-8.6-31.1,17.4-48.9c23.2-16.4,33.7-45.4,20.9-58.1c-3.6-3.5-93.6,81.8-199.8,189.1
		c-175.8,177.7-194.9,194.1-212.6,189.2C2030.4-1055.8,1981.9-1134.8,1973.8-1200.5z M2048.6-1078.5l24.2,23.9l180.8-179.8
		c99.2-98.8,185.7-184.8,192-191.2c14.1-12.8-17.4-79.1-57.2-118.5l-24.9-24.6l-186.4,188.4c-144.2,145.7-184.3,190.5-177.9,196.8
		c5,4.9,6.4,12,2.9,15.5c-3.5,3.6,0.1,19.8,8,36C2018.8-1115.1,2035.9-1091.2,2048.6-1078.5z M2475.2-1454.1
		c-0.1-19.8-45.7-91.7-74.9-119.1c-19.2-17.6-17.7-11.9,8.6,29.7C2469.6-1447,2476-1439.3,2475.2-1454.1z M2480-1487.4
		c11.4,18.3,13.5,16.2,238.6-207l227.9-226.1l-21.3-21.1c-11.4-11.3-32-27.4-45.4-36.5c-23.4-16.1-25.5-15.4-57.9,22.9
		c-19.7,21.3-34.5,34.8-34.5,30.6c-0.7-4.9,11.9-22,26-37.6c14.8-14.9,27.4-32,28.8-36.2c4.9-16.3-27-19.7-41.7-4.7
		c-12,12.1-11.2,14.2,2.9,11.3c12-2.2-47.1,61.8-189.9,203.2c-114,112.3-205.4,207.6-202.5,210.4c2.8,2.8,18.4-5.8,33.8-18.6
		l29.6-24.2l-24.6,26.3c-22.5,25.6-22.5,29.8-2.5,58C2460-1519.8,2474.3-1497.2,2480-1487.4z M2837.8-2022.4
		c4.2,0,31.9,18.9,61.7,42.8l54,42.1l-53.3-55.6c-29.9-29.5-58.3-53.4-64.6-52.7C2823.6-2042.1,2825.1-2022.4,2837.8-2022.4z
		 M2851.1-2057.1l57.6,57l57.6,57l239.2-241.7l239.2-241.7l-31.3-30.9c-17.1-16.9-41.9-37.3-55.4-46.4l-24.1-16.8l-216.1,218.1
		c-118.9,120.1-227.2,223.9-242,231.8L2851.1-2057.1z M3344.3-2528.5c4.3,2.8,30.5,24.6,61.1,49.2l54,45l-54-56.3
		c-32-33.1-56.1-52.7-60.4-48.5C3340.7-2534.9,3340.7-2530.6,3344.3-2528.5z M3383.8-2535.8l39.8,39.4
		c21.3,21.1,41.9,38.7,45.5,39.4c12.7-0.1,411.5-410.2,405.1-416.5c-3.6-3.5-9.3-13.4-13.5-21.8c-6.4-13.4-17-5.6-81,56.3
		l-74.6,72.5l64.7-69.6c35.2-38.4,63.9-76,63.9-83.1c-0.1-9.9-5-9.2-14.9-0.6c-11.3,11.4-12.7,11.4-6.4-3.5
		c5.6-14.2,3.4-17.7-15.7-19.7c-30.4-4.8-169.8,117.6-162.6,141.6c2.9,11.3-6.2,24.8-30.2,46.1c-21.1,17.1-35.9,24.9-38.1,18.6
		c-1.5-7.1-5-2.1-9.1,10.7s-42.8,58.9-90,106.5L3383.8-2535.8z"/>
	<path d="M2012.9-1146.2c0-4.2,28.1-29.8,61.2-57.6c33.1-27.8,55.6-42,50-33.5s-33.1,34.8-60.5,56.9
		C2035.5-1157.7,2013.7-1142.7,2012.9-1146.2z"/>
	<path d="M2332.4-1444.9c-4.3-4.2,7.7-22,26.7-39.7c28.1-27,31.7-29.2,22.6-10c-7,12.8-18.9,30.5-27.4,40.4
		C2346.5-1445,2336-1441.4,2332.4-1444.9z"/>
	<path d="M2926.8-2041.3c9.1-12.1,28.1-31.3,42.2-42.6c14.1-11.4,7.1-1.5-16.1,22C2929.6-2038.5,2917.7-2029.2,2926.8-2041.3z"/>
	<path d="M3268-2376.1c17.5-33.3,63.9-80.2,84.4-85.3c12-2.2-0.6,13.4-39.3,52.5C3273.7-2370.5,3260.3-2359.8,3268-2376.1z"/>
	<path d="M3038-2413.8c-5.1-20.5,33.5-79.4,69.4-108.6l38.7-30.6l-63-20.2c-34.7-11.8-84.3-21.5-110.4-23.5
		c-26.9-1.3-47.4-6.1-47.4-11.8c0-4.2,15.5-17.1,35.2-28.5c48.7-26.4,138.5-26.2,177.5-0.2l31.2,21.1l-0.9-43.1
		c0.5-33.2,6.1-48.8,27.9-70.9c31.7-32,37.3-30.6,32.6,11.1c-2,17.7,1,48.8,5.3,70c5.8,21.2,3.8,51.6-3.2,67.2
		c-8.4,15.6-11.2,31.2-8.3,34c9.2,9.1-6.7,63.7-27.8,96.3c-22.4,34.1-36.6,24.2-23.4-16.1l8.3-28.3l-31.7,16.4
		c-17.6,9.3-48.6,29.2-69.8,44.9C3057.8-2418.1,3038.7-2408.8,3038-2413.8z M3087.9-2474.2c-8.4,12.8-7,14.2,4.3,8.5
		c107.9-50.8,128.4-64.3,107.8-69.2c-6.4-2.1-16.3,2.2-22.6,8.6c-5.6,5.7-26.1,16.4-45.1,22.9
		C3112.5-2496.2,3092.8-2483.4,3087.9-2474.2z M2964.8-2621.3c18.4,11.2,212.4,59.7,216.7,54c9.8-11.4-10.8-37.4-30.6-37.3
		c-12,0.8-9.9,4.3,10,16.9c34.8,23.2,1.5,11.3-70.8-25.1c-41.1-21-63.1-25.8-91.3-18.6C2978.2-2627.7,2962.6-2622,2964.8-2621.3z
		 M3187.5-2620.3l10.8,37.4l-2.3-33.2c-1.5-18.4-0.2-35.4,2.6-38.2c2.1-2.1,4.8-20.5,5.5-38.2l0.5-34.7l-14.7,34.7
		C3181.6-2671.2,3180.3-2642.9,3187.5-2620.3z"/>
</g>
</svg>
