<?xml version="1.0" encoding="utf-8"?>
<!-- Generator: Adobe Illustrator 23.0.2, SVG Export Plug-In . SVG Version: 6.00 Build 0)  -->
<svg version="1.1" id="Layer_1" xmlns="http://www.w3.org/2000/svg" xmlns:xlink="http://www.w3.org/1999/xlink" x="0px" y="0px"
	 viewBox="0 0 900 900" style="enable-background:new 0 0 900 900;" xml:space="preserve">
<g transform="translate(0.000000,900.000000) scale(0.100000,-0.100000)">
	<path d="M3734,3080c3,0,6-17,6-38c0-28,7-45,25-62c25-23,25-23,65-5l40,18l26-27c33-32,49-34,39-3c-20,63-18,72,17,88
		c57,28,137,98,156,137c10,20,29,72,42,115c20,64,28,77,46,77s22-10,37-92c22-127,39-257,44-354l5-81l-46-76c-30-50-51-99-61-144
		c-38-181-47-231-43-263c2-29,8-36,36-44c61-17,75-1,95,110c28,156,36,186,62,234c14,25,32,61,41,81s27,42,41,48c13,6,76,11,139,11
		h115l14-34c8-18,19-63,25-100c6-36,16-78,23-93c17-38,235-252,264-259c42-11,73,11,73,49c0,29-14,48-114,150
		c-96,97-116,123-121,154c-3,21-12,72-20,113c-26,138-36,234-42,427l-6,192l39,17c21,9,47,20,56,25c10,5,25,9,34,9
		c42,0,196-148,253-243c27-44,60-61,95-47c33,12,36,20,26,64c-11,51-50,105-147,207c-46,47-83,92-83,100s45,63,100,123
		c85,92,108,125,150,212c28,56,50,110,50,118s7,41,15,73c10,36,15,104,15,187c0,157-18,233-91,382c-39,81-67,120-131,188
		c-174,186-332,271-563,302c-119,16-171,15-285,0c-83-12-132-25-198-52c-18-8-37-14-43-14s-31-13-56-30c-24-16-46-30-49-30
		c-14,0-100-67-157-123c-87-84-139-152-184-245c-123-246-119-519,9-780c34-68,63-107,142-189c92-97,201-182,254-197
		c36-12,43-37,26-97c-40-142-40-142-89-174 M4550,5006c193-24,358-111,496-260c41-44,74-84,74-87c0-4,12-28,27-55
		c90-158,115-349,72-531c-25-104-58-178-115-253c-36-47-141-152-185-185c-35-26-117-75-125-75c-5,0-43-14-84-32l-75-32l-185-1
		c-210,0-245,7-400,86c-119,61-261,201-320,314c-70,134-80,177-80,360c0,137,3,169,21,219c25,73,97,211,116,225c5,3,23,25,42,49
		c97,124,306,233,496,258C4443,5021,4430,5021,4550,5006z M4619,3371c20-13,30-418,10-426c-8-2-61-6-119-7l-105-3l-12,85
		c-11,77-31,247-36,310c-2,24,0,25,93,36C4575,3381,4602,3381,4619,3371z"/>
	<path d="M4167,4393c-18-17-4-43,33-64c22-13,40-26,40-31s-11-26-25-48c-18-28-25-54-25-88c0-42,5-54,35-86c44-47,90-61,147-45
		c55,14,73,34,98,108c33,99,31,105-52,146c-39,20-83,44-97,54C4251,4387,4184,4410,4167,4393z"/>
	<path d="M5000,4323c-71-31-96-41-145-58c-104-36-125-48-125-72c0-12,9-27,19-33c13-6,24-30,32-65c13-59,27-73,91-94
		c45-15,79,0,127,54c38,43,40,78,6,127c-13,20-26,41-27,47c-2,7,21,21,51,31c68,25,76,32,62,59C5077,4344,5049,4345,5000,4323z"/>
	<path d="M4460,3815c0-24,30-33,137-40c111-8,153-3,153,20c0,27-38,35-164,35C4482,3830,4460,3827,4460,3815z"/>
</g>
<g transform="translate(0.000000,900.000000) scale(0.100000,-0.100000)">
	<path d="M-5754.8,3110.3c3,0,6-17,6-38c0-28,7-45,25-62c25-23,25-23,65-5l40,18l26-27c33-32,49-34,39-3c-20,63-18,72,17,88
		c57,28,137,98,156,137c10,20,29,72,42,115c20,64,28,77,46,77s22-10,37-92c22-127,39-257,44-354l5-81l-46-76c-30-50-51-99-61-144
		c-38-181-47-231-43-263c2-29,8-36,36-44c61-17,75-1,95,110c28,156,36,186,62,234c14,25,32,61,41,81s27,42,41,48c13,6,76,11,139,11
		h115l14-34c8-18,19-63,25-100c6-36,16-78,23-93c17-38,235-252,264-259c42-11,73,11,73,49c0,29-14,48-114,150
		c-96,97-116,123-121,154c-3,21-12,72-20,113c-26,138-36,234-42,427l-6,192l39,17c21,9,47,20,56,25c10,5,25,9,34,9
		c42,0,196-148,253-243c27-44,60-61,95-47c33,12,36,20,26,64c-11,51-50,105-147,207c-46,47-83,92-83,100s45,63,100,123
		c85,92,108,125,150,212c28,56,50,110,50,118s7,41,15,73c10,36,15,104,15,187c0,157-18,233-91,382c-39,81-67,120-131,188
		c-174,186-332,271-563,302c-119,16-171,15-285,0c-83-12-132-25-198-52c-18-8-37-14-43-14s-31-13-56-30c-24-16-46-30-49-30
		c-14,0-100-67-157-123c-87-84-139-152-184-245c-123-246-119-519,9-780c34-68,63-107,142-189c92-97,201-182,254-197
		c36-12,43-37,26-97c-40-142-40-142-89-174 M-4938.8,5036.3c193-24,358-111,496-260c41-44,74-84,74-87c0-4,12-28,27-55
		c90-158,115-349,72-531c-25-104-58-178-115-253c-36-47-141-152-185-185c-35-26-117-75-125-75c-5,0-43-14-84-32l-75-32l-185-1
		c-210,0-245,7-400,86c-119,61-261,201-320,314c-70,134-80,177-80,360c0,137,3,169,21,219c25,73,97,211,116,225c5,3,23,25,42,49
		c97,124,306,233,496,258C-5045.8,5051.3-5058.8,5051.3-4938.8,5036.3z M-4869.8,3401.3c20-13,30-418,10-426c-8-2-61-6-119-7l-105-3
		l-12,85c-11,77-31,247-36,310c-2,24,0,25,93,36C-4913.8,3411.3-4886.8,3411.3-4869.8,3401.3z"/>
	<path d="M-5321.8,4423.3c-18-17-4-43,33-64c22-13,40-26,40-31s-11-26-25-48c-18-28-25-54-25-88c0-42,5-54,35-86c44-47,90-61,147-45
		c55,14,73,34,98,108c33,99,31,105-52,146c-39,20-83,44-97,54C-5237.8,4417.3-5304.8,4440.3-5321.8,4423.3z"/>
	<path d="M-4488.8,4353.3c-71-31-96-41-145-58c-104-36-125-48-125-72c0-12,9-27,19-33c13-6,24-30,32-65c13-59,27-73,91-94
		c45-15,79,0,127,54c38,43,40,78,6,127c-13,20-26,41-27,47c-2,7,21,21,51,31c68,25,76,32,62,59
		C-4411.8,4374.3-4439.8,4375.3-4488.8,4353.3z"/>
	<path d="M-5028.8,3845.3c0-24,30-33,137-40c111-8,153-3,153,20c0,27-38,35-164,35C-5006.8,3860.3-5028.8,3857.3-5028.8,3845.3z"/>
</g>
<g transform="translate(0.000000,300.000000) scale(0.100000,-0.100000)">
	<path d="M-7397.7-1129.6c-4.1-22.4,9.9-38.1,337.5-389c187.9-200.9,368.4-395,400.4-430.8c58-64.8,58-64.8,30.5-64
		c-15.5,0.9-57,18.7-92.8,37.7c-63.2,36.1-64.6,36.1-55.5,8c5.9-21.6,15.2-32,38.6-44.6c37.1-20.5,43.1-27.2,32.7-36.5
		c-3.7-3.3-8-3.1-9.1,2.6c-1.2,4.3-21.7,4.7-46.1-1c-39.4-8.4-43.1-10.4-32.4-22.3c22-24.6,71.8-20.3,105.4,9.8
		c23.8,21.3,39,26.9,69.3,24.5l37.4-2.8l232-248.7l232-248.7l-36.1-0.1c-64.4,1.4-66.8-16.8-4-21l60-4l202.6-217.3
		c175.1-188.1,204.7-216.7,219.8-212.6c34.5,9.4,77.3,41,98.3,74.6l23.1,34.1l-665.2,738.6c-657.3,728.2-665.3,737.2-665.1,766.9
		c0.2,16.3,8.2,46.3,17.8,65.6c18.4,37.9,15.2,57.9-5.6,39.3c-9.7-8.7-12.3-4.3-16.2,27.1c-4.5,47-19.3,48.5-28.2,3
		c-5.6-25.2-11.1-34.1-19.3-29.4c-22.8,10.5-10.2-30.6,15-49.7c22.4-17.5,31.4-47.1,18-59.1c-3.7-3.3-89.4,86.4-190.1,198.9
		c-166.7,186.3-184.9,203.6-202.8,199.6C-7333.9-987.9-7386.3-1064.3-7397.7-1129.6z M-7316.8-1011.5l25.3,22.7l171.6-188.7
		c94.1-103.6,176.2-193.9,182.2-200.6c13.4-13.5-21.3-78.1-63-115.5l-26.1-23.3l-176.8,197.4c-136.7,152.7-174.5,199.4-167.8,205.4
		c5.2,4.7,7,11.7,3.7,15.4c-3.3,3.7,1.1,19.8,9.8,35.6C-7348.5-1046.6-7330.2-1023.5-7316.8-1011.5z M-6909.6-1408
		c-1.1-19.8-50.3-89.3-80.7-115.2c-20-16.6-18.3-11,10.1,29.2C-6914.8-1400.6-6908.1-1393.2-6909.6-1408z M-6906.5-1441.4
		c12.3,17.7,14.3,15.5,228-218.7l216.3-237.2l-22.4-20c-11.9-10.7-33.3-25.8-47.2-34.2c-24.2-15-26.3-14.1-56.6,25.8
		c-18.6,22.3-32.7,36.5-32.9,32.3c-1-4.9,10.8-22.6,24.1-38.9c14-15.6,25.8-33.3,27-37.6c4-16.5-27.9-18.3-41.9-2.6
		c-11.3,12.7-10.5,14.7,3.4,11.1c11.9-2.8-43.9,64-179.5,212.5c-108.2,117.9-194.8,217.6-191.8,220.2s18-6.7,32.9-20.2l28.3-25.6
		l-23.3,27.5c-21.2,26.7-21,30.9,0.4,58.1C-6928-1472.8-6912.7-1451-6906.5-1441.4z M-6575.8-1993.7c4.2-0.2,32.8,17.3,63.8,39.7
		l56,39.4l-56-52.8c-31.3-28-60.9-50.5-67.2-49.4C-6591.1-2012.7-6588.6-1993-6575.8-1993.7z M-6564.3-2029l60.4,54l60.4,54
		l226.8-253.3l226.8-253.3l-32.8-29.3c-17.9-16-43.7-35.1-57.6-43.6l-24.9-15.6l-204.8,228.7c-112.7,125.9-215.7,235-230.1,243.6
		L-6564.3-2029z M-6095.3-2524.5c4.4,2.6,31.7,23,63.5,46.1l56.2,42.2l-56.8-53.5c-33.6-31.4-58.7-49.9-62.7-45.4
		S-6099-2526.4-6095.3-2524.5z M-6056.2-2533.7l41.7,37.4c22.4,20,43.8,36.5,47.4,37c12.7-0.7,390.5-430.2,383.8-436.2
		c-3.7-3.3-9.9-12.9-14.6-21.1c-7.1-13.1-17.3-4.7-78.1,60.3l-70.9,76.2l61.1-72.8c33.2-40.1,60.1-79.1,59.7-86.2
		c-0.5-9.9-5.4-8.9-14.9,0.1c-10.7,11.9-12.1,12-6.5-3.2c4.9-14.4,2.6-17.8-16.6-18.9c-30.6-3.3-163.7,125.9-155.3,149.5
		c3.4,11.1-5,25.1-27.8,47.6c-20.2,18.1-34.6,26.7-37.1,20.5c-1.8-7-5.1-1.8-8.6,11.1c-3.5,12.9-39.8,61-84.5,110.9L-6056.2-2533.7z
		"/>
	<path d="M-7355.9-1077.3c-0.2-4.2,26.6-31.2,58.3-60.6c31.7-29.4,53.5-44.7,48.3-36c-5.2,8.8-31.3,36.4-57.6,59.8
		C-7333.9-1089.9-7355-1073.9-7355.9-1077.3z"/>
	<path d="M-7051.7-1391.6c-4.5-4,6.6-22.3,24.6-41c26.8-28.4,30.2-30.7,22-11.1c-6.4,13.1-17.4,31.4-25.3,41.8
		C-7037.6-1392.4-7048-1388.3-7051.7-1391.6z"/>
	<path d="M-6487.9-2016.9c8.5-12.5,26.5-32.6,40-44.7s7-1.8-15,22.8C-6484.9-2014.3-6496.4-2004.4-6487.9-2016.9z"/>
	<path d="M-6163.9-2368.4c15.8-34.2,59.8-83.3,80-89.4c11.9-2.8,0,13.5-36.6,54.4C-6157.9-2363.1-6170.7-2351.8-6163.9-2368.4z"/>
	<path d="M-6395.5-2394.6c-6.1-20.2,29.5-80.9,63.9-111.9l37.2-32.5l-64-17c-35.3-10.1-85.2-17.2-111.5-17.9
		c-26.9,0.1-47.7-3.7-48-9.4c-0.2-4.2,14.6-17.8,33.7-30.2c47.3-28.8,137-33.1,177.3-9.1l32.2,19.5l-3.1-43
		c-1.1-33.2,3.7-49.1,24.3-72.2c30-33.5,35.7-32.4,33.1,9.5c-1.1,17.8,3.4,48.7,8.8,69.6c6.8,20.9,6.4,51.3,0.2,67.3
		c-7.6,16-9.6,31.7-6.6,34.4c9.7,8.7-3.5,63.9-22.9,97.6c-20.7,35.1-35.4,26-24.2-15l6.9-28.7l-30.9,18
		c-17.1,10.2-47.1,31.6-67.4,48.3C-6375.9-2399.9-6394.5-2389.7-6395.5-2394.6z M-6348.7-2457.4c-7.8,13.2-6.3,14.5,4.7,8.2
		c105.3-56.1,125-70.6,104.2-74.5c-6.5-1.8-16.1,3-22.1,9.7c-5.3,6-25.2,17.7-43.9,25.1C-6325.2-2480.6-6344.2-2466.8-6348.7-2457.4
		z M-6479-2598.2c19,10.3,215.2,49,219.1,43.1c9.3-11.8-12.7-36.8-32.4-35.7c-12,1.4-9.7,4.8,10.8,16.4c35.9,21.4,2,11.2-72-21.5
		c-42.1-18.9-64.3-22.6-92.1-14C-6465.9-2605.3-6481.1-2598.7-6479-2598.2z M-6256.5-2608.3l12.7,36.8l-4-33.1
		c-2.4-18.3-2-35.3,0.7-38.3c2-2.2,3.8-20.7,3.5-38.4l-1.2-34.6l-12.9,35.4C-6264.9-2658.9-6264.8-2630.5-6256.5-2608.3z"/>
</g>
<g transform="translate(0.000000,300.000000) scale(0.100000,-0.100000)">
	<path d="M2027.7-1129.6c-4.1-22.4,9.9-38.1,337.5-389c187.9-200.9,368.4-395,400.4-430.8c58-64.8,58-64.8,30.5-64
		c-15.5,0.9-57,18.7-92.8,37.7c-63.2,36.1-64.6,36.1-55.5,8c5.9-21.6,15.2-32,38.6-44.6c37.1-20.5,43.1-27.2,32.7-36.5
		c-3.7-3.3-8-3.1-9.1,2.6c-1.2,4.3-21.7,4.7-46.1-1c-39.4-8.4-43.1-10.4-32.4-22.3c22-24.6,71.8-20.3,105.4,9.8
		c23.8,21.3,39,26.9,69.3,24.5l37.4-2.8l232-248.7l232-248.7l-36.1-0.1c-64.4,1.4-66.8-16.8-4-21l60-4l202.6-217.3
		c175.1-188.1,204.7-216.7,219.8-212.6c34.5,9.4,77.3,41,98.3,74.6l23.1,34.1l-665.2,738.6c-657.3,728.2-665.3,737.2-665.1,766.9
		c0.2,16.3,8.2,46.3,17.8,65.6c18.4,37.9,15.2,57.9-5.6,39.3c-9.7-8.7-12.3-4.3-16.2,27.1c-4.5,47-19.3,48.5-28.2,3
		c-5.6-25.2-11.1-34.1-19.3-29.4c-22.8,10.5-10.2-30.6,15-49.7c22.4-17.5,31.4-47.1,18-59.1c-3.7-3.3-89.4,86.4-190.1,198.9
		c-166.7,186.3-184.9,203.6-202.8,199.6C2091.5-987.9,2039.1-1064.3,2027.7-1129.6z M2108.6-1011.5l25.3,22.7l171.6-188.7
		c94.1-103.6,176.2-193.9,182.2-200.6c13.4-13.5-21.3-78.1-63-115.5l-26.1-23.3l-176.8,197.4c-136.7,152.7-174.5,199.4-167.8,205.4
		c5.2,4.7,7,11.7,3.7,15.4c-3.3,3.7,1.1,19.8,9.8,35.6C2076.9-1046.6,2095.2-1023.5,2108.6-1011.5z M2515.8-1408
		c-1.1-19.8-50.3-89.3-80.7-115.2c-20-16.6-18.3-11,10.1,29.2C2510.6-1400.6,2517.3-1393.2,2515.8-1408z M2518.9-1441.4
		c12.3,17.7,14.3,15.5,228-218.7l216.3-237.2l-22.4-20c-11.9-10.7-33.3-25.8-47.2-34.2c-24.2-15-26.3-14.1-56.6,25.8
		c-18.6,22.3-32.7,36.5-32.9,32.3c-1-4.9,10.8-22.6,24.1-38.9c14-15.6,25.8-33.3,27-37.6c4-16.5-27.9-18.3-41.9-2.6
		c-11.3,12.7-10.5,14.7,3.4,11.1c11.9-2.8-43.9,64-179.5,212.5c-108.2,117.9-194.8,217.6-191.8,220.2s18-6.7,32.9-20.2l28.3-25.6
		l-23.3,27.5c-21.2,26.7-21,30.9,0.4,58.1C2497.4-1472.8,2512.7-1451,2518.9-1441.4z M2849.6-1993.7c4.2-0.2,32.8,17.3,63.8,39.7
		l56,39.4l-56-52.8c-31.3-28-60.9-50.5-67.2-49.4C2834.3-2012.7,2836.8-1993,2849.6-1993.7z M2861.1-2029l60.4,54l60.4,54
		l226.8-253.3l226.8-253.3l-32.8-29.3c-17.9-16-43.7-35.1-57.6-43.6l-24.9-15.6l-204.8,228.7c-112.7,125.9-215.7,235-230.1,243.6
		L2861.1-2029z M3330.1-2524.5c4.4,2.6,31.7,23,63.5,46.1l56.2,42.2l-56.8-53.5c-33.6-31.4-58.7-49.9-62.7-45.4
		S3326.4-2526.4,3330.1-2524.5z M3369.2-2533.7l41.7,37.4c22.4,20,43.8,36.5,47.4,37c12.7-0.7,390.5-430.2,383.8-436.2
		c-3.7-3.3-9.9-12.9-14.6-21.1c-7.1-13.1-17.3-4.7-78.1,60.3l-70.9,76.2l61.1-72.8c33.2-40.1,60.1-79.1,59.7-86.2
		c-0.5-9.9-5.4-8.9-14.9,0.1c-10.7,11.9-12.1,12-6.5-3.2c4.9-14.4,2.6-17.8-16.6-18.9c-30.6-3.3-163.7,125.9-155.3,149.5
		c3.4,11.1-5,25.1-27.8,47.6c-20.2,18.1-34.6,26.7-37.1,20.5c-1.8-7-5.1-1.8-8.6,11.1c-3.5,12.9-39.8,61-84.5,110.9L3369.2-2533.7z"
		/>
	<path d="M2069.5-1077.3c-0.2-4.2,26.6-31.2,58.3-60.6c31.7-29.4,53.5-44.7,48.3-36c-5.2,8.8-31.3,36.4-57.6,59.8
		C2091.5-1089.9,2070.4-1073.9,2069.5-1077.3z"/>
	<path d="M2373.7-1391.6c-4.5-4,6.6-22.3,24.6-41c26.8-28.4,30.2-30.7,22-11.1c-6.4,13.1-17.4,31.4-25.3,41.8
		C2387.8-1392.4,2377.4-1388.3,2373.7-1391.6z"/>
	<path d="M2937.5-2016.9c8.5-12.5,26.5-32.6,40-44.7s7-1.8-15,22.8C2940.5-2014.3,2929-2004.4,2937.5-2016.9z"/>
	<path d="M3261.5-2368.4c15.8-34.2,59.8-83.3,80-89.4c11.9-2.8,0,13.5-36.6,54.4C3267.5-2363.1,3254.7-2351.8,3261.5-2368.4z"/>
	<path d="M3029.9-2394.6c-6.1-20.2,29.5-80.9,63.9-111.9l37.2-32.5l-64-17c-35.3-10.1-85.2-17.2-111.5-17.9
		c-26.9,0.1-47.7-3.7-48-9.4c-0.2-4.2,14.6-17.8,33.7-30.2c47.3-28.8,137-33.1,177.3-9.1l32.2,19.5l-3.1-43
		c-1.1-33.2,3.7-49.1,24.3-72.2c30-33.5,35.7-32.4,33.1,9.5c-1.1,17.8,3.4,48.7,8.8,69.6c6.8,20.9,6.4,51.3,0.2,67.3
		c-7.6,16-9.6,31.7-6.6,34.4c9.7,8.7-3.5,63.9-22.9,97.6c-20.7,35.1-35.4,26-24.2-15l6.9-28.7l-30.9,18
		c-17.1,10.2-47.1,31.6-67.4,48.3C3049.5-2399.9,3030.9-2389.7,3029.9-2394.6z M3076.7-2457.4c-7.8,13.2-6.3,14.5,4.7,8.2
		c105.3-56.1,125-70.6,104.2-74.5c-6.5-1.8-16.1,3-22.1,9.7c-5.3,6-25.2,17.7-43.9,25.1C3100.2-2480.6,3081.2-2466.8,3076.7-2457.4z
		 M2946.4-2598.2c19,10.3,215.2,49,219.1,43.1c9.3-11.8-12.7-36.8-32.4-35.7c-12,1.4-9.7,4.8,10.8,16.4c35.9,21.4,2,11.2-72-21.5
		c-42.1-18.9-64.3-22.6-92.1-14C2959.5-2605.3,2944.3-2598.7,2946.4-2598.2z M3168.9-2608.3l12.7,36.8l-4-33.1
		c-2.4-18.3-2-35.3,0.7-38.3c2-2.2,3.8-20.7,3.5-38.4l-1.2-34.6l-12.9,35.4C3160.5-2658.9,3160.6-2630.5,3168.9-2608.3z"/>
</g>
</svg>
