<?xml version="1.0" encoding="utf-8"?>
<!-- Generator: Adobe Illustrator 23.0.2, SVG Export Plug-In . SVG Version: 6.00 Build 0)  -->
<svg version="1.1" id="Layer_1" xmlns="http://www.w3.org/2000/svg" xmlns:xlink="http://www.w3.org/1999/xlink" x="0px" y="0px"
	 viewBox="0 0 900 900" style="enable-background:new 0 0 900 900;" xml:space="preserve">
<g transform="translate(0.000000,900.000000) scale(0.100000,-0.100000)">
	<path d="M3733,3080c4,0,7-18,7-40c0-50,20-61,88-53c42,5,55,2,78-16c36-28,52-14,34,30c-13,30-12,33,13,53c14,12,51,37,82,56
		c43,26,61,46,76,79c10,24,19,48,19,53c0,6,6,24,14,41c8,18,22,53,32,79c19,49,41,61,62,35c13-15,42-188,42-249c0-24,7-79,15-123
		c18-102,18-165,0-189c-8-11-15-27-15-35c0-9-13-43-28-76c-31-65-50-114-61-160c-5-16-20-60-35-97c-36-89-33-129,12-142
		c51-14,74,2,95,70c11,33,25,74,33,92s14,40,14,48c0,9,7,28,14,42c8,15,30,67,49,115c18,49,41,96,49,107c33,38,251,51,285,17
		c11-12,36-72,53-132c16-56,37-106,48-117c7-7,12-15,12-20c0-13,119-178,147-204s44-29,74-14c29,16,25,69-9,116c-16,21-31,46-35,54
		s-15,27-25,41c-42,63-92,157-92,172c0,9-6,31-14,49c-54,131-67,199-76,418c-5,113-10,213-12,224c-2,10,4,22,12,26s29,14,46,23
		l31,16l146-149c81-83,151-150,156-150c6,0,22,10,37,23c25,22,26,26,16,57c-14,38-55,91-153,193c-37,40-68,79-69,88c0,9,17,28,38,41
		c108,73,237,238,289,373c44,115,58,194,57,330c0,147-20,237-76,354c-124,257-346,435-630,505c-87,21-359,21-433,0
		c-236-67-399-171-519-331c-147-195-202-393-177-628c21-203,96-359,241-506c55-55,128-116,173-145c43-27,85-54,94-60
		c13-9,12-19-12-85c-14-41-31-88-36-106c-10-34-29-50-118-102c-34-21-57-29-63-23 M4663,5009c45-11,124-41,176-67
		c82-41,107-60,199-154c127-129,172-204,208-348c16-64,19-289,4-334c-40-128-54-162-87-213c-106-168-224-268-388-330
		c-119-45-177-56-310-56c-149,0-197,9-350,71c-68,28-124,71-231,179c-91,91-109,115-150,200c-56,118-68,186-61,358
		c5,140,13,171,74,295c29,59,59,97,142,181c97,98,115,111,213,158c59,28,115,51,125,52c10,0,34,7,53,14
		C4338,5038,4565,5034,4663,5009z M4646,3368c13-26,18-71,22-214c3-101,1-183-4-186s-58-7-119-9l-110-4l-13,60c-20,98-40,338-29,353
		c5,7,34,12,66,13c45,1,107,7,163,18C4626,3399,4637,3385,4646,3368z"/>
	<path d="M4183,4403c-26-10-14-51,22-73c19-12,35-26,35-31c0-6-11-27-25-47c-19-27-25-50-25-88c0-45,4-56,35-88c44-47,90-61,147-46
		c45,12,88,51,88,80c0,9,11,39,25,66s25,52,25,56c0,8-55,41-160,96c-47,24-92,50-100,57C4231,4401,4199,4410,4183,4403z"/>
	<path d="M4920,4294c-58-24-109-44-113-44c-5,0-24-7-43-16c-38-18-44-42-15-68c11-10,23-32,26-50c4-17,23-48,43-68
		c33-34,41-38,88-38c48,0,54,3,88,40c43,48,48,94,14,148l-21,35l24,18c13,11,36,22,52,26c34,7,41,17,27,43
		C5074,4349,5040,4344,4920,4294z"/>
	<path d="M4478,3834c-26-26,11-42,130-58c80-11,155,16,125,45C4722,3832,4487,3844,4478,3834z"/>
</g>
<g transform="translate(0.000000,900.000000) scale(0.100000,-0.100000)">
	<path d="M-5702.8,3102.7c4,0,7-18,7-40c0-50,20-61,88-53c42,5,55,2,78-16c36-28,52-14,34,30c-13,30-12,33,13,53c14,12,51,37,82,56
		c43,26,61,46,76,79c10,24,19,48,19,53c0,6,6,24,14,41c8,18,22,53,32,79c19,49,41,61,62,35c13-15,42-188,42-249c0-24,7-79,15-123
		c18-102,18-165,0-189c-8-11-15-27-15-35c0-9-13-43-28-76c-31-65-50-114-61-160c-5-16-20-60-35-97c-36-89-33-129,12-142
		c51-14,74,2,95,70c11,33,25,74,33,92s14,40,14,48c0,9,7,28,14,42c8,15,30,67,49,115c18,49,41,96,49,107c33,38,251,51,285,17
		c11-12,36-72,53-132c16-56,37-106,48-117c7-7,12-15,12-20c0-13,119-178,147-204s44-29,74-14c29,16,25,69-9,116c-16,21-31,46-35,54
		s-15,27-25,41c-42,63-92,157-92,172c0,9-6,31-14,49c-54,131-67,199-76,418c-5,113-10,213-12,224c-2,10,4,22,12,26s29,14,46,23
		l31,16l146-149c81-83,151-150,156-150c6,0,22,10,37,23c25,22,26,26,16,57c-14,38-55,91-153,193c-37,40-68,79-69,88c0,9,17,28,38,41
		c108,73,237,238,289,373c44,115,58,194,57,330c0,147-20,237-76,354c-124,257-346,435-630,505c-87,21-359,21-433,0
		c-236-67-399-171-519-331c-147-195-202-393-177-628c21-203,96-359,241-506c55-55,128-116,173-145c43-27,85-54,94-60
		c13-9,12-19-12-85c-14-41-31-88-36-106c-10-34-29-50-118-102c-34-21-57-29-63-23 M-4772.8,5031.7c45-11,124-41,176-67
		c82-41,107-60,199-154c127-129,172-204,208-348c16-64,19-289,4-334c-40-128-54-162-87-213c-106-168-224-268-388-330
		c-119-45-177-56-310-56c-149,0-197,9-350,71c-68,28-124,71-231,179c-91,91-109,115-150,200c-56,118-68,186-61,358
		c5,140,13,171,74,295c29,59,59,97,142,181c97,98,115,111,213,158c59,28,115,51,125,52c10,0,34,7,53,14
		C-5097.8,5060.7-4870.8,5056.7-4772.8,5031.7z M-4789.8,3390.7c13-26,18-71,22-214c3-101,1-183-4-186s-58-7-119-9l-110-4l-13,60
		c-20,98-40,338-29,353c5,7,34,12,66,13c45,1,107,7,163,18C-4809.8,3421.7-4798.8,3407.7-4789.8,3390.7z"/>
	<path d="M-5252.8,4425.7c-26-10-14-51,22-73c19-12,35-26,35-31c0-6-11-27-25-47c-19-27-25-50-25-88c0-45,4-56,35-88
		c44-47,90-61,147-46c45,12,88,51,88,80c0,9,11,39,25,66s25,52,25,56c0,8-55,41-160,96c-47,24-92,50-100,57
		C-5204.8,4423.7-5236.8,4432.7-5252.8,4425.7z"/>
	<path d="M-4515.8,4316.7c-58-24-109-44-113-44c-5,0-24-7-43-16c-38-18-44-42-15-68c11-10,23-32,26-50c4-17,23-48,43-68
		c33-34,41-38,88-38c48,0,54,3,88,40c43,48,48,94,14,148l-21,35l24,18c13,11,36,22,52,26c34,7,41,17,27,43
		C-4361.8,4371.7-4395.8,4366.7-4515.8,4316.7z"/>
	<path d="M-4957.8,3856.7c-26-26,11-42,130-58c80-11,155,16,125,45C-4713.8,3854.7-4948.8,3866.7-4957.8,3856.7z"/>
</g>
<g transform="translate(0.000000,300.000000) scale(0.100000,-0.100000)">
	<path d="M-7465.9-1255.7c-2.5-22.7,12.6-37.3,364.1-364.3c201.6-187.2,395.3-368.1,429.7-401.5c62.4-60.6,62.4-60.6,34.9-61.7
		c-15.6-0.2-58.2,14.7-95.2,31.1c-65.5,31.5-67,31.5-55.9,4.1c7.4-21.1,17.4-30.9,41.7-41.8c38.5-17.8,44.9-24.1,35.2-34.1
		c-3.5-3.6-7.7-3.7-9.2,2c-1.5,4.2-22,3.2-45.9-4.2c-38.7-11.2-42.2-13.4-30.7-24.5c23.7-23,73.1-15.2,104.4,17.1
		c22.3,23,37,29.6,67.4,29.3l37.5-0.1L-6339-2336l248.9-231.7l-36-2.7c-64.3-3.1-65.4-21.5-2.5-21.3l60.1,0.2l217.4-202.5
		c188-175.4,219.5-201.7,234.2-196.6c33.8,11.8,74.3,46.4,92.8,81.3l20.7,35.7l-715.6,689.9c-706.9,680.2-715.5,688.5-717.4,718.2
		c-1,16.3,4.9,46.7,13.1,66.7c15.7,39.1,11.1,58.9-8.4,38.8c-9.1-9.3-11.9-5.1-18.1,25.9c-7.8,46.6-22.6,47-28.3,1
		c-3.9-25.5-8.7-34.8-17.2-30.7c-23.5,8.8-8-31.2,18.4-48.5c23.6-15.9,34.6-44.7,22.1-57.7c-3.5-3.6-95.3,79.9-203.7,185
		c-179.4,174.1-198.8,190-216.4,184.8C-7412.3-1109.9-7459.2-1189.8-7465.9-1255.7z M-7393.6-1132.2l23.7,24.4l184.4-176.1
		c101.2-96.8,189.5-181,195.9-187.3c14.3-12.5-15.8-79.4-54.8-119.6l-24.4-25.1l-190.2,184.5c-147.1,142.7-188.1,186.7-181.9,193.1
		c4.9,5,6.2,12.1,2.6,15.6s-0.3,19.8,7.2,36.2C-7422.7-1169.5-7406.1-1145.2-7393.6-1132.2z M-6959.4-1499
		c0.3-19.8-43.9-92.6-72.4-120.6c-18.8-18-17.5-12.3,8,29.8C-6965.2-1492.1-6958.9-1484.2-6959.4-1499z M-6954-1532.2
		c11,18.6,13.2,16.5,242.8-202.1l232.5-221.3l-20.9-21.5c-11.1-11.5-31.4-28.1-44.7-37.5c-23.1-16.6-25.2-15.9-58.3,21.7
		c-20.1,20.9-35.2,34.1-35.1,29.9c-0.6-5,12.4-21.7,26.7-37.1c15.1-14.6,28.1-31.4,29.5-35.6c5.2-16.2-26.6-20.2-41.6-5.6
		c-12.2,11.8-11.5,14,2.7,11.4c12.1-1.9-48.3,60.8-194,199.3c-116.2,110-209.6,203.3-206.8,206.2c2.8,2.9,18.5-5.4,34.2-17.9
		l30.1-23.6l-25.1,25.8c-23,25.1-23.1,29.4-3.7,57.9C-6973.3-1565-6959.5-1542.2-6954-1532.2z M-6585.3-2059.8
		c4.2,0.1,31.5,19.6,60.9,44.1l53.1,43.2l-52.2-56.7c-29.2-30.1-57.2-54.6-63.5-54C-6599.1-2079.8-6598-2060-6585.3-2059.8z
		 M-6571.3-2094.2l56.4,58.1l56.4,58.1l244-236.7l244-236.7l-30.6-31.6c-16.7-17.2-41.1-38.1-54.4-47.5l-23.8-17.3l-220.4,213.8
		c-121.3,117.7-231.8,219.2-246.7,226.8L-6571.3-2094.2z M-6068.6-2555.5c4.2,2.9,30,25.2,60.1,50.4l53,46.1l-52.9-57.4
		c-31.3-33.7-55-53.9-59.4-49.7C-6072-2561.9-6072.1-2557.6-6068.6-2555.5z M-6028.9-2561.9l39,40.2c20.9,21.5,41.1,39.5,44.6,40.3
		c12.7,0.2,419.8-401.7,413.5-408.1c-3.5-3.6-9-13.6-13.1-22.1c-6.2-13.5-16.9-5.9-82.2,54.6l-76,71l66.1-68.3
		c35.9-37.6,65.5-74.7,65.6-81.7c0.2-9.9-4.8-9.3-14.8-0.9c-11.5,11.1-12.9,11.1-6.3-3.6c5.9-14.1,3.8-17.6-15.3-20
		c-30.3-5.4-172.2,114.1-165.5,138.2c2.7,11.4-6.7,24.6-31.1,45.5c-21.5,16.6-36.4,24.2-38.5,17.8c-1.3-7.1-4.9-2.2-9.4,10.5
		s-44,58-92.1,104.7L-6028.9-2561.9z"/>
	<path d="M-7427.9-1200.7c0.1-4.2,28.7-29.3,62.4-56.3c33.6-27.1,56.5-40.9,50.7-32.5s-33.8,34.1-61.7,55.6
		C-7405.1-1211.6-7427.2-1197.1-7427.9-1200.7z"/>
	<path d="M-7102.4-1492.7c-4.2-4.3,8.1-21.8,27.5-39.2c28.7-26.4,32.3-28.5,22.8-9.6c-7.3,12.6-19.6,30.1-28.2,39.9
		C-7088.2-1492.5-7098.9-1489.1-7102.4-1492.7z"/>
	<path d="M-6495.9-2076.8c9.4-11.9,28.8-30.7,43.1-41.8c14.3-11.1,7.1-1.3-16.6,21.7S-6505.3-2065-6495.9-2076.8z"/>
	<path d="M-6147.9-2404.6c18.2-33,65.6-78.9,86.1-83.6c12.1-1.9-0.9,13.4-40.4,51.7C-6142.4-2398.9-6156-2388.5-6147.9-2404.6z"/>
	<path d="M-6377.1-2447c-4.6-20.6,35.1-78.7,71.6-107.1l39.3-29.8l-62.6-21.5c-34.5-12.5-83.8-23.2-109.9-25.7
		c-26.8-1.8-47.3-7.1-47.2-12.7c0.1-4.2,15.8-16.7,35.8-27.7c49.2-25.4,139-23.3,177.5,3.4l30.8,21.7l-0.1-43.1
		c1.2-33.2,7.1-48.7,29.4-70.3c32.3-31.3,37.9-29.8,32.4,11.8c-2.4,17.6,0,48.8,3.9,70.1c5.3,21.3,2.8,51.7-4.6,67.1
		c-8.7,15.4-11.8,30.9-9,33.8c9.1,9.3-8,63.5-29.7,95.7c-23.1,33.6-37.1,23.5-23.1-16.6l8.9-28.2l-32.1,15.8
		c-17.8,8.9-49.2,28.2-70.7,43.5C-6357.3-2450.9-6376.5-2442-6377.1-2447z M-6326-2506.3c-8.7,12.6-7.3,14,4.1,8.5
		c108.9-48.6,129.6-61.7,109.2-66.9c-6.3-2.2-16.3,1.9-22.8,8.1c-5.7,5.6-26.4,15.9-45.6,21.9
		C-6300.9-2527.9-6320.9-2515.5-6326-2506.3z M-6446.1-2656c18.2,11.6,211.2,64,215.5,58.4c10.1-11.2-10-37.6-29.8-37.9
		c-12,0.5-10,4.1,9.6,17.1c34.3,23.9,1.2,11.3-70.3-26.5c-40.7-21.8-62.5-27.1-90.9-20.5C-6432.5-2662.1-6448.2-2656.7-6446.1-2656z
		 M-6223.4-2650.5l10,37.6l-1.6-33.3c-1.1-18.4,0.5-35.4,3.4-38.1c2.2-2.1,5.3-20.4,6.2-38.1l1.2-34.6l-15.4,34.4
		C-6228.3-2701.5-6230.1-2673.2-6223.4-2650.5z"/>
</g>
<g transform="translate(0.000000,300.000000) scale(0.100000,-0.100000)">
	<path d="M1901-1255.7c-2.5-22.7,12.6-37.3,364.1-364.3c201.6-187.2,395.3-368.1,429.7-401.5c62.4-60.6,62.4-60.6,34.9-61.7
		c-15.6-0.2-58.2,14.7-95.2,31.1c-65.5,31.5-67,31.5-55.9,4.1c7.4-21.1,17.4-30.9,41.7-41.8c38.5-17.8,44.9-24.1,35.2-34.1
		c-3.5-3.6-7.7-3.7-9.2,2c-1.5,4.2-22,3.2-45.9-4.2c-38.7-11.2-42.2-13.4-30.7-24.5c23.7-23,73.1-15.2,104.4,17.1
		c22.3,23,37,29.6,67.4,29.3l37.5-0.1l248.9-231.7l248.9-231.7l-36-2.7c-64.3-3.1-65.4-21.5-2.5-21.3l60.1,0.2l217.4-202.5
		c188-175.4,219.5-201.7,234.2-196.6c33.8,11.8,74.3,46.4,92.8,81.3l20.7,35.7l-715.6,689.9c-706.9,680.2-715.5,688.5-717.4,718.2
		c-1,16.3,4.9,46.7,13.1,66.7c15.7,39.1,11.1,58.9-8.4,38.8c-9.1-9.3-11.9-5.1-18.1,25.9c-7.8,46.6-22.6,47-28.3,1
		c-3.9-25.5-8.7-34.8-17.2-30.7c-23.5,8.8-8-31.2,18.4-48.5c23.6-15.9,34.6-44.7,22.1-57.7c-3.5-3.6-95.3,79.9-203.7,185
		c-179.4,174.1-198.8,190-216.4,184.8C1954.6-1109.9,1907.7-1189.8,1901-1255.7z M1973.3-1132.2l23.7,24.4l184.4-176.1
		c101.2-96.8,189.5-181,195.9-187.3c14.3-12.5-15.8-79.4-54.8-119.6l-24.4-25.1l-190.2,184.5c-147.1,142.7-188.1,186.7-181.9,193.1
		c4.9,5,6.2,12.1,2.6,15.6s-0.3,19.8,7.2,36.2C1944.2-1169.5,1960.8-1145.2,1973.3-1132.2z M2407.5-1499
		c0.3-19.8-43.9-92.6-72.4-120.6c-18.8-18-17.5-12.3,8,29.8C2401.7-1492.1,2408-1484.2,2407.5-1499z M2412.9-1532.2
		c11,18.6,13.2,16.5,242.8-202.1l232.5-221.3l-20.9-21.5c-11.1-11.5-31.4-28.1-44.7-37.5c-23.1-16.6-25.2-15.9-58.3,21.7
		c-20.1,20.9-35.2,34.1-35.1,29.9c-0.6-5,12.4-21.7,26.7-37.1c15.1-14.6,28.1-31.4,29.5-35.6c5.2-16.2-26.6-20.2-41.6-5.6
		c-12.2,11.8-11.5,14,2.7,11.4c12.1-1.9-48.3,60.8-194,199.3c-116.2,110-209.6,203.3-206.8,206.2c2.8,2.9,18.5-5.4,34.2-17.9
		l30.1-23.6l-25.1,25.8c-23,25.1-23.1,29.4-3.7,57.9C2393.6-1565,2407.4-1542.2,2412.9-1532.2z M2781.6-2059.8
		c4.2,0.1,31.5,19.6,60.9,44.1l53.1,43.2l-52.2-56.7c-29.2-30.1-57.2-54.6-63.5-54C2767.8-2079.8,2768.9-2060,2781.6-2059.8z
		 M2795.6-2094.2l56.4,58.1l56.4,58.1l244-236.7l244-236.7l-30.6-31.6c-16.7-17.2-41.1-38.1-54.4-47.5l-23.8-17.3L3067.2-2334
		c-121.3,117.7-231.8,219.2-246.7,226.8L2795.6-2094.2z M3298.3-2555.5c4.2,2.9,30,25.2,60.1,50.4l53,46.1l-52.9-57.4
		c-31.3-33.7-55-53.9-59.4-49.7C3294.9-2561.9,3294.8-2557.6,3298.3-2555.5z M3338-2561.9l39,40.2c20.9,21.5,41.1,39.5,44.6,40.3
		c12.7,0.2,419.8-401.7,413.5-408.1c-3.5-3.6-9-13.6-13.1-22.1c-6.2-13.5-16.9-5.9-82.2,54.6l-76,71l66.1-68.3
		c35.9-37.6,65.5-74.7,65.6-81.7c0.2-9.9-4.8-9.3-14.8-0.9c-11.5,11.1-12.9,11.1-6.3-3.6c5.9-14.1,3.8-17.6-15.3-20
		c-30.3-5.4-172.2,114.1-165.5,138.2c2.7,11.4-6.7,24.6-31.1,45.5c-21.5,16.6-36.4,24.2-38.5,17.8c-1.3-7.1-4.9-2.2-9.4,10.5
		s-44,58-92.1,104.7L3338-2561.9z"/>
	<path d="M1939-1200.7c0.1-4.2,28.7-29.3,62.4-56.3c33.6-27.1,56.5-40.9,50.7-32.5c-5.8,8.4-33.8,34.1-61.7,55.6
		C1961.8-1211.6,1939.7-1197.1,1939-1200.7z"/>
	<path d="M2264.5-1492.7c-4.2-4.3,8.1-21.8,27.5-39.2c28.7-26.4,32.3-28.5,22.8-9.6c-7.3,12.6-19.6,30.1-28.2,39.9
		C2278.7-1492.5,2268-1489.1,2264.5-1492.7z"/>
	<path d="M2871-2076.8c9.4-11.9,28.8-30.7,43.1-41.8c14.3-11.1,7.1-1.3-16.6,21.7S2861.6-2065,2871-2076.8z"/>
	<path d="M3219-2404.6c18.2-33,65.6-78.9,86.1-83.6c12.1-1.9-0.9,13.4-40.4,51.7C3224.5-2398.9,3210.9-2388.5,3219-2404.6z"/>
	<path d="M2989.8-2447c-4.6-20.6,35.1-78.7,71.6-107.1l39.3-29.8l-62.6-21.5c-34.5-12.5-83.8-23.2-109.9-25.7
		c-26.8-1.8-47.3-7.1-47.2-12.7c0.1-4.2,15.8-16.7,35.8-27.7c49.2-25.4,139-23.3,177.5,3.4l30.8,21.7l-0.1-43.1
		c1.2-33.2,7.1-48.7,29.4-70.3c32.3-31.3,37.9-29.8,32.4,11.8c-2.4,17.6,0,48.8,3.9,70.1c5.3,21.3,2.8,51.7-4.6,67.1
		c-8.7,15.4-11.8,30.9-9,33.8c9.1,9.3-8,63.5-29.7,95.7c-23.1,33.6-37.1,23.5-23.1-16.6l8.9-28.2l-32.1,15.8
		c-17.8,8.9-49.2,28.2-70.7,43.5C3009.6-2450.9,2990.4-2442,2989.8-2447z M3040.9-2506.3c-8.7,12.6-7.3,14,4.1,8.5
		c108.9-48.6,129.6-61.7,109.2-66.9c-6.3-2.2-16.3,1.9-22.8,8.1c-5.7,5.6-26.4,15.9-45.6,21.9
		C3066-2527.9,3046-2515.5,3040.9-2506.3z M2920.8-2656c18.2,11.6,211.2,64,215.5,58.4c10.1-11.2-10-37.6-29.8-37.9
		c-12,0.5-10,4.1,9.6,17.1c34.3,23.9,1.2,11.3-70.3-26.5c-40.7-21.8-62.5-27.1-90.9-20.5C2934.4-2662.1,2918.7-2656.7,2920.8-2656z
		 M3143.5-2650.5l10,37.6l-1.6-33.3c-1.1-18.4,0.5-35.4,3.4-38.1c2.2-2.1,5.3-20.4,6.2-38.1l1.2-34.6l-15.4,34.4
		C3138.6-2701.5,3136.8-2673.2,3143.5-2650.5z"/>
</g>
</svg>
