<?xml version="1.0" encoding="utf-8"?>
<!-- Generator: Adobe Illustrator 23.0.2, SVG Export Plug-In . SVG Version: 6.00 Build 0)  -->
<svg version="1.1" id="Layer_1" xmlns="http://www.w3.org/2000/svg" xmlns:xlink="http://www.w3.org/1999/xlink" x="0px" y="0px"
	 viewBox="0 0 900 900" style="enable-background:new 0 0 900 900;" xml:space="preserve">
<g transform="translate(0.000000,900.000000) scale(0.100000,-0.100000)">
	<path d="M3727,3033c-11-59,29-91,92-73c34,9,59,4,76-15c6-7,18-15,28-18c23-9,22,17-3,52l-19,28l29,21c16,12,33,22,37,23
		c4,0,35,19,68,42l59,42l41,122c34,105,43,123,61,123s22-11,37-92c23-133,39-259,44-361c5-81,3-91-19-125c-42-63-59-101-77-175
		c-10-40-26-104-35-143c-10-38-16-88-14-109c3-35,7-40,36-49c59-17,76,0,96,95c44,216,62,267,122,346c26,34,39,38,186,48
		c84,6,87,6,102-17c9-14,20-44,25-69c31-153,27-144,161-281c69-71,134-128,143-128c69,0,77,63,16,130c-158,173-167,185-182,240
		c-53,190-77,372-77,602c0,111,1,118,23,129c35,20,100,28,121,17c62-33,246-219,246-248c0-15,60-30,84-20c33,12,36,20,27,63
		c-8,35-104,162-160,211c-52,46-81,78-81,89c0,7,48,63,106,126c90,97,112,128,154,217c28,56,50,110,50,118s7,41,15,73
		c10,36,15,104,15,187c0,157-18,233-91,382c-39,81-67,120-131,188c-174,186-332,271-563,302c-119,16-171,15-285,0
		c-83-12-132-25-198-52c-18-8-37-14-43-14s-31-13-56-30c-24-16-46-30-49-30c-14,0-100-67-157-123c-87-84-139-152-184-245
		c-123-246-119-519,9-780c34-68,63-107,142-189c92-97,201-182,254-197c36-12,43-37,26-97c-8-30-19-74-24-98c-10-44-25-71-41-71
		c-5,0-36-18-70-40s-68-40-76-40 M4550,5006c193-24,358-111,496-260c41-44,74-84,74-87c0-4,12-28,27-55c90-158,115-349,72-531
		c-35-148-93-245-216-365c-56-55-187-148-208-148c-6,0-44-14-85-32l-75-32l-185-1c-210,0-245,7-400,86c-119,61-261,201-320,314
		c-70,134-80,177-80,360c0,137,3,169,21,219c25,73,97,211,116,225c5,3,23,25,42,49c97,124,306,233,496,258
		C4443,5021,4430,5021,4550,5006z M4619,3371c20-13,30-418,10-426c-8-2-61-6-119-7l-105-3l-12,85c-11,77-31,247-36,310
		c-2,24,0,25,93,36C4575,3381,4602,3381,4619,3371z"/>
	<path d="M4160,4371c0-25,7-33,45-51c25-12,45-25,45-29s-13-20-30-36c-28-27-30-34-30-101s2-74,29-97c36-30,99-41,154-26
		c40,10,87,50,87,73c0,6,6,23,14,38c19,36,28,81,18,93c-6,9-30,22-202,112c-36,19-69,38-74,44c-6,5-20,9-33,9
		C4164,4400,4160,4395,4160,4371z"/>
	<path d="M5015,4326c-16-8-48-21-70-29s-58-22-80-30c-22-9-61-23-87-33c-51-18-62-41-35-73c8-9,19-35,25-57c8-27,27-55,52-78
		c54-48,96-49,146-3c31,28,37,40,38,77c0,25-3,66-7,93l-8,48l55,24c50,22,55,27,47,47C5081,4339,5056,4344,5015,4326z"/>
	<path d="M4460,3816c0-28,42-39,152-40c59,0,110,3,114,7s0,15-9,25C4692,3832,4460,3840,4460,3816z"/>
</g>
<g transform="translate(0.000000,900.000000) scale(0.100000,-0.100000)">
	<path d="M-5898.3,3048.2c-11-59,29-91,92-73c34,9,59,4,76-15c6-7,18-15,28-18c23-9,22,17-3,52l-19,28l29,21c16,12,33,22,37,23
		c4,0,35,19,68,42l59,42l41,122c34,105,43,123,61,123s22-11,37-92c23-133,39-259,44-361c5-81,3-91-19-125c-42-63-59-101-77-175
		c-10-40-26-104-35-143c-10-38-16-88-14-109c3-35,7-40,36-49c59-17,76,0,96,95c44,216,62,267,122,346c26,34,39,38,186,48
		c84,6,87,6,102-17c9-14,20-44,25-69c31-153,27-144,161-281c69-71,134-128,143-128c69,0,77,63,16,130c-158,173-167,185-182,240
		c-53,190-77,372-77,602c0,111,1,118,23,129c35,20,100,28,121,17c62-33,246-219,246-248c0-15,60-30,84-20c33,12,36,20,27,63
		c-8,35-104,162-160,211c-52,46-81,78-81,89c0,7,48,63,106,126c90,97,112,128,154,217c28,56,50,110,50,118s7,41,15,73
		c10,36,15,104,15,187c0,157-18,233-91,382c-39,81-67,120-131,188c-174,186-332,271-563,302c-119,16-171,15-285,0
		c-83-12-132-25-198-52c-18-8-37-14-43-14s-31-13-56-30c-24-16-46-30-49-30c-14,0-100-67-157-123c-87-84-139-152-184-245
		c-123-246-119-519,9-780c34-68,63-107,142-189c92-97,201-182,254-197c36-12,43-37,26-97c-8-30-19-74-24-98c-10-44-25-71-41-71
		c-5,0-36-18-70-40s-68-40-76-40 M-5075.3,5021.2c193-24,358-111,496-260c41-44,74-84,74-87c0-4,12-28,27-55c90-158,115-349,72-531
		c-35-148-93-245-216-365c-56-55-187-148-208-148c-6,0-44-14-85-32l-75-32l-185-1c-210,0-245,7-400,86c-119,61-261,201-320,314
		c-70,134-80,177-80,360c0,137,3,169,21,219c25,73,97,211,116,225c5,3,23,25,42,49c97,124,306,233,496,258
		C-5182.3,5036.2-5195.3,5036.2-5075.3,5021.2z M-5006.3,3386.2c20-13,30-418,10-426c-8-2-61-6-119-7l-105-3l-12,85
		c-11,77-31,247-36,310c-2,24,0,25,93,36C-5050.3,3396.2-5023.3,3396.2-5006.3,3386.2z"/>
	<path d="M-5465.3,4386.2c0-25,7-33,45-51c25-12,45-25,45-29s-13-20-30-36c-28-27-30-34-30-101s2-74,29-97c36-30,99-41,154-26
		c40,10,87,50,87,73c0,6,6,23,14,38c19,36,28,81,18,93c-6,9-30,22-202,112c-36,19-69,38-74,44c-6,5-20,9-33,9
		C-5461.3,4415.2-5465.3,4410.2-5465.3,4386.2z"/>
	<path d="M-4610.3,4341.2c-16-8-48-21-70-29s-58-22-80-30c-22-9-61-23-87-33c-51-18-62-41-35-73c8-9,19-35,25-57c8-27,27-55,52-78
		c54-48,96-49,146-3c31,28,37,40,38,77c0,25-3,66-7,93l-8,48l55,24c50,22,55,27,47,47C-4544.3,4354.2-4569.3,4359.2-4610.3,4341.2z"
		/>
	<path d="M-5165.3,3831.2c0-28,42-39,152-40c59,0,110,3,114,7s0,15-9,25C-4933.3,3847.2-5165.3,3855.2-5165.3,3831.2z"/>
</g>
<g transform="translate(0.000000,300.000000) scale(0.100000,-0.100000)">
	<path d="M-7603.3-1221.8c-3.4-22.6,11.1-37.8,349.5-378.3c194.1-194.9,380.5-383.3,413.6-418.1c60-63,60-63,32.4-63
		c-15.6,0.4-57.6,16.9-93.9,34.8c-64.3,34.1-65.7,34.1-55.7,6.3c6.6-21.4,16.2-31.5,40-43.4c37.7-19.3,43.9-25.8,33.8-35.5
		c-3.6-3.4-7.9-3.3-9.1,2.3c-1.3,4.3-21.8,4.1-46-2.4c-39.1-9.7-42.7-11.7-31.7-23.3c22.8-23.9,72.4-18,105,13
		c23.2,22.1,38.2,28.1,68.5,26.6l37.4-1.6l239.6-241.3l239.6-241.3l-36.1-1.3c-64.4-0.6-66.2-18.9-3.3-21.1l60.1-2.2l209.2-210.9
		c180.9-182.6,211.4-210.2,226.3-205.6c34.2,10.5,76,43.4,95.9,77.6l22.1,34.8l-687.9,717.5c-679.7,707.4-687.9,716.1-688.6,745.8
		c-0.3,16.3,6.8,46.5,15.7,66.1c17.2,38.5,13.4,58.4-6.8,39.1c-9.4-9-12.1-4.7-17,26.6c-5.9,46.8-20.8,47.9-28.2,2.1
		c-4.9-25.3-10-34.4-18.4-30c-23.1,9.8-9.2-30.9,16.5-49.2c22.9-16.8,32.8-46.1,19.8-58.5c-3.6-3.4-92.1,83.6-196.2,192.9
		c-172.5,181-191.2,197.7-209,193.2C-7543.9-1078.2-7593.9-1156.2-7603.3-1221.8z M-7526.1-1101.3l24.6,23.5l177.4-183.2
		c97.3-100.7,182.2-188.3,188.4-194.8c13.8-13.1-18.9-78.8-59.4-117.4l-25.3-24.1l-182.9,191.7
		c-141.4,148.4-180.6,193.9-174.1,200.1c5.1,4.8,6.7,11.9,3.2,15.5c-3.4,3.6,0.5,19.8,8.6,35.9
		C-7556.7-1137.3-7539.1-1113.7-7526.1-1101.3z M-7106.7-1484.9c-0.5-19.8-47.5-90.8-77.1-117.7c-19.5-17.2-18-11.6,9.2,29.5
		C-7112.2-1477.6-7105.6-1470-7106.7-1484.9z M-7102.6-1518.2c11.8,18.1,13.8,15.9,234.7-211.5l223.6-230.3l-21.7-20.7
		c-11.6-11-32.5-26.8-46.1-35.7c-23.7-15.7-25.8-14.9-57.4,24c-19.3,21.7-33.8,35.5-33.9,31.2c-0.8-4.9,11.5-22.2,25.3-38.1
		c14.5-15.2,26.8-32.5,28.1-36.8c4.6-16.4-27.3-19.1-41.8-3.9c-11.7,12.3-11,14.4,3.1,11.2c12-2.4-45.9,62.6-186,206.8
		c-111.8,114.4-201.4,211.4-198.5,214.1c2.9,2.8,18.2-6.1,33.5-19.2l29.1-24.7l-24.1,26.8c-22,26-21.9,30.2-1.4,58
		C-7123.1-1550.2-7108.4-1528-7102.6-1518.2z M-6754.9-2059.9c4.2-0.1,32.3,18.3,62.5,41.6l54.7,41.1l-54.4-54.6
		c-30.4-29-59.3-52.3-65.6-51.5C-6769.5-2079.3-6767.6-2059.6-6754.9-2059.9z M-6742.3-2094.8l58.6,55.9l58.6,55.9l234.6-246.1
		l234.6-246.1l-31.9-30.4c-17.4-16.6-42.6-36.5-56.3-45.3l-24.4-16.4l-211.8,222.2c-116.6,122.3-223,228.2-237.6,236.3
		L-6742.3-2094.8z M-6258-2575.5c4.3,2.7,31,24,62,48l54.8,43.9l-55.1-55.3c-32.6-32.5-57.1-51.7-61.3-47.3
		C-6261.7-2581.7-6261.6-2577.5-6258-2575.5z M-6218.6-2583.5l40.5,38.6c21.7,20.7,42.6,37.9,46.2,38.5
		c12.7-0.3,403.7-417.8,397.2-424.1c-3.6-3.4-9.5-13.2-14-21.6c-6.7-13.3-17.1-5.2-79.9,57.8l-73.2,73.9l63.4-70.8
		c34.4-39,62.5-77.2,62.3-84.3c-0.2-9.9-5.2-9.1-14.9-0.3c-11,11.6-12.5,11.6-6.4-3.4c5.3-14.3,3.1-17.8-16-19.4
		c-30.5-4.2-167.6,120.7-159.9,144.6c3.1,11.2-5.8,24.9-29.3,46.7c-20.8,17.5-35.5,25.6-37.7,19.3c-1.6-7-5-2-8.9,10.8
		s-41.7,59.7-87.9,108.2L-6218.6-2583.5z"/>
	<path d="M-7563.1-1168.3c-0.1-4.2,27.6-30.4,60.1-58.7c32.6-28.4,54.8-43.1,49.4-34.4c-5.5,8.6-32.4,35.4-59.4,58
		C-7540.7-1180.2-7562.3-1164.8-7563.1-1168.3z"/>
	<path d="M-7249.3-1472.9c-4.3-4.1,7.2-22.1,25.9-40.2c27.6-27.5,31.1-29.7,22.4-10.4c-6.8,12.9-18.4,30.9-26.6,41
		C-7235.2-1473.3-7245.7-1469.5-7249.3-1472.9z"/>
	<path d="M-6666.2-2080.4c8.9-12.2,27.5-31.8,41.4-43.4s7-1.6-15.7,22.3C-6663.3-2077.6-6675.1-2068.2-6666.2-2080.4z"/>
	<path d="M-6331.4-2421.6c16.9-33.6,62.4-81.4,82.8-86.9c12-2.4-0.4,13.4-38.3,53.3C-6325.6-2416.1-6338.8-2405.2-6331.4-2421.6z"/>
	<path d="M-6562.1-2455c-5.4-20.4,32-80,67.4-109.8l38.1-31.3l-63.4-19c-34.9-11.2-84.6-19.9-110.9-21.4
		c-26.9-0.8-47.5-5.2-47.7-10.9c-0.1-4.2,15.1-17.3,34.7-29.1c48.1-27.3,137.9-28.8,177.4-3.6l31.6,20.5l-1.7-43.1
		c-0.1-33.2,5.2-48.9,26.6-71.4c31-32.6,36.7-31.3,32.8,10.5c-1.7,17.7,1.9,48.8,6.6,69.9c6.2,21.1,4.8,51.5-1.9,67.2
		c-8.1,15.8-10.6,31.4-7.7,34.1c9.4,9-5.5,63.8-26,96.8c-21.8,34.5-36.2,24.9-23.7-15.7l7.8-28.5l-31.4,17
		c-17.5,9.6-48.1,30.2-68.9,46.2C-6542.4-2459.7-6561.3-2450-6562.1-2455z M-6513.4-2516.3c-8.2,12.9-6.7,14.3,4.4,8.4
		c106.9-52.8,127.1-66.7,106.5-71.2c-6.4-2-16.2,2.5-22.4,9c-5.5,5.8-25.8,16.9-44.7,23.7
		C-6489.1-2538.8-6508.6-2525.6-6513.4-2516.3z M-6639.2-2661.1c18.7,10.9,213.5,55.7,217.6,49.9c9.6-11.5-11.5-37.2-31.3-36.7
		c-12,1-9.8,4.5,10.3,16.7c35.2,22.5,1.7,11.3-71.3-23.7c-41.5-20.2-63.5-24.6-91.7-16.9
		C-6625.9-2667.7-6641.3-2661.7-6639.2-2661.1z M-6416.5-2664.3l11.5,37.2l-2.9-33.2c-1.9-18.3-0.9-35.3,1.9-38.2
		c2.1-2.2,4.5-20.6,4.7-38.3l-0.1-34.7l-14,35C-6423.4-2715.1-6424.1-2686.7-6416.5-2664.3z"/>
</g>
<g transform="translate(0.000000,300.000000) scale(0.100000,-0.100000)">
	<path d="M1946.6-1221.8c-3.4-22.6,11.1-37.8,349.5-378.3c194.1-194.9,380.5-383.3,413.6-418.1c60-63,60-63,32.4-63
		c-15.6,0.4-57.6,16.9-93.9,34.8c-64.3,34.1-65.7,34.1-55.7,6.3c6.6-21.4,16.2-31.5,40-43.4c37.7-19.3,43.9-25.8,33.8-35.5
		c-3.6-3.4-7.9-3.3-9.1,2.3c-1.3,4.3-21.8,4.1-46-2.4c-39.1-9.7-42.7-11.7-31.7-23.3c22.8-23.9,72.4-18,105,13
		c23.2,22.1,38.2,28.1,68.5,26.6l37.4-1.6l239.6-241.3l239.6-241.3l-36.1-1.3c-64.4-0.6-66.2-18.9-3.3-21.1l60.1-2.2l209.2-210.9
		c180.9-182.6,211.4-210.2,226.3-205.6c34.2,10.5,76,43.4,95.9,77.6l22.1,34.8l-687.9,717.5c-679.7,707.4-687.9,716.1-688.6,745.8
		c-0.3,16.3,6.8,46.5,15.7,66.1c17.2,38.5,13.4,58.4-6.8,39.1c-9.4-9-12.1-4.7-17,26.6c-5.9,46.8-20.8,47.9-28.2,2.1
		c-4.9-25.3-10-34.4-18.4-30c-23.1,9.8-9.2-30.9,16.5-49.2c22.9-16.8,32.8-46.1,19.8-58.5c-3.6-3.4-92.1,83.6-196.2,192.9
		c-172.5,181-191.2,197.7-209,193.2C2006-1078.2,1956-1156.2,1946.6-1221.8z M2023.8-1101.3l24.6,23.5l177.4-183.2
		c97.3-100.7,182.2-188.3,188.4-194.8c13.8-13.1-18.9-78.8-59.4-117.4l-25.3-24.1l-182.9,191.7
		c-141.4,148.4-180.6,193.9-174.1,200.1c5.1,4.8,6.7,11.9,3.2,15.5c-3.4,3.6,0.5,19.8,8.6,35.9
		C1993.2-1137.3,2010.8-1113.7,2023.8-1101.3z M2443.2-1484.9c-0.5-19.8-47.5-90.8-77.1-117.7c-19.5-17.2-18-11.6,9.2,29.5
		C2437.7-1477.6,2444.3-1470,2443.2-1484.9z M2447.3-1518.2c11.8,18.1,13.8,15.9,234.7-211.5l223.6-230.3l-21.7-20.7
		c-11.6-11-32.5-26.8-46.1-35.7c-23.7-15.7-25.8-14.9-57.4,24c-19.3,21.7-33.8,35.5-33.9,31.2c-0.8-4.9,11.5-22.2,25.3-38.1
		c14.5-15.2,26.8-32.5,28.1-36.8c4.6-16.4-27.3-19.1-41.8-3.9c-11.7,12.3-11,14.4,3.1,11.2c12-2.4-45.9,62.6-186,206.8
		c-111.8,114.4-201.4,211.4-198.5,214.1c2.9,2.8,18.2-6.1,33.5-19.2l29.1-24.7l-24.1,26.8c-22,26-21.9,30.2-1.4,58
		C2426.8-1550.2,2441.5-1528,2447.3-1518.2z M2795-2059.9c4.2-0.1,32.3,18.3,62.5,41.6l54.7,41.1l-54.4-54.6
		c-30.4-29-59.3-52.3-65.6-51.5C2780.4-2079.3,2782.3-2059.6,2795-2059.9z M2807.6-2094.8l58.6,55.9l58.6,55.9l234.6-246.1
		l234.6-246.1l-31.9-30.4c-17.4-16.6-42.6-36.5-56.3-45.3l-24.4-16.4l-211.8,222.2c-116.6,122.3-223,228.2-237.6,236.3
		L2807.6-2094.8z M3291.9-2575.5c4.3,2.7,31,24,62,48l54.8,43.9l-55.1-55.3c-32.6-32.5-57.1-51.7-61.3-47.3
		C3288.2-2581.7,3288.3-2577.5,3291.9-2575.5z M3331.3-2583.5l40.5,38.6c21.7,20.7,42.6,37.9,46.2,38.5
		c12.7-0.3,403.7-417.8,397.2-424.1c-3.6-3.4-9.5-13.2-14-21.6c-6.7-13.3-17.1-5.2-79.9,57.8l-73.2,73.9l63.4-70.8
		c34.4-39,62.5-77.2,62.3-84.3c-0.2-9.9-5.2-9.1-14.9-0.3c-11,11.6-12.5,11.6-6.4-3.4c5.3-14.3,3.1-17.8-16-19.4
		c-30.5-4.2-167.6,120.7-159.9,144.6c3.1,11.2-5.8,24.9-29.3,46.7c-20.8,17.5-35.5,25.6-37.7,19.3c-1.6-7-5-2-8.9,10.8
		s-41.7,59.7-87.9,108.2L3331.3-2583.5z"/>
	<path d="M1986.8-1168.3c-0.1-4.2,27.6-30.4,60.1-58.7c32.6-28.4,54.8-43.1,49.4-34.4c-5.5,8.6-32.4,35.4-59.4,58
		C2009.2-1180.2,1987.6-1164.8,1986.8-1168.3z"/>
	<path d="M2300.6-1472.9c-4.3-4.1,7.2-22.1,25.9-40.2c27.6-27.5,31.1-29.7,22.4-10.4c-6.8,12.9-18.4,30.9-26.6,41
		C2314.7-1473.3,2304.2-1469.5,2300.6-1472.9z"/>
	<path d="M2883.7-2080.4c8.9-12.2,27.5-31.8,41.4-43.4s7-1.6-15.7,22.3C2886.6-2077.6,2874.8-2068.2,2883.7-2080.4z"/>
	<path d="M3218.5-2421.6c16.9-33.6,62.4-81.4,82.8-86.9c12-2.4-0.4,13.4-38.3,53.3C3224.3-2416.1,3211.1-2405.2,3218.5-2421.6z"/>
	<path d="M2987.8-2455c-5.4-20.4,32-80,67.4-109.8l38.1-31.3l-63.4-19c-34.9-11.2-84.6-19.9-110.9-21.4
		c-26.9-0.8-47.5-5.2-47.7-10.9c-0.1-4.2,15.1-17.3,34.7-29.1c48.1-27.3,137.9-28.8,177.4-3.6l31.6,20.5l-1.7-43.1
		c-0.1-33.2,5.2-48.9,26.6-71.4c31-32.6,36.7-31.3,32.8,10.5c-1.7,17.7,1.9,48.8,6.6,69.9c6.2,21.1,4.8,51.5-1.9,67.2
		c-8.1,15.8-10.6,31.4-7.7,34.1c9.4,9-5.5,63.8-26,96.8c-21.8,34.5-36.2,24.9-23.7-15.7l7.8-28.5l-31.4,17
		c-17.5,9.6-48.1,30.2-68.9,46.2C3007.5-2459.7,2988.6-2450,2987.8-2455z M3036.5-2516.3c-8.2,12.9-6.7,14.3,4.4,8.4
		c106.9-52.8,127.1-66.7,106.5-71.2c-6.4-2-16.2,2.5-22.4,9c-5.5,5.8-25.8,16.9-44.7,23.7
		C3060.8-2538.8,3041.3-2525.6,3036.5-2516.3z M2910.7-2661.1c18.7,10.9,213.5,55.7,217.6,49.9c9.6-11.5-11.5-37.2-31.3-36.7
		c-12,1-9.8,4.5,10.3,16.7c35.2,22.5,1.7,11.3-71.3-23.7c-41.5-20.2-63.5-24.6-91.7-16.9C2924-2667.7,2908.6-2661.7,2910.7-2661.1z
		 M3133.4-2664.3l11.5,37.2l-2.9-33.2c-1.9-18.3-0.9-35.3,1.9-38.2c2.1-2.2,4.5-20.6,4.7-38.3l-0.1-34.7l-14,35
		C3126.5-2715.1,3125.8-2686.7,3133.4-2664.3z"/>
</g>
</svg>
