<?xml version="1.0" encoding="utf-8"?>
<!-- Generator: Adobe Illustrator 23.0.2, SVG Export Plug-In . SVG Version: 6.00 Build 0)  -->
<svg version="1.1" id="Layer_1" xmlns="http://www.w3.org/2000/svg" xmlns:xlink="http://www.w3.org/1999/xlink" x="0px" y="0px"
	 viewBox="0 0 900 900" style="enable-background:new 0 0 900 900;" xml:space="preserve">
<g transform="translate(0.000000,900.000000) scale(0.100000,-0.100000)">
	<path d="M3724,3011c-5-34-3-41,16-51c13-7,40-10,63-7c32,4,46,1,72-19c18-13,35-24,38-24c11,0,8,45-4,57c-17,17,4,44,66,83
		c126,78,126,78,191,308c2,7,14,12,26,10c20-3,24-10,29-68c7-75,24-202,45-342l14-97l-38-62c-63-104-81-143-81-178
		c-1-19-8-72-17-118c-8-45-14-102-12-125c3-38,6-43,36-52c21-6,40-5,55,1c20,10,26,25,40,114c9,57,17,119,17,137c0,29,11,53,67,147
		c7,11,18,30,24,43c16,30,43,35,179,36l115,1l6-45c9-67,30-173,38-190c14-28,253-240,278-246c74-19,101,61,41,118
		c-18,17-69,63-113,101c-44,39-83,75-86,81s-13,52-23,101c-9,50-23,119-31,155c-12,54-26,286-29,470l-1,45l60,32c33,17,68,32,78,32
		c17,1,95-47,125-76c7-7,17-13,22-13s41-45,82-100c76-105,100-122,143-102c45,21,39,70-15,141c-90,117-123,156-133,160
		c-28,10-77,55-77,70c1,9,41,61,90,115c129,143,188,262,215,431c32,196,7,384-72,540c-13,28-31,57-39,66c-8,8-14,21-14,27
		c0,16-161,183-222,230c-87,67-192,116-323,152c-90,25-392,27-465,4c-120-39-144-48-217-85c-94-49-127-73-217-158
		c-65-62-152-183-187-261c-49-109-70-210-71-356c-1-192,46-348,149-494c56-81,233-242,309-281c60-32,69-41,72-67c2-16-4-47-12-67
		c-9-21-16-47-16-59c0-32-36-85-67-98c-16-7-42-23-59-35c-30-23-64-31-64-15 M4655,4974c191-61,318-150,433-300c18-23,32-45,32-50
		c0-4,6-15,13-23c8-9,28-50,45-91c77-185,62-440-37-620c-49-90-70-117-154-196c-69-66-106-92-190-133c-58-28-129-56-158-61
		c-30-5-72-14-94-20c-60-14-187-12-263,5c-214,49-293,94-455,259c-136,138-197,294-197,501c0,230,97,433,275,578
		c65,52,242,147,278,148c12,0,38,7,57,14c23,9,85,14,185,14C4561,5000,4583,4997,4655,4974z M4617,3305c6-27,12-116,12-197
		c1-181,3-178-136-178h-92l-12,43c-11,40-21,129-35,294c-6,70-6,72,17,77c29,7,128,13,189,12l45-1L4617,3305z"/>
	<path d="M4167,4393c-18-17-3-43,38-67c25-15,45-30,45-34c-1-4-14-23-30-42c-26-29-30-43-30-90c0-79,23-111,94-131
		c47-13,122,3,148,31c21,22,68,157,62,175c-3,7-47,34-97,60c-51,26-99,53-107,59C4240,4392,4183,4410,4167,4393z"/>
	<path d="M5005,4323c-22-8-53-20-70-28c-16-7-48-19-70-28c-22-8-61-24-87-34c-53-20-63-46-29-77c10-9,24-38,31-64c16-59,34-79,81-93
		c44-14,128,6,136,31c3,8,11,27,19,42c19,36,18,67-6,106c-30,49-26,61,35,87c49,22,54,27,46,47C5081,4340,5057,4343,5005,4323z"/>
	<path d="M4460,3816c0-27,28-35,147-42c94-5,122-4,128,6c5,9,0,20-15,32c-19,15-41,18-141,18C4485,3830,4460,3827,4460,3816z"/>
</g>
<g transform="translate(0.000000,900.000000) scale(0.100000,-0.100000)">
	<path d="M-5825.5,3011c-5-34-3-41,16-51c13-7,40-10,63-7c32,4,46,1,72-19c18-13,35-24,38-24c11,0,8,45-4,57c-17,17,4,44,66,83
		c126,78,126,78,191,308c2,7,14,12,26,10c20-3,24-10,29-68c7-75,24-202,45-342l14-97l-38-62c-63-104-81-143-81-178
		c-1-19-8-72-17-118c-8-45-14-102-12-125c3-38,6-43,36-52c21-6,40-5,55,1c20,10,26,25,40,114c9,57,17,119,17,137c0,29,11,53,67,147
		c7,11,18,30,24,43c16,30,43,35,179,36l115,1l6-45c9-67,30-173,38-190c14-28,253-240,278-246c74-19,101,61,41,118
		c-18,17-69,63-113,101c-44,39-83,75-86,81s-13,52-23,101c-9,50-23,119-31,155c-12,54-26,286-29,470l-1,45l60,32c33,17,68,32,78,32
		c17,1,95-47,125-76c7-7,17-13,22-13s41-45,82-100c76-105,100-122,143-102c45,21,39,70-15,141c-90,117-123,156-133,160
		c-28,10-77,55-77,70c1,9,41,61,90,115c129,143,188,262,215,431c32,196,7,384-72,540c-13,28-31,57-39,66c-8,8-14,21-14,27
		c0,16-161,183-222,230c-87,67-192,116-323,152c-90,25-392,27-465,4c-120-39-144-48-217-85c-94-49-127-73-217-158
		c-65-62-152-183-187-261c-49-109-70-210-71-356c-1-192,46-348,149-494c56-81,233-242,309-281c60-32,69-41,72-67c2-16-4-47-12-67
		c-9-21-16-47-16-59c0-32-36-85-67-98c-16-7-42-23-59-35c-30-23-64-31-64-15 M-4894.5,4974c191-61,318-150,433-300
		c18-23,32-45,32-50c0-4,6-15,13-23c8-9,28-50,45-91c77-185,62-440-37-620c-49-90-70-117-154-196c-69-66-106-92-190-133
		c-58-28-129-56-158-61c-30-5-72-14-94-20c-60-14-187-12-263,5c-214,49-293,94-455,259c-136,138-197,294-197,501
		c0,230,97,433,275,578c65,52,242,147,278,148c12,0,38,7,57,14c23,9,85,14,185,14C-4988.5,5000-4966.5,4997-4894.5,4974z
		 M-4932.5,3305c6-27,12-116,12-197c1-181,3-178-136-178h-92l-12,43c-11,40-21,129-35,294c-6,70-6,72,17,77c29,7,128,13,189,12l45-1
		L-4932.5,3305z"/>
	<path d="M-5382.5,4393c-18-17-3-43,38-67c25-15,45-30,45-34c-1-4-14-23-30-42c-26-29-30-43-30-90c0-79,23-111,94-131
		c47-13,122,3,148,31c21,22,68,157,62,175c-3,7-47,34-97,60c-51,26-99,53-107,59C-5309.5,4392-5366.5,4410-5382.5,4393z"/>
	<path d="M-4544.5,4323c-22-8-53-20-70-28c-16-7-48-19-70-28c-22-8-61-24-87-34c-53-20-63-46-29-77c10-9,24-38,31-64
		c16-59,34-79,81-93c44-14,128,6,136,31c3,8,11,27,19,42c19,36,18,67-6,106c-30,49-26,61,35,87c49,22,54,27,46,47
		C-4468.5,4340-4492.5,4343-4544.5,4323z"/>
	<path d="M-5089.5,3816c0-27,28-35,147-42c94-5,122-4,128,6c5,9,0,20-15,32c-19,15-41,18-141,18
		C-5064.5,3830-5089.5,3827-5089.5,3816z"/>
</g>
<g transform="translate(0.000000,300.000000) scale(0.100000,-0.100000)">
	<path d="M-7449.4-1164.5c-4.5-22.4,9.3-38.2,330.8-394.8c184.4-204.1,361.5-401.3,392.9-437.6c56.9-65.8,56.9-65.8,29.3-64.5
		c-15.5,1.1-56.7,19.7-92.1,39.3c-62.5,37.2-63.9,37.3-55.4,9c5.5-21.7,14.7-32.3,37.8-45.3c36.8-21.1,42.6-27.9,32-37.1
		c-3.8-3.3-8-3-9,2.8c-1.1,4.3-21.6,5.1-46.1-0.2c-39.6-7.8-43.2-9.6-32.8-21.7c21.6-25,71.5-21.5,105.5,7.9
		c24.2,20.9,39.5,26.2,69.8,23.3l37.3-3.4l227.7-252.6L-6194-2592l-36.1,0.5c-64.3,2.5-67.1-15.7-4.4-21l59.9-5.1l198.8-220.8
		c171.9-191.1,200.9-220.2,216.1-216.3c34.7,8.8,78,39.7,99.6,72.9l23.7,33.7l-652.4,750c-644.6,739.5-652.5,748.6-651.7,778.3
		c0.5,16.3,9,46.1,18.9,65.3c19,37.6,16.2,57.7-4.9,39.4c-9.8-8.5-12.3-4.1-15.7,27.4c-3.7,47.1-18.4,48.8-28.1,3.5
		c-6.1-25.1-11.7-33.9-19.8-29c-22.6,10.9-10.7-30.4,14.1-49.9c22.1-17.9,30.6-47.6,17-59.4c-3.8-3.3-87.9,87.9-186.7,202.1
		c-163.5,189.1-181.4,206.7-199.4,203.1C-7383.2-1024-7436.9-1099.5-7449.4-1164.5z M-7366.5-1047.9l25.7,22.2l168.3-191.6
		c92.3-105.3,172.9-196.9,178.7-203.7c13.2-13.7-22.7-77.8-65-114.4l-26.5-22.9l-173.3,200.5c-134.1,155.1-171,202.4-164.2,208.3
		c5.3,4.6,7.2,11.5,3.9,15.3c-3.3,3.8,1.4,19.7,10.4,35.4C-7398.8-1082.4-7380.1-1059.7-7366.5-1047.9z M-6966.2-1451.3
		c-1.4-19.7-51.8-88.4-82.7-113.8c-20.3-16.2-18.5-10.7,10.6,29C-6971.3-1443.9-6964.4-1436.6-6966.2-1451.3z M-6963.6-1484.8
		c12.6,17.5,14.6,15.2,224.2-222.6l212.2-240.9l-22.7-19.6c-12.1-10.5-33.7-25.2-47.8-33.4c-24.5-14.5-26.5-13.7-56.2,26.8
		c-18.2,22.6-32,37.1-32.4,32.8c-1.1-4.9,10.4-22.7,23.4-39.3c13.7-15.9,25.2-33.7,26.3-38.1c3.8-16.6-28.2-17.8-42-1.9
		c-11.1,12.9-10.3,14.9,3.6,11.1c11.8-3-42.8,64.8-175.8,215.5c-106.2,119.7-191,220.9-187.9,223.5c3,2.6,17.9-7,32.5-20.8
		l27.9-26.1l-22.8,27.9c-20.7,27-20.4,31.3,1.4,58C-6985.8-1515.8-6970-1494.3-6963.6-1484.8z M-6642.6-2042.7
		c4.2-0.3,33.1,16.7,64.5,38.6l56.7,38.4l-56.9-51.9c-31.8-27.5-61.7-49.4-68-48.2C-6658.1-2061.4-6655.3-2041.8-6642.6-2042.7z
		 M-6631.7-2078.3l61.3,53l61.3,53l222.4-257.2l222.4-257.2l-33.3-28.8c-18.2-15.7-44.3-34.4-58.4-42.5l-25.2-15.2l-200.9,232.2
		c-110.5,127.8-211.7,238.7-225.9,247.5L-6631.7-2078.3z M-6171.3-2581.8c4.4,2.5,32.1,22.5,64.2,45l56.9,41.2l-57.7-52.5
		c-34.1-30.8-59.6-48.8-63.5-44.3C-6175.3-2587.8-6175-2583.6-6171.3-2581.8z M-6132.3-2591.7l42.4,36.6
		c22.7,19.6,44.4,35.8,48,36.2c12.7-0.9,383-436.9,376.2-442.8c-3.8-3.3-10.1-12.7-15-20.9c-7.3-12.9-17.3-4.4-77.1,61.6l-69.5,77.4
		l59.9-73.8c32.5-40.6,58.7-80.1,58.2-87.2c-0.7-9.9-5.6-8.8-14.9,0.4c-10.5,12.1-11.9,12.2-6.6-3.1c4.6-14.5,2.2-17.9-16.9-18.6
		c-30.7-2.7-161.5,128.7-152.7,152.2c3.6,11.1-4.6,25.1-27,48c-19.9,18.5-34.2,27.3-36.8,21.1c-1.9-6.9-5.1-1.8-8.4,11.2
		s-38.8,61.7-82.6,112.3L-6132.3-2591.7z"/>
	<path d="M-7406.7-1113c-0.3-4.2,26.1-31.7,57.2-61.6s52.7-45.7,47.7-36.8s-30.6,37-56.6,60.8
		C-7384.9-1126-7405.7-1109.6-7406.7-1113z"/>
	<path d="M-7108-1432.5c-4.5-3.9,6.2-22.4,23.9-41.4c26.3-28.8,29.6-31.2,21.9-11.5c-6.1,13.2-16.8,31.7-24.6,42.2
		C-7093.9-1433.5-7104.2-1429.2-7108-1432.5z"/>
	<path d="M-6555.1-2067.5c8.3-12.7,26-33.1,39.2-45.4c13.3-12.3,6.9-1.9-14.6,23S-6563.4-2054.9-6555.1-2067.5z"/>
	<path d="M-6237.2-2424.5c15.2-34.4,58.4-84.4,78.5-90.8c11.8-3,0.3,13.5-35.7,55.1C-6231.1-2419.3-6243.7-2407.8-6237.2-2424.5z"/>
	<path d="M-6469.2-2446.7c-6.4-20.1,28.1-81.4,62-113l36.6-33.1l-64.3-15.9c-35.4-9.5-85.5-15.8-111.8-16
		c-26.9,0.5-47.7-2.9-48.1-8.6c-0.3-4.2,14.3-18.1,33.2-30.8c46.8-29.6,136.4-35.4,177.1-12.2l32.6,18.9l-3.8-43
		c-1.7-33.2,2.8-49.1,23.1-72.6c29.4-34,35.2-33,33.3,8.9c-0.8,17.8,4.2,48.6,10,69.5c7.2,20.7,7.3,51.2,1.3,67.3
		c-7.3,16.1-9,31.9-6,34.5c9.8,8.5-2.4,64-21.2,98c-20.1,35.5-34.9,26.6-24.5-14.5l6.4-28.8l-30.6,18.5
		c-17,10.4-46.6,32.5-66.6,49.5C-6449.7-2452.3-6468.1-2441.8-6469.2-2446.7z M-6423.5-2510.3c-7.5,13.3-6,14.6,4.8,8.2
		c104.3-57.9,123.7-72.8,102.9-76.2c-6.5-1.7-16.1,3.3-22,10.1c-5.2,6.1-24.9,18.1-43.5,25.8
		C-6400.4-2533.9-6419.2-2519.8-6423.5-2510.3z M-6556.2-2648.8c19.2,10,216,45.3,219.8,39.3c9.1-12-13.3-36.6-33-35.2
		c-11.9,1.6-9.6,4.9,11.1,16.2c36.2,20.8,2.2,11.2-72.4-20.3c-42.4-18.2-64.7-21.5-92.4-12.4
		C-6543.2-2656.1-6558.4-2649.3-6556.2-2648.8z M-6333.9-2662.8l13.3,36.6l-4.5-33c-2.7-18.2-2.6-35.3,0.1-38.3
		c2-2.3,3.5-20.8,2.9-38.5l-1.8-34.6l-12.3,35.6C-6343.2-2713.2-6342.6-2684.9-6333.9-2662.8z"/>
</g>
<g transform="translate(0.000000,300.000000) scale(0.100000,-0.100000)">
	<path d="M2054.6-1164.5c-4.5-22.4,9.3-38.2,330.8-394.8c184.4-204.1,361.5-401.3,392.9-437.6c56.9-65.8,56.9-65.8,29.3-64.5
		c-15.5,1.1-56.7,19.7-92.1,39.3c-62.5,37.2-63.9,37.3-55.4,9c5.5-21.7,14.7-32.3,37.8-45.3c36.8-21.1,42.6-27.9,32-37.1
		c-3.8-3.3-8-3-9,2.8c-1.1,4.3-21.6,5.1-46.1-0.2c-39.6-7.8-43.2-9.6-32.8-21.7c21.6-25,71.5-21.5,105.5,7.9
		c24.2,20.9,39.5,26.2,69.8,23.3l37.3-3.4l227.7-252.6L3310-2592l-36.1,0.5c-64.3,2.5-67.1-15.7-4.4-21l59.9-5.1l198.8-220.8
		c171.9-191.1,200.9-220.2,216.1-216.3c34.7,8.8,78,39.7,99.6,72.9l23.7,33.7l-652.4,750c-644.6,739.5-652.5,748.6-651.7,778.3
		c0.5,16.3,9,46.1,18.9,65.3c19,37.6,16.2,57.7-4.9,39.4c-9.8-8.5-12.3-4.1-15.7,27.4c-3.7,47.1-18.4,48.8-28.1,3.5
		c-6.1-25.1-11.7-33.9-19.8-29c-22.6,10.9-10.7-30.4,14.1-49.9c22.1-17.9,30.6-47.6,17-59.4c-3.8-3.3-87.9,87.9-186.7,202.1
		c-163.5,189.1-181.4,206.7-199.4,203.1C2120.8-1024,2067.1-1099.5,2054.6-1164.5z M2137.5-1047.9l25.7,22.2l168.3-191.6
		c92.3-105.3,172.9-196.9,178.7-203.7c13.2-13.7-22.7-77.8-65-114.4l-26.5-22.9l-173.3,200.5c-134.1,155.1-171,202.4-164.2,208.3
		c5.3,4.6,7.2,11.5,3.9,15.3c-3.3,3.8,1.4,19.7,10.4,35.4C2105.2-1082.4,2123.9-1059.7,2137.5-1047.9z M2537.8-1451.3
		c-1.4-19.7-51.8-88.4-82.7-113.8c-20.3-16.2-18.5-10.7,10.6,29C2532.7-1443.9,2539.6-1436.6,2537.8-1451.3z M2540.4-1484.8
		c12.6,17.5,14.6,15.2,224.2-222.6l212.2-240.9l-22.7-19.6c-12.1-10.5-33.7-25.2-47.8-33.4c-24.5-14.5-26.5-13.7-56.2,26.8
		c-18.2,22.6-32,37.1-32.4,32.8c-1.1-4.9,10.4-22.7,23.4-39.3c13.7-15.9,25.2-33.7,26.3-38.1c3.8-16.6-28.2-17.8-42-1.9
		c-11.1,12.9-10.3,14.9,3.6,11.1c11.8-3-42.8,64.8-175.8,215.5c-106.2,119.7-191,220.9-187.9,223.5c3,2.6,17.9-7,32.5-20.8
		l27.9-26.1l-22.8,27.9c-20.7,27-20.4,31.3,1.4,58C2518.2-1515.8,2534-1494.3,2540.4-1484.8z M2861.4-2042.7
		c4.2-0.3,33.1,16.7,64.5,38.6l56.7,38.4l-56.9-51.9c-31.8-27.5-61.7-49.4-68-48.2C2845.9-2061.4,2848.7-2041.8,2861.4-2042.7z
		 M2872.3-2078.3l61.3,53l61.3,53l222.4-257.2l222.4-257.2l-33.3-28.8c-18.2-15.7-44.3-34.4-58.4-42.5l-25.2-15.2L3121.9-2341
		c-110.5,127.8-211.7,238.7-225.9,247.5L2872.3-2078.3z M3332.7-2581.8c4.4,2.5,32.1,22.5,64.2,45l56.9,41.2l-57.7-52.5
		c-34.1-30.8-59.6-48.8-63.5-44.3C3328.7-2587.8,3329-2583.6,3332.7-2581.8z M3371.7-2591.7l42.4,36.6c22.7,19.6,44.4,35.8,48,36.2
		c12.7-0.9,383-436.9,376.2-442.8c-3.8-3.3-10.1-12.7-15-20.9c-7.3-12.9-17.3-4.4-77.1,61.6l-69.5,77.4l59.9-73.8
		c32.5-40.6,58.7-80.1,58.2-87.2c-0.7-9.9-5.6-8.8-14.9,0.4c-10.5,12.1-11.9,12.2-6.6-3.1c4.6-14.5,2.2-17.9-16.9-18.6
		c-30.7-2.7-161.5,128.7-152.7,152.2c3.6,11.1-4.6,25.1-27,48c-19.9,18.5-34.2,27.3-36.8,21.1c-1.9-6.9-5.1-1.8-8.4,11.2
		s-38.8,61.7-82.6,112.3L3371.7-2591.7z"/>
	<path d="M2097.3-1113c-0.3-4.2,26.1-31.7,57.2-61.6s52.7-45.7,47.7-36.8s-30.6,37-56.6,60.8C2119.1-1126,2098.3-1109.6,2097.3-1113
		z"/>
	<path d="M2396-1432.5c-4.5-3.9,6.2-22.4,23.9-41.4c26.3-28.8,29.6-31.2,21.9-11.5c-6.1,13.2-16.8,31.7-24.6,42.2
		C2410.1-1433.5,2399.8-1429.2,2396-1432.5z"/>
	<path d="M2948.9-2067.5c8.3-12.7,26-33.1,39.2-45.4c13.3-12.3,6.9-1.9-14.6,23S2940.6-2054.9,2948.9-2067.5z"/>
	<path d="M3266.8-2424.5c15.2-34.4,58.4-84.4,78.5-90.8c11.8-3,0.3,13.5-35.7,55.1C3272.9-2419.3,3260.3-2407.8,3266.8-2424.5z"/>
	<path d="M3034.8-2446.7c-6.4-20.1,28.1-81.4,62-113l36.6-33.1l-64.3-15.9c-35.4-9.5-85.5-15.8-111.8-16
		c-26.9,0.5-47.7-2.9-48.1-8.6c-0.3-4.2,14.3-18.1,33.2-30.8c46.8-29.6,136.4-35.4,177.1-12.2l32.6,18.9l-3.8-43
		c-1.7-33.2,2.8-49.1,23.1-72.6c29.4-34,35.2-33,33.3,8.9c-0.8,17.8,4.2,48.6,10,69.5c7.2,20.7,7.3,51.2,1.3,67.3
		c-7.3,16.1-9,31.9-6,34.5c9.8,8.5-2.4,64-21.2,98c-20.1,35.5-34.9,26.6-24.5-14.5l6.4-28.8l-30.6,18.5
		c-17,10.4-46.6,32.5-66.6,49.5C3054.3-2452.3,3035.9-2441.8,3034.8-2446.7z M3080.5-2510.3c-7.5,13.3-6,14.6,4.8,8.2
		c104.3-57.9,123.7-72.8,102.9-76.2c-6.5-1.7-16.1,3.3-22,10.1c-5.2,6.1-24.9,18.1-43.5,25.8
		C3103.6-2533.9,3084.8-2519.8,3080.5-2510.3z M2947.8-2648.8c19.2,10,216,45.3,219.8,39.3c9.1-12-13.3-36.6-33-35.2
		c-11.9,1.6-9.6,4.9,11.1,16.2c36.2,20.8,2.2,11.2-72.4-20.3c-42.4-18.2-64.7-21.5-92.4-12.4
		C2960.8-2656.1,2945.6-2649.3,2947.8-2648.8z M3170.1-2662.8l13.3,36.6l-4.5-33c-2.7-18.2-2.6-35.3,0.1-38.3
		c2-2.3,3.5-20.8,2.9-38.5l-1.8-34.6l-12.3,35.6C3160.8-2713.2,3161.4-2684.9,3170.1-2662.8z"/>
</g>
</svg>
