<?xml version="1.0" encoding="utf-8"?>
<!-- Generator: Adobe Illustrator 23.0.2, SVG Export Plug-In . SVG Version: 6.00 Build 0)  -->
<svg version="1.1" id="Layer_1" xmlns="http://www.w3.org/2000/svg" xmlns:xlink="http://www.w3.org/1999/xlink" x="0px" y="0px"
	 viewBox="0 0 900 900" style="enable-background:new 0 0 900 900;" xml:space="preserve">
<g transform="translate(0.000000,900.000000) scale(0.100000,-0.100000)">
	<path d="M3764,3075c-5-27-2-41,11-55c19-21,60-27,70-10c11,19,47,10,85-20c40-31,67-25,37,8c-9,9-18,29-22,43c-6,23,0,29,57,64
		c71,43,92,62,100,90c8,27,71,177,81,193c12,18,45,14,57-7c5-11,10-37,10-59s7-77,15-123s17-142,20-214l6-130l-30-55
		c-53-98-67-134-85-210c-9-41-24-100-32-130c-9-30-14-71-12-90c3-29,8-36,36-44c57-16,75,1,95,90c39,166,50,202,96,294l46,94l119,18
		c139,21,169,14,174-37c1-17,12-72,24-124l21-93l116-119c63-66,125-122,137-125c64-16,87,58,36,112c-15,16-61,66-101,111
		c-80,90-73,71-124,338c-15,79-31,304-32,459c0,85-3,79,66,109c34,14,39,14,68-1c58-32,119-91,165-161c48-72,97-121,121-121
		c22,0,45,30,45,59c0,53-76,168-161,245c-50,45-61,74-35,98c129,120,194,201,249,308c40,77,55,127,78,265c20,115,20,123,4,225
		c-36,231-147,429-315,563c-135,107-221,150-405,197c-46,12-297,24-320,16c-5-2-37-9-70-16c-326-67-576-279-688-585
		c-82-223-52-522,73-720c14-22,30-47,35-56c59-93,211-229,318-284c61-32,63-38,33-108c-14-34-26-70-26-81c0-24-62-82-107-101
		c-20-8-37-15-39-15 M4580,5011c96-10,174-34,270-82c50-25,92-60,180-150c118-121,157-179,192-294c24-75,42-217,34-266
		c-4-24-11-71-16-104c-32-212-197-428-402-526c-35-16-71-35-82-40c-53-30-135-41-301-41c-149,0-177,2-230,21c-33,12-69,25-80,28
		c-74,20-152,74-258,179c-112,109-137,146-193,279c-15,34-44,205-44,256c0,65,40,239,68,296c46,96,75,134,179,234
		c88,85,113,103,206,148c92,44,119,53,194,60C4420,5021,4482,5021,4580,5011z M4641,3373c0-5,1-26,3-48c1-22,8-106,16-187
		c7-80,10-152,7-160c-3-10-37-18-112-26c-59-7-111-9-117-6c-18,11-30,60-44,184c-7,69-17,146-20,172c-11,79-12,78,136,78
		C4581,3380,4640,3377,4641,3373z"/>
	<path d="M4183,4403c-7-2-13-15-13-29c0-18,9-27,35-38c42-18,55-44,32-61c-34-25-49-122-27-179c25-66,150-90,210-40
		c35,30,102,157,94,178c-3,8-35,29-72,47c-37,19-74,39-82,45c-18,14-153,84-160,83C4197,4409,4189,4406,4183,4403z"/>
	<path d="M4950,4308c-41-17-97-39-125-50c-100-39-117-56-76-78c13-6,24-29,31-65c15-74,51-105,124-105c47,0,55,4,89,38
		c44,45,49,94,16,149c-20,32-20,35-4,53c9,10,33,22,53,27c30,7,37,13,37,33c0,22-5,25-35,27C5041,4337,4991,4325,4950,4308z"/>
	<path d="M4482,3834c-12-8-20-19-17-24c7-11,123-32,194-33c45-1,64,2,71,13c18,28,4,35-91,47C4512,3852,4508,3852,4482,3834z"/>
</g>
<g transform="translate(0.000000,900.000000) scale(0.100000,-0.100000)">
	<path d="M-6604,3075c-5-27-2-41,11-55c19-21,60-27,70-10c11,19,47,10,85-20c40-31,67-25,37,8c-9,9-18,29-22,43c-6,23,0,29,57,64
		c71,43,92,62,100,90c8,27,71,177,81,193c12,18,45,14,57-7c5-11,10-37,10-59s7-77,15-123s17-142,20-214l6-130l-30-55
		c-53-98-67-134-85-210c-9-41-24-100-32-130c-9-30-14-71-12-90c3-29,8-36,36-44c57-16,75,1,95,90c39,166,50,202,96,294l46,94l119,18
		c139,21,169,14,174-37c1-17,12-72,24-124l21-93l116-119c63-66,125-122,137-125c64-16,87,58,36,112c-15,16-61,66-101,111
		c-80,90-73,71-124,338c-15,79-31,304-32,459c0,85-3,79,66,109c34,14,39,14,68-1c58-32,119-91,165-161c48-72,97-121,121-121
		c22,0,45,30,45,59c0,53-76,168-161,245c-50,45-61,74-35,98c129,120,194,201,249,308c40,77,55,127,78,265c20,115,20,123,4,225
		c-36,231-147,429-315,563c-135,107-221,150-405,197c-46,12-297,24-320,16c-5-2-37-9-70-16c-326-67-576-279-688-585
		c-82-223-52-522,73-720c14-22,30-47,35-56c59-93,211-229,318-284c61-32,63-38,33-108c-14-34-26-70-26-81c0-24-62-82-107-101
		c-20-8-37-15-39-15 M-5788,5011c96-10,174-34,270-82c50-25,92-60,180-150c118-121,157-179,192-294c24-75,42-217,34-266
		c-4-24-11-71-16-104c-32-212-197-428-402-526c-35-16-71-35-82-40c-53-30-135-41-301-41c-149,0-177,2-230,21c-33,12-69,25-80,28
		c-74,20-152,74-258,179c-112,109-137,146-193,279c-15,34-44,205-44,256c0,65,40,239,68,296c46,96,75,134,179,234
		c88,85,113,103,206,148c92,44,119,53,194,60C-5948,5021-5886,5021-5788,5011z M-5727,3373c0-5,1-26,3-48c1-22,8-106,16-187
		c7-80,10-152,7-160c-3-10-37-18-112-26c-59-7-111-9-117-6c-18,11-30,60-44,184c-7,69-17,146-20,172c-11,79-12,78,136,78
		C-5787,3380-5728,3377-5727,3373z"/>
	<path d="M-6185,4403c-7-2-13-15-13-29c0-18,9-27,35-38c42-18,55-44,32-61c-34-25-49-122-27-179c25-66,150-90,210-40
		c35,30,102,157,94,178c-3,8-35,29-72,47c-37,19-74,39-82,45c-18,14-153,84-160,83C-6171,4409-6179,4406-6185,4403z"/>
	<path d="M-5418,4308c-41-17-97-39-125-50c-100-39-117-56-76-78c13-6,24-29,31-65c15-74,51-105,124-105c47,0,55,4,89,38
		c44,45,49,94,16,149c-20,32-20,35-4,53c9,10,33,22,53,27c30,7,37,13,37,33c0,22-5,25-35,27C-5327,4337-5377,4325-5418,4308z"/>
	<path d="M-5886,3834c-12-8-20-19-17-24c7-11,123-32,194-33c45-1,64,2,71,13c18,28,4,35-91,47C-5856,3852-5860,3852-5886,3834z"/>
</g>
<g transform="translate(0.000000,300.000000) scale(0.100000,-0.100000)">
	<path d="M-8245.7-1114.1c-4.2-22.4,9.8-38.1,336.1-390.3c187.1-201.6,366.9-396.4,398.7-432.3c57.8-65,57.8-65,30.2-64.1
		c-15.5,0.9-57,19-92.7,38.1c-63,36.3-64.4,36.4-55.5,8.2c5.8-21.6,15.1-32.1,38.4-44.8c37-20.6,43-27.3,32.5-36.6
		c-3.7-3.3-8-3.1-9.1,2.7c-1.2,4.3-21.7,4.8-46.1-0.8c-39.4-8.3-43.1-10.2-32.5-22.2c21.9-24.7,71.7-20.5,105.4,9.4
		c23.9,21.3,39.1,26.7,69.4,24.2l37.4-2.9l231-249.5l231-249.5h-36.1c-64.4,1.7-66.9-16.6-4.1-21l60-4.3l201.7-218.1
		c174.4-188.8,203.9-217.5,219-213.4c34.5,9.3,77.5,40.8,98.6,74.2l23.3,34l-662.4,741.1c-654.5,730.7-662.5,739.7-662.2,769.4
		c0.3,16.3,8.4,46.3,18,65.5c18.5,37.9,15.5,57.9-5.5,39.3c-9.7-8.6-12.3-4.2-16.1,27.2c-4.3,47-19.1,48.6-28.2,3.1
		c-5.7-25.2-11.2-34-19.4-29.3c-22.8,10.6-10.3-30.6,14.8-49.7c22.3-17.6,31.2-47.2,17.8-59.1c-3.7-3.3-89.1,86.7-189.4,199.6
		c-166,186.9-184.1,204.3-202.1,200.4C-8181.3-972.6-8234-1048.9-8245.7-1114.1z M-8164.3-996.3l25.4,22.6L-7968-1163
		c93.7-104,175.5-194.5,181.5-201.3c13.4-13.5-21.6-78.1-63.5-115.2l-26.2-23.2l-176,198.1c-136.2,153.3-173.8,200.1-167,206.1
		c5.2,4.6,7.1,11.6,3.7,15.4c-3.3,3.7,1.2,19.8,9.9,35.5C-8196.1-1031.3-8177.8-1008.3-8164.3-996.3z M-7758.6-1394.3
		c-1.2-19.8-50.6-89.1-81.2-114.9c-20.1-16.5-18.4-11,10.2,29.1C-7763.8-1386.9-7757-1379.5-7758.6-1394.3z M-7755.6-1427.8
		c12.4,17.7,14.4,15.4,227.2-219.6l215.4-238l-22.4-19.9c-12-10.6-33.4-25.7-47.3-34c-24.3-14.9-26.3-14-56.5,26
		c-18.5,22.3-32.5,36.6-32.8,32.4c-1-4.9,10.7-22.6,23.9-39c13.9-15.7,25.7-33.4,26.8-37.7c4-16.5-28-18.2-41.9-2.5
		c-11.3,12.7-10.5,14.8,3.5,11.1c11.9-2.8-43.7,64.2-178.7,213.1c-107.8,118.3-193.9,218.3-190.9,221s18-6.7,32.8-20.4l28.2-25.8
		l-23.2,27.6c-21.1,26.7-20.8,31,0.6,58C-7777.3-1459.1-7761.8-1437.3-7755.6-1427.8z M-7427.1-1981.3c4.2-0.3,32.9,17.2,64,39.4
		l56.1,39.2l-56.2-52.6c-31.4-27.9-61.1-50.2-67.4-49.1C-7442.4-2000.2-7439.8-1980.5-7427.1-1981.3z M-7415.7-2016.7l60.6,53.8
		l60.6,53.8l225.8-254.2l225.8-254.2l-32.9-29.2c-17.9-15.9-43.9-34.9-57.8-43.3l-25-15.5l-204,229.5
		c-112.2,126.3-214.9,235.8-229.2,244.5L-7415.7-2016.7z M-6948.6-2513.9c4.4,2.6,31.8,22.9,63.6,45.8l56.3,42l-57-53.3
		c-33.7-31.3-58.9-49.6-62.9-45.2S-6952.2-2515.8-6948.6-2513.9z M-6909.4-2523.3l41.9,37.2c22.4,19.9,43.9,36.4,47.5,36.9
		c12.7-0.8,388.9-431.7,382.1-437.7c-3.7-3.3-10-12.9-14.7-21.1c-7.1-13-17.3-4.6-77.9,60.6l-70.6,76.4l60.9-73
		c33-40.2,59.8-79.3,59.4-86.4c-0.6-9.9-5.5-8.9-14.9,0.2c-10.6,12-12,12-6.6-3.2c4.8-14.5,2.5-17.9-16.7-18.8
		c-30.6-3.1-163.2,126.5-154.8,150.1c3.5,11.1-4.9,25.1-27.6,47.7c-20.2,18.2-34.5,26.8-37,20.6c-1.8-7-5.1-1.8-8.6,11.1
		c-3.5,13-39.6,61.1-84.1,111.2L-6909.4-2523.3z"/>
	<path d="M-8203.6-1062c-0.3-4.2,26.5-31.3,58-60.8s53.3-44.9,48.2-36.1s-31.1,36.5-57.4,60.1
		C-8181.7-1074.6-8202.7-1058.5-8203.6-1062z"/>
	<path d="M-7900.7-1377.4c-4.5-4,6.5-22.3,24.5-41.1c26.6-28.5,30.1-30.8,22-11.2c-6.3,13.1-17.3,31.5-25.2,41.9
		C-7886.6-1378.2-7896.9-1374.1-7900.7-1377.4z"/>
	<path d="M-7339.2-2004.9c8.5-12.5,26.4-32.7,39.8-44.9c13.4-12.1,7-1.8-14.9,22.8C-7336.2-2002.2-7347.7-1992.3-7339.2-2004.9z"/>
	<path d="M-7016.5-2357.6c15.7-34.2,59.5-83.6,79.7-89.7c11.9-2.8,0.1,13.5-36.4,54.6C-7010.5-2352.3-7023.3-2340.9-7016.5-2357.6z"
		/>
	<path d="M-7248.2-2382.9c-6.2-20.2,29.2-81.1,63.5-112.1l37-32.6l-64-16.8c-35.3-10-85.3-16.9-111.5-17.5
		c-26.9,0.2-47.7-3.6-48-9.2c-0.3-4.2,14.5-17.9,33.6-30.3c47.2-29,136.8-33.6,177.2-9.8l32.3,19.3l-3.3-43
		c-1.3-33.2,3.5-49.1,24.1-72.3c29.9-33.6,35.6-32.6,33.1,9.4c-1.1,17.8,3.6,48.7,9.1,69.6c6.9,20.8,6.6,51.3,0.4,67.3
		c-7.6,16-9.5,31.7-6.5,34.4c9.7,8.6-3.3,63.9-22.6,97.7c-20.6,35.2-35.3,26.2-24.3-14.9l6.8-28.7l-30.8,18.1
		c-17.1,10.2-47,31.8-67.3,48.6C-7228.7-2388.3-7247.2-2378-7248.2-2382.9z M-7201.7-2445.8c-7.7,13.2-6.2,14.5,4.7,8.2
		c105-56.5,124.7-71.1,104-74.9c-6.5-1.7-16.1,3.1-22.1,9.8c-5.3,6-25.2,17.8-43.8,25.3C-7178.2-2469.2-7197.3-2455.3-7201.7-2445.8
		z M-7332.5-2586.1c19,10.2,215.4,48.2,219.3,42.3c9.2-11.9-12.8-36.8-32.6-35.6c-12,1.4-9.6,4.8,10.9,16.4
		c36,21.2,2.1,11.2-72.1-21.2c-42.2-18.8-64.4-22.4-92.2-13.7C-7319.5-2593.3-7334.7-2586.7-7332.5-2586.1z M-7110-2597.2l12.8,36.8
		l-4.1-33.1c-2.5-18.3-2.1-35.3,0.6-38.3c2-2.2,3.7-20.8,3.4-38.5l-1.3-34.6l-12.8,35.5C-7118.7-2647.6-7118.4-2619.3-7110-2597.2z"
		/>
</g>
<g transform="translate(0.000000,300.000000) scale(0.100000,-0.100000)">
	<path d="M2071-1114.1c-4.2-22.4,9.8-38.1,336.1-390.3c187.1-201.6,366.9-396.4,398.7-432.3c57.8-65,57.8-65,30.2-64.1
		c-15.5,0.9-57,19-92.7,38.1c-63,36.3-64.4,36.4-55.5,8.2c5.8-21.6,15.1-32.1,38.4-44.8c37-20.6,43-27.3,32.5-36.6
		c-3.7-3.3-8-3.1-9.1,2.7c-1.2,4.3-21.7,4.8-46.1-0.8c-39.4-8.3-43.1-10.2-32.5-22.2c21.9-24.7,71.7-20.5,105.4,9.4
		c23.9,21.3,39.1,26.7,69.4,24.2l37.4-2.9l231-249.5l231-249.5h-36.1c-64.4,1.7-66.9-16.6-4.1-21l60-4.3l201.7-218.1
		c174.4-188.8,203.9-217.5,219-213.4c34.5,9.3,77.5,40.8,98.6,74.2l23.3,34L3245.2-2132c-654.5,730.7-662.5,739.7-662.2,769.4
		c0.3,16.3,8.4,46.3,18,65.5c18.5,37.9,15.5,57.9-5.5,39.3c-9.7-8.6-12.3-4.2-16.1,27.2c-4.3,47-19.1,48.6-28.2,3.1
		c-5.7-25.2-11.2-34-19.4-29.3c-22.8,10.6-10.3-30.6,14.8-49.7c22.3-17.6,31.2-47.2,17.8-59.1c-3.7-3.3-89.1,86.7-189.4,199.6
		c-166,186.9-184.1,204.3-202.1,200.4C2135.4-972.6,2082.7-1048.9,2071-1114.1z M2152.4-996.3l25.4,22.6l170.9-189.3
		c93.7-104,175.5-194.5,181.5-201.3c13.4-13.5-21.6-78.1-63.5-115.2l-26.2-23.2l-176,198.1c-136.2,153.3-173.8,200.1-167,206.1
		c5.2,4.6,7.1,11.6,3.7,15.4c-3.3,3.7,1.2,19.8,9.9,35.5C2120.6-1031.3,2138.9-1008.3,2152.4-996.3z M2558.1-1394.3
		c-1.2-19.8-50.6-89.1-81.2-114.9c-20.1-16.5-18.4-11,10.2,29.1C2552.9-1386.9,2559.7-1379.5,2558.1-1394.3z M2561.1-1427.8
		c12.4,17.7,14.4,15.4,227.2-219.6l215.4-238l-22.4-19.9c-12-10.6-33.4-25.7-47.3-34c-24.3-14.9-26.3-14-56.5,26
		c-18.5,22.3-32.5,36.6-32.8,32.4c-1-4.9,10.7-22.6,23.9-39c13.9-15.7,25.7-33.4,26.8-37.7c4-16.5-28-18.2-41.9-2.5
		c-11.3,12.7-10.5,14.8,3.5,11.1c11.9-2.8-43.7,64.2-178.7,213.1c-107.8,118.3-193.9,218.3-190.9,221s18-6.7,32.8-20.4l28.2-25.8
		l-23.2,27.6c-21.1,26.7-20.8,31,0.6,58C2539.4-1459.1,2554.9-1437.3,2561.1-1427.8z M2889.6-1981.3c4.2-0.3,32.9,17.2,64,39.4
		l56.1,39.2l-56.2-52.6c-31.4-27.9-61.1-50.2-67.4-49.1C2874.3-2000.2,2876.9-1980.5,2889.6-1981.3z M2901-2016.7l60.6,53.8
		l60.6,53.8l225.8-254.2l225.8-254.2l-32.9-29.2c-17.9-15.9-43.9-34.9-57.8-43.3l-25-15.5l-204,229.5
		c-112.2,126.3-214.9,235.8-229.2,244.5L2901-2016.7z M3368.1-2513.9c4.4,2.6,31.8,22.9,63.6,45.8l56.3,42l-57-53.3
		c-33.7-31.3-58.9-49.6-62.9-45.2S3364.5-2515.8,3368.1-2513.9z M3407.3-2523.3l41.9,37.2c22.4,19.9,43.9,36.4,47.5,36.9
		c12.7-0.8,388.9-431.7,382.1-437.7c-3.7-3.3-10-12.9-14.7-21.1c-7.1-13-17.3-4.6-77.9,60.6l-70.6,76.4l60.9-73
		c33-40.2,59.8-79.3,59.4-86.4c-0.6-9.9-5.5-8.9-14.9,0.2c-10.6,12-12,12-6.6-3.2c4.8-14.5,2.5-17.9-16.7-18.8
		c-30.6-3.1-163.2,126.5-154.8,150.1c3.5,11.1-4.9,25.1-27.6,47.7c-20.2,18.2-34.5,26.8-37,20.6c-1.8-7-5.1-1.8-8.6,11.1
		c-3.5,13-39.6,61.1-84.1,111.2L3407.3-2523.3z"/>
	<path d="M2113.1-1062c-0.3-4.2,26.5-31.3,58-60.8s53.3-44.9,48.2-36.1s-31.1,36.5-57.4,60.1C2135-1074.6,2114-1058.5,2113.1-1062z"
		/>
	<path d="M2416-1377.4c-4.5-4,6.5-22.3,24.5-41.1c26.6-28.5,30.1-30.8,22-11.2c-6.3,13.1-17.3,31.5-25.2,41.9
		C2430.1-1378.2,2419.8-1374.1,2416-1377.4z"/>
	<path d="M2977.5-2004.9c8.5-12.5,26.4-32.7,39.8-44.9c13.4-12.1,7-1.8-14.9,22.8C2980.5-2002.2,2969-1992.3,2977.5-2004.9z"/>
	<path d="M3300.2-2357.6c15.7-34.2,59.5-83.6,79.7-89.7c11.9-2.8,0.1,13.5-36.4,54.6C3306.2-2352.3,3293.4-2340.9,3300.2-2357.6z"/>
	<path d="M3068.5-2382.9c-6.2-20.2,29.2-81.1,63.5-112.1l37-32.6l-64-16.8c-35.3-10-85.3-16.9-111.5-17.5c-26.9,0.2-47.7-3.6-48-9.2
		c-0.3-4.2,14.5-17.9,33.6-30.3c47.2-29,136.8-33.6,177.2-9.8l32.3,19.3l-3.3-43c-1.3-33.2,3.5-49.1,24.1-72.3
		c29.9-33.6,35.6-32.6,33.1,9.4c-1.1,17.8,3.6,48.7,9.1,69.6c6.9,20.8,6.6,51.3,0.4,67.3c-7.6,16-9.5,31.7-6.5,34.4
		c9.7,8.6-3.3,63.9-22.6,97.7c-20.6,35.2-35.3,26.2-24.3-14.9l6.8-28.7l-30.8,18.1c-17.1,10.2-47,31.8-67.3,48.6
		C3088-2388.3,3069.5-2378,3068.5-2382.9z M3115-2445.8c-7.7,13.2-6.2,14.5,4.7,8.2c105-56.5,124.7-71.1,104-74.9
		c-6.5-1.7-16.1,3.1-22.1,9.8c-5.3,6-25.2,17.8-43.8,25.3C3138.5-2469.2,3119.4-2455.3,3115-2445.8z M2984.2-2586.1
		c19,10.2,215.4,48.2,219.3,42.3c9.2-11.9-12.8-36.8-32.6-35.6c-12,1.4-9.6,4.8,10.9,16.4c36,21.2,2.1,11.2-72.1-21.2
		c-42.2-18.8-64.4-22.4-92.2-13.7C2997.2-2593.3,2982-2586.7,2984.2-2586.1z M3206.7-2597.2l12.8,36.8l-4.1-33.1
		c-2.5-18.3-2.1-35.3,0.6-38.3c2-2.2,3.7-20.8,3.4-38.5l-1.3-34.6l-12.8,35.5C3198-2647.6,3198.3-2619.3,3206.7-2597.2z"/>
</g>
</svg>
