<?xml version="1.0" encoding="utf-8"?>
<!-- Generator: Adobe Illustrator 23.0.2, SVG Export Plug-In . SVG Version: 6.00 Build 0)  -->
<svg version="1.1" id="Layer_1" xmlns="http://www.w3.org/2000/svg" xmlns:xlink="http://www.w3.org/1999/xlink" x="0px" y="0px"
	 viewBox="0 0 900 900" style="enable-background:new 0 0 900 900;" xml:space="preserve">
<g transform="translate(0.000000,900.000000) scale(0.100000,-0.100000)">
	<path d="M4295,5061c-49-4-100-12-112-19s-31-12-43-12c-34,0-205-85-267-133c-143-110-243-237-305-387c-45-107-60-191-60-327
		c0-103,21-252,41-290c5-10,17-38,27-63c31-75,114-190,208-288l90-93l-17-47c-24-65-22-73,21-103c66-45,251-132,272-126
		c11,3,24,0,29-7c5-6,11-83,13-171l3-160l-30-45c-70-107-95-196-95-337c0-105,13-133,64-133c43,0,56,16,56,68c0,24,7,91,16,150
		c13,84,23,116,45,150c16,24,29,47,29,52c0,4,14,20,31,34c29,25,36,26,145,26c133,0,124,9,143-130c25-175,73-336,102-345
		c34-11,69,4,80,33c10,26-3,112-33,207c-24,79-40,228-44,435c-6,238,1,328,26,340c8,4,30,14,48,23c19,10,50,20,70,23
		c32,5,43,1,82-30c29-23,56-36,75-36c16,0,97,33,185,76c85,42,162,80,170,84c19,9,25,76,9,96c-23,28-52,21-224-61
		c-175-84-183-69-40,77c58,59,105,114,105,121c0,8,6,19,13,25c14,12,67,119,86,172c20,58,41,200,41,280c0,157-48,329-127,451
		c-59,93-181,219-261,272c-69,45-212,117-235,117c-6,0-30,6-52,14C4627,5060,4419,5070,4295,5061z M4660,4920c110-34,172-65,268-137
		c41-30,81-64,90-75c10-11,22-25,27-32c46-50,106-153,148-258c28-68,41-219,27-321c-24-182-79-294-214-435c-230-241-589-308-921-174
		c-121,50-285,196-354,317c-75,130-95,201-99,354c-3,86,0,149,8,180c27,100,53,167,76,198c13,17,24,35,24,40c0,14,103,137,145,174
		c70,61,240,159,278,159c6,0,30,7,52,15c29,10,88,14,210,14C4567,4940,4606,4936,4660,4920z M4154,3329c41-32,18-45-33-19
		c-22,12-41,26-41,31C4080,3358,4127,3350,4154,3329z M4574,3294c3-9,6-84,6-168c0-201,3-196-134-196c-84,0-106,3-117,16
		s-14,57-14,178v161l105,11C4570,3312,4567,3312,4574,3294z"/>
	<path d="M4159,4318c-10-18-8-24,12-40c13-10,34-23,47-28c27-12,28-34,2-67c-23-30-28-123-7-162c14-28,82-70,113-71
		c35,0,110,38,121,62c5,13,20,54,33,92c22,68,22,69,4,83c-24,18-294,153-305,153C4174,4340,4166,4330,4159,4318z"/>
	<path d="M5015,4300c-21-11-45-20-51-20c-7,0-41-15-76-33s-82-41-106-50c-52-21-61-41-33-70c11-13,26-38,32-57c25-76,74-105,156-94
		c50,6,55,9,73,45c27,52,25,97-5,141c-14,20-25,41-25,45s25,19,56,33c48,21,55,28,52,50C5084,4322,5064,4325,5015,4300z"/>
	<path d="M4520,3773c-37-7-45-20-20-33c25-14,201-18,238-6c38,13,26,33-24,40S4560,3780,4520,3773z"/>
</g>
</svg>
