<?xml version="1.0" encoding="utf-8"?>
<!-- Generator: Adobe Illustrator 23.0.2, SVG Export Plug-In . SVG Version: 6.00 Build 0)  -->
<svg version="1.1" id="Layer_1" xmlns="http://www.w3.org/2000/svg" xmlns:xlink="http://www.w3.org/1999/xlink" x="0px" y="0px"
	 viewBox="0 0 900 900" style="enable-background:new 0 0 900 900;" xml:space="preserve">
<g transform="translate(0.000000,900.000000) scale(0.100000,-0.100000)">
	<path d="M4160,4980c-101-24-133-36-215-77c-109-55-209-136-295-238c-51-61-150-239-150-269c0-10-7-30-15-45c-38-75-35-373,6-494
		c27-80,95-217,122-248c119-132,157-179,157-197c0-11,20-46,44-78c54-73,198-214,219-214c23,0,47,28,47,56c0,14-9,43-21,66l-21,41
		l24-7c12-4,40-11,60-15c65-14,65-13,71-214l5-182l-65-97c-36-53-69-114-74-135c-13-52,9-272,29-295c19-22,75-24,92-3
		c10,12,11,48,6,148l-7,132l38,52c21,29,50,71,65,93l28,40h120c89,0,120-3,121-12c1-7,0-66-1-130l-2-118l59-91c61-96,93-129,124-129
		c24,0,59,35,59,58c0,11-27,59-60,108c-68,101-71,118-45,264c9,54,15,157,16,280c1,107,4,208,8,224c5,24,21,36,97,76
		c102,52,110,58,213,150c61,54,80,66,119,72c64,9,353,8,376-1c17-6,16-9-10-26c-46-30-97-55-114-55c-9,0-24-6-35-13
		c-23-15-105-43-152-52c-21-4-33-13-33-22c0-14,10-15,68-10c37,4,88,13,112,21c213,67,282,90,286,98c3,4,12,8,20,8
		c26,0,185,82,195,101c13,26,1,67-25,81c-14,8-55,11-121,8c-55-2-190-5-300-5h-200l3,30c2,16,7,34,12,40c10,12,34,77,58,155
		c12,40,16,95,17,205c0,175-12,232-78,375c-74,160-247,334-412,415c-80,39-115,51-213,75C4482,5006,4270,5007,4160,4980z M4565,4860
		c222-61,347-144,477-317c58-78,69-102,116-253c18-56,25-199,13-265c-24-132-32-159-73-243c-36-74-58-103-148-192
		c-89-89-118-111-190-146c-154-74-261-98-415-91c-144,7-215,25-339,86c-91,45-111,61-207,158c-78,80-115,126-141,178
		c-67,132-73,162-73,345c0,181,0,179,72,325c137,274,400,432,723,434C4464,4879,4514,4874,4565,4860z M4578,3106
		c4-177,4-176-132-176c-81,0-106,3-116,15c-20,24-27,257-8,272c13,11,119,20,213,19l40-1L4578,3106z"/>
	<path d="M4103,4245c-7-20,21-51,52-59c33-8,38-33,14-73c-18-28-21-45-17-100c4-61,7-68,38-95c28-23,44-28,87-28c34,0,63,6,79,17
		c32,21,69,78,78,121c4,17,12,34,17,37c5,4,9,14,9,25c0,13-38,37-154,94C4149,4261,4114,4272,4103,4245z"/>
	<path d="M4965,4235c-146-69-228-105-239-105c-14,0-46-31-46-44c0-5,11-21,25-38c14-16,25-40,25-52s17-38,39-60c38-37,42-38,95-34
		c82,7,106,32,106,113c0,38-5,68-15,81c-26,34-18,52,35,76c49,23,56,31,44,62C5027,4253,5005,4253,4965,4235z"/>
	<path d="M4444,3699c-14-24,62-49,151-49c84,0,107,8,103,34c-3,20-9,21-125,24C4490,3710,4449,3707,4444,3699z"/>
</g>
</svg>
