<?xml version="1.0" encoding="utf-8"?>
<!-- Generator: Adobe Illustrator 23.0.2, SVG Export Plug-In . SVG Version: 6.00 Build 0)  -->
<svg version="1.1" id="Layer_1" xmlns="http://www.w3.org/2000/svg" xmlns:xlink="http://www.w3.org/1999/xlink" x="0px" y="0px"
	 viewBox="0 0 900 900" style="enable-background:new 0 0 900 900;" xml:space="preserve">
<g transform="translate(0.000000,900.000000) scale(0.100000,-0.100000)">
	<path d="M4670,5060c-151-13-300-74-446-183c-79-59-116-96-167-164c-36-49-71-100-77-113c-6-14-20-41-30-60s-29-64-42-100
		c-21-59-23-82-23-260s2-201,23-260c20-57,55-133,100-216c7-13,57-68,110-122c87-88,159-144,249-193l30-16l9-174
		c14-262,9-382-16-433c-11-23-20-48-20-54c0-7-66-83-147-168c-82-86-150-163-151-171c-6-25,28-53,66-53c33,0,49,13,189,156
		c117,119,155,164,163,193c5,21,20,53,33,72l23,34l119,3c66,1,130,0,142-3c28-7,73-71,73-105c0-23-79-124-182-235
		c-32-34-36-75-10-98c37-34,56-21,201,130c134,140,141,149,141,188c0,33-11,57-55,123c-59,88-71,119-56,141c7,12,20,5,61-32
		c58-52,71-56,100-27c40,40,30,61-83,184c-80,86-81,89-68,168c7,40,16,77,22,84s28,15,50,19c74,13,164,48,289,115
		c63,34,265,233,304,300c84,145,126,294,126,449c0,202-59,369-193,549c-38,50-73,92-77,92s-20,11-36,25c-65,57-222,155-249,155
		c-8,0-29,6-47,14C5018,5057,4846,5075,4670,5060z M5040,4909c141-45,211-89,325-201c99-98,145-155,145-182c0-7,6-19,13-25
		c30-25,77-219,77-320c0-104-39-250-96-360c-33-63-156-198-229-250c-70-51-216-120-278-132c-29-6-110-13-182-16c-133-5-181,1-297,38
		c-187,61-395,249-460,414c-49,127-57,167-57,300c-1,145,12,204,69,323c42,85,66,119,133,189c119,125,209,179,392,236
		c36,11,93,16,200,16C4937,4940,4951,4938,5040,4909z M4595,3263c17-16,65-57,108-92c42-35,80-74,83-85c3-12,4-55,2-96l-3-75l-116-3
		l-116-3l-7,68c-3,37-11,113-16,168c-6,55-7,115-4,132C4533,3314,4544,3312,4595,3263z M4805,3275c0-5-10-11-22-13c-16-2-23,2-23,13
		s7,15,23,13C4795,3286,4805,3281,4805,3275z"/>
	<path d="M4537,4322c-25-27-21-38,21-63c50-31,54-39,34-69c-26-38-24-160,3-190c44-49,110-63,164-35c43,22,80,72,87,116
		c4,21,13,44,20,50c35,29,16,46-143,126c-87,43-160,79-164,81C4556,4339,4546,4332,4537,4322z"/>
	<path d="M5410,4310c-14-4-47-19-74-34c-27-14-52-26-57-26c-23,0-170-78-175-93c-3-10,3-30,13-44c24-34,28-41,46-85
		c23-53,86-85,137-69c21,6,49,20,64,32c23,18,26,27,26,86c0,55-4,72-26,100c-23,30-24,34-7,39c58,18,103,45,103,63
		C5460,4305,5439,4318,5410,4310z"/>
	<path d="M4883,3773c-38-5-44-28-10-39c12-4,71-7,130-7c83-1,111,3,117,14c5,8,5,18,0,23C5110,3774,4935,3781,4883,3773z"/>
</g>
</svg>
