<?xml version="1.0" encoding="utf-8"?>
<!-- Generator: Adobe Illustrator 23.0.2, SVG Export Plug-In . SVG Version: 6.00 Build 0)  -->
<svg version="1.1" id="Layer_1" xmlns="http://www.w3.org/2000/svg" xmlns:xlink="http://www.w3.org/1999/xlink" x="0px" y="0px"
	 viewBox="0 0 900 900" style="enable-background:new 0 0 900 900;" xml:space="preserve">
<g transform="translate(0.000000,900.000000) scale(0.100000,-0.100000)">
	<path d="M4215,5090c-55-8-190-51-245-78c-126-62-340-270-396-386c-47-94-62-135-84-231c-33-137-21-340,27-460
		c60-149,86-189,201-307c63-64,132-129,153-144s39-33,39-40s-13-35-30-61c-16-26-30-54-30-63c0-45,198-167,290-179l44-6l13-110
		c14-135,7-181-48-289c-31-62-44-104-55-176c-28-177-29-198-9-220c20-23,77-27,92-7c11,14,29,99,42,202c6,51,22,98,55,167
		c54,112,45,108,231,108h123l51-70c55-76,60-97,37-170c-51-161-57-207-28-233c37-33,96-10,105,40c2,16,9,42,15,58c6,17,18,57,26,90
		s19,79,25,101c9,33,8,48-4,75c-16,35-72,118-105,154c-39,44-44,69-52,260c-5,105-10,204-11,220c-2,24,2,31,21,33c12,2,22-1,22-7
		s14-26,30-44c17-19,30-40,30-46c0-15,44-25,80-18c16,4,66,32,110,62c45,31,89,59,99,63c36,15,100,68,105,87c3,11,3,31-1,43
		c-5,19-12,22-55,22c-45,0-60-7-147-65c-100-67-131-78-131-47c0,21,20,40,61,61c15,7,44,28,65,47c22,18,42,34,46,34
		c10,0,149,161,156,180c3,8,11,22,18,30c37,44,96,196,108,279c10,64,8,297-3,356c-12,65-26,104-68,190c-51,105-55,111-138,201
		c-156,171-316,261-520,294C4507,5101,4291,5101,4215,5090z M4645,4950c192-70,334-179,441-340c33-50,44-74,76-163
		c20-54,23-82,23-227c0-155-2-170-28-245c-15-44-35-91-45-105c-9-14-23-37-32-51c-20-36-79-106-114-138c-16-14-45-41-65-58
		c-20-18-39-33-43-33s-26-13-50-29c-65-43-210-89-313-100c-206-21-410,28-565,136c-81,56-213,202-247,273c-69,145-88,217-88,345
		c0,198,66,362,204,507c79,84,219,188,251,188c9,0,24,6,35,13c20,14,123,43,180,51c17,2,95,3,175,1C4557,4972,4596,4967,4645,4950z
		 M4124,3366c27-11,35-21,40-51c11-55-6-58-82-19c-36,19-68,37-71,39c-2,3,4,14,14,25C4046,3383,4078,3385,4124,3366z M4554,3312
		c28-139,36-341,14-360c-7-5-61-13-120-17l-106-7l-11,38c-7,22-17,105-23,186c-13,174-12,178,66,179c28,0,74,4,101,8
		C4538,3348,4548,3345,4554,3312z"/>
	<path d="M4136,4324c-11-30-6-39,35-58c22-11,42-23,44-26s-9-32-26-65c-16-32-29-70-29-84c0-65,104-152,163-137c44,11,92,51,114,96
		c26,54,53,116,53,123c0,8-320,167-335,167C4148,4340,4139,4333,4136,4324z"/>
	<path d="M4975,4281c-74-34-202-88-232-96c-39-11-41-65-2-86c13-7,19-21,19-45c0-54,53-104,110-104c45,0,72,11,108,43
		c31,29,32,122,1,161c-20,26-20,28-4,46c10,11,24,20,32,20c23,0,63,31,63,49c0,16-18,42-29,40C5037,4309,5008,4296,4975,4281z"/>
	<path d="M4483,3773c-35-5-44-27-17-37c9-3,70-9,135-13c106-5,119-4,125,11c4,10,3,21-2,26C4713,3771,4532,3781,4483,3773z"/>
</g>
</svg>
