<?xml version="1.0" encoding="utf-8"?>
<!-- Generator: Adobe Illustrator 23.0.2, SVG Export Plug-In . SVG Version: 6.00 Build 0)  -->
<svg version="1.1" id="Layer_1" xmlns="http://www.w3.org/2000/svg" xmlns:xlink="http://www.w3.org/1999/xlink" x="0px" y="0px"
	 viewBox="0 0 900 900" style="enable-background:new 0 0 900 900;" xml:space="preserve">
<g transform="translate(0.000000,900.000000) scale(0.100000,-0.100000)">
	<path d="M4205,5013c-252-64-419-171-562-363c-81-109-129-225-158-380c-19-105-19-161-1-253c8-40,16-83,19-97c6-32,38-114,68-176
		c54-112,197-269,304-334c83-50,107-75,103-108c-3-30-3-30-131-16c-57,6-70,4-87-11c-26-24-25-57,3-81c27-25,182-57,251-52
		c49,3,50,4,76,57l27,54l6-33c4-18,7-122,7-230v-198l-34-44c-19-23-47-58-61-75c-23-29-26-40-22-85c5-61,55-227,76-251
		c16-20,72-22,89-5c16,16,15,79-2,125c-43,120-39,147,32,222c35,37,41,39,112,46c41,3,102,5,135,3l60-3l7-88c4-48,13-98,19-110
		c25-47,142-189,165-199c32-15,71,3,80,36c6,26-30,98-66,131c-11,10-20,24-20,32c0,7-5,13-11,13c-5,0-17,17-26,37
		c-19,46-29,424-16,597l8,108l39,16c39,15,39,15,62-12c13-15,27-39,30-54c17-69,72-81,136-30c122,96,237,207,244,235
		c9,33-21,63-60,63c-23,0-45-13-86-51c-30-28-70-64-88-81c-20-17-39-27-48-24c-25,10-11,28,50,70c31,22,98,83,149,136
		c79,81,101,112,144,201c28,57,56,120,62,139c21,66,41,189,41,248c0,96-48,324-74,349c-4,5-14,23-22,42c-27,64-102,166-176,237
		c-145,141-243,193-470,248C4502,5035,4289,5034,4205,5013z M4577,4891c187-47,280-97,399-215c68-69,106-119,142-191
		c63-122,65-130,70-301c5-194-2-232-69-373c-45-95-60-115-142-196c-77-75-110-99-196-143c-139-70-228-92-376-92
		c-180,0-347,48-460,131c-56,42-198,186-236,239c-22,31-33,53-71,150c-6,14-14,48-18,75c-4,28-13,77-20,110c-10,50-9,74,5,150
		c30,164,58,230,151,356c61,82,139,155,204,190c16,9,35,21,42,26c22,18,151,66,223,84C4324,4915,4478,4915,4577,4891z M4513,3077
		c-1-122-5-183-13-192c-9-11-37-15-114-15c-55,0-106,4-112,8c-8,4-15,72-19,195l-8,188l134-3l134-3L4513,3077z"/>
	<path d="M4074,4276c-10-25,2-43,41-61c47-23,50-30,25-63c-44-60-38-157,13-203c27-25,40-29,87-29c50,0,61,4,97,35
		c22,19,45,47,50,62c24,64,35,112,29,121c-3,6-41,27-84,47c-42,20-104,50-137,65C4112,4290,4082,4296,4074,4276z"/>
	<path d="M4944,4265c-10-8-24-15-31-15c-6,0-55-20-107-45c-53-25-102-45-109-45c-19,0-61-47-49-54c13-8,47-74,56-108
		c9-39,70-78,121-78c34,0,47,6,78,38c33,34,37,43,37,92c0,40-5,59-20,75c-28,29-17,51,35,74c50,22,56,30,48,59
		C4997,4283,4972,4286,4944,4265z"/>
	<path d="M4400,3721c0-27,18-31,152-31c118,0,119,0,116,23c-3,21-7,22-135,25C4407,3740,4400,3739,4400,3721z"/>
</g>
</svg>
