<?xml version="1.0" encoding="utf-8"?>
<!-- Generator: Adobe Illustrator 23.0.2, SVG Export Plug-In . SVG Version: 6.00 Build 0)  -->
<svg version="1.1" id="Layer_1" xmlns="http://www.w3.org/2000/svg" xmlns:xlink="http://www.w3.org/1999/xlink" x="0px" y="0px"
	 viewBox="0 0 900 900" style="enable-background:new 0 0 900 900;" xml:space="preserve">
<g transform="translate(0.000000,900.000000) scale(0.100000,-0.100000)">
	<path d="M4175,5013c-33-9-69-19-80-24c-11-4-45-18-75-30s-62-27-70-33s-33-20-55-31c-94-48-310-289-335-374c-4-15-12-36-18-47
		c-34-63-72-235-72-324c0-61,27-206,53-280c41-119,101-214,200-317l98-102l-6-43c-6-38-3-47,22-75c43-47,215-183,241-190
		c32-8,52,14,52,55c0,28-8,45-37,74c-45,46-29,58,40,28c56-25,54-19,61-260l4-175l-29-54c-16-29-44-74-62-100l-32-46l-3-148
		c-4-172,4-197,62-197c18,0,38,6,44,13c5,6,12,73,14,147c3,127,5,138,31,177c15,24,27,46,27,50c0,5,16,26,34,48l34,40h128h129l5-131
		c3-72,10-137,16-145s17-30,24-49c52-137,80-167,135-142c38,17,40,52,10,118c-62,135-60,119-60,503c0,304,2,355,15,361
		c8,5,35,16,60,26s63,30,85,43c22,14,48,30,57,36c9,5,41,27,72,48c61,41,71,43,140,22c61-19,108-19,205-1c42,8,121,22,176,31
		c123,21,152,32,171,60c19,29,4,70-28,78c-30,8-66,3-324-42c-76-14-130-14-155-1c-24,14-24,25,2,61c119,168,173,416,135,624
		c-9,50-23,106-30,125c-47,120-62,150-94,195c-51,72-197,219-267,269c-78,55-162,94-275,126C4579,5031,4250,5032,4175,5013z
		 M4609,4894c74-21,152-55,240-103c33-18,224-209,242-242c8-14,25-48,38-75s31-62,39-79c20-38,29-332,14-417
		c-21-108-106-259-199-355c-56-56-178-140-243-167c-82-33-91-36-181-56c-139-31-263-23-429,28c-214,65-423,274-492,492
		c-10,30-25,93-34,139c-15,78-15,90,0,175c27,143,41,182,110,311c11,22,64,82,116,135c83,83,108,101,195,144c147,71,203,84,379,85
		C4513,4910,4568,4906,4609,4894z M4580,3116c0-189,2-186-134-186c-83,0-106,3-117,16c-10,12-14,55-14,163v146l109,7
		c61,4,115,9,120,11C4574,3284,4580,3256,4580,3116z"/>
	<path d="M4142,4298c-25-25-6-65,41-81c22-8,21-42-3-92c-25-51-25-82-1-121c31-51,82-84,129-84c55,0,114,51,137,118
		c9,26,21,55,26,64c5,10,9,24,9,32s-66,48-161,95c-88,45-161,81-163,81C4155,4310,4149,4305,4142,4298z"/>
	<path d="M4915,4235c-49-24-96-44-103-44c-20-1-92-50-99-67c-3-9,5-27,21-43c15-16,26-39,26-55c0-17,11-39,29-57c26-26,36-29,89-29
		c54,0,64,3,91,31c26,26,31,38,31,78c0,33-6,56-20,74c-31,39-25,53,35,81c55,25,60,31,49,60C5054,4290,5011,4282,4915,4235z"/>
	<path d="M4473,3744c-23-10-14-32,18-43c51-18,224-14,239,4c8,10,9,19,4,24C4724,3739,4491,3752,4473,3744z"/>
</g>
</svg>
