<?xml version="1.0" encoding="utf-8"?>
<!-- Generator: Adobe Illustrator 23.0.2, SVG Export Plug-In . SVG Version: 6.00 Build 0)  -->
<svg version="1.1" id="Layer_1" xmlns="http://www.w3.org/2000/svg" xmlns:xlink="http://www.w3.org/1999/xlink" x="0px" y="0px"
	 viewBox="0 0 900 900" style="enable-background:new 0 0 900 900;" xml:space="preserve">
<g transform="translate(0.000000,900.000000) scale(0.100000,-0.100000)">
	<path d="M4393,5035c-181-33-323-108-467-245c-195-186-276-368-276-625s84-450,272-630c40-39,97-88,126-109l53-38l-3-52l-3-51l-55-7
		c-30-4-68-11-83-17c-25-10-28-15-25-48c3-34,7-39,42-51c21-7,82-16,135-20l96-7l8-151l9-151l-45-94c-25-52-53-125-62-164
		c-9-38-23-93-31-121c-19-68-18-98,4-117c19-17,69-22,88-9c6,4,19,41,28,82c36,153,50,197,83,267c29,60,40,73,64,78
		c40,9,232,8,261,0c40-13,148-136,148-170c0-12-20-59-45-105s-45-93-45-105c0-26,29-55,56-55c24,0,64,27,64,42c0,6,7,19,15,28
		c23,25,105,196,105,219c0,11-40,67-89,125l-89,105l-7,123c-4,68-3,168,2,222c8,100,8,100,38,108c40,11,72,2,80-21c3-11,15-31,26-45
		c17-21,29-26,67-26c46,0,49,2,175,121c126,120,139,139,117,178c-7,14,0,29,35,72c24,30,56,69,71,87c14,18,34,47,43,65
		c9,17,21,39,26,47c10,15,16,31,57,145c19,53,21,81,22,250c0,195-6,233-50,317c-8,14-14,31-14,38c0,27-88,157-154,227
		c-61,66-175,163-190,163c-3,0-24,13-48,29c-24,15-68,36-98,46s-66,22-80,28C4765,5047,4524,5059,4393,5035z M4705,4916
		c106-18,228-60,282-96c24-17,48-30,52-30c5,0,46-37,93-82c117-115,165-191,212-333c23-71,23-349,0-420c-38-112-59-157-96-194
		c-21-22-38-47-38-55c0-41-164-173-284-230c-123-58-177-69-356-69c-140,0-175,3-230,21c-104,34-140,48-152,60c-7,7-17,12-23,12
		c-26,0-182,132-227,191c-61,82-132,225-152,311c-23,96-21,244,5,337c42,153,109,262,230,375C4200,4883,4457,4958,4705,4916z
		 M4577,3267c18-18,20-357,1-369c-16-11-213-6-225,5c-8,9-21,357-14,379C4344,3297,4560,3284,4577,3267z"/>
	<path d="M4910,4294c-13-32-10-36,40-59c47-21,49-36,15-77c-50-60-24-179,45-208c19-8,52-11,87-7c81,8,100,30,145,164
		c9,25,8,36-2,48c-11,13-300,165-315,165C4922,4320,4915,4308,4910,4294z"/>
</g>
</svg>
