<?xml version="1.0" encoding="utf-8"?>
<!-- Generator: Adobe Illustrator 23.0.2, SVG Export Plug-In . SVG Version: 6.00 Build 0)  -->
<svg version="1.1" id="Layer_1" xmlns="http://www.w3.org/2000/svg" xmlns:xlink="http://www.w3.org/1999/xlink" x="0px" y="0px"
	 viewBox="0 0 900 900" style="enable-background:new 0 0 900 900;" xml:space="preserve">
<g transform="translate(0.000000,900.000000) scale(0.100000,-0.100000)">
	<path d="M4670,5060c-151-13-300-74-446-183c-79-59-116-96-167-164c-36-49-71-100-77-113c-6-14-20-41-30-60s-29-64-42-100
		c-21-59-23-82-23-260s2-201,23-260c20-58,58-140,97-208c26-47,160-185,231-239c41-31,74-59,74-64s-9-18-20-29c-26-26-26-85-2-148
		c25-62,42-110,52-147c20-69,39-109,60-125s23-23,17-85c-4-37-16-86-27-109s-20-48-20-54c0-7-66-83-147-168c-82-86-150-163-151-171
		c-6-25,28-53,66-53c33,0,49,13,189,156c117,119,155,164,163,193c5,21,20,53,33,72l23,34l119,3c66,1,130,0,142-3c28-7,73-71,73-105
		c0-23-79-124-182-235c-32-34-36-75-10-98c37-34,56-21,201,130c134,140,141,149,141,188c0,33-11,56-57,125l-57,85v140
		c-1,144,17,277,37,293c7,5,28,13,47,17c40,7,127,36,183,60c21,8,42,13,48,10c11-8,52-93,104-220c21-49,44-98,53-107
		c18-22,51-23,77-4c28,20,22,91-14,168c-64,138-91,205-91,224c0,10,45,66,100,124s115,130,133,160c84,141,127,293,127,449
		c0,202-59,369-193,549c-38,50-73,92-77,92s-20,11-36,25c-65,57-222,155-249,155c-8,0-29,6-47,14C5018,5057,4846,5075,4670,5060z
		 M5040,4909c148-47,210-87,335-213c61-61,116-124,124-141c7-16,17-37,22-45c30-51,43-93,47-152l4-66l-48-21c-27-12-62-27-78-34
		c-123-50-160-85-122-113c10-7,22-33,29-60c9-34,22-55,49-77c38-30,63-35,126-22c36,8,37,6,18-50c-29-82-72-150-146-228
		c-91-97-148-139-263-195c-106-52-153-62-322-69c-133-5-181,1-297,38c-187,61-395,249-460,414c-49,127-57,167-57,300
		c-1,145,12,204,69,323c42,85,66,119,133,189c119,125,209,179,392,236c36,11,93,16,200,16C4937,4940,4951,4938,5040,4909z
		 M5596,4205c4-8,3-23-1-32c-6-16-8-16-26,6c-16,19-17,26-7,32C5581,4224,5590,4222,5596,4205z M4661,3305c41-8,90-16,109-17
		c28-2,35-7,33-23c-2-11-6-94-10-185l-8-165l-116-3l-115-3l-12,113c-20,190-25,266-19,282C4531,3324,4566,3324,4661,3305z"/>
	<path d="M4734,4326c-11-28,1-49,39-69c20-10,37-23,37-28s-11-27-25-49c-50-79-22-181,59-214c31-12,58-16,81-12
		c61,12,127,98,141,184l6,39l-161,82c-89,44-164,81-167,81C4742,4340,4737,4334,4734,4326z"/>
	<path d="M5085,3774c-77-22-15-47,114-47c105,0,164,14,144,34C5332,3772,5116,3782,5085,3774z"/>
</g>
</svg>
