<?xml version="1.0" encoding="utf-8"?>
<!-- Generator: Adobe Illustrator 23.0.2, SVG Export Plug-In . SVG Version: 6.00 Build 0)  -->
<svg version="1.1" id="Layer_1" xmlns="http://www.w3.org/2000/svg" xmlns:xlink="http://www.w3.org/1999/xlink" x="0px" y="0px"
	 viewBox="0 0 900 900" style="enable-background:new 0 0 900 900;" xml:space="preserve">
<g transform="translate(0.000000,900.000000) scale(0.100000,-0.100000)">
	<path d="M4035,5100c-38-10-83-23-100-30c-16-7-46-19-65-27s-42-18-50-23s-35-20-59-32c-24-13-99-78-166-145
		c-109-110-127-133-168-215c-62-128-68-147-85-279c-13-103-13-129,0-230c15-111,20-130,61-234c67-171,250-356,450-455
		c44-22,47-26,41-53c-3-16-15-48-25-71c-32-70-28-80,78-187c103-105,132-119,166-81c28,31,20,52-53,133c-38,42-70,81-70,85
		c0,5,7,27,16,51c19,49,59,65,98,40c22-15,30-38,73-202c9-33,22-80,29-105c44-159,43-184-18-296c-17-32-37-70-45-84
		c-7-14-13-34-13-45s-6-40-14-65c-51-160-55-189-28-213c19-17,69-22,87-9c6,4,19,36,29,72c9,36,24,88,32,116s14,57,14,65
		s10,32,22,54c11,22,35,67,52,99c47,89,57,94,266,137l55,11l48-54c26-29,59-71,72-93l24-41l-19-59c-10-33-30-88-44-122
		c-14-35-26-81-26-103c0-34,4-42,25-50c15-6,35-6,53,1c28,10,37,25,81,149c7,19,24,64,37,100c40,110,37,122-66,251
		c-73,93-94,126-110,180c-11,36-20,77-20,90s-7,49-15,79c-20,74-20,140,0,140c8,0,15-4,15-8c0-11,71-82,82-82c5,0,74,32,154,72
		c113,56,148,78,156,98c13,34-2,73-33,84c-22,7-45-1-139-48c-62-31-115-56-119-56c-3,0-17,16-31,36l-24,36l29,21
		c17,11,82,72,146,136c103,102,122,126,157,201c81,172,95,233,96,400c0,182-43,342-120,447c-13,17-24,37-24,43c0,17-180,194-235,231
		c-105,70-192,109-315,140C4379,5126,4137,5126,4035,5100z M4457,4979c154-42,271-108,371-208c157-157,222-310,222-524
		c0-241-66-390-250-560c-113-106-197-151-365-197c-122-34-347-22-460,24c-229,93-350,204-455,415c-44,88-47,97-59,211
		c-16,151,10,304,75,433c40,80,80,131,164,209c73,68,147,114,275,170C4094,5004,4320,5016,4457,4979z M4528,3355c7-14,15-45,18-68
		s12-64,19-92c22-82,30-194,14-199c-128-35-205-44-222-27c-11,11-27,64-46,146c-5,22-19,80-32,128c-26,99-24,106,41,108
		c19,0,58,7,85,14C4488,3386,4515,3384,4528,3355z"/>
	<path d="M4694,4247c-67-34-132-66-145-72c-32-13-38-59-10-74c10-6,25-28,31-48c20-61,70-103,122-103c60,0,128,69,128,131
		c0,14-14,47-31,73s-29,49-27,51c2,3,24,15,49,28c33,18,45,30,47,50C4863,4324,4833,4317,4694,4247z"/>
	<path d="M3945,4289c-13-21,5-57,35-69c46-19,52-39,24-73c-30-36-33-113-6-159c19-34,78-68,117-68c62,0,121,55,147,138
		c27,86,24,100-19,118c-21,9-65,29-98,45s-63,29-68,29c-4,0-30,11-59,25C3960,4303,3954,4304,3945,4289z"/>
	<path d="M4358,3763c-47-4-75-23-63-43c9-14,262-14,271,1C4584,3751,4481,3772,4358,3763z"/>
</g>
</svg>
