<?xml version="1.0" encoding="utf-8"?>
<!-- Generator: Adobe Illustrator 23.0.2, SVG Export Plug-In . SVG Version: 6.00 Build 0)  -->
<svg version="1.1" id="Layer_1" xmlns="http://www.w3.org/2000/svg" xmlns:xlink="http://www.w3.org/1999/xlink" x="0px" y="0px"
	 viewBox="0 0 900 900" style="enable-background:new 0 0 900 900;" xml:space="preserve">
<g transform="translate(0.000000,900.000000) scale(0.100000,-0.100000)">
	<path d="M3910,5093c-102-13-261-81-360-154c-74-54-189-170-241-244c-107-150-158-342-144-550c12-185,71-333,193-482
		c55-68,195-193,216-193c3,0,24-13,48-28c43-28,87-47,143-62c17-4,47-15,68-24l39-17l-9-72c-13-118-8-164,32-262
		c43-105,58-125,96-125c66,0,71,55,17,190c-32,79-34,121-6,205c12,36,17,40,50,43c34,3,38,0,53-35c10-21,53-110,96-199
		c95-193,96-205,36-307c-40-67-58-106-92-197c-8-19-27-70-44-112c-36-89-38-109-13-131c29-26,102-20,102,8c0,7,9,34,21,61
		c11,27,24,58,29,69c4,11,23,56,40,100s42,96,54,115c13,20,35,60,50,91c20,43,35,60,63,74c21,9,51,24,66,31c16,8,32,14,37,14
		s38,14,73,30c45,21,80,30,114,30c71-1,165-23,176-42c8-11,5-42-8-104c-28-137-30-172-10-195c21-22,67-25,84-5c14,16,38,100,51,176
		c5,30,14,71,19,90c16,52,14,135-4,150c-15,13-207,49-261,50c-39,0-44,7-78,100c-42,114-41,110-16,110c12,0,64,13,114,29
		s103,32,117,35c31,7,79,49,79,71c0,8-10,25-21,36c-18,18-29,21-74,15c-29-3-68-13-88-21s-47-15-60-15c-27,0-90,61-85,83
		c1,9,35,48,73,89c99,103,126,141,174,242c68,142,83,208,84,371c0,113-4,155-21,215c-50,178-96,260-212,384c-75,80-155,140-248,186
		c-145,73-185,81-392,85C4028,5097,3929,5096,3910,5093z M4345,4950c147-54,185-78,306-196c131-129,177-202,210-334
		c25-102,25-269,0-370c-55-217-219-415-426-513c-97-46-164-65-268-76c-123-12-267,2-357,36c-36,13-74,27-85,30
		c-44,13-134,83-229,178c-112,113-152,178-188,313c-28,107-28,278,0,382c20,73,71,189,95,216c7,7,26,32,42,55
		c93,127,225,218,405,279c78,27,97,29,275,25C4260,4973,4294,4969,4345,4950z M4518,3323c32-84,38-100,76-186c25-59,21-73-26-95
		c-117-55-153-66-173-55c-18,11-165,306-165,333c0,11,6,22,13,24c6,2,41,11,77,21c36,9,79,23,95,30C4476,3422,4483,3418,4518,3323z"
		/>
	<path d="M4530,4262c-31-21-62-41-70-45s-28-16-45-27c-16-11-37-23-45-26c-29-13-60-48-60-67c0-10,11-28,24-38c14-11,28-30,32-42
		c3-12,20-34,36-49c24-23,39-28,78-28c41,0,55,5,84,31c46,40,54,82,27,143c-11,25-25,46-30,46c-25,0-8,32,34,62c30,23,44,39,42,53
		C4633,4309,4591,4303,4530,4262z"/>
	<path d="M3714,4186c-11-27,3-45,45-56c36-9,41-14,41-40c0-16-4-32-10-35c-5-3-10-35-10-70c0-57,3-69,28-96c24-27,37-33,85-37
		c50-4,62-1,95,22c21,14,45,39,55,55c18,31,39,152,28,162c-10,10-272,97-313,105C3728,4201,3719,4199,3714,4186z"/>
	<path d="M4185,3711c-60-8-75-16-75-42c0-16,7-19,54-19c51,0,211,26,229,37c4,2,3,11-4,19C4377,3721,4283,3723,4185,3711z"/>
</g>
</svg>
