<?xml version="1.0" encoding="utf-8"?>
<!-- Generator: Adobe Illustrator 23.0.2, SVG Export Plug-In . SVG Version: 6.00 Build 0)  -->
<svg version="1.1" id="Layer_1" xmlns="http://www.w3.org/2000/svg" xmlns:xlink="http://www.w3.org/1999/xlink" x="0px" y="0px"
	 viewBox="0 0 900 900" style="enable-background:new 0 0 900 900;" xml:space="preserve">
<g transform="translate(0.000000,900.000000) scale(0.100000,-0.100000)">
	<path d="M4195,4970c-44-4-105-17-135-30c-30-12-63-24-73-27c-126-38-364-258-448-413c-92-168-123-398-80-588
		c30-132,112-286,221-412c49-58,90-108,90-112c0-11,57-93,75-108c8-7,15-16,15-21c0-10,34-60,75-112c23-28,37-37,61-37
		c59,0,83,60,44,110c-25,32-25,40,3,40c22,0,132-32,141-40c2-3,6-86,8-185c3-179,3-180-22-215c-14-19-28-37-31-40s-27-34-52-69
		c-43-58-47-68-47-120c0-31,7-87,15-126c8-38,15-79,15-91c0-44,77-73,108-42c16,16,15,107-2,187c-16,74-15,79,36,148
		c21,29,38,54,38,57c0,2,14,20,32,40l32,36h119h119l-6-57c-3-32-9-92-12-133l-6-75l72-93c39-51,83-100,96-108c31-21,71-11,86,21
		c13,29,6,47-47,115c-19,25-46,64-61,87c-27,46-27,61,9,203c6,25,14,146,17,270c4,190,7,225,20,226c157,18,312,38,375,50
		c44,8,93,14,109,14c15,0,58,6,95,14c36,8,104,22,151,31c148,28,242,52,365,90c22,7,87,27,145,45c188,58,240,91,226,145
		c-11,44-129,125-181,125c-30,0-122-24-175-45c-19-8-62-19-95-26c-79-15-513-25-526-12c-7,7-4,25,6,54c35,98,46,139,65,249
		c20,114,20,115,0,230c-38,224-89,321-251,487c-131,133-228,195-381,243C4575,4973,4329,4984,4195,4970z M4605,4833
		c136-42,204-84,324-198c98-94,146-161,189-267c32-77,32-77,32-261s0-186-32-269c-42-113-83-171-192-275c-138-133-267-194-469-223
		c-107-16-242-2-352,37c-38,13-79,27-90,30c-46,14-166,102-241,179c-63,64-90,101-121,166c-51,104-51,105-74,207
		c-24,107-24,172,0,286c33,158,97,271,222,391c146,140,274,201,449,213C4383,4859,4546,4851,4605,4833z M5313,3551c15-5,11-10-20-23
		c-21-9-67-26-103-38c-36-11-86-28-113-36c-77-26-87-12-31,46c26,27,58,51,73,53C5164,3560,5294,3559,5313,3551z M4568,3218
		c8-8,12-51,12-128c0-160,0-160-134-160c-83,0-106,3-117,16c-10,12-14,50-14,132v116l45,9c46,8,153,23,181,26
		C4549,3229,4561,3225,4568,3218z"/>
	<path d="M4092,4230c-6-11-12-22-12-25s25-16,55-30l56-24l-31-42c-61-84-31-188,66-231c43-19,45-19,87,0c54,25,80,55,102,117
		c9,28,21,58,27,69c5,10,6,22,1,27c-16,16-305,159-322,159C4112,4250,4099,4241,4092,4230z"/>
	<path d="M4935,4211c-22-11-89-41-149-68c-60-26-111-54-114-61c-2-7,7-26,22-41c15-16,29-44,33-67c10-66,35-84,115-84
		c55,0,72,4,88,20c46,46,52,110,15,160c-14,19-25,40-25,46c0,7,22,23,50,36c53,24,67,42,49,64C5004,4235,4983,4233,4935,4211z"/>
	<path d="M4457,3683c-16-3-26-10-24-16c4-14,185-31,235-22c34,6,43,29,16,39C4667,3690,4503,3690,4457,3683z"/>
</g>
</svg>
