<?xml version="1.0" encoding="utf-8"?>
<!-- Generator: Adobe Illustrator 23.0.2, SVG Export Plug-In . SVG Version: 6.00 Build 0)  -->
<svg version="1.1" id="Layer_1" xmlns="http://www.w3.org/2000/svg" xmlns:xlink="http://www.w3.org/1999/xlink" x="0px" y="0px"
	 viewBox="0 0 900 900" style="enable-background:new 0 0 900 900;" xml:space="preserve">
<g transform="translate(0.000000,900.000000) scale(0.100000,-0.100000)">
	<path d="M4610,4974c-101-26-210-75-300-135c-70-47-206-187-252-259c-45-70-99-185-109-230c-4-19-12-59-18-89c-31-153-2-370,72-520
		c54-112,80-146,206-268l104-103l-39-35c-21-19-42-34-46-35c-4,0-14-13-22-28c-13-25-13-32,0-57c8-15,14-32,14-37s14-36,30-70
		c17-33,30-64,30-70c0-18,61-131,78-144c23-18,52-17,73,2c16,14,18,14,29-6c15-28,5-138-17-189c-53-123-69-146-114-166
		c-158-72-244-122-253-148c-8-21-6-31,9-47c30-33,78-26,192,30c56,28,106,50,110,50c22,0,94,48,99,65c3,11,14,38,24,60s32,70,49,108
		l30,67l68-1c37,0,101-4,142-8c72-7,74-8,123-59c41-43,48-55,38-67c-7-8-16-15-21-15s-28-14-51-30c-22-16-45-30-51-30
		c-5,0-29-13-54-30c-24-17-48-30-52-30c-5,0-20-9-35-21c-68-53,4-140,81-96c69,39,154,88,198,111c27,15,61,35,75,44
		c14,10,34,22,45,28s26,22,34,36c21,36,5,68-84,163l-74,80l-1,213v212l28,11c15,6,50,15,77,21c28,6,64,17,82,24c47,21,114,16,299-24
		c24-5,53-31,111-97c87-99,126-122,149-90c25,34,17,78-23,131c-111,148-157,184-232,184c-22,0-43,5-46,10c-4,6,43,63,104,126
		c61,64,111,121,111,126c0,6,13,29,28,52c16,23,31,51,34,61c4,11,16,45,28,75c27,70,50,205,50,297c0,152-65,364-144,468
		c-51,67-225,234-280,269c-84,54-178,90-313,120C4921,5009,4729,5004,4610,4974z M5018,4864c84-21,130-37,212-77
		c85-40,292-243,334-327c44-87,66-164,68-241c3-66,1-74-18-84c-58-29-67-55-33-91c15-16,22-39,25-95c5-71,4-77-34-149l-39-75l-49-7
		c-27-3-77-7-111-7c-34-1-65-6-69-12c-13-22,25-43,86-47c33-2,63-8,66-13c16-27-140-155-259-213c-188-91-418-102-639-30
		c-103,34-202,99-293,194c-38,40-77,80-86,89c-29,29-101,191-115,259c-18,88-18,263,1,353c32,152,141,315,282,422
		c108,81,213,126,378,161C4779,4885,4957,4879,5018,4864z M4453,3156c-1-70-4-131-7-134c-8-8-46,29-46,45c0,7-14,42-31,78
		c-34,72-32,101,6,111c13,3,30,12,36,20c7,8,19,13,28,12C4453,3285,4455,3266,4453,3156z M4664,3245c27-8,72-15,100-15s57-4,64-8
		c9-7,12-52,10-193l-3-184h-115h-115l-11,50c-13,53-18,347-7,358C4596,3263,4609,3262,4664,3245z"/>
	<path d="M4976,4244c-6-15,18-42,65-75c22-15,23-18,8-35c-25-30-39-72-39-115c0-32,7-47,41-84c40-43,44-45,98-45c53,0,60,3,94,38
		c35,36,77,123,81,166c1,18-72,62-188,112c-22,10-60,26-83,36C5002,4264,4984,4265,4976,4244z"/>
</g>
</svg>
