<?xml version="1.0" encoding="utf-8"?>
<!-- Generator: Adobe Illustrator 23.0.2, SVG Export Plug-In . SVG Version: 6.00 Build 0)  -->
<svg version="1.1" id="Layer_1" xmlns="http://www.w3.org/2000/svg" xmlns:xlink="http://www.w3.org/1999/xlink" x="0px" y="0px"
	 viewBox="0 0 900 900" style="enable-background:new 0 0 900 900;" xml:space="preserve">
<g transform="translate(0.000000,900.000000) scale(0.100000,-0.100000)">
	<path d="M4320,5084c-184-36-177-34-290-88c-180-85-337-237-423-411c-53-109-62-136-82-245c-33-187-8-340,84-530
		c39-80,61-111,146-198c94-97,198-178,258-201c19-7,27-18,27-35c0-41-20-48-96-36c-82,13-108,8-130-25c-23-35-11-73,24-80
		c15-4,55-13,89-21s92-14,128-14h66l26,56c17,39,28,52,33,43c4-8,10-112,13-231l5-217l-50-97c-43-86-51-111-63-208
		c-20-148-19-189,3-209s75-22,89-4c5,6,18,73,27,147c15,113,24,147,53,208c53,108,62,113,202,110l116-3l7-70c17-158,77-376,110-397
		s98,9,98,45c-1,18-38,156-46,169c-22,36-35,188-41,479l-6,317l37,17c45,21,63,15,81-29c8-18,26-48,41-65c49-58,90-40,262,117
		c94,86,112,115,93,150c-12,22-55,36-76,25c-7-4-48-39-91-78c-87-80-100-89-114-80c-24,15,5,75,37,75c17,0,181,158,226,219
		c46,60,121,207,132,256c3,17,13,58,22,91c12,47,14,95,11,200c-5,120-9,151-36,230c-37,113-52,142-114,226c-62,85-221,236-278,266
		c-25,12-52,27-60,32c-31,18-157,64-215,77C4593,5081,4364,5092,4320,5084z M4626,4945c172-44,264-96,391-223c57-56,103-107,103-113
		s10-25,23-42c30-42,62-125,81-214c73-331-107-681-431-839c-104-50-175-66-337-71c-181-6-263,13-426,96c-92,47-256,214-304,309
		c-69,137-76,169-76,347c0,177,10,223,72,346c98,194,288,343,513,401C4343,4970,4521,4971,4626,4945z M4578,3141
		c3-217,7-211-132-211c-81,0-106,3-116,15c-15,18-27,294-16,339l7,27l127-3l127-3L4578,3141z"/>
	<path d="M4177,4343c-17-17-4-45,33-68c45-28,50-48,19-82c-14-14-24-40-27-72c-4-47-3-52,39-96s47-46,98-47c51,0,56,3,102,48
		c27,27,49,57,49,67s7,32,16,49c12,24,13,36,5,54c-6,13-15,24-20,24c-9,0-56,21-228,101C4198,4351,4188,4354,4177,4343z"/>
	<path d="M5056,4331c-3-5-17-12-31-15c-25-6-137-56-225-99c-51-25-61-49-32-80c11-12,23-39,26-59c4-22,19-50,37-68
		c26-25,38-30,80-30c44,0,54,4,87,37c33,34,37,43,37,89c0,40-5,58-22,76c-28,30-18,47,46,78c55,25,61,38,33,63
		C5071,4342,5064,4344,5056,4331z"/>
	<path d="M4496,3791c-10-16,4-39,27-45c44-12,223-6,241,7c17,13,17,14,1,30c-14,14-38,17-140,17C4557,3800,4499,3796,4496,3791z"/>
</g>
</svg>
