<?xml version="1.0" encoding="utf-8"?>
<!-- Generator: Adobe Illustrator 23.0.2, SVG Export Plug-In . SVG Version: 6.00 Build 0)  -->
<svg version="1.1" id="Layer_1" xmlns="http://www.w3.org/2000/svg" xmlns:xlink="http://www.w3.org/1999/xlink" x="0px" y="0px"
	 viewBox="0 0 900 900" style="enable-background:new 0 0 900 900;" xml:space="preserve">
<g transform="translate(0.000000,900.000000) scale(0.100000,-0.100000)">
	<path d="M4320,5084c-184-36-177-34-290-88c-180-85-337-237-423-411c-53-109-62-136-82-245c-33-186-9-339,83-530
		c42-87,57-105,178-226l132-132l-29-28c-67-69-43-115,91-172c47-19,125-53,166-72l41-18l6-154l6-153l-50-100c-44-87-52-112-65-209
		c-19-148-18-189,4-209s75-22,89-4c5,6,18,73,27,147c15,113,24,147,53,208c52,105,63,112,192,112c58,0,111-4,117-8
		c19-12,36-53,44-106c32-202,60-328,78-348c31-37,88-15,98,37c3,19-1,66-10,107c-8,40-22,111-31,158s-21,103-27,125
		c-5,22-12,160-15,307c-5,240-4,268,11,274c27,10,64-5,72-29c4-12,18-37,32-54c32-43,63-42,127,3c28,19,80,55,116,79
		c88,60,159,127,159,151c0,28-20,52-51,59c-20,5-38-4-87-39c-34-25-67-46-72-46c-6,0-10-4-10-9c0-15-109-80-117-68
		c-7,11,64,77,84,77c18,0,179,156,227,219c45,61,120,208,131,256c3,17,13,58,22,91c12,47,14,95,11,200c-5,120-9,151-36,230
		c-37,113-52,142-114,226c-62,85-221,236-278,266c-25,12-52,27-60,32c-31,18-157,64-215,77C4593,5081,4364,5092,4320,5084z
		 M4626,4945c172-44,264-96,391-223c57-56,103-107,103-113s10-25,23-42c30-42,62-125,81-214c73-331-107-681-431-839
		c-104-50-175-66-337-71c-181-6-263,13-426,96c-92,47-256,214-304,309c-69,137-76,169-76,347c0,177,10,223,72,346
		c98,194,288,343,513,401C4343,4970,4521,4971,4626,4945z M4110,3366c6-8,20-16,31-18s20-7,20-13c0-17-31-18-49-2c-9,8-28,17-41,19
		c-14,1-26,9-29,16C4037,3385,4095,3384,4110,3366z M4578,3141c3-217,7-211-132-211c-81,0-106,3-116,15c-15,18-27,294-16,339l7,27
		l127-3l127-3L4578,3141z"/>
	<path d="M4247,4342c-21-22-7-46,36-61c37-14,44-37,19-64c-11-12-23-42-26-67c-14-109,30-160,138-160c77,1,96,15,135,103
		c39,86,40,114,5,127c-14,6-84,39-155,75s-131,65-133,65C4265,4360,4256,4352,4247,4342z"/>
	<path d="M5085,4324c-16-7-61-28-100-45c-167-73-165-72-165-101c0-15,5-30,10-33c6-3,15-26,21-51c7-25,25-58,41-75
		c25-24,38-29,78-29c41,0,55,5,85,31c33,29,35,35,35,94c0,43-5,66-15,75c-20,17-19,49,3,56c27,9,83,38,88,46c9,14-16,48-34,47
		C5123,4339,5102,4332,5085,4324z"/>
	<path d="M4573,3804c-25-11-13-33,22-40c44-8,231-1,241,9c4,4,2,13-5,20C4819,3805,4597,3815,4573,3804z"/>
</g>
</svg>
