<?xml version="1.0" encoding="utf-8"?>
<!-- Generator: Adobe Illustrator 23.0.2, SVG Export Plug-In . SVG Version: 6.00 Build 0)  -->
<svg version="1.1" id="Layer_1" xmlns="http://www.w3.org/2000/svg" xmlns:xlink="http://www.w3.org/1999/xlink" x="0px" y="0px"
	 viewBox="0 0 900 900" style="enable-background:new 0 0 900 900;" xml:space="preserve">
<g transform="translate(0.000000,900.000000) scale(0.100000,-0.100000)">
	<path d="M4670,5035c-73-13-111-23-178-51c-18-8-37-14-43-14s-30-12-53-27c-22-16-54-35-70-43c-51-26-211-186-262-262
		c-44-65-59-94-95-186c-25-65-49-209-49-298c0-143,26-245,98-389c43-87,63-115,129-187c29-32,53-65,53-73c0-20-41-35-170-64
		c-133-30-525-227-525-264c0-15,70-12,145,7c30,8,91,22,135,31s105,23,135,30c88,21,189,39,337,61c34,5,44,3,49-10c4-9-1-25-10-35
		s-16-27-16-39c0-11,42-76,92-144l93-123l-1-67c0-76,19-49-205-288c-151-161-189-208-189-229c0-26,33-51,67-51c32,0,64,30,264,245
		c41,44,98,105,126,135l51,54l79,7c43,4,106,8,140,8l63,1l30-47c16-27,30-58,30-70c0-15-31-49-102-113c-145-129-148-132-148-161
		c0-30,28-59,57-59c16,0,103,56,123,80c3,3,34,30,70,60c159,135,160,135,160,160c0,26-19,67-52,114c-16,21-28,45-28,51
		c0,7-7,18-15,25c-13,11-15,47-13,239l3,226l25,7c123,34,175,51,234,73l69,26l481-7c564-8,602-6,651,40c35,33,35,34,35,118
		c0,97-12,122-77,155c-80,41-122,45-425,38c-265-7-288-6-294,9c-4,10-2,27,4,39c74,147,106,343,83,506c-7,47-19,102-26,121
		s-20,60-30,90s-31,74-46,98c-16,24-29,47-29,51c0,13-190,205-235,237c-69,50-187,111-255,133C5015,5048,4816,5059,4670,5035z
		 M4985,4915c188-34,296-90,423-218c107-108,124-129,156-193c66-133,95-292,76-423c-18-125-59-245-103-297c-13-16-29-39-36-51
		c-14-28-94-53-170-53c-31,0-85-5-121-11s-96-14-135-19c-108-14-254-37-320-50c-33-6-96-18-140-27c-44-8-110-22-147-31
		c-86-20-91-17-213,109c-151,158-205,293-205,514c0,195,33,294,151,450c56,74,162,175,185,175c3,0,24,13,47,29c24,16,78,41,122,57
		C4705,4928,4845,4941,4985,4915z M4720,3288c52-6,101-15,108-20c9-8,12-58,12-188c0-176,0-178-22-184c-32-8-191-7-204,2
		c-21,13-34,112-34,256c0,78,3,146,7,150c4,3,14,4,22,0C4618,3301,4668,3293,4720,3288z"/>
	<path d="M5187,4303c-19-18-5-49,33-71l40-23l-20-39c-13-26-20-59-20-97c0-52,4-63,31-93c28-31,38-35,94-38c58-4,64-2,98,28
		c21,18,37,39,37,47c0,9,12,42,27,75l26,59l-24,17c-13,9-58,32-99,50s-103,47-137,63C5207,4312,5197,4314,5187,4303z"/>
</g>
</svg>
