<?xml version="1.0" encoding="utf-8"?>
<!-- Generator: Adobe Illustrator 23.0.2, SVG Export Plug-In . SVG Version: 6.00 Build 0)  -->
<svg version="1.1" id="Layer_1" xmlns="http://www.w3.org/2000/svg" xmlns:xlink="http://www.w3.org/1999/xlink" x="0px" y="0px"
	 viewBox="0 0 900 900" style="enable-background:new 0 0 900 900;" xml:space="preserve">
<g transform="translate(0.000000,900.000000) scale(0.100000,-0.100000)">
	<path d="M3875,5041c-16-5-50-9-74-10c-79-2-264-67-349-123c-24-15-46-28-50-28c-18,0-181-163-232-230c-120-163-184-402-160-597
		c18-145,49-235,129-382c8-14,67-78,131-141c102-100,130-121,211-161c125-62,138-66,265-92l109-23l-5-104c-7-157-6-371,3-402
		c6-25,12-28,47-28c21,0,41,4,45,10c6,9,21,195,33,410l7,114l34,7c44,9,58,3,84-36c18-27,67-92,159-210c4-5,24-30,43-53
		c19-24,35-50,35-58c0-14-24-64-53-109c-44-70-70-117-139-254c-43-84-78-161-78-171c0-37,71-66,106-42c5,4,47,80,92,170
		c45,89,98,188,119,220c20,31,46,73,56,92c25,46,54,76,97,103c19,11,69,47,112,79c42,31,116,78,165,104c48,25,93,51,100,56
		s122,65,255,132c134,67,255,130,270,140c14,9,29,13,31,9c6-9-15-44-100-175c-23-36-43-68-43-71c0-11-143-212-254-358
		c-107-141-175-217-346-393c-80-81-151-155-159-163c-20-21-6-27,31-12c57,23,191,106,248,155c30,25,78,64,105,87
		c67,55,386,374,461,461c32,37,64,73,69,80c6,6,28,34,50,61c21,28,44,55,51,60c6,6,22,26,35,46c14,19,41,56,62,81c20,25,37,49,37,53
		s12,22,28,41c98,119,142,197,142,249c0,28-6,47-17,57c-20,16-89,38-122,38c-29,0-88-31-128-67c-17-15-190-108-385-207
		c-194-98-382-193-417-212c-73-39-87-36-127,28c-32,50-24,58,63,58c99,0,136,26,110,78c-13,29-26,33-170,51c-79,9-117,29-117,59
		c0,7,28,44,61,80c46,50,76,98,120,188c33,66,59,128,59,137s7,42,15,74c20,76,20,257,0,342c-27,113-56,195-79,226
		c-13,17-27,41-31,55c-4,13-57,75-118,138c-194,198-340,263-642,286C3932,5047,3892,5045,3875,5041z M4182,4886
		c148-46,234-101,349-223c171-182,233-422,174-678c-38-163-157-339-293-434c-79-54-120-78-162-95c-25-10-53-22-63-28
		c-11-5-42-14-70-19c-29-5-72-13-97-19c-58-12-152-12-210,1c-25,5-61,12-80,15c-44,7-94,26-190,72c-55,27-98,58-164,122
		c-90,86-176,193-176,218c0,8-6,26-14,40c-35,67-46,138-46,288c0,142,2,155,31,239c17,50,44,109,60,133s29,45,29,48
		c0,14,120,141,170,179c80,61,142,94,250,131c92,32,100,33,260,33C4087,4910,4114,4907,4182,4886z M4532,3298c87-131,101-155,94-167
		c-9-13-173-131-184-131c-5,0-43,41-83,92c-120,150-161,207-155,217c3,4,19,11,35,14c35,7,158,65,166,78c4,5,17,9,29,9
		C4453,3410,4473,3387,4532,3298z"/>
	<path d="M4310,4131c-19-16-80-59-135-96s-103-74-106-83c-9-24,1-51,22-63c11-5,28-27,38-47c23-45,55-62,115-62c38,0,48,5,80,40
		c53,59,49,126-11,173c-34,27-29,42,27,79c50,33,60,54,38,76C4360,4166,4349,4163,4310,4131z"/>
	<path d="M3470,3994c-13-33-8-40,34-48c51-10,62-28,42-70c-21-45-20-88,3-135c30-57,42-63,127-63c64,1,80,4,99,22
		c24,23,55,125,55,183c0,31-4,36-42,49c-24,9-72,23-108,33s-94,26-129,36c-35,11-65,19-67,19C3481,4020,3475,4008,3470,3994z"/>
	<path d="M3952,3543c-55-13-63-17-60-36c4-28,27-32,113-18c98,17,149,35,153,54c3,15-7,17-70,16C4048,3559,3987,3552,3952,3543z"/>
</g>
</svg>
