<?xml version="1.0" encoding="utf-8"?>
<!-- Generator: Adobe Illustrator 23.0.2, SVG Export Plug-In . SVG Version: 6.00 Build 0)  -->
<svg version="1.1" id="Layer_1" xmlns="http://www.w3.org/2000/svg" xmlns:xlink="http://www.w3.org/1999/xlink" x="0px" y="0px"
	 viewBox="0 0 900 900" style="enable-background:new 0 0 900 900;" xml:space="preserve">
<g transform="translate(0.000000,900.000000) scale(0.100000,-0.100000)">
	<path d="M3870,5060c-213-16-410-110-576-275c-196-197-287-463-250-736c16-119,58-242,112-327c43-67,175-206,254-267
		c56-43,144-91,210-114c31-11,77-22,200-49l35-8l-1-59c0-33-2-91-4-130c-5-86,9-283,22-308c5-10,21-23,36-28c23-9,30-7,49,16
		c22,25,23,32,22,243c0,119,3,226,7,237c19,50,63,47,107-7c38-47,187-265,187-274c0-3,9-17,20-31s20-38,20-53s-9-39-20-53
		s-20-29-20-35c0-5-12-27-28-48c-28-40-122-226-122-242c0-5-13-34-30-65c-35-65-37-88-12-110c19-17,68-22,88-9c12,7,104,194,104,210
		c0,9,46,100,60,117c4,6,18,28,30,50c81,148,90,159,158,199c37,22,92,56,122,76c56,37,479,250,496,250c6,0,61,26,124,59
		c134,68,180,82,180,54c-1-19-14-42-90-163c-25-39-50-80-56-91s-23-32-36-47c-14-15-41-48-60-74s-73-88-119-139
		c-89-96-104-117-95-126c15-15,154,99,292,239c157,160,260,283,360,431c115,172,126,205,74,232c-42,22-70,18-114-15
		c-22-17-45-30-51-30s-46-18-90-41c-44-22-109-53-145-69c-69-29-197-89-428-202c-118-58-146-68-158-57c-21,18-69,118-60,126
		c4,5,50,11,102,14c109,7,137,23,132,73c-3,35-9,37-173,54c-78,8-92,13-112,36c-32,37-29,56,13,97c104,99,177,233,225,414
		c18,66,18,290,0,380c-15,78-87,239-135,300c-42,54-171,183-221,221c-73,55-150,90-290,133C4147,5060,3997,5070,3870,5060z
		 M4185,4921c131-36,229-94,346-208c59-58,114-121,126-145c84-171,93-205,93-365c0-88-5-152-16-195c-19-73-66-179-100-225
		c-13-17-24-36-24-41c0-16-154-158-215-198c-57-38-85-51-180-87c-79-29-138-37-275-37c-246,0-384,54-548,214c-73,71-159,187-179,242
		c-47,132-48,137-47,289c1,154,8,189,58,308c85,198,309,385,535,447C3855,4946,4089,4947,4185,4921z M4468,3403c11-16,31-50,46-78
		c14-27,40-72,56-100c58-98,62-107,52-117c-17-17-175-108-187-108c-19,0-60,49-150,184c-48,71-83,132-78,137c4,4,46,22,92,39
		s96,39,110,50C4443,3435,4445,3435,4468,3403z"/>
	<path d="M4366,4203c-183-130-226-164-226-177c0-8,11-23,25-34s25-23,25-27c0-16,53-73,83-90c62-33,138,3,166,78c16,41-3,102-41,136
		l-32,28l56,43c54,42,56,44,41,67c-8,13-19,23-23,23S4403,4229,4366,4203z"/>
	<path d="M3561,4076c-26-31-5-59,52-71c20-4,27-11,27-30c0-13-4-27-10-30c-5-3-10-34-10-69c0-56,3-65,31-94c58-59,137-57,200,4
		c32,31,41,50,55,111c19,85,15,100-23,109c-15,3-68,17-118,31c-49,14-106,29-125,33s-42,11-51,14C3580,4088,3568,4085,3561,4076z"/>
	<path d="M4090,3633c-94-22-110-30-110-54c0-20,3-21,60-15c147,17,216,40,207,71C4242,3651,4161,3650,4090,3633z"/>
</g>
</svg>
