<?xml version="1.0" encoding="utf-8"?>
<!-- Generator: Adobe Illustrator 23.0.2, SVG Export Plug-In . SVG Version: 6.00 Build 0)  -->
<svg version="1.1" id="Layer_1" xmlns="http://www.w3.org/2000/svg" xmlns:xlink="http://www.w3.org/1999/xlink" x="0px" y="0px"
	 viewBox="0 0 900 900" style="enable-background:new 0 0 900 900;" xml:space="preserve">
<g transform="translate(0.000000,900.000000) scale(0.100000,-0.100000)">
	<path d="M4320,5084c-184-36-177-34-290-88c-180-85-337-237-423-411c-53-109-62-136-82-245c-33-186-9-339,83-530
		c42-87,57-105,178-226l132-132l-29-28c-67-69-43-115,91-172c47-19,125-53,166-72l41-18l6-154l6-153l-50-100c-44-87-52-112-65-209
		c-19-148-18-189,4-209s75-22,89-4c5,6,18,73,27,147c15,113,24,147,53,208c52,105,63,112,192,112c58,0,111-4,117-8
		c19-12,36-53,44-106c32-202,60-328,78-348c31-37,88-15,98,37c3,19-1,67-11,112c-9,43-22,110-30,148c-7,39-19,99-27,135
		c-9,44-13,147-13,320v255l36,3c36,3,38,1,65-53c44-86,60-85,198,10c122,85,206,156,212,179c8,33-10,62-42,70c-22,6-38-1-81-31
		c-30-21-61-42-70-48c-9-5-27-20-41-33c-27-24-69-39-80-28c-7,8,47,55,65,56c18,0,179,157,227,219c45,61,120,208,131,256
		c3,17,13,58,22,91c12,47,14,95,11,200c-5,120-9,151-36,230c-37,113-52,142-114,226c-62,85-221,236-278,266c-25,12-52,27-60,32
		c-31,18-157,64-215,77C4593,5081,4364,5092,4320,5084z M4626,4945c172-44,264-96,391-223c57-56,103-107,103-113s10-25,23-42
		c30-42,62-125,81-214c73-331-107-681-431-839c-104-50-175-66-337-71c-181-6-263,13-426,96c-92,47-256,214-304,309
		c-69,137-76,169-76,347c0,177,10,223,72,346c98,194,288,343,513,401C4343,4970,4521,4971,4626,4945z M4110,3366c6-8,20-16,31-18
		s20-7,20-13c0-17-31-18-49-2c-9,8-28,17-41,19c-14,1-26,9-29,16C4037,3385,4095,3384,4110,3366z M4578,3141c3-217,7-211-132-211
		c-81,0-106,3-116,15c-15,18-27,294-16,339l7,27l127-3l127-3L4578,3141z"/>
	<path d="M4177,4343c-17-17-4-45,33-68c45-28,50-48,19-82c-14-14-24-40-27-72c-4-47-3-52,39-96s47-46,98-47c51,0,56,3,102,48
		c27,27,49,57,49,67s7,32,16,49c12,24,13,36,5,54c-6,13-15,24-20,24c-9,0-56,21-228,101C4198,4351,4188,4354,4177,4343z"/>
	<path d="M5056,4331c-3-5-17-12-31-15c-25-6-137-56-225-99c-51-25-61-49-32-80c11-12,23-39,26-59c4-22,19-50,37-68
		c26-25,38-30,80-30c44,0,54,4,87,37c33,34,37,43,37,89c0,40-5,58-22,76c-28,30-18,47,46,78c55,25,61,38,33,63
		C5071,4342,5064,4344,5056,4331z"/>
	<path d="M4496,3791c-10-16,4-39,27-45c44-12,223-6,241,7c17,13,17,14,1,30c-14,14-38,17-140,17C4557,3800,4499,3796,4496,3791z"/>
</g>
</svg>
