<?xml version="1.0" encoding="utf-8"?>
<!-- Generator: Adobe Illustrator 23.0.2, SVG Export Plug-In . SVG Version: 6.00 Build 0)  -->
<svg version="1.1" id="Layer_1" xmlns="http://www.w3.org/2000/svg" xmlns:xlink="http://www.w3.org/1999/xlink" x="0px" y="0px"
	 viewBox="0 0 900 900" style="enable-background:new 0 0 900 900;" xml:space="preserve">
<g transform="translate(0.000000,900.000000) scale(0.100000,-0.100000)">
	<path d="M4225,5006c-44-12-109-36-145-53c-83-39-260-172-291-218c-13-19-27-35-30-35c-10,0-72-92-104-155c-138-276-123-605,40-860
		c39-60,233-251,290-285c22-13,42-25,44-26c7-5,4-91-3-102c-4-7-33-12-72-12c-71,0-104-20-104-63c0-36,28-53,112-67
		c88-15,140-8,168,22c11,12,23,18,27,14c5-4,8-90,8-190c0-180,0-183-26-222c-65-98-69-113-69-256c0-154,9-178,64-178
		c19,0,38,6,44,12c5,7,12,72,14,143l3,130l49,73l48,72h134c165,0,159,4,216-145c11-30,21-89,25-150c6-107,18-135,58-135
		c11,0,30,6,41,14c17,13,19,27,19,138v123l-58,128l-57,129l10,196c6,108,15,207,20,218c5,14,21,24,46,29c32,6,41,3,56-15
		c10-12,18-30,18-40c0-20,54-70,74-70c29,0,316,251,316,277s-19,51-44,57c-24,6-23,9,52,109c72,95,88,123,126,210
		c31,69,46,126,61,230c15,100,15,116,0,215c-31,194-97,331-224,465c-127,133-215,195-341,243c-112,43-143,47-340,50
		C4323,5029,4297,5027,4225,5006z M4709,4890c40-11,79-24,85-28c6-5,22-12,36-15c50-12,157-91,244-181c76-78,96-106,139-195
		c59-124,72-199,63-371c-10-202-62-317-209-468c-126-129-245-192-441-233c-97-21-176-23-246-8c-25,5-61,12-80,15s-51,11-70,19
		c-162,61-221,99-326,207c-87,90-125,140-148,198c-10,25-25,59-32,77c-8,17-14,39-14,50c0,10-7,40-15,67c-27,90-13,255,32,371
		c46,120,80,172,182,277c94,98,112,112,206,158c56,27,109,50,117,50c9,0,31,7,49,15C4336,4918,4614,4915,4709,4890z M4465,3262l90-7
		l-3-174c-1-95-7-182-13-193c-9-17-21-18-122-16l-112,3l-3,189c-3,204,1,219,46,210C4363,3271,4416,3266,4465,3262z"/>
	<path d="M4104,4296c-11-28,1-49,39-69c20-10,37-24,37-30c0-7-11-30-25-52c-45-73-23-161,51-204c87-52,172-3,218,125
		c14,39,26,74,26,77c0,5-324,167-335,167C4112,4310,4107,4304,4104,4296z"/>
	<path d="M4912,4250c-29-16-63-32-75-36c-22-6-119-48-147-63c-25-13-23-39,5-67c15-15,29-41,32-59s16-44,30-59c20-22,32-26,83-26
		c52,0,64,4,95,31c30,27,35,37,35,75c0,30-8,57-25,85c-26,40-26,59,0,59c8,0,30,8,50,18c28,13,35,22,33,42
		C5024,4287,4978,4287,4912,4250z"/>
	<path d="M4443,3744c-19-8-16-32,5-38c44-13,210-18,231-7c33,18,27,41-12,41c-19,0-74,2-123,5S4449,3747,4443,3744z"/>
</g>
</svg>
