<?xml version="1.0" encoding="utf-8"?>
<!-- Generator: Adobe Illustrator 23.0.2, SVG Export Plug-In . SVG Version: 6.00 Build 0)  -->
<svg version="1.1" id="Layer_1" xmlns="http://www.w3.org/2000/svg" xmlns:xlink="http://www.w3.org/1999/xlink" x="0px" y="0px"
	 viewBox="0 0 900 900" style="enable-background:new 0 0 900 900;" xml:space="preserve">
<g transform="translate(0.000000,900.000000) scale(0.100000,-0.100000)">
	<path d="M4550,5310c-236-58-341-121-511-307c-128-140-209-353-209-547c0-165,41-310,129-461c45-77,196-233,273-282
		c53-34,64-46,94-110l34-71l-19-84c-10-45-26-108-35-138c-27-88-30-142-12-178c9-17,16-49,16-71c0-63,12-81,114-169
		c53-46,96-87,96-92c0-8-44-34-203-119c-48-25-70-43-74-60c-8-33,17-75,47-79c23-4,92,25,141,59c48,33,189,100,199,94
		c14-8,12-36-5-108c-8-34-21-99-30-145c-15-77-15-85,0-108c22-34,43-40,74-21c27,16,59,96,60,151c1,15,8,58,16,95
		c22,101,45,264,45,319c0,58,12,72,61,72c41,0,69,21,69,51c0,11-22,44-50,73l-50,53l15,84c9,46,22,118,30,159s17,96,21,122
		c3,26,11,51,18,56c6,5,40,16,76,26c227,62,407,180,534,349c95,127,165,331,169,491c3,138-47,332-116,450c-134,230-374,400-637,450
		C4817,5335,4647,5334,4550,5310z M4940,5186c41-10,118-38,170-63c87-41,106-56,215-167c79-79,130-140,149-176c56-110,93-281,82-382
		c-16-150-26-186-85-306c-89-182-282-334-496-392c-93-26-322-28-404-4c-274,79-454,229-560,467c-41,91-56,237-41,389
		c11,111,22,149,77,253c96,184,301,333,533,388C4663,5213,4838,5209,4940,5186z M4547,3579c15-6,71-13,123-17l95-7l-3-35
		c-3-40-30-210-41-255c-9-38-36-44-67-14c-33,31-168,303-161,323C4500,3593,4509,3594,4547,3579z M4500,3263c13-27,57-83,98-125
		c85-87,84-95-16-85c-89,8-136,27-141,57c-4,32,21,200,30,200C4475,3310,4488,3289,4500,3263z M4659,2916c11-14,5-46-9-46
		c-15,0-32,30-26,45C4631,2934,4644,2934,4659,2916z"/>
	<path d="M4613,4604c-3-10,8-29,31-53c41-42,43-50,17-77c-30-33-41-60-41-104c0-50,12-73,59-117c44-40,88-43,145-10
		c30,17,48,40,77,96c22,40,39,76,39,80c0,3-35,30-77,59c-43,29-107,73-142,97C4655,4622,4623,4631,4613,4604z"/>
	<path d="M5465,4470c-11-4-49-15-85-25c-36-9-85-23-110-31s-53-14-62-14c-35,0-40-35-19-113c33-117,103-162,195-127
		c54,20,85,121,51,166c-24,32-19,63,13,69c53,12,92,34,92,54C5540,4477,5506,4487,5465,4470z"/>
	<path d="M4866,4011c-11-17,1-29,42-41c59-17,181-32,202-25c30,10,24,29-15,48C5051,4014,4876,4028,4866,4011z"/>
</g>
</svg>
