<?xml version="1.0" encoding="utf-8"?>
<!-- Generator: Adobe Illustrator 23.0.2, SVG Export Plug-In . SVG Version: 6.00 Build 0)  -->
<svg version="1.1" id="Layer_1" xmlns="http://www.w3.org/2000/svg" xmlns:xlink="http://www.w3.org/1999/xlink" x="0px" y="0px"
	 viewBox="0 0 900 900" style="enable-background:new 0 0 900 900;" xml:space="preserve">
<g transform="translate(0.000000,900.000000) scale(0.100000,-0.100000)">
	<path d="M4510,5313c-183-42-351-140-480-281c-161-174-224-341-223-592c1-157,23-246,98-398c29-60,59-97,160-199
		c69-70,125-131,125-137s-27-40-60-76c-74-80-82-94-105-195c-10-44-24-103-31-132c-17-63-18-135-2-151c31-31,108,6,108,53
		c0,10,7,42,15,72c21,74,42,153,49,183c6,30,162,187,173,176s5-216-12-391c-9-96-12-171-7-207c8-50,14-62,56-101
		c100-95,148-138,171-153c64-42,48-74-164-324c-55-66-62-82-48-111c9-18,22-25,48-27c34-3,41,2,112,80c41,46,95,107,119,137
		c83,104,72,95,90,74c10-10,21-27,25-38c21-53,160-246,180-251c31-8,61,4,79,31c14,21,14,27-2,57c-9,18-20,35-23,38
		c-9,7-51,68-51,74c0,3-26,43-57,89c-125,181-121,169-89,248c16,38,32,110,41,179c9,63,22,151,30,195s15,94,15,110c0,50,13,59,38,25
		c12-16,22-38,22-48c0-37,261-322,295-322c21,0,55,36,55,58c0,26-55,99-167,220c-39,43-88,124-122,204c-28,64-31,81-21,93
		c7,8,22,15,34,15c41,0,178,61,276,124c47,30,250,230,250,246c0,5,13,28,29,52c81,122,123,340,102,530c-24,224-84,340-271,526
		c-98,97-121,114-213,159c-109,54-134,63-239,88C4831,5335,4600,5334,4510,5313z M4910,5191c44-11,124-41,176-66
		c80-38,112-62,191-138c147-141,204-241,239-417c16-85,9-97-87-126c-141-44-149-48-149-68c0-11,7-27,16-37s20-37,25-61
		c11-49,71-118,104-118c40,0,47-13,26-56c-75-153-249-307-421-372c-112-42-190-54-319-49c-159,7-224,22-347,83
		c-86,43-111,62-208,159c-89,88-118,124-144,180c-19,39-38,78-43,88c-35,65-50,335-25,427c53,195,145,331,302,443
		c88,63,143,87,299,131C4622,5216,4812,5214,4910,5191z M4565,3575c39-8,93-15,121-15c66,0,74-10,63-80c-5-30-13-84-18-120
		c-29-199-44-286-53-297c-21-26-210-8-233,22c-6,8-8,41-4,86c4,41,12,146,19,234c10,130,20,185,34,185
		C4494,3590,4527,3583,4565,3575z M4636,2919c11-19-13-34-31-19c-13,11-13,15-3,21C4620,2933,4628,2932,4636,2919z"/>
	<path d="M4731,4616c-14-16-6-56,10-56c6,0,21-11,35-25l24-24l-35-46c-43-57-48-117-14-172c26-42,53-53,128-53c72,0,102,21,132,90
		c12,27,27,55,35,61s14,17,14,24c0,11-265,196-301,210C4750,4628,4738,4624,4731,4616z"/>
	<path d="M5025,4021c-17-3-30-13-30-21c0-11,25-20,90-32c117-22,164-23,172-2c9,25-21,41-90,49c-34,3-73,8-87,9
		C5066,4026,5042,4025,5025,4021z"/>
</g>
</svg>
