<?xml version="1.0" standalone="no"?>
<!DOCTYPE svg PUBLIC "-//W3C//DTD SVG 20010904//EN"
 "http://www.w3.org/TR/2001/REC-SVG-20010904/DTD/svg10.dtd">
<svg version="1.0" xmlns="http://www.w3.org/2000/svg"
 width="900.000000pt" height="900.000000pt" viewBox="0 0 900.000000 900.000000"
 preserveAspectRatio="xMidYMid meet">
<metadata>
Created by potrace 1.10, written by Peter Selinger 2001-2011
</metadata>
<g transform="translate(0.000000,900.000000) scale(0.100000,-0.100000)"
fill="#000000" stroke="none">
<path d="M4530 5252 c-89 -18 -212 -64 -295 -111 -37 -21 -103 -78 -175 -150
-140 -141 -186 -220 -237 -410 -19 -70 -21 -283 -4 -366 26 -126 75 -238 146
-335 38 -51 186 -198 228 -225 15 -9 27 -23 27 -29 0 -7 -20 -50 -43 -96 -58
-113 -92 -262 -104 -451 -4 -59 -2 -69 18 -88 46 -43 94 -13 102 64 7 69 26
187 44 270 16 76 80 218 94 209 14 -8 11 -192 -6 -357 -23 -224 -19 -239 80
-373 84 -113 100 -141 87 -159 -10 -14 -48 -31 -122 -55 -69 -23 -100 -35
-165 -66 -33 -15 -41 -25 -43 -51 -2 -22 3 -37 18 -51 19 -17 25 -18 68 -6 59
16 108 33 147 50 40 17 114 38 119 33 2 -2 12 -47 23 -99 l19 -95 33 -3 c69
-7 86 40 68 187 -14 119 -4 156 72 281 62 100 75 142 87 273 4 43 10 80 14 82
7 5 65 -70 78 -102 4 -10 24 -44 45 -75 47 -72 79 -84 114 -43 31 35 27 51
-36 154 -59 95 -91 165 -91 195 0 13 -6 45 -14 72 -8 27 -17 76 -21 109 l-6
61 48 16 c26 9 62 19 78 23 45 10 203 91 261 135 266 200 390 480 355 802 -22
207 -96 362 -245 516 -179 186 -415 284 -680 281 -61 -1 -145 -8 -186 -17z
m380 -127 c179 -45 238 -79 380 -221 91 -90 123 -130 152 -187 48 -93 57 -117
73 -201 14 -79 7 -103 -35 -112 -14 -3 -72 -20 -130 -39 -92 -29 -105 -36
-108 -58 -2 -13 4 -30 12 -37 9 -7 16 -25 16 -41 0 -38 33 -100 62 -116 13 -7
46 -12 75 -13 28 0 54 -4 58 -9 5 -9 -15 -51 -63 -126 -38 -59 -150 -172 -209
-210 -146 -95 -283 -135 -461 -135 -129 1 -190 11 -302 51 -130 45 -267 154
-370 294 -59 78 -83 131 -116 253 -17 63 -19 266 -3 326 39 154 85 240 182
342 126 134 233 197 402 239 70 18 316 18 385 0z m-266 -1624 c49 -6 93 -14
97 -17 12 -7 11 -54 -1 -123 -34 -204 -40 -241 -40 -267 0 -43 -18 -101 -34
-107 -19 -8 -175 12 -199 25 -32 16 -33 21 -25 100 4 40 12 141 18 223 13 191
13 188 58 182 21 -3 77 -10 126 -16z m-36 -665 c5 -44 -11 -51 -47 -21 -43 37
-41 57 7 53 32 -3 37 -6 40 -32z"/>
<path d="M4693 4553 c-25 -9 -13 -40 28 -72 l41 -33 -32 -33 c-28 -29 -31 -39
-33 -97 -1 -41 4 -75 12 -92 15 -27 87 -66 123 -66 28 0 69 24 105 62 35 37
84 128 76 141 -7 12 -125 97 -135 97 -4 0 -41 23 -81 50 -74 50 -81 53 -104
43z"/>
<path d="M4946 3955 c-10 -26 0 -31 88 -49 85 -17 172 -21 180 -7 13 20 -22
43 -79 52 -141 22 -181 23 -189 4z"/>
</g>
</svg>
