<?xml version="1.0" standalone="no"?>
<!DOCTYPE svg PUBLIC "-//W3C//DTD SVG 20010904//EN"
 "http://www.w3.org/TR/2001/REC-SVG-20010904/DTD/svg10.dtd">
<svg version="1.0" xmlns="http://www.w3.org/2000/svg"
 width="900.000000pt" height="900.000000pt" viewBox="0 0 900.000000 900.000000"
 preserveAspectRatio="xMidYMid meet">
<metadata>
Created by potrace 1.10, written by Peter Selinger 2001-2011
</metadata>
<g transform="translate(0.000000,900.000000) scale(0.100000,-0.100000)"
fill="#000000" stroke="none">
<path d="M4586 5244 c-43 -7 -84 -18 -90 -24 -5 -5 -18 -10 -29 -10 -64 0
-334 -175 -388 -252 -13 -18 -39 -53 -59 -78 -34 -42 -93 -155 -118 -225 -42
-118 -55 -329 -27 -440 27 -108 58 -196 79 -229 12 -17 30 -49 41 -71 32 -62
270 -295 302 -295 6 0 18 -9 28 -20 22 -24 19 -31 -65 -150 -128 -181 -130
-184 -130 -220 0 -45 15 -60 57 -60 30 0 37 7 80 75 27 41 54 75 62 75 15 0
13 -54 -9 -275 -6 -60 -8 -161 -4 -222 5 -95 4 -117 -10 -138 -9 -14 -20 -25
-25 -25 -12 0 -240 -136 -263 -156 -37 -34 -10 -104 41 -104 16 0 55 18 90 40
34 22 64 40 66 40 2 0 23 12 47 28 66 42 80 50 120 72 56 30 70 58 68 132 -7
173 -7 173 15 171 133 -12 235 -41 235 -66 0 -7 11 -42 25 -78 20 -50 29 -99
40 -224 7 -88 17 -168 20 -178 5 -12 18 -17 46 -17 58 0 62 16 57 199 -5 143
-8 164 -37 251 -18 52 -37 105 -43 117 -8 17 -8 42 2 95 15 87 37 178 44 185
3 3 50 -7 106 -22 93 -24 103 -25 125 -11 43 28 42 56 0 93 -21 18 -48 33 -59
33 -12 0 -43 7 -71 16 -27 9 -56 18 -62 20 -27 7 -8 140 24 176 9 10 32 20 52
24 71 12 225 64 243 82 7 7 17 12 24 12 21 0 137 92 217 171 74 74 177 210
177 233 0 6 14 45 32 86 l31 75 1 205 c1 230 1 228 -82 400 -39 78 -63 111
-142 193 -52 55 -122 118 -155 142 -61 43 -181 103 -245 123 -131 42 -330 52
-484 26z m334 -118 c189 -36 299 -95 438 -234 82 -83 110 -119 141 -181 68
-138 74 -168 74 -346 0 -141 -3 -168 -23 -228 -13 -37 -27 -70 -31 -73 -5 -3
-9 -13 -9 -23 0 -30 -96 -156 -176 -230 -42 -39 -80 -71 -86 -71 -5 0 -24 -11
-41 -24 -35 -26 -101 -54 -186 -80 -40 -12 -96 -16 -225 -16 -194 0 -235 9
-385 82 -70 33 -103 58 -192 144 -92 91 -112 116 -153 198 -52 103 -86 238
-86 343 0 88 34 224 81 320 30 62 61 105 120 168 118 124 188 171 339 224 108
39 276 50 400 27z m-162 -1649 c10 -8 12 -26 7 -66 -8 -64 -15 -75 -43 -67
-20 7 -132 133 -132 149 0 13 151 -2 168 -16z m-78 -247 c37 0 42 -22 27 -126
-11 -70 -20 -101 -33 -111 -20 -15 -100 -9 -181 13 -60 16 -59 14 -43 121 5
38 14 102 19 144 6 42 15 88 21 103 l10 27 81 -85 c45 -47 89 -86 99 -86z"/>
<path d="M4581 4557 c-22 -22 -12 -55 24 -77 19 -12 35 -26 35 -32 0 -6 -15
-29 -32 -51 -29 -37 -33 -48 -33 -103 0 -68 15 -93 69 -121 38 -20 119 -12
154 14 25 18 92 134 92 159 0 6 -46 45 -102 86 -173 126 -194 138 -207 125z"/>
<path d="M5390 4384 c-30 -8 -78 -22 -106 -29 -28 -8 -58 -15 -67 -15 -9 0
-35 -7 -58 -16 -45 -19 -45 -15 -17 -119 17 -65 41 -99 84 -120 43 -20 101
-13 139 17 25 19 26 25 22 92 -2 39 -6 80 -8 91 -3 17 6 23 54 39 58 19 71 38
45 64 -14 14 -18 14 -88 -4z"/>
<path d="M4810 3936 c0 -16 58 -46 92 -46 12 -1 49 -7 81 -15 68 -16 89 -11
85 19 -2 16 -16 25 -63 38 -77 21 -195 24 -195 4z"/>
</g>
</svg>
