<?xml version="1.0" encoding="utf-8"?>
<!-- Generator: Adobe Illustrator 23.0.2, SVG Export Plug-In . SVG Version: 6.00 Build 0)  -->
<svg version="1.1" id="Layer_1" xmlns="http://www.w3.org/2000/svg" xmlns:xlink="http://www.w3.org/1999/xlink" x="0px" y="0px"
	 viewBox="0 0 900 900" style="enable-background:new 0 0 900 900;" xml:space="preserve">
<g transform="translate(0.000000,900.000000) scale(0.100000,-0.100000)">
	<path d="M4586,5244c-43-7-84-18-90-24c-5-5-18-10-29-10c-64,0-334-175-388-252c-13-18-39-53-59-78c-34-42-93-155-118-225
		c-42-118-55-329-27-440c27-108,58-196,79-229c12-17,30-49,41-71c32-62,270-295,302-295c6,0,18-9,28-20c22-24,19-31-65-150
		c-128-181-130-184-130-220c0-45,15-60,57-60c30,0,37,7,80,75c27,41,54,75,62,75c15,0,13-54-9-275c-6-60-8-161-4-222
		c5-95,4-117-10-138c-9-14-20-25-25-25c-12,0-240-136-263-156c-37-34-10-104,41-104c16,0,55,18,90,40c34,22,64,40,66,40s23,12,47,28
		c66,42,80,50,120,72c56,30,70,58,68,132c-7,173-7,173,15,171c133-12,235-41,235-66c0-7,11-42,25-78c20-50,29-99,40-224
		c7-88,17-168,20-178c5-12,18-17,46-17c58,0,62,16,57,199c-5,143-8,164-37,251c-18,52-37,105-43,117c-8,17-8,42,2,95
		c15,87,37,178,44,185c3,3,50-7,106-22c93-24,103-25,125-11c43,28,42,56,0,93c-21,18-48,33-59,33c-12,0-43,7-71,16
		c-27,9-56,18-62,20c-27,7-8,140,24,176c9,10,32,20,52,24c71,12,225,64,243,82c7,7,17,12,24,12c21,0,137,92,217,171
		c74,74,177,210,177,233c0,6,14,45,32,86l31,75l1,205c1,230,1,228-82,400c-39,78-63,111-142,193c-52,55-122,118-155,142
		c-61,43-181,103-245,123C4939,5260,4740,5270,4586,5244z M4920,5126c189-36,299-95,438-234c82-83,110-119,141-181
		c68-138,74-168,74-346c0-141-3-168-23-228c-13-37-27-70-31-73c-5-3-9-13-9-23c0-30-96-156-176-230c-42-39-80-71-86-71
		c-5,0-24-11-41-24c-35-26-101-54-186-80c-40-12-96-16-225-16c-194,0-235,9-385,82c-70,33-103,58-192,144c-92,91-112,116-153,198
		c-52,103-86,238-86,343c0,88,34,224,81,320c30,62,61,105,120,168c118,124,188,171,339,224C4628,5138,4796,5149,4920,5126z
		 M4758,3477c10-8,12-26,7-66c-8-64-15-75-43-67c-20,7-132,133-132,149C4590,3506,4741,3491,4758,3477z M4680,3230
		c37,0,42-22,27-126c-11-70-20-101-33-111c-20-15-100-9-181,13c-60,16-59,14-43,121c5,38,14,102,19,144c6,42,15,88,21,103l10,27
		l81-85C4626,3269,4670,3230,4680,3230z"/>
	<path d="M4581,4557c-22-22-12-55,24-77c19-12,35-26,35-32s-15-29-32-51c-29-37-33-48-33-103c0-68,15-93,69-121c38-20,119-12,154,14
		c25,18,92,134,92,159c0,6-46,45-102,86C4615,4558,4594,4570,4581,4557z"/>
	<path d="M5390,4384c-30-8-78-22-106-29c-28-8-58-15-67-15s-35-7-58-16c-45-19-45-15-17-119c17-65,41-99,84-120c43-20,101-13,139,17
		c25,19,26,25,22,92c-2,39-6,80-8,91c-3,17,6,23,54,39c58,19,71,38,45,64C5464,4402,5460,4402,5390,4384z"/>
	<path d="M4810,3936c0-16,58-46,92-46c12-1,49-7,81-15c68-16,89-11,85,19c-2,16-16,25-63,38C4928,3953,4810,3956,4810,3936z"/>
</g>
</svg>
