<?xml version="1.0" encoding="utf-8"?>
<!-- Generator: Adobe Illustrator 23.0.2, SVG Export Plug-In . SVG Version: 6.00 Build 0)  -->
<svg version="1.1" id="Layer_1" xmlns="http://www.w3.org/2000/svg" xmlns:xlink="http://www.w3.org/1999/xlink" x="0px" y="0px"
	 viewBox="0 0 900 900" style="enable-background:new 0 0 900 900;" xml:space="preserve">
<g transform="translate(0.000000,900.000000) scale(0.100000,-0.100000)">
	<path d="M4550,5310c-236-58-341-121-511-307c-128-140-209-353-209-547c0-106,32-270,67-344c89-189,244-357,407-442
		c36-18,43-36,23-58c-16-18-35-74-63-182c-9-36-22-81-29-100c-6-19-18-63-25-98c-12-61-12-64,9-85c13-14,34-22,54-22
		c32,0,32,0,35-55c2-30-3-77-12-105c-8-27-24-81-36-119c-18-59-126-291-149-320c-5-6-23-38-40-70c-35-67-40-115-13-139
		c39-36,78-13,118,68c10,22,28,54,40,70c38,55,151,299,169,365c9,36,23,80,31,99c13,30,18,33,47,27c18-3,70-10,117-16
		c46-6,95-18,108-26c30-20,119-157,158-244c9-19,27-58,40-86s24-56,24-62s6-23,14-39c8-15,26-54,40-86c29-64,54-80,98-65
		c36,13,41,51,14,118c-8,19-24,60-36,90c-20,49-40,96-78,180c-13,29-50,92-107,182l-40,63l2,99c1,54,6,103,12,109c8,8,38-3,104-36
		c99-50,144-58,170-29c44,49,10,91-125,156c-119,57-122,62-101,187c8,52,20,99,27,105c6,6,40,19,76,28c226,62,407,180,534,349
		c95,127,165,331,169,491c3,138-47,332-116,450c-134,230-374,400-637,450C4817,5335,4647,5334,4550,5310z M4940,5186
		c41-10,118-38,170-63c87-41,106-56,215-167c154-154,190-222,225-423c16-89,2-245-30-333c-73-198-201-343-385-436
		c-134-68-203-83-369-84c-99,0-155,5-195,16c-274,79-454,229-560,467c-41,91-56,237-41,389c11,111,22,149,77,253
		c96,184,301,333,533,388C4663,5213,4838,5209,4940,5186z M4761,3505c-2-27-6-57-10-67c-6-17-10-15-41,14c-59,55-82,86-75,98
		c4,7,31,10,68,8l62-3L4761,3505z M4601,3388c97-105,124-142,115-157c-3-5-10-41-16-82c-6-40-16-79-22-87c-15-18-131-12-193,9
		l-40,14l1,55c2,77,22,309,29,331c4,11,12,19,19,19S4549,3444,4601,3388z"/>
	<path d="M4570,4615l-23-25l43-39c45-41,45-46,6-89c-17-19-21-37-21-91c0-59,3-72,25-94c33-36,85-49,144-38s82,32,113,101
		c29,66,27,98-9,119c-45,27-140,93-199,137l-56,43L4570,4615z"/>
	<path d="M5428,4475c-3-3-50-17-104-31c-55-13-110-28-124-33s-38-12-54-16c-31-7-31,1-2-124c20-86,47-113,119-119c49-4,57-2,90,28
		c35,31,37,35,37,96c0,36-4,64-10,64c-5,0-10,11-10,25c0,19,6,26,28,30c60,13,93,34,90,58c-2,15-11,23-28,25
		C5446,4480,5432,4478,5428,4475z"/>
	<path d="M4815,4010c-11-17,2-25,70-43c79-21,177-30,194-18c24,16,4,38-46,51C4960,4019,4824,4025,4815,4010z"/>
</g>
</svg>
