<?xml version="1.0" encoding="utf-8"?>
<!-- Generator: Adobe Illustrator 23.0.2, SVG Export Plug-In . SVG Version: 6.00 Build 0)  -->
<svg version="1.1" id="Layer_1" xmlns="http://www.w3.org/2000/svg" xmlns:xlink="http://www.w3.org/1999/xlink" x="0px" y="0px"
	 viewBox="0 0 900 900" style="enable-background:new 0 0 900 900;" xml:space="preserve">
<g transform="translate(0.000000,900.000000) scale(0.100000,-0.100000)">
	<path d="M4530,5252c-89-18-212-64-295-111c-37-21-103-78-175-150c-140-141-186-220-237-410c-19-70-21-283-4-366
		c26-126,75-238,146-335c38-51,186-198,228-225c15-9,27-23,27-29c0-7-20-50-43-96c-58-113-92-262-104-451c-4-59-2-69,18-88
		c46-43,94-13,102,64c7,69,26,187,44,270c16,76,80,218,94,209c14-8,11-192-6-357c-23-224-19-239,80-373c84-113,100-141,87-159
		c-10-14-48-31-122-55c-69-23-100-35-165-66c-33-15-41-25-43-51c-2-22,3-37,18-51c19-17,25-18,68-6c59,16,108,33,147,50
		c40,17,114,38,119,33c2-2,12-47,23-99l19-95l33-3c69-7,86,40,68,187c-14,119-4,156,72,281c62,100,75,142,87,273c4,43,10,80,14,82
		c7,5,65-70,78-102c4-10,24-44,45-75c47-72,79-84,114-43c31,35,27,51-36,154c-59,95-91,165-91,195c0,13-6,45-14,72s-17,76-21,109
		l-6,61l48,16c26,9,62,19,78,23c45,10,203,91,261,135c266,200,390,480,355,802c-22,207-96,362-245,516c-179,186-415,284-680,281
		C4655,5268,4571,5261,4530,5252z M4910,5125c179-45,238-79,380-221c91-90,123-130,152-187c48-93,57-117,73-201c14-79,7-103-35-112
		c-14-3-72-20-130-39c-92-29-105-36-108-58c-2-13,4-30,12-37c9-7,16-25,16-41c0-38,33-100,62-116c13-7,46-12,75-13c28,0,54-4,58-9
		c5-9-15-51-63-126c-38-59-150-172-209-210c-146-95-283-135-461-135c-129,1-190,11-302,51c-130,45-267,154-370,294
		c-59,78-83,131-116,253c-17,63-19,266-3,326c39,154,85,240,182,342c126,134,233,197,402,239C4595,5143,4841,5143,4910,5125z
		 M4644,3501c49-6,93-14,97-17c12-7,11-54-1-123c-34-204-40-241-40-267c0-43-18-101-34-107c-19-8-175,12-199,25c-32,16-33,21-25,100
		c4,40,12,141,18,223c13,191,13,188,58,182C4539,3514,4595,3507,4644,3501z M4608,2836c5-44-11-51-47-21c-43,37-41,57,7,53
		C4600,2865,4605,2862,4608,2836z"/>
	<path d="M4693,4553c-25-9-13-40,28-72l41-33l-32-33c-28-29-31-39-33-97c-1-41,4-75,12-92c15-27,87-66,123-66c28,0,69,24,105,62
		c35,37,84,128,76,141c-7,12-125,97-135,97c-4,0-41,23-81,50C4723,4560,4716,4563,4693,4553z"/>
	<path d="M4946,3955c-10-26,0-31,88-49c85-17,172-21,180-7c13,20-22,43-79,52C4994,3973,4954,3974,4946,3955z"/>
</g>
</svg>
