<?xml version="1.0" standalone="no"?>
<!DOCTYPE svg PUBLIC "-//W3C//DTD SVG 20010904//EN"
 "http://www.w3.org/TR/2001/REC-SVG-20010904/DTD/svg10.dtd">
<svg version="1.0" xmlns="http://www.w3.org/2000/svg"
 width="900.000000pt" height="900.000000pt" viewBox="0 0 900.000000 900.000000"
 preserveAspectRatio="xMidYMid meet">
<metadata>
Created by potrace 1.10, written by Peter Selinger 2001-2011
</metadata>
<g transform="translate(0.000000,900.000000) scale(0.100000,-0.100000)"
fill="#000000" stroke="none">
<path d="M4510 5313 c-183 -42 -351 -140 -480 -281 -161 -174 -224 -341 -223
-592 1 -157 23 -246 98 -398 29 -60 59 -97 160 -199 69 -70 125 -131 125 -137
0 -6 -27 -40 -60 -76 -74 -80 -82 -94 -105 -195 -10 -44 -24 -103 -31 -132
-17 -63 -18 -135 -2 -151 31 -31 108 6 108 53 0 10 7 42 15 72 21 74 42 153
49 183 6 30 162 187 173 176 11 -11 5 -216 -12 -391 -9 -96 -12 -171 -7 -207
8 -50 14 -62 56 -101 100 -95 148 -138 171 -153 64 -42 48 -74 -164 -324 -55
-66 -62 -82 -48 -111 9 -18 22 -25 48 -27 34 -3 41 2 112 80 41 46 95 107 119
137 83 104 72 95 90 74 10 -10 21 -27 25 -38 21 -53 160 -246 180 -251 31 -8
61 4 79 31 14 21 14 27 -2 57 -9 18 -20 35 -23 38 -9 7 -51 68 -51 74 0 3 -26
43 -57 89 -125 181 -121 169 -89 248 16 38 32 110 41 179 9 63 22 151 30 195
8 44 15 94 15 110 0 50 13 59 38 25 12 -16 22 -38 22 -48 0 -37 261 -322 295
-322 21 0 55 36 55 58 0 26 -55 99 -167 220 -39 43 -88 124 -122 204 -28 64
-31 81 -21 93 7 8 22 15 34 15 41 0 178 61 276 124 47 30 250 230 250 246 0 5
13 28 29 52 81 122 123 340 102 530 -24 224 -84 340 -271 526 -98 97 -121 114
-213 159 -109 54 -134 63 -239 88 -87 20 -318 19 -408 -2z m400 -122 c44 -11
124 -41 176 -66 80 -38 112 -62 191 -138 147 -141 204 -241 239 -417 16 -85 9
-97 -87 -126 -141 -44 -149 -48 -149 -68 0 -11 7 -27 16 -37 9 -10 20 -37 25
-61 11 -49 71 -118 104 -118 40 0 47 -13 26 -56 -75 -153 -249 -307 -421 -372
-112 -42 -190 -54 -319 -49 -159 7 -224 22 -347 83 -86 43 -111 62 -208 159
-89 88 -118 124 -144 180 -19 39 -38 78 -43 88 -35 65 -50 335 -25 427 53 195
145 331 302 443 88 63 143 87 299 131 77 22 267 20 365 -3z m-345 -1616 c39
-8 93 -15 121 -15 66 0 74 -10 63 -80 -5 -30 -13 -84 -18 -120 -29 -199 -44
-286 -53 -297 -21 -26 -210 -8 -233 22 -6 8 -8 41 -4 86 4 41 12 146 19 234
10 130 20 185 34 185 0 0 33 -7 71 -15z m71 -656 c11 -19 -13 -34 -31 -19 -13
11 -13 15 -3 21 18 12 26 11 34 -2z"/>
<path d="M4731 4616 c-14 -16 -6 -56 10 -56 6 0 21 -11 35 -25 l24 -24 -35
-46 c-43 -57 -48 -117 -14 -172 26 -42 53 -53 128 -53 72 0 102 21 132 90 12
27 27 55 35 61 8 6 14 17 14 24 0 11 -265 196 -301 210 -9 3 -21 -1 -28 -9z"/>
<path d="M5025 4021 c-17 -3 -30 -13 -30 -21 0 -11 25 -20 90 -32 117 -22 164
-23 172 -2 9 25 -21 41 -90 49 -34 3 -73 8 -87 9 -14 2 -38 1 -55 -3z"/>
</g>
</svg>
