<?xml version="1.0" standalone="no"?>
<!DOCTYPE svg PUBLIC "-//W3C//DTD SVG 20010904//EN"
 "http://www.w3.org/TR/2001/REC-SVG-20010904/DTD/svg10.dtd">
<svg version="1.0" xmlns="http://www.w3.org/2000/svg"
 width="900.000000pt" height="900.000000pt" viewBox="0 0 900.000000 900.000000"
 preserveAspectRatio="xMidYMid meet">
<metadata>
Created by potrace 1.10, written by Peter Selinger 2001-2011
</metadata>
<g transform="translate(0.000000,900.000000) scale(0.100000,-0.100000)"
fill="#000000" stroke="none">
<path d="M4550 5310 c-236 -58 -341 -121 -511 -307 -128 -140 -209 -353 -209
-547 0 -165 41 -310 129 -461 45 -77 196 -233 273 -282 53 -34 64 -46 94 -110
l34 -71 -19 -84 c-10 -45 -26 -108 -35 -138 -27 -88 -30 -142 -12 -178 9 -17
16 -49 16 -71 0 -63 12 -81 114 -169 53 -46 96 -87 96 -92 0 -8 -44 -34 -203
-119 -48 -25 -70 -43 -74 -60 -8 -33 17 -75 47 -79 23 -4 92 25 141 59 48 33
189 100 199 94 14 -8 12 -36 -5 -108 -8 -34 -21 -99 -30 -145 -15 -77 -15 -85
0 -108 22 -34 43 -40 74 -21 27 16 59 96 60 151 1 15 8 58 16 95 22 101 45
264 45 319 0 58 12 72 61 72 41 0 69 21 69 51 0 11 -22 44 -50 73 l-50 53 15
84 c9 46 22 118 30 159 8 41 17 96 21 122 3 26 11 51 18 56 6 5 40 16 76 26
227 62 407 180 534 349 95 127 165 331 169 491 3 138 -47 332 -116 450 -134
230 -374 400 -637 450 -113 21 -283 20 -380 -4z m390 -124 c41 -10 118 -38
170 -63 87 -41 106 -56 215 -167 79 -79 130 -140 149 -176 56 -110 93 -281 82
-382 -16 -150 -26 -186 -85 -306 -89 -182 -282 -334 -496 -392 -93 -26 -322
-28 -404 -4 -274 79 -454 229 -560 467 -41 91 -56 237 -41 389 11 111 22 149
77 253 96 184 301 333 533 388 83 20 258 16 360 -7z m-393 -1607 c15 -6 71
-13 123 -17 l95 -7 -3 -35 c-3 -40 -30 -210 -41 -255 -9 -38 -36 -44 -67 -14
-33 31 -168 303 -161 323 7 19 16 20 54 5z m-47 -316 c13 -27 57 -83 98 -125
85 -87 84 -95 -16 -85 -89 8 -136 27 -141 57 -4 32 21 200 30 200 4 0 17 -21
29 -47z m159 -347 c11 -14 5 -46 -9 -46 -15 0 -32 30 -26 45 7 19 20 19 35 1z"/>
<path d="M4613 4604 c-3 -10 8 -29 31 -53 41 -42 43 -50 17 -77 -30 -33 -41
-60 -41 -104 0 -50 12 -73 59 -117 44 -40 88 -43 145 -10 30 17 48 40 77 96
22 40 39 76 39 80 0 3 -35 30 -77 59 -43 29 -107 73 -142 97 -66 47 -98 56
-108 29z"/>
<path d="M5465 4470 c-11 -4 -49 -15 -85 -25 -36 -9 -85 -23 -110 -31 -25 -8
-53 -14 -62 -14 -35 0 -40 -35 -19 -113 33 -117 103 -162 195 -127 54 20 85
121 51 166 -24 32 -19 63 13 69 53 12 92 34 92 54 0 28 -34 38 -75 21z"/>
<path d="M4866 4011 c-11 -17 1 -29 42 -41 59 -17 181 -32 202 -25 30 10 24
29 -15 48 -44 21 -219 35 -229 18z"/>
</g>
</svg>
