<?xml version="1.0" encoding="utf-8"?>
<!-- Generator: Adobe Illustrator 23.0.2, SVG Export Plug-In . SVG Version: 6.00 Build 0)  -->
<svg version="1.1" id="Layer_1" xmlns="http://www.w3.org/2000/svg" xmlns:xlink="http://www.w3.org/1999/xlink" x="0px" y="0px"
	 viewBox="0 0 900 900" style="enable-background:new 0 0 900 900;" xml:space="preserve">
<g transform="translate(0.000000,900.000000) scale(0.100000,-0.100000)">
	<path d="M4590,5391c-36-4-82-13-102-19c-21-7-55-17-75-23c-66-19-203-93-251-134c-85-74-210-209-239-260c-85-148-115-262-115-440
		c0-187,38-323,126-460c48-75,207-238,264-272c23-14,47-33,52-43c6-10,10-70,10-132c0-145,15-284,33-311c9-14,16-63,19-130
		c6-119,12-130,76-163c20-10,55-30,77-44s61-36,88-48c26-13,47-30,47-37c0-8-19-49-42-92s-50-94-60-113c-23-44-23-65,3-107
		c21-33,21-36,5-69c-26-55-32-137-11-157c17-18,52-22,71-9c20,14,44,57,44,79c0,12,6,37,14,55s22,60,31,93c10,33,23,78,30,100
		s20,67,30,100s31,99,47,147c15,48,33,121,38,163c11,86,27,126,41,104c5-8,9-27,9-44c0-46,22-78,58-89c66-19,82,46,48,194
		c-8,36-21,101-29,145c-23,118-38,197-44,221c-5,23,23,40,91,54c86,17,175,56,266,116c67,44,251,222,275,265c85,155,111,233,127,372
		c16,148-5,320-52,422c-5,11-14,32-19,47c-34,94-195,278-313,359c-77,52-228,122-308,142C4873,5392,4681,5402,4590,5391z M4839,5265
		c89-10,156-31,259-82c84-41,111-62,198-148c105-104,129-140,183-268c23-56,32-95,34-143l2-66l-55-18c-30-10-98-32-150-47
		c-85-26-95-32-98-55c-2-13,4-31,12-38c9-7,16-27,16-45c0-44,38-97,80-112c40-14,108-7,131,13c40,36,39-6-3-88
		c-65-128-210-273-338-338c-139-71-335-96-541-69c-218,29-459,210-564,423c-56,115-75,198-75,331c0,211,63,363,212,514
		c147,149,288,219,488,240C4704,5277,4731,5277,4839,5265z M5518,4433c-4-58-21-65-43-19c-19,41-9,66,27,66
		C5519,4480,5521,4474,5518,4433z M4590,3635c47-8,102-17,124-20l38-6l-6-57c-3-31-10-84-14-117c-5-33-15-100-22-150
		c-7-49-17-108-24-130l-11-40l-69,2c-38,2-75,8-82,14c-8,6-26,35-40,63c-26,51-26,52-22,238c4,130,9,192,18,203
		C4495,3653,4487,3653,4590,3635z"/>
	<path d="M4658,4676c-27-20-22-33,21-60c55-35,58-44,20-75c-30-25-33-34-37-92c-4-59-2-68,23-97c48-57,117-78,167-51
		c31,17,88,81,88,100c0,9,9,28,21,43s18,33,15,44c-6,17-274,202-292,202C4679,4690,4667,4683,4658,4676z"/>
	<path d="M4921,4086c-21-25,13-43,106-55c138-17,153-16,153,14c0,19-5,25-23,25c-12,0-54,7-92,15C4977,4103,4936,4104,4921,4086z"/>
</g>
</svg>
