<?xml version="1.0" standalone="no"?>
<!DOCTYPE svg PUBLIC "-//W3C//DTD SVG 20010904//EN"
 "http://www.w3.org/TR/2001/REC-SVG-20010904/DTD/svg10.dtd">
<svg version="1.0" xmlns="http://www.w3.org/2000/svg"
 width="900.000000pt" height="900.000000pt" viewBox="0 0 900.000000 900.000000"
 preserveAspectRatio="xMidYMid meet">
<metadata>
Created by potrace 1.10, written by Peter Selinger 2001-2011
</metadata>
<g transform="translate(0.000000,900.000000) scale(0.100000,-0.100000)"
fill="#000000" stroke="none">
<path d="M4590 5391 c-36 -4 -82 -13 -102 -19 -21 -7 -55 -17 -75 -23 -66 -19
-203 -93 -251 -134 -85 -74 -210 -209 -239 -260 -85 -148 -115 -262 -115 -440
0 -187 38 -323 126 -460 48 -75 207 -238 264 -272 23 -14 47 -33 52 -43 6 -10
10 -70 10 -132 0 -145 15 -284 33 -311 9 -14 16 -63 19 -130 6 -119 12 -130
76 -163 20 -10 55 -30 77 -44 22 -14 61 -36 88 -48 26 -13 47 -30 47 -37 0 -8
-19 -49 -42 -92 -23 -43 -50 -94 -60 -113 -23 -44 -23 -65 3 -107 21 -33 21
-36 5 -69 -26 -55 -32 -137 -11 -157 17 -18 52 -22 71 -9 20 14 44 57 44 79 0
12 6 37 14 55 8 18 22 60 31 93 10 33 23 78 30 100 7 22 20 67 30 100 10 33
31 99 47 147 15 48 33 121 38 163 11 86 27 126 41 104 5 -8 9 -27 9 -44 0 -46
22 -78 58 -89 66 -19 82 46 48 194 -8 36 -21 101 -29 145 -23 118 -38 197 -44
221 -5 23 23 40 91 54 86 17 175 56 266 116 67 44 251 222 275 265 85 155 111
233 127 372 16 148 -5 320 -52 422 -5 11 -14 32 -19 47 -34 94 -195 278 -313
359 -77 52 -228 122 -308 142 -77 19 -269 29 -360 18z m249 -126 c89 -10 156
-31 259 -82 84 -41 111 -62 198 -148 105 -104 129 -140 183 -268 23 -56 32
-95 34 -143 l2 -66 -55 -18 c-30 -10 -98 -32 -150 -47 -85 -26 -95 -32 -98
-55 -2 -13 4 -31 12 -38 9 -7 16 -27 16 -45 0 -44 38 -97 80 -112 40 -14 108
-7 131 13 40 36 39 -6 -3 -88 -65 -128 -210 -273 -338 -338 -139 -71 -335 -96
-541 -69 -218 29 -459 210 -564 423 -56 115 -75 198 -75 331 0 211 63 363 212
514 147 149 288 219 488 240 74 8 101 8 209 -4z m679 -832 c-4 -58 -21 -65
-43 -19 -19 41 -9 66 27 66 17 0 19 -6 16 -47z m-928 -798 c47 -8 102 -17 124
-20 l38 -6 -6 -57 c-3 -31 -10 -84 -14 -117 -5 -33 -15 -100 -22 -150 -7 -49
-17 -108 -24 -130 l-11 -40 -69 2 c-38 2 -75 8 -82 14 -8 6 -26 35 -40 63 -26
51 -26 52 -22 238 4 130 9 192 18 203 15 18 7 18 110 0z"/>
<path d="M4658 4676 c-27 -20 -22 -33 21 -60 55 -35 58 -44 20 -75 -30 -25
-33 -34 -37 -92 -4 -59 -2 -68 23 -97 48 -57 117 -78 167 -51 31 17 88 81 88
100 0 9 9 28 21 43 12 15 18 33 15 44 -6 17 -274 202 -292 202 -5 0 -17 -7
-26 -14z"/>
<path d="M4921 4086 c-21 -25 13 -43 106 -55 138 -17 153 -16 153 14 0 19 -5
25 -23 25 -12 0 -54 7 -92 15 -88 18 -129 19 -144 1z"/>
</g>
</svg>
