<?xml version="1.0" standalone="no"?>
<!DOCTYPE svg PUBLIC "-//W3C//DTD SVG 20010904//EN"
 "http://www.w3.org/TR/2001/REC-SVG-20010904/DTD/svg10.dtd">
<svg version="1.0" xmlns="http://www.w3.org/2000/svg"
 width="900.000000pt" height="900.000000pt" viewBox="0 0 900.000000 900.000000"
 preserveAspectRatio="xMidYMid meet">
<metadata>
Created by potrace 1.10, written by Peter Selinger 2001-2011
</metadata>
<g transform="translate(0.000000,900.000000) scale(0.100000,-0.100000)"
fill="#000000" stroke="none">
<path d="M4590 5391 c-36 -4 -82 -13 -102 -19 -21 -7 -55 -17 -75 -23 -66 -19
-203 -93 -251 -134 -85 -74 -210 -209 -239 -260 -85 -148 -115 -262 -115 -440
0 -187 38 -323 126 -460 52 -80 205 -235 281 -285 55 -36 64 -46 78 -93 31
-99 39 -232 28 -455 -6 -114 -13 -268 -15 -342 -2 -74 -8 -153 -14 -175 -36
-133 -66 -267 -70 -312 -3 -45 -1 -53 18 -63 13 -7 37 -9 56 -5 26 4 35 12 40
33 3 15 12 48 20 74 8 26 14 55 14 64 0 16 5 37 44 175 9 31 16 78 16 106 0
27 3 92 7 143 l6 92 36 -6 c20 -4 76 -11 124 -16 49 -6 95 -13 102 -18 26 -14
85 -101 85 -125 0 -14 -13 -52 -30 -85 -16 -34 -30 -65 -30 -70 0 -5 -7 -23
-16 -41 -14 -29 -14 -34 0 -56 19 -29 56 -41 84 -26 11 6 40 60 72 133 29 68
56 127 61 132 22 24 7 63 -51 131 -62 73 -71 96 -44 122 12 12 14 26 9 57 -16
94 -10 181 26 398 15 84 20 91 103 108 86 17 175 56 266 116 67 44 251 222
275 265 85 155 111 233 127 372 16 148 -5 320 -52 422 -5 11 -14 32 -19 47
-34 94 -195 278 -313 359 -77 52 -228 122 -308 142 -77 19 -269 29 -360 18z
m249 -126 c89 -10 156 -31 259 -82 83 -41 111 -62 198 -148 95 -93 106 -108
157 -215 51 -106 56 -124 65 -220 30 -298 -67 -522 -305 -702 -36 -26 -82 -57
-103 -68 -139 -71 -335 -96 -541 -69 -218 29 -459 210 -564 423 -56 115 -75
198 -75 331 0 211 63 363 212 514 147 149 288 219 488 240 74 8 101 8 209 -4z
m-249 -1630 c47 -8 102 -17 123 -20 l39 -6 -5 -52 c-10 -108 -28 -220 -38
-238 -5 -10 -15 -19 -22 -19 -21 0 -145 107 -171 148 -31 48 -54 166 -36 187
15 18 7 18 110 0z m-18 -406 c97 -74 114 -92 102 -110 -12 -20 -220 10 -235
34 -8 11 1 93 12 125 5 12 13 22 19 22 5 0 52 -32 102 -71z"/>
<path d="M4556 4674 c-10 -27 -7 -34 29 -55 41 -24 45 -52 14 -85 -15 -16 -23
-40 -26 -86 -5 -58 -3 -66 22 -96 82 -97 184 -80 251 43 53 96 51 100 -74 180
-8 6 -51 34 -95 63 -84 54 -111 63 -121 36z"/>
<path d="M5415 4553 c-23 -5 -202 -59 -255 -77 -39 -13 -51 -44 -25 -66 9 -8
15 -29 15 -57 0 -39 5 -50 36 -79 39 -35 67 -43 127 -33 61 10 77 32 77 106 0
35 -5 74 -11 85 -14 26 2 43 50 55 39 10 57 32 48 57 -6 16 -22 18 -62 9z"/>
<path d="M4817 4088 c-3 -8 -1 -21 3 -28 9 -14 149 -38 228 -39 39 -1 43 1 40
21 -2 18 -14 24 -66 34 -114 23 -198 28 -205 12z"/>
</g>
</svg>
