<?xml version="1.0" encoding="utf-8"?>
<!-- Generator: Adobe Illustrator 23.0.2, SVG Export Plug-In . SVG Version: 6.00 Build 0)  -->
<svg version="1.1" id="Layer_1" xmlns="http://www.w3.org/2000/svg" xmlns:xlink="http://www.w3.org/1999/xlink" x="0px" y="0px"
	 viewBox="0 0 900 900" style="enable-background:new 0 0 900 900;" xml:space="preserve">
<g transform="translate(0.000000,900.000000) scale(0.100000,-0.100000)">
	<path d="M4535,5336c-185-32-364-132-506-284c-43-47-79-89-79-94s-11-24-24-41c-39-54-83-161-107-267c-17-76-15-300,4-375
		c46-179,91-257,232-400c66-67,136-133,155-147l34-25l-11-64c-7-35-18-95-25-134c-8-45-13-156-13-313c0-205,2-244,15-253
		c16-10,73-7,102,5c14,6,18,0,23-41c3-26,11-77,17-113c7-47,7-103-1-199c-21-253-14-291,52-291c36,0,55,23,62,78c10,74,15,83,51,98
		c65,27,274,175,278,198c3,11,7,75,10,140c6,128,14,150,44,123c21-19,45-22,73-7c17,10,19,23,19,157c0,141-14,263-46,416
		c-15,73-13,87,15,87c23,0,193,56,251,82c92,43,231,158,314,263c32,40,96,141,96,152c0,3,6,19,14,36c30,68,46,135,58,236
		c9,88,9,126-4,221c-18,132-24,151-87,279c-41,84-59,106-164,210c-65,64-130,123-145,131c-15,9-45,27-67,41s-49,28-60,31
		c-11,4-45,16-75,28C4922,5346,4691,5362,4535,5336z M4853,5219c101-15,128-24,245-82c93-46,113-62,206-157c134-137,182-228,210-392
		l13-78l-23,6c-13,3-45-1-71-9c-71-22-245-75-270-82c-29-8-30-43-3-78c11-14,20-38,20-54c0-21,11-41,37-66c33-34,41-37,94-37
		c50,0,62,4,83,26c32,36,42,101,21,149c-22,53-20,59,25,73c47,14,77,15,85,3c3-5-1-51-9-103c-13-88-54-204-83-239c-7-8-13-20-13-25
		s-23-38-51-74c-82-105-203-193-334-243c-118-46-148-51-300-51c-174,0-227,12-375,82c-86,41-106,56-205,156
		c-131,132-164,189-211,364c-28,105-16,302,27,422c6,19,14,40,16,45c21,62,130,204,204,267c58,49,185,121,259,145
		C4560,5224,4730,5238,4853,5219z M4615,3589c144-17,137-13,132-72c-10-101-26-217-31-225c-3-5-10-52-16-103c-6-52-17-100-24-107
		c-19-19-201-6-223,16c-16,17-16,19,7,327c6,88,17,166,23,173c6,8,19,11,31,7C4526,3602,4571,3595,4615,3589z M4606,2948
		c32-6,62-16,66-22s8-52,8-102c0-100-5-109-80-150c-19-10-49-29-68-41c-19-13-38-20-43-17s-6,31-3,62c4,37,1,86-10,136
		c-9,43-16,93-16,112c0,33,1,34,43,34C4527,2960,4573,2955,4606,2948z"/>
	<path d="M4592,4638c-22-22-13-45,28-73c22-15,40-31,40-35s-10-15-21-26c-29-26-49-75-49-123c0-32,7-46,41-80c47-47,72-56,132-48
		c32,4,49,14,74,42c17,20,35,50,38,65c3,16,13,34,21,41c8,6,14,22,14,35c0,18-19,36-87,81c-49,32-92,60-98,62c-5,2-30,19-54,38
		C4623,4653,4610,4656,4592,4638z"/>
	<path d="M4845,4046c-13-9-17-18-10-24c17-15,127-41,185-43c86-3,100,0,100,16c0,20-39,35-115,45c-33,5-78,11-100,15
		C4877,4059,4859,4057,4845,4046z"/>
</g>
</svg>
