<?xml version="1.0" standalone="no"?>
<!DOCTYPE svg PUBLIC "-//W3C//DTD SVG 20010904//EN"
 "http://www.w3.org/TR/2001/REC-SVG-20010904/DTD/svg10.dtd">
<svg version="1.0" xmlns="http://www.w3.org/2000/svg"
 width="900.000000pt" height="900.000000pt" viewBox="0 0 900.000000 900.000000"
 preserveAspectRatio="xMidYMid meet">
<metadata>
Created by potrace 1.10, written by Peter Selinger 2001-2011
</metadata>
<g transform="translate(0.000000,900.000000) scale(0.100000,-0.100000)"
fill="#000000" stroke="none">
<path d="M4535 5336 c-185 -32 -364 -132 -506 -284 -43 -47 -79 -89 -79 -94 0
-5 -11 -24 -24 -41 -39 -54 -83 -161 -107 -267 -17 -76 -15 -300 4 -375 46
-179 91 -257 232 -400 66 -67 136 -133 155 -147 l34 -25 -11 -64 c-7 -35 -18
-95 -25 -134 -8 -45 -13 -156 -13 -313 0 -205 2 -244 15 -253 16 -10 73 -7
102 5 14 6 18 0 23 -41 3 -26 11 -77 17 -113 7 -47 7 -103 -1 -199 -21 -253
-14 -291 52 -291 36 0 55 23 62 78 10 74 15 83 51 98 65 27 274 175 278 198 3
11 7 75 10 140 6 128 14 150 44 123 21 -19 45 -22 73 -7 17 10 19 23 19 157 0
141 -14 263 -46 416 -15 73 -13 87 15 87 23 0 193 56 251 82 92 43 231 158
314 263 32 40 96 141 96 152 0 3 6 19 14 36 30 68 46 135 58 236 9 88 9 126
-4 221 -18 132 -24 151 -87 279 -41 84 -59 106 -164 210 -65 64 -130 123 -145
131 -15 9 -45 27 -67 41 -22 14 -49 28 -60 31 -11 4 -45 16 -75 28 -118 46
-349 62 -505 36z m318 -117 c101 -15 128 -24 245 -82 93 -46 113 -62 206 -157
134 -137 182 -228 210 -392 l13 -78 -23 6 c-13 3 -45 -1 -71 -9 -71 -22 -245
-75 -270 -82 -29 -8 -30 -43 -3 -78 11 -14 20 -38 20 -54 0 -21 11 -41 37 -66
33 -34 41 -37 94 -37 50 0 62 4 83 26 32 36 42 101 21 149 -22 53 -20 59 25
73 47 14 77 15 85 3 3 -5 -1 -51 -9 -103 -13 -88 -54 -204 -83 -239 -7 -8 -13
-20 -13 -25 0 -5 -23 -38 -51 -74 -82 -105 -203 -193 -334 -243 -118 -46 -148
-51 -300 -51 -174 0 -227 12 -375 82 -86 41 -106 56 -205 156 -131 132 -164
189 -211 364 -28 105 -16 302 27 422 6 19 14 40 16 45 21 62 130 204 204 267
58 49 185 121 259 145 110 37 280 51 403 32z m-238 -1630 c144 -17 137 -13
132 -72 -10 -101 -26 -217 -31 -225 -3 -5 -10 -52 -16 -103 -6 -52 -17 -100
-24 -107 -19 -19 -201 -6 -223 16 -16 17 -16 19 7 327 6 88 17 166 23 173 6 8
19 11 31 7 12 -3 57 -10 101 -16z m-9 -641 c32 -6 62 -16 66 -22 4 -6 8 -52 8
-102 0 -100 -5 -109 -80 -150 -19 -10 -49 -29 -68 -41 -19 -13 -38 -20 -43
-17 -5 3 -6 31 -3 62 4 37 1 86 -10 136 -9 43 -16 93 -16 112 0 33 1 34 43 34
24 0 70 -5 103 -12z"/>
<path d="M4592 4638 c-22 -22 -13 -45 28 -73 22 -15 40 -31 40 -35 0 -4 -10
-15 -21 -26 -29 -26 -49 -75 -49 -123 0 -32 7 -46 41 -80 47 -47 72 -56 132
-48 32 4 49 14 74 42 17 20 35 50 38 65 3 16 13 34 21 41 8 6 14 22 14 35 0
18 -19 36 -87 81 -49 32 -92 60 -98 62 -5 2 -30 19 -54 38 -48 36 -61 39 -79
21z"/>
<path d="M4845 4046 c-13 -9 -17 -18 -10 -24 17 -15 127 -41 185 -43 86 -3
100 0 100 16 0 20 -39 35 -115 45 -33 5 -78 11 -100 15 -28 4 -46 2 -60 -9z"/>
</g>
</svg>
