<?xml version="1.0" encoding="utf-8"?>
<!-- Generator: Adobe Illustrator 23.0.2, SVG Export Plug-In . SVG Version: 6.00 Build 0)  -->
<svg version="1.1" id="Layer_1" xmlns="http://www.w3.org/2000/svg" xmlns:xlink="http://www.w3.org/1999/xlink" x="0px" y="0px"
	 viewBox="0 0 900 900" style="enable-background:new 0 0 900 900;" xml:space="preserve">
<g transform="translate(0.000000,900.000000) scale(0.100000,-0.100000)">
	<path d="M4590,5391c-36-4-82-13-102-19c-21-7-55-17-75-23c-66-19-203-93-251-134c-85-74-210-209-239-260c-85-148-115-262-115-440
		c0-187,38-323,126-460c52-80,205-235,281-285c55-36,64-46,78-93c31-99,39-232,28-455c-6-114-13-268-15-342s-8-153-14-175
		c-36-133-66-267-70-312c-3-45-1-53,18-63c13-7,37-9,56-5c26,4,35,12,40,33c3,15,12,48,20,74s14,55,14,64c0,16,5,37,44,175
		c9,31,16,78,16,106c0,27,3,92,7,143l6,92l36-6c20-4,76-11,124-16c49-6,95-13,102-18c26-14,85-101,85-125c0-14-13-52-30-85
		c-16-34-30-65-30-70s-7-23-16-41c-14-29-14-34,0-56c19-29,56-41,84-26c11,6,40,60,72,133c29,68,56,127,61,132c22,24,7,63-51,131
		c-62,73-71,96-44,122c12,12,14,26,9,57c-16,94-10,181,26,398c15,84,20,91,103,108c86,17,175,56,266,116c67,44,251,222,275,265
		c85,155,111,233,127,372c16,148-5,320-52,422c-5,11-14,32-19,47c-34,94-195,278-313,359c-77,52-228,122-308,142
		C4873,5392,4681,5402,4590,5391z M4839,5265c89-10,156-31,259-82c83-41,111-62,198-148c95-93,106-108,157-215c51-106,56-124,65-220
		c30-298-67-522-305-702c-36-26-82-57-103-68c-139-71-335-96-541-69c-218,29-459,210-564,423c-56,115-75,198-75,331
		c0,211,63,363,212,514c147,149,288,219,488,240C4704,5277,4731,5277,4839,5265z M4590,3635c47-8,102-17,123-20l39-6l-5-52
		c-10-108-28-220-38-238c-5-10-15-19-22-19c-21,0-145,107-171,148c-31,48-54,166-36,187C4495,3653,4487,3653,4590,3635z M4572,3229
		c97-74,114-92,102-110c-12-20-220,10-235,34c-8,11,1,93,12,125c5,12,13,22,19,22C4475,3300,4522,3268,4572,3229z"/>
	<path d="M4556,4674c-10-27-7-34,29-55c41-24,45-52,14-85c-15-16-23-40-26-86c-5-58-3-66,22-96c82-97,184-80,251,43
		c53,96,51,100-74,180c-8,6-51,34-95,63C4593,4692,4566,4701,4556,4674z"/>
	<path d="M5415,4553c-23-5-202-59-255-77c-39-13-51-44-25-66c9-8,15-29,15-57c0-39,5-50,36-79c39-35,67-43,127-33
		c61,10,77,32,77,106c0,35-5,74-11,85c-14,26,2,43,50,55c39,10,57,32,48,57C5471,4560,5455,4562,5415,4553z"/>
	<path d="M4817,4088c-3-8-1-21,3-28c9-14,149-38,228-39c39-1,43,1,40,21c-2,18-14,24-66,34C4908,4099,4824,4104,4817,4088z"/>
</g>
</svg>
