<?xml version="1.0" standalone="no"?>
<!DOCTYPE svg PUBLIC "-//W3C//DTD SVG 20010904//EN"
 "http://www.w3.org/TR/2001/REC-SVG-20010904/DTD/svg10.dtd">
<svg version="1.0" xmlns="http://www.w3.org/2000/svg"
 width="900.000000pt" height="900.000000pt" viewBox="0 0 900.000000 900.000000"
 preserveAspectRatio="xMidYMid meet">
<metadata>
Created by potrace 1.10, written by Peter Selinger 2001-2011
</metadata>
<g transform="translate(0.000000,900.000000) scale(0.100000,-0.100000)"
fill="#000000" stroke="none">
<path d="M4550 5310 c-236 -58 -341 -121 -511 -307 -128 -140 -209 -353 -209
-547 0 -106 32 -270 67 -344 89 -189 244 -357 407 -442 36 -18 43 -36 23 -58
-16 -18 -35 -74 -63 -182 -9 -36 -22 -81 -29 -100 -6 -19 -18 -63 -25 -98 -12
-61 -12 -64 9 -85 13 -14 34 -22 54 -22 32 0 32 0 35 -55 2 -30 -3 -77 -12
-105 -8 -27 -24 -81 -36 -119 -18 -59 -126 -291 -149 -320 -5 -6 -23 -38 -40
-70 -35 -67 -40 -115 -13 -139 39 -36 78 -13 118 68 10 22 28 54 40 70 38 55
151 299 169 365 9 36 23 80 31 99 13 30 18 33 47 27 18 -3 70 -10 117 -16 46
-6 95 -18 108 -26 30 -20 119 -157 158 -244 9 -19 27 -58 40 -86 13 -28 24
-56 24 -62 0 -6 6 -23 14 -39 8 -15 26 -54 40 -86 29 -64 54 -80 98 -65 36 13
41 51 14 118 -8 19 -24 60 -36 90 -20 49 -40 96 -78 180 -13 29 -50 92 -107
182 l-40 63 2 99 c1 54 6 103 12 109 8 8 38 -3 104 -36 99 -50 144 -58 170
-29 44 49 10 91 -125 156 -119 57 -122 62 -101 187 8 52 20 99 27 105 6 6 40
19 76 28 226 62 407 180 534 349 95 127 165 331 169 491 3 138 -47 332 -116
450 -134 230 -374 400 -637 450 -113 21 -283 20 -380 -4z m390 -124 c41 -10
118 -38 170 -63 87 -41 106 -56 215 -167 154 -154 190 -222 225 -423 16 -89 2
-245 -30 -333 -73 -198 -201 -343 -385 -436 -134 -68 -203 -83 -369 -84 -99 0
-155 5 -195 16 -274 79 -454 229 -560 467 -41 91 -56 237 -41 389 11 111 22
149 77 253 96 184 301 333 533 388 83 20 258 16 360 -7z m-179 -1681 c-2 -27
-6 -57 -10 -67 -6 -17 -10 -15 -41 14 -59 55 -82 86 -75 98 4 7 31 10 68 8
l62 -3 -4 -50z m-160 -117 c97 -105 124 -142 115 -157 -3 -5 -10 -41 -16 -82
-6 -40 -16 -79 -22 -87 -15 -18 -131 -12 -193 9 l-40 14 1 55 c2 77 22 309 29
331 4 11 12 19 19 19 7 0 55 -46 107 -102z"/>
<path d="M4570 4615 l-23 -25 43 -39 c45 -41 45 -46 6 -89 -17 -19 -21 -37
-21 -91 0 -59 3 -72 25 -94 33 -36 85 -49 144 -38 59 11 82 32 113 101 29 66
27 98 -9 119 -45 27 -140 93 -199 137 l-56 43 -23 -24z"/>
<path d="M5428 4475 c-3 -3 -50 -17 -104 -31 -55 -13 -110 -28 -124 -33 -14
-5 -38 -12 -54 -16 -31 -7 -31 1 -2 -124 20 -86 47 -113 119 -119 49 -4 57 -2
90 28 35 31 37 35 37 96 0 36 -4 64 -10 64 -5 0 -10 11 -10 25 0 19 6 26 28
30 60 13 93 34 90 58 -2 15 -11 23 -28 25 -14 2 -28 0 -32 -3z"/>
<path d="M4815 4010 c-11 -17 2 -25 70 -43 79 -21 177 -30 194 -18 24 16 4 38
-46 51 -73 19 -209 25 -218 10z"/>
</g>
</svg>
