<?xml version="1.0" encoding="utf-8"?>
<!-- Generator: Adobe Illustrator 23.0.2, SVG Export Plug-In . SVG Version: 6.00 Build 0)  -->
<svg version="1.1" id="Layer_1" xmlns="http://www.w3.org/2000/svg" xmlns:xlink="http://www.w3.org/1999/xlink" x="0px" y="0px"
	 viewBox="0 0 900 900" style="enable-background:new 0 0 900 900;" xml:space="preserve">
<g transform="translate(0.000000,900.000000) scale(0.100000,-0.100000)">
	<path d="M4485,5174c-148-14-313-68-411-134c-61-42-225-200-268-260c-74-101-106-176-137-314c-31-143-22-318,23-441
		c19-51,48-119,58-135c6-8,15-26,21-40c25-58,198-239,284-296c65-42,65-44,2-135c-104-150-103-164,11-215c42-19,89-41,104-49
		c41-23,85-19,104,10c26,40,8,75-59,108c-68,34-72,50-25,119c35,50,57,62,93,48c20-8,23-17,31-127c5-65,9-188,9-274v-157l-54-78
		c-94-137-106-157-130-224c-13-36-34-94-47-130s-24-72-24-81c0-24,33-49,66-49c48,0,43-7,111,185c19,55,48,118,64,140s55,75,86,119
		l56,78l113-4c63-2,117-7,121-11s2-29-4-55c-28-120-35-197-24-269c6-40,11-89,11-111c0-62,49-92,96-58c17,13,19,28,19,178
		c1,159,2,172,45,344c4,17,4,53,0,80c-7,46,12,260,25,272c2,3,16-7,31-23c25-27,27-27,106-20c44,3,98,13,120,21s51,14,63,14
		c29,0,85,46,85,69c0,49-99,68-190,36c-84-30-94-25-129,63c-17,43-31,82-31,85c0,4,40,27,89,51c151,76,277,189,367,328
		c70,108,100,195,129,364c16,94,16,107,1,200c-19,108-43,198-63,229c-7,11-13,26-13,35c0,54-230,312-342,383c-82,52-178,90-293,115
		C4730,5170,4548,5180,4485,5174z M4772,5035c151-35,225-75,341-183c109-101,147-150,193-244c48-97,54-134,54-324
		c0-192,2-182-57-314c-42-94-169-235-273-306c-211-144-509-175-765-80c-99,36-187,99-286,203c-132,140-192,275-206,468
		c-8,118,32,292,86,380c14,22,32,52,41,67c38,68,202,215,308,276c20,11,92,35,182,60C4447,5054,4700,5052,4772,5035z M4717,3325
		c2-44-3-143-10-220l-12-140h-115h-115l-6,95c-4,52-10,145-14,206c-4,62-5,119-2,128c6,14,24,16,139,14l133-3L4717,3325z"/>
	<path d="M4307,4433c-4-3-7-16-7-28c0-16,10-26,40-38c52-20,58-39,26-74c-21-22-26-38-26-78c0-126,133-195,227-118
		c28,22,44,47,60,94c36,102,41,95-126,177C4362,4436,4322,4449,4307,4433z"/>
	<path d="M5175,4417c-11-7-40-21-65-31s-72-31-105-46c-33-16-72-31-86-34c-40-9-42-32-9-78c17-23,30-54,30-70c0-94,182-113,224-23
		c23,47,20,87-9,129c-14,20-25,41-25,47c0,5,19,18,43,28c54,23,75,47,60,69C5219,4430,5199,4433,5175,4417z"/>
	<path d="M4647,3884c-13-14-7-22,25-33c42-15,168-26,201-17c28,7,44,36,26,47C4884,3890,4656,3893,4647,3884z"/>
</g>
</svg>
