<?xml version="1.0" encoding="utf-8"?>
<!-- Generator: Adobe Illustrator 23.0.2, SVG Export Plug-In . SVG Version: 6.00 Build 0)  -->
<svg version="1.1" id="Layer_1" xmlns="http://www.w3.org/2000/svg" xmlns:xlink="http://www.w3.org/1999/xlink" x="0px" y="0px"
	 viewBox="0 0 900 900" style="enable-background:new 0 0 900 900;" xml:space="preserve">
<g transform="translate(0.000000,900.000000) scale(0.100000,-0.100000)">
	<path d="M4400,5109c-111-31-211-65-250-87c-219-121-365-290-447-519c-27-76-28-84-28-278l1-200l33-80c39-96,53-123,100-195
		c46-70,171-196,238-239c29-19,54-39,57-46c2-7-16-44-41-81c-50-74-64-112-56-144c3-11,39-45,80-75c61-44,83-55,115-55
		c33,0,40,4,49,27c15,41,4,65-46,98c-47,32-58,62-30,85c8,7,15,18,15,26c0,20,41,44,75,44c64,0,64,0,72-275l6-251l-38-54
		c-20-29-56-76-79-104c-22-28-54-81-70-116c-16-36-39-89-53-117c-35-77-39-110-18-133c18-20,70-27,90-12c6,4,19,27,29,52
		s22,52,27,60s12,22,15,30c37,94,53,125,99,185c29,39,64,83,77,98l24,28l125-3c103-3,124-5,122-18c-1-8-12-51-24-95
		c-18-70-19-89-10-153c6-40,11-92,11-116c0-66,48-97,96-62c17,13,19,28,19,158c1,105,5,156,18,193c22,67,35,178,43,373
		c4,112,10,162,18,159c6-2,15-18,20-37c14-47,54-62,137-50c35,5,94,10,131,10c56,0,71,4,88,22c25,27,26,60,2,81c-15,14-40,17-124,17
		c-59,0-113,3-122,6c-8,3-18,22-22,42c-3,21-13,47-21,60s-12,30-9,37c2,7,43,32,89,55c69,34,105,62,189,144c143,139,176,187,241,351
		c43,107,61,330,37,430c-6,22-14,58-19,80c-28,125-104,257-213,371c-127,132-261,211-448,264C4765,5116,4449,5123,4400,5109z
		 M4785,4980c144-40,272-106,329-169c11-11,25-21,31-21c20,0,121-140,165-228c23-45,48-107,57-139c21-74,24-279,5-343
		c-26-87-75-203-105-249c-34-52-142-162-202-207c-171-128-453-187-653-137c-88,21-218,72-233,89c-6,8-16,14-22,14
		c-16,0-126,87-170,134c-49,52-118,159-140,214c-9,23-25,61-34,84c-15,35-18,73-18,208c0,182,2,193,68,330c34,70,59,103,144,191
		c56,58,115,112,130,120c16,7,39,22,53,31c28,20,117,56,170,68c19,5,49,13,65,18C4481,5007,4707,5002,4785,4980z M4708,3342
		c9-7,12-55,10-208l-3-199h-120h-120l-7,55c-8,74-10,345-1,353C4476,3353,4692,3351,4708,3342z"/>
	<path d="M4325,4376c-25-18-13-44,30-62s53-38,31-63c-20-22-31-105-22-155c10-51,63-86,133-86c65,0,102,29,128,97c9,26,24,58,32,71
		s12,31,9,40c-4,10-72,50-161,95c-85,42-157,77-158,77C4345,4390,4335,4384,4325,4376z"/>
	<path d="M5145,4340c-27-16-56-29-63-30c-7,0-40-13-74-30c-33-16-66-30-72-30c-7,0-21-9-31-21c-18-19-18-21-2-47c10-15,26-45,36-67
		c31-67,64-90,127-89c38,0,62,6,81,21c25,18,28,27,31,88c3,58,0,71-19,91c-24,26-20,54,8,54c10,0,33,9,51,20c24,15,32,27,30,43
		C5243,4376,5204,4375,5145,4340z"/>
	<path d="M4645,3821c-13-21,27-39,102-44c106-8,157,1,161,31c3,22,2,22-127,22C4710,3830,4649,3826,4645,3821z"/>
</g>
</svg>
