<?xml version="1.0" standalone="no"?>
<!DOCTYPE svg PUBLIC "-//W3C//DTD SVG 20010904//EN"
 "http://www.w3.org/TR/2001/REC-SVG-20010904/DTD/svg10.dtd">
<svg version="1.0" xmlns="http://www.w3.org/2000/svg"
 width="900.000000pt" height="900.000000pt" viewBox="0 0 900.000000 900.000000"
 preserveAspectRatio="xMidYMid meet">
<metadata>
Created by potrace 1.10, written by Peter Selinger 2001-2011
</metadata>
<g transform="translate(0.000000,900.000000) scale(0.100000,-0.100000)"
fill="#000000" stroke="none">
<path d="M4710 5294 c-127 -23 -266 -80 -381 -155 -59 -39 -181 -164 -230
-236 -109 -158 -149 -340 -128 -587 6 -66 17 -132 25 -147 7 -15 14 -35 14
-43 0 -35 76 -164 159 -270 24 -31 41 -61 38 -68 -2 -7 -38 -30 -78 -51 -99
-50 -110 -60 -119 -104 -8 -38 -22 -97 -45 -188 -34 -131 -38 -165 -27 -191
11 -22 17 -25 54 -22 42 3 43 4 59 53 9 28 24 84 34 125 27 121 45 177 63 192
9 8 52 32 94 52 85 42 127 43 153 2 12 -18 12 -30 -1 -91 -8 -39 -17 -86 -20
-105 -3 -19 -11 -60 -19 -90 -44 -179 -46 -240 -9 -269 15 -12 39 -21 54 -21
30 0 131 -28 143 -40 7 -6 -153 -110 -170 -110 -2 0 -71 -40 -153 -90 -82 -49
-152 -90 -155 -90 -4 0 -25 -13 -48 -28 -23 -15 -54 -34 -69 -41 -63 -32 -83
-74 -58 -122 19 -35 62 -23 195 56 70 41 128 75 131 75 2 0 23 14 46 30 22 17
46 30 51 30 6 0 18 6 26 14 9 7 43 28 76 46 125 68 150 82 162 91 6 6 35 22
65 38 110 57 147 84 150 111 l3 25 124 -2 c73 -1 128 -6 134 -12 8 -8 8 -23
-2 -54 -25 -85 -33 -142 -22 -170 9 -23 16 -27 49 -27 36 0 40 3 55 38 8 20
22 60 30 87 8 28 22 73 31 101 44 141 19 161 -212 166 -62 1 -117 5 -123 9
-15 9 -6 78 21 164 12 39 24 85 27 103 10 62 69 56 103 -10 12 -24 38 -60 58
-80 l36 -38 198 0 198 0 11 24 c16 35 3 75 -27 86 -14 6 -95 10 -179 10 l-154
0 -16 31 c-22 41 -14 55 33 62 55 7 204 80 275 135 124 94 194 175 258 297 53
101 67 142 89 255 24 122 24 176 0 297 -23 118 -33 149 -73 233 -115 236 -355
430 -613 496 -57 15 -341 28 -394 18z m365 -138 c155 -43 283 -121 396 -241
101 -108 168 -230 189 -345 35 -192 34 -182 9 -201 -13 -10 -49 -21 -79 -25
-79 -9 -93 -19 -86 -57 4 -18 10 -52 15 -77 11 -62 28 -99 47 -107 28 -11 32
-43 10 -83 -90 -159 -279 -297 -479 -350 -94 -25 -290 -27 -385 -4 -177 43
-281 104 -413 240 -91 95 -136 165 -176 273 -21 55 -26 90 -30 211 -6 183 7
251 74 390 38 78 227 265 308 305 89 43 165 68 275 89 46 9 275 -4 325 -18z
m-483 -1580 c18 -8 68 -22 112 -32 43 -10 80 -23 83 -30 5 -12 -48 -203 -74
-266 -9 -20 -23 -40 -31 -43 -18 -7 -190 -5 -209 2 -24 9 -10 127 33 279 8 28
14 60 14 71 0 36 19 42 72 19z"/>
<path d="M4979 4599 c-9 -18 -6 -26 27 -60 l38 -39 -30 -32 c-16 -18 -35 -38
-41 -46 -16 -17 -17 -91 -2 -129 22 -59 46 -73 125 -73 71 0 74 1 109 37 19
20 35 42 35 49 0 7 11 26 25 42 14 17 25 34 25 38 -1 5 -16 21 -35 35 -18 14
-66 54 -106 90 -129 115 -149 126 -170 88z"/>
<path d="M5166 4001 c-10 -16 11 -48 36 -54 13 -3 55 -15 93 -26 94 -27 135
-28 135 -1 0 23 -14 29 -124 61 -95 28 -132 33 -140 20z"/>
</g>
</svg>
