<?xml version="1.0" standalone="no"?>
<!DOCTYPE svg PUBLIC "-//W3C//DTD SVG 20010904//EN"
 "http://www.w3.org/TR/2001/REC-SVG-20010904/DTD/svg10.dtd">
<svg version="1.0" xmlns="http://www.w3.org/2000/svg"
 width="900.000000pt" height="900.000000pt" viewBox="0 0 900.000000 900.000000"
 preserveAspectRatio="xMidYMid meet">
<metadata>
Created by potrace 1.10, written by Peter Selinger 2001-2011
</metadata>
<g transform="translate(0.000000,900.000000) scale(0.100000,-0.100000)"
fill="#000000" stroke="none">
<path d="M4675 5314 c-82 -20 -168 -46 -181 -56 -6 -4 -43 -24 -83 -44 -79
-39 -247 -190 -303 -272 -31 -44 -81 -143 -111 -217 -39 -97 -40 -408 -1 -530
53 -165 175 -337 324 -454 63 -50 90 -77 86 -88 -3 -8 -6 -25 -6 -37 0 -14
-36 -58 -105 -129 -58 -59 -105 -111 -105 -116 0 -6 -27 -50 -60 -99 -33 -50
-60 -97 -60 -106 0 -22 36 -56 58 -56 26 0 71 48 137 145 75 111 94 111 60 -1
-8 -27 -15 -60 -15 -74 0 -14 -7 -34 -15 -44 -8 -11 -15 -28 -15 -39 0 -10 -6
-31 -14 -45 -8 -15 -22 -46 -32 -70 -9 -24 -21 -45 -26 -48 -8 -5 -106 70
-133 101 -5 6 -30 26 -54 43 -56 41 -91 42 -114 3 -20 -35 -11 -69 25 -93 12
-8 70 -55 128 -103 145 -121 174 -139 198 -126 19 10 66 96 97 181 10 25 23
57 31 72 8 14 14 33 14 42 0 28 41 47 80 36 91 -23 158 -40 185 -45 21 -5 67
-44 150 -128 l121 -122 33 -105 c30 -94 43 -133 72 -208 11 -28 50 -46 83 -38
24 6 26 10 26 67 0 33 -5 70 -12 82 -6 12 -15 35 -19 52 -9 36 -27 89 -44 130
-7 17 -18 44 -24 60 -6 17 -30 50 -52 75 -52 58 -94 104 -147 163 -39 44 -42
50 -36 89 3 24 11 61 18 83 8 22 19 60 25 83 11 40 17 46 69 69 89 39 112 48
192 78 83 32 96 43 110 96 9 33 19 42 81 73 39 20 96 56 127 80 69 53 208 197
224 231 6 14 14 25 17 25 8 0 37 58 76 155 20 49 55 242 55 299 -1 48 -32 215
-51 266 -57 162 -99 223 -245 366 -114 111 -155 138 -309 204 -128 56 -390 77
-530 44z m385 -128 c41 -9 120 -39 175 -66 89 -43 111 -59 198 -147 53 -54
113 -120 132 -147 37 -52 84 -167 96 -231 4 -22 12 -68 19 -103 7 -34 10 -68
7 -75 -4 -12 -153 -45 -227 -50 -33 -2 -35 -4 -33 -37 3 -71 26 -166 45 -186
11 -12 40 -27 66 -34 26 -7 51 -16 55 -20 23 -20 -148 -215 -244 -280 -146
-97 -262 -130 -460 -130 -133 0 -152 2 -236 29 -152 50 -205 83 -334 211 -107
105 -120 123 -163 213 -57 119 -66 164 -66 322 0 158 10 207 66 324 42 85 59
107 149 197 126 123 203 166 395 218 72 19 260 15 360 -8z m-506 -1582 c9 -4
44 -61 77 -128 34 -66 67 -132 75 -146 8 -14 12 -36 9 -50 -18 -79 -27 -99
-45 -105 -20 -6 -104 15 -172 43 -36 14 -38 17 -38 61 0 25 7 68 15 95 8 27
15 60 15 74 0 25 38 162 45 162 2 0 11 -3 19 -6z m234 -68 c2 -10 -1 -23 -7
-29 -15 -15 -46 16 -37 38 8 21 40 15 44 -9z"/>
<path d="M4906 4641 c-22 -24 -20 -38 9 -57 48 -31 48 -47 5 -101 -48 -61 -59
-113 -33 -163 46 -90 151 -106 224 -34 21 21 39 43 39 48 0 5 12 22 26 37 l26
28 -52 55 c-29 31 -92 89 -140 131 -83 70 -88 73 -104 56z"/>
<path d="M5090 4008 c0 -20 9 -27 58 -42 167 -53 176 -55 185 -32 3 8 0 21 -6
29 -13 17 -117 51 -189 61 -46 7 -48 6 -48 -16z"/>
</g>
</svg>
