<?xml version="1.0" standalone="no"?>
<!DOCTYPE svg PUBLIC "-//W3C//DTD SVG 20010904//EN"
 "http://www.w3.org/TR/2001/REC-SVG-20010904/DTD/svg10.dtd">
<svg version="1.0" xmlns="http://www.w3.org/2000/svg"
 width="900.000000pt" height="900.000000pt" viewBox="0 0 900.000000 900.000000"
 preserveAspectRatio="xMidYMid meet">
<metadata>
Created by potrace 1.10, written by Peter Selinger 2001-2011
</metadata>
<g transform="translate(0.000000,900.000000) scale(0.100000,-0.100000)"
fill="#000000" stroke="none">
<path d="M4700 5391 c-55 -7 -214 -58 -260 -83 -79 -43 -147 -97 -240 -194
-110 -114 -152 -182 -200 -324 -40 -118 -43 -415 -6 -510 46 -117 80 -191 92
-201 8 -6 14 -17 14 -24 0 -7 7 -18 15 -25 8 -7 15 -21 15 -31 0 -15 -8 -19
-37 -20 -21 0 -60 -8 -88 -17 l-50 -17 -7 -65 c-19 -190 -21 -305 -4 -344 14
-34 19 -38 43 -31 16 3 34 12 42 20 19 19 40 135 41 227 0 94 9 102 120 102
69 0 79 -2 130 -35 85 -55 93 -66 86 -113 -4 -23 -13 -70 -21 -106 -8 -36 -22
-101 -31 -145 -9 -44 -20 -96 -25 -116 -12 -50 -11 -101 4 -120 11 -15 51 -29
167 -59 82 -22 84 -38 8 -86 -47 -30 -52 -30 -107 5 -25 16 -84 49 -131 73
-47 25 -111 59 -142 77 -67 36 -78 37 -109 12 -21 -16 -22 -23 -14 -56 8 -29
19 -42 50 -59 22 -12 65 -35 95 -53 50 -29 146 -80 260 -139 25 -13 51 -24 59
-24 19 0 96 45 151 89 25 20 65 50 90 66 48 32 80 62 80 77 0 4 9 17 20 28 17
17 33 20 103 20 45 -1 115 -5 155 -9 68 -8 77 -12 130 -58 31 -27 70 -60 86
-74 16 -13 46 -38 65 -55 20 -17 51 -39 68 -49 32 -19 33 -19 60 1 46 34 42
59 -20 117 -105 101 -255 223 -288 235 -14 6 -91 13 -172 17 -167 9 -161 5
-133 95 8 25 22 72 31 105 31 109 28 105 91 105 56 0 58 -1 133 -68 150 -134
165 -138 262 -60 277 223 279 225 279 263 0 24 -7 37 -25 49 -24 16 -28 16
-60 0 -19 -9 -44 -26 -57 -38 -13 -12 -43 -37 -68 -56 -25 -18 -49 -38 -55
-44 -27 -30 -95 -76 -112 -76 -24 0 -90 67 -77 79 5 4 32 17 59 27 28 10 69
31 91 46 23 15 47 28 53 28 21 0 210 191 258 263 121 175 167 402 128 618 -17
92 -28 123 -88 249 -56 118 -147 225 -275 323 -65 50 -167 107 -191 107 -10 0
-21 4 -27 9 -5 6 -38 20 -74 31 -52 17 -96 22 -225 25 -88 2 -185 0 -215 -4z
m410 -141 c223 -70 409 -231 506 -438 38 -81 49 -121 67 -251 13 -98 10 -102
-79 -122 -50 -11 -54 -14 -54 -41 0 -15 5 -28 10 -28 6 0 10 -23 10 -51 0 -35
7 -63 21 -85 27 -45 19 -78 -38 -154 -24 -33 -46 -60 -48 -60 -2 0 -19 9 -38
20 -60 36 -223 73 -251 58 -21 -12 -10 -34 22 -46 36 -14 128 -38 174 -46 21
-4 40 -11 43 -16 19 -30 -151 -149 -280 -195 -100 -37 -252 -51 -379 -37 -130
16 -282 68 -337 118 -8 8 -20 14 -26 14 -14 0 -170 153 -211 206 -37 49 -72
117 -102 199 -30 84 -39 310 -16 409 28 120 88 228 178 322 81 84 214 184 246
184 10 0 26 6 37 13 20 14 123 43 180 51 17 3 91 3 165 1 100 -3 152 -9 200
-25z m-473 -1587 c18 -7 44 -13 58 -13 39 0 95 -27 95 -45 0 -22 -58 -223 -74
-255 -11 -24 -15 -25 -134 -28 l-122 -3 0 28 c0 28 20 130 45 233 8 30 17 68
20 83 5 26 8 27 43 21 20 -4 51 -13 69 -21z"/>
<path d="M5032 4718 c-18 -18 -14 -43 9 -64 42 -38 43 -51 6 -95 -56 -65 -55
-148 3 -204 23 -22 41 -29 85 -33 54 -4 56 -4 98 40 42 44 89 103 95 119 4 9
-35 50 -98 103 -176 148 -181 151 -198 134z"/>
</g>
</svg>
