<?xml version="1.0" standalone="no"?>
<!DOCTYPE svg PUBLIC "-//W3C//DTD SVG 20010904//EN"
 "http://www.w3.org/TR/2001/REC-SVG-20010904/DTD/svg10.dtd">
<svg version="1.0" xmlns="http://www.w3.org/2000/svg"
 width="900.000000pt" height="900.000000pt" viewBox="0 0 900.000000 900.000000"
 preserveAspectRatio="xMidYMid meet">
<metadata>
Created by potrace 1.10, written by Peter Selinger 2001-2011
</metadata>
<g transform="translate(0.000000,900.000000) scale(0.100000,-0.100000)"
fill="#000000" stroke="none">
<path d="M4690 5313 c-71 -14 -115 -28 -187 -59 -17 -8 -34 -14 -37 -14 -4 0
-39 -19 -79 -42 -71 -42 -260 -219 -289 -271 -95 -173 -114 -230 -126 -373
-11 -124 0 -282 24 -359 28 -86 94 -209 162 -301 48 -65 62 -92 55 -103 -5 -8
-40 -30 -79 -50 -102 -53 -116 -65 -124 -108 -8 -38 -22 -97 -45 -188 -34
-131 -38 -165 -27 -191 11 -22 17 -25 54 -22 42 3 43 4 59 53 9 28 29 102 44
165 15 63 33 125 41 136 7 12 47 39 89 60 42 21 81 44 87 51 15 19 45 16 77
-8 25 -18 28 -25 21 -52 -8 -33 -25 -110 -55 -252 -9 -44 -21 -96 -26 -116 -5
-20 -9 -53 -9 -73 0 -37 24 -86 42 -86 6 0 43 -19 82 -42 39 -24 88 -52 109
-62 40 -21 42 -27 27 -72 -21 -59 -40 -60 -225 -4 -145 44 -192 43 -208 -3
-15 -46 11 -71 95 -96 148 -43 184 -54 223 -67 75 -24 124 -27 150 -10 14 9
25 20 25 25 0 5 14 34 32 65 26 46 37 56 59 56 15 0 32 -7 39 -15 7 -8 18 -15
25 -15 25 0 70 -56 93 -116 39 -96 83 -207 98 -239 7 -16 15 -38 18 -47 7 -22
51 -34 85 -22 21 8 27 17 29 47 2 23 -3 48 -12 62 -9 14 -16 31 -16 39 0 8 -6
27 -14 43 -13 25 -29 63 -94 228 -19 48 -48 82 -76 91 -12 4 -42 21 -68 38
-37 23 -48 37 -48 57 0 27 27 130 75 284 7 22 21 69 30 105 22 78 30 90 61 90
18 0 29 -12 49 -52 15 -29 43 -70 63 -90 l36 -38 198 0 198 0 11 24 c16 35 3
75 -27 86 -14 6 -94 10 -179 10 l-153 0 -16 26 c-10 14 -16 37 -14 51 2 22 11
29 48 39 72 20 153 52 182 74 15 11 30 20 33 20 3 0 42 27 85 60 84 64 190
187 229 267 12 26 27 56 32 66 16 31 47 120 60 177 27 111 9 383 -30 458 -5 9
-19 42 -31 72 -62 153 -272 370 -434 449 -187 91 -414 122 -606 84z m310 -122
c139 -25 214 -52 310 -113 62 -39 213 -190 258 -258 76 -113 144 -377 110
-423 -9 -12 -36 -21 -83 -28 -45 -6 -75 -15 -82 -26 -15 -20 -17 -59 -3 -68 6
-3 10 -29 10 -56 0 -46 4 -54 40 -90 22 -22 40 -43 40 -48 0 -31 -147 -193
-241 -266 -66 -52 -142 -88 -254 -122 -86 -25 -346 -25 -425 1 -175 58 -343
170 -432 288 -73 97 -137 233 -150 317 -16 104 -4 314 22 386 66 181 176 315
335 408 89 52 171 81 269 96 44 6 82 14 85 16 9 10 89 4 191 -14z m-390 -1601
c19 -4 62 -14 95 -20 92 -19 88 -16 82 -58 -2 -20 -9 -50 -15 -67 -6 -16 -25
-77 -42 -135 -42 -134 -42 -135 -76 -134 -35 1 -117 21 -161 40 -30 12 -33 18
-33 56 0 23 6 67 14 97 8 31 22 90 31 131 27 117 24 113 48 105 12 -4 38 -10
57 -15z"/>
<path d="M4983 4633 c-24 -9 -14 -47 17 -65 39 -22 38 -46 -1 -79 -28 -22 -33
-34 -37 -82 -10 -119 19 -158 120 -165 42 -3 65 0 83 12 23 15 105 128 105
146 0 24 -247 243 -270 239 -3 0 -11 -3 -17 -6z"/>
<path d="M5157 4015 c-7 -17 40 -52 83 -61 14 -2 45 -11 70 -19 53 -18 96 -19
105 -4 9 14 -24 49 -47 49 -10 0 -31 6 -46 14 -15 7 -47 16 -72 20 -25 4 -55
9 -66 12 -14 4 -23 0 -27 -11z"/>
</g>
</svg>
