<?xml version="1.0" standalone="no"?>
<!DOCTYPE svg PUBLIC "-//W3C//DTD SVG 20010904//EN"
 "http://www.w3.org/TR/2001/REC-SVG-20010904/DTD/svg10.dtd">
<svg version="1.0" xmlns="http://www.w3.org/2000/svg"
 width="900.000000pt" height="900.000000pt" viewBox="0 0 900.000000 900.000000"
 preserveAspectRatio="xMidYMid meet">
<metadata>
Created by potrace 1.10, written by Peter Selinger 2001-2011
</metadata>
<g transform="translate(0.000000,900.000000) scale(0.100000,-0.100000)"
fill="#000000" stroke="none">
<path d="M4710 5190 c-58 -10 -116 -22 -130 -28 -14 -5 -45 -18 -70 -27 -127
-49 -219 -114 -330 -232 -65 -70 -90 -107 -136 -199 -46 -94 -58 -131 -75
-224 -23 -136 -24 -183 -3 -291 19 -103 46 -185 86 -264 42 -84 83 -137 182
-234 98 -98 98 -96 32 -195 -58 -88 -86 -144 -86 -172 0 -18 19 -43 70 -91
l70 -66 -1 -69 -1 -70 123 -124 c136 -138 135 -134 49 -169 -25 -10 -59 -24
-77 -31 -17 -8 -35 -14 -41 -14 -5 0 -30 -9 -56 -20 -49 -22 -66 -44 -66 -85
0 -54 73 -56 183 -6 51 23 69 18 61 -18 -4 -14 -11 -34 -16 -44 -15 -29 -38
-110 -38 -134 0 -52 65 -71 98 -28 11 14 39 73 61 132 55 140 66 161 114 206
37 35 39 40 33 78 -5 31 -1 58 17 108 13 36 32 101 42 144 10 43 23 81 28 84
5 3 41 -29 79 -71 39 -42 78 -76 88 -76 21 0 50 31 50 54 0 28 -70 145 -117
196 -27 30 -38 97 -26 155 l9 40 89 18 c50 10 117 25 150 34 73 20 226 94 279
136 51 41 226 218 226 230 0 4 12 23 26 42 37 49 83 184 106 310 20 107 20
113 3 225 -10 63 -24 127 -31 142 -8 15 -14 34 -14 42 0 24 -64 156 -99 203
-47 65 -160 181 -224 230 -61 47 -224 133 -252 133 -9 0 -25 5 -36 10 -24 14
-242 50 -289 49 -19 -1 -82 -9 -140 -19z m410 -150 c126 -43 251 -122 340
-216 80 -85 128 -157 166 -249 26 -64 29 -81 29 -190 0 -137 11 -123 -112
-146 -88 -17 -96 -24 -78 -74 8 -22 14 -55 15 -74 0 -40 40 -98 76 -111 38
-15 38 -34 -1 -92 -64 -95 -182 -198 -287 -249 -124 -61 -145 -68 -267 -87
-89 -13 -118 -13 -200 -2 -125 16 -273 64 -328 106 -17 13 -36 24 -41 24 -16
0 -155 135 -203 198 -62 82 -116 195 -130 269 -7 34 -9 124 -6 218 4 156 5
162 38 235 57 124 75 152 143 227 72 77 170 148 256 183 30 12 66 27 80 33 73
31 416 29 510 -3z m-460 -1584 c25 -8 61 -17 82 -20 44 -8 53 -27 35 -80 -8
-23 -21 -66 -30 -96 -44 -156 -63 -205 -81 -208 -13 -3 -46 23 -103 80 l-85
83 7 79 c4 44 13 96 20 115 7 20 16 44 19 55 5 16 13 18 49 12 23 -4 62 -13
87 -20z m-292 -97 c-5 -35 -28 -36 -28 -1 0 16 3 32 7 36 11 11 25 -10 21 -35z"/>
<path d="M4936 4493 c-5 -12 4 -28 29 -51 28 -27 33 -37 25 -51 -5 -10 -16
-21 -24 -24 -30 -12 -48 -67 -44 -129 4 -50 9 -64 36 -91 29 -29 38 -32 90
-32 70 0 104 23 152 105 38 66 35 78 -47 146 -32 27 -60 51 -63 54 -3 3 -27
24 -54 48 -51 44 -89 54 -100 25z"/>
<path d="M5124 3885 c-9 -22 3 -29 98 -60 74 -24 147 -32 161 -18 10 10 -34
53 -53 53 -10 0 -36 7 -59 15 -23 8 -64 17 -91 21 -42 5 -51 4 -56 -11z"/>
</g>
</svg>
