<?xml version="1.0" standalone="no"?>
<!DOCTYPE svg PUBLIC "-//W3C//DTD SVG 20010904//EN"
 "http://www.w3.org/TR/2001/REC-SVG-20010904/DTD/svg10.dtd">
<svg version="1.0" xmlns="http://www.w3.org/2000/svg"
 width="900.000000pt" height="900.000000pt" viewBox="0 0 900.000000 900.000000"
 preserveAspectRatio="xMidYMid meet">
<metadata>
Created by potrace 1.10, written by Peter Selinger 2001-2011
</metadata>
<g transform="translate(0.000000,900.000000) scale(0.100000,-0.100000)"
fill="#000000" stroke="none">
<path d="M4785 5273 c-60 -4 -177 -30 -223 -49 -18 -8 -38 -14 -46 -14 -18 0
-113 -50 -176 -94 -66 -45 -194 -175 -236 -237 -43 -64 -94 -164 -94 -183 0
-10 -6 -29 -14 -45 -23 -44 -36 -231 -25 -351 14 -145 38 -222 106 -340 32
-55 132 -188 162 -214 11 -11 21 -27 21 -36 0 -9 -34 -49 -75 -89 -79 -76 -88
-98 -59 -139 8 -12 21 -32 27 -45 7 -12 38 -63 70 -114 41 -63 66 -93 83 -97
19 -5 23 -12 20 -29 -13 -64 -15 -153 -6 -238 11 -96 9 -119 -25 -249 -8 -30
-27 -102 -41 -160 -32 -122 -42 -224 -24 -245 17 -20 64 -19 83 3 15 17 39 99
57 194 5 27 11 52 15 57 3 5 10 31 15 58 5 26 19 80 30 118 11 39 23 120 27
183 l6 114 44 -7 c25 -3 63 -13 85 -21 22 -8 51 -14 63 -14 36 0 211 -138 203
-161 -4 -11 -54 -32 -113 -49 -76 -20 -102 -38 -108 -72 -6 -41 15 -78 46 -78
12 0 45 7 72 16 49 16 69 24 148 58 21 9 44 16 51 16 7 0 34 9 60 20 43 20 46
23 46 59 0 34 -6 43 -47 77 -79 65 -197 183 -190 190 3 4 31 -12 61 -35 64
-48 106 -54 130 -19 9 12 16 27 16 32 0 5 -41 51 -91 102 l-91 93 15 48 c26
83 45 147 51 175 6 25 11 27 73 33 172 17 355 91 484 195 35 29 69 55 75 58 6
4 40 45 75 92 64 84 112 173 143 260 22 61 46 210 46 279 -1 59 -29 211 -50
271 -55 150 -85 198 -208 324 -167 171 -271 231 -482 279 -70 16 -204 26 -285
20z m243 -139 c198 -41 288 -91 438 -246 75 -77 99 -110 138 -190 26 -53 51
-118 56 -145 4 -26 13 -74 19 -106 15 -88 6 -102 -78 -121 -38 -9 -83 -16 -98
-16 -16 0 -34 -5 -41 -12 -15 -15 -16 -64 -2 -73 6 -3 10 -29 10 -56 0 -65 10
-83 66 -111 26 -12 49 -29 51 -36 6 -16 -63 -108 -136 -182 -85 -84 -233 -172
-326 -192 -22 -5 -62 -14 -90 -20 -65 -13 -294 -4 -361 16 -156 44 -340 167
-435 291 -27 35 -49 67 -49 71 0 4 -18 44 -41 90 -51 106 -63 181 -56 349 5
128 10 147 62 280 33 81 157 221 258 289 99 68 164 93 332 129 49 11 213 6
283 -9z m-622 -1551 c-7 -41 -36 -180 -42 -200 -6 -23 -18 -14 -51 35 -52 78
-51 84 8 147 29 30 61 55 72 55 17 0 18 -5 13 -37z m179 -37 c22 -8 75 -22
118 -31 45 -10 81 -23 84 -30 2 -8 -2 -36 -10 -62 -8 -26 -29 -100 -47 -163
-18 -63 -39 -121 -46 -129 -11 -12 -22 -12 -71 -2 -32 7 -79 20 -105 29 -47
16 -48 17 -48 56 0 42 21 153 46 242 8 28 14 60 14 71 0 36 8 39 65 19z"/>
<path d="M4913 4563 c-4 -11 5 -25 30 -46 21 -16 37 -32 37 -36 0 -5 -16 -24
-35 -44 -34 -35 -35 -38 -35 -116 l0 -80 37 -26 c30 -20 50 -25 100 -25 61 0
62 1 97 44 20 23 36 46 36 50 0 4 11 22 25 41 l26 33 -83 73 c-46 40 -103 89
-127 111 -47 41 -96 51 -108 21z"/>
<path d="M5110 3958 c1 -30 19 -39 173 -84 62 -17 82 -12 75 21 -7 38 -248 99
-248 63z"/>
</g>
</svg>
