<?xml version="1.0" standalone="no"?>
<!DOCTYPE svg PUBLIC "-//W3C//DTD SVG 20010904//EN"
 "http://www.w3.org/TR/2001/REC-SVG-20010904/DTD/svg10.dtd">
<svg version="1.0" xmlns="http://www.w3.org/2000/svg"
 width="900.000000pt" height="900.000000pt" viewBox="0 0 900.000000 900.000000"
 preserveAspectRatio="xMidYMid meet">
<metadata>
Created by potrace 1.10, written by Peter Selinger 2001-2011
</metadata>
<g transform="translate(0.000000,900.000000) scale(0.100000,-0.100000)"
fill="#000000" stroke="none">
<path d="M4720 5390 c-60 -8 -118 -23 -180 -48 -14 -5 -45 -18 -70 -28 -76
-31 -186 -113 -274 -204 -46 -47 -89 -98 -97 -112 -96 -175 -115 -231 -128
-369 -12 -124 1 -285 29 -368 33 -100 111 -246 146 -276 6 -6 23 -28 38 -49
14 -21 39 -48 54 -60 64 -48 132 -110 132 -120 0 -6 -18 -19 -40 -29 -22 -10
-45 -29 -52 -42 -11 -20 -106 -141 -157 -200 -9 -12 -41 -52 -70 -89 -42 -56
-51 -74 -46 -95 7 -30 31 -51 57 -51 20 0 81 60 146 145 25 33 53 68 63 77 9
9 32 37 49 62 52 72 64 40 34 -89 -37 -160 -48 -195 -98 -293 -72 -146 -75
-151 -94 -161 -16 -9 -184 3 -202 14 -16 10 -207 24 -244 18 -41 -6 -56 -37
-38 -78 12 -26 35 -32 232 -60 63 -9 155 -23 203 -32 85 -15 90 -15 114 3 13
11 32 33 41 49 9 17 29 50 44 75 15 25 43 78 63 118 27 56 40 72 57 72 21 0
86 -16 179 -46 62 -19 266 -18 394 1 152 23 157 21 303 -111 106 -97 130 -114
158 -114 40 0 59 27 50 74 -4 21 -23 45 -58 75 -29 24 -93 80 -141 125 -49 44
-98 85 -110 89 -24 9 -113 2 -266 -19 -125 -18 -132 -14 -109 53 8 27 22 74
31 106 9 31 23 81 32 110 8 28 16 61 18 72 2 18 9 20 61 17 47 -3 69 1 110 21
28 13 78 33 110 43 71 22 164 68 226 111 67 47 234 221 268 278 44 77 89 200
108 295 37 190 -12 433 -122 606 -38 59 -202 231 -269 280 -62 46 -140 83
-255 120 -92 30 -121 35 -235 38 -71 3 -159 1 -195 -4z m245 -120 c83 -10 179
-32 215 -50 8 -5 46 -23 83 -41 51 -25 92 -57 167 -134 170 -171 206 -236 245
-441 21 -111 15 -129 -47 -138 -119 -18 -224 -41 -237 -52 -12 -11 -12 -20 -1
-59 7 -25 10 -48 7 -52 -9 -8 18 -68 41 -91 22 -22 112 -45 137 -36 9 4 17 -1
21 -11 7 -17 -41 -93 -97 -154 l-31 -34 -30 17 c-37 23 -61 16 -119 -31 -26
-21 -68 -54 -93 -73 -26 -19 -71 -55 -102 -79 -62 -50 -99 -60 -229 -60 -154
-1 -272 26 -399 91 -43 23 -95 66 -176 148 -95 94 -123 129 -153 190 -65 134
-72 167 -72 345 0 172 9 215 71 339 74 148 239 297 389 352 160 59 255 71 410
54z m695 -895 c0 -29 -15 -33 -29 -6 -11 20 -5 31 16 31 7 0 13 -11 13 -25z
m-1020 -716 c25 -6 69 -18 98 -26 35 -9 52 -19 52 -30 0 -9 -14 -61 -30 -117
-36 -118 -61 -205 -67 -225 -5 -18 -114 -8 -181 17 -44 16 -47 20 -50 57 -2
22 3 67 11 100 8 33 23 96 32 140 10 44 19 86 21 94 5 14 35 12 114 -10z"/>
<path d="M4868 4709 c-24 -14 -23 -18 17 -64 19 -22 35 -42 35 -46 0 -3 -13
-15 -28 -26 -16 -12 -37 -42 -46 -68 -25 -64 -15 -105 36 -155 38 -36 47 -40
94 -40 51 0 53 1 109 62 31 33 62 72 68 86 12 26 4 36 -158 177 -38 33 -74 66
-81 73 -15 14 -23 15 -46 1z"/>
<path d="M5044 4085 c-9 -23 3 -32 69 -53 157 -49 187 -51 187 -13 0 22 -25
33 -140 62 -90 23 -109 23 -116 4z"/>
</g>
</svg>
