<?xml version="1.0" standalone="no"?>
<!DOCTYPE svg PUBLIC "-//W3C//DTD SVG 20010904//EN"
 "http://www.w3.org/TR/2001/REC-SVG-20010904/DTD/svg10.dtd">
<svg version="1.0" xmlns="http://www.w3.org/2000/svg"
 width="900.000000pt" height="900.000000pt" viewBox="0 0 900.000000 900.000000"
 preserveAspectRatio="xMidYMid meet">
<metadata>
Created by potrace 1.10, written by Peter Selinger 2001-2011
</metadata>
<g transform="translate(0.000000,900.000000) scale(0.100000,-0.100000)"
fill="#000000" stroke="none">
<path d="M4715 5284 c-212 -41 -347 -110 -491 -250 -155 -151 -236 -314 -253
-512 -11 -119 3 -311 25 -353 7 -15 14 -35 14 -43 0 -29 86 -182 147 -261 39
-51 94 -105 152 -150 49 -38 90 -75 90 -81 1 -6 -25 -40 -57 -75 -58 -64 -152
-183 -152 -193 0 -2 -27 -45 -60 -94 -33 -50 -60 -97 -60 -106 0 -22 36 -56
58 -56 10 0 32 14 50 31 31 30 120 158 134 192 4 9 14 17 22 17 17 0 14 -34
-10 -131 -8 -31 -14 -69 -14 -83 0 -14 -6 -43 -13 -63 -34 -93 -39 -110 -47
-138 -22 -77 -42 -112 -117 -203 -44 -53 -91 -106 -103 -117 -45 -40 -110
-134 -110 -158 0 -45 10 -57 47 -57 39 0 77 34 227 209 49 57 99 114 111 127
13 13 32 57 44 97 12 39 27 86 32 102 6 17 14 45 19 63 13 54 27 64 79 56 25
-4 56 -11 69 -15 62 -24 183 -40 335 -46 159 -6 168 -7 171 -27 3 -12 12 -70
21 -131 17 -114 28 -135 70 -135 12 0 32 11 45 25 24 25 24 26 11 113 -7 48
-17 120 -21 160 -11 107 -14 109 -178 117 -167 9 -187 15 -177 53 3 15 13 38
22 50 15 24 15 24 158 17 139 -7 143 -7 165 15 17 17 21 29 16 53 -4 17 -11
34 -18 38 -14 9 -66 16 -174 25 -101 8 -112 13 -96 49 7 14 12 37 12 51 0 31
42 51 127 60 80 8 202 47 302 97 68 34 104 61 186 142 140 137 173 186 238
350 21 52 47 213 47 284 -1 130 -61 336 -128 441 -20 30 -92 112 -161 181
-116 115 -134 130 -223 172 -53 26 -104 47 -113 47 -9 0 -26 5 -38 12 -36 19
-207 47 -287 47 -41 -1 -106 -7 -145 -15z m300 -125 c189 -40 284 -90 417
-218 118 -114 171 -191 208 -301 24 -71 54 -234 47 -253 -5 -14 -112 -39 -219
-52 -26 -3 -57 -14 -69 -24 -20 -16 -21 -21 -11 -51 7 -18 12 -47 12 -65 0
-38 36 -95 70 -112 14 -7 49 -13 78 -13 65 0 66 -9 12 -90 -61 -88 -187 -202
-272 -245 -40 -20 -80 -40 -88 -45 -54 -29 -133 -40 -301 -40 -190 0 -202 2
-359 68 -78 33 -96 46 -208 157 -125 121 -138 139 -201 275 l-34 75 -1 180
c-1 191 6 228 58 330 70 138 148 227 261 299 119 76 174 100 270 117 33 6 78
15 100 19 47 10 158 5 230 -11z m645 -895 c0 -26 -17 -33 -26 -9 -8 20 3 48
16 40 5 -3 10 -17 10 -31z m-1097 -774 c48 -159 61 -192 85 -210 14 -11 33
-20 43 -20 26 0 29 -10 15 -65 -12 -46 -16 -50 -45 -53 -18 -2 -53 4 -79 12
-25 9 -56 16 -68 16 -40 0 -56 27 -51 84 6 72 49 269 65 299 7 14 17 -4 35
-63z m215 28 c17 -17 15 -46 -8 -95 -29 -65 -60 -40 -75 61 l-7 46 39 0 c21 0
44 -5 51 -12z"/>
<path d="M4878 4612 c-31 -6 -28 -32 8 -72 l36 -40 -35 -39 c-67 -74 -72 -153
-14 -208 73 -69 126 -72 190 -10 57 55 97 105 97 121 0 18 -28 46 -155 156
-65 57 -117 94 -127 92z"/>
<path d="M5047 3984 c-16 -17 -4 -32 36 -46 111 -38 147 -48 182 -48 32 0 36
3 33 22 -2 17 -17 27 -66 44 -68 23 -174 39 -185 28z"/>
</g>
</svg>
