<?xml version="1.0" encoding="utf-8"?>
<!-- Generator: Adobe Illustrator 23.0.2, SVG Export Plug-In . SVG Version: 6.00 Build 0)  -->
<svg version="1.1" id="Layer_1" xmlns="http://www.w3.org/2000/svg" xmlns:xlink="http://www.w3.org/1999/xlink" x="0px" y="0px"
	 viewBox="0 0 900 900" style="enable-background:new 0 0 900 900;" xml:space="preserve">
<g transform="translate(0.000000,900.000000) scale(0.100000,-0.100000)">
	<path d="M4715,5284c-212-41-347-110-491-250c-155-151-236-314-253-512c-11-119,3-311,25-353c7-15,14-35,14-43c0-29,86-182,147-261
		c39-51,94-105,152-150c49-38,90-75,90-81c1-6-25-40-57-75c-58-64-152-183-152-193c0-2-27-45-60-94c-33-50-60-97-60-106
		c0-22,36-56,58-56c10,0,32,14,50,31c31,30,120,158,134,192c4,9,14,17,22,17c17,0,14-34-10-131c-8-31-14-69-14-83s-6-43-13-63
		c-34-93-39-110-47-138c-22-77-42-112-117-203c-44-53-91-106-103-117c-45-40-110-134-110-158c0-45,10-57,47-57c39,0,77,34,227,209
		c49,57,99,114,111,127c13,13,32,57,44,97c12,39,27,86,32,102c6,17,14,45,19,63c13,54,27,64,79,56c25-4,56-11,69-15
		c62-24,183-40,335-46c159-6,168-7,171-27c3-12,12-70,21-131c17-114,28-135,70-135c12,0,32,11,45,25c24,25,24,26,11,113
		c-7,48-17,120-21,160c-11,107-14,109-178,117c-167,9-187,15-177,53c3,15,13,38,22,50c15,24,15,24,158,17c139-7,143-7,165,15
		c17,17,21,29,16,53c-4,17-11,34-18,38c-14,9-66,16-174,25c-101,8-112,13-96,49c7,14,12,37,12,51c0,31,42,51,127,60
		c80,8,202,47,302,97c68,34,104,61,186,142c140,137,173,186,238,350c21,52,47,213,47,284c-1,130-61,336-128,441
		c-20,30-92,112-161,181c-116,115-134,130-223,172c-53,26-104,47-113,47s-26,5-38,12c-36,19-207,47-287,47
		C4819,5298,4754,5292,4715,5284z M5015,5159c189-40,284-90,417-218c118-114,171-191,208-301c24-71,54-234,47-253
		c-5-14-112-39-219-52c-26-3-57-14-69-24c-20-16-21-21-11-51c7-18,12-47,12-65c0-38,36-95,70-112c14-7,49-13,78-13c65,0,66-9,12-90
		c-61-88-187-202-272-245c-40-20-80-40-88-45c-54-29-133-40-301-40c-190,0-202,2-359,68c-78,33-96,46-208,157
		c-125,121-138,139-201,275l-34,75l-1,180c-1,191,6,228,58,330c70,138,148,227,261,299c119,76,174,100,270,117c33,6,78,15,100,19
		C4832,5180,4943,5175,5015,5159z M5660,4264c0-26-17-33-26-9c-8,20,3,48,16,40C5655,4292,5660,4278,5660,4264z M4563,3490
		c48-159,61-192,85-210c14-11,33-20,43-20c26,0,29-10,15-65c-12-46-16-50-45-53c-18-2-53,4-79,12c-25,9-56,16-68,16
		c-40,0-56,27-51,84c6,72,49,269,65,299C4535,3567,4545,3549,4563,3490z M4778,3518c17-17,15-46-8-95c-29-65-60-40-75,61l-7,46h39
		C4748,3530,4771,3525,4778,3518z"/>
	<path d="M4878,4612c-31-6-28-32,8-72l36-40l-35-39c-67-74-72-153-14-208c73-69,126-72,190-10c57,55,97,105,97,121
		c0,18-28,46-155,156C4940,4577,4888,4614,4878,4612z"/>
	<path d="M5047,3984c-16-17-4-32,36-46c111-38,147-48,182-48c32,0,36,3,33,22c-2,17-17,27-66,44C5164,3979,5058,3995,5047,3984z"/>
</g>
</svg>
