<?xml version="1.0" encoding="utf-8"?>
<!-- Generator: Adobe Illustrator 23.0.2, SVG Export Plug-In . SVG Version: 6.00 Build 0)  -->
<svg version="1.1" id="Layer_1" xmlns="http://www.w3.org/2000/svg" xmlns:xlink="http://www.w3.org/1999/xlink" x="0px" y="0px"
	 viewBox="0 0 900 900" style="enable-background:new 0 0 900 900;" xml:space="preserve">
<g transform="translate(0.000000,900.000000) scale(0.100000,-0.100000)">
	<path d="M4720,5390c-60-8-118-23-180-48c-14-5-45-18-70-28c-76-31-186-113-274-204c-46-47-89-98-97-112c-96-175-115-231-128-369
		c-12-124,1-285,29-368c33-100,111-246,146-276c6-6,23-28,38-49c14-21,39-48,54-60c64-48,132-110,132-120c0-6-18-19-40-29
		s-45-29-52-42c-11-20-106-141-157-200c-9-12-41-52-70-89c-42-56-51-74-46-95c7-30,31-51,57-51c20,0,81,60,146,145
		c25,33,53,68,63,77c9,9,32,37,49,62c52,72,64,40,34-89c-37-160-48-195-98-293c-72-146-75-151-94-161c-16-9-184,3-202,14
		c-16,10-207,24-244,18c-41-6-56-37-38-78c12-26,35-32,232-60c63-9,155-23,203-32c85-15,90-15,114,3c13,11,32,33,41,49
		c9,17,29,50,44,75s43,78,63,118c27,56,40,72,57,72c21,0,86-16,179-46c62-19,266-18,394,1c152,23,157,21,303-111
		c106-97,130-114,158-114c40,0,59,27,50,74c-4,21-23,45-58,75c-29,24-93,80-141,125c-49,44-98,85-110,89c-24,9-113,2-266-19
		c-125-18-132-14-109,53c8,27,22,74,31,106c9,31,23,81,32,110c8,28,16,61,18,72c2,18,9,20,61,17c47-3,69,1,110,21
		c28,13,78,33,110,43c71,22,164,68,226,111c67,47,234,221,268,278c44,77,89,200,108,295c37,190-12,433-122,606
		c-38,59-202,231-269,280c-62,46-140,83-255,120c-92,30-121,35-235,38C4844,5397,4756,5395,4720,5390z M4965,5270
		c83-10,179-32,215-50c8-5,46-23,83-41c51-25,92-57,167-134c170-171,206-236,245-441c21-111,15-129-47-138c-119-18-224-41-237-52
		c-12-11-12-20-1-59c7-25,10-48,7-52c-9-8,18-68,41-91c22-22,112-45,137-36c9,4,17-1,21-11c7-17-41-93-97-154l-31-34l-30,17
		c-37,23-61,16-119-31c-26-21-68-54-93-73c-26-19-71-55-102-79c-62-50-99-60-229-60c-154-1-272,26-399,91c-43,23-95,66-176,148
		c-95,94-123,129-153,190c-65,134-72,167-72,345c0,172,9,215,71,339c74,148,239,297,389,352C4715,5275,4810,5287,4965,5270z
		 M5660,4375c0-29-15-33-29-6c-11,20-5,31,16,31C5654,4400,5660,4389,5660,4375z M4640,3659c25-6,69-18,98-26c35-9,52-19,52-30
		c0-9-14-61-30-117c-36-118-61-205-67-225c-5-18-114-8-181,17c-44,16-47,20-50,57c-2,22,3,67,11,100s23,96,32,140c10,44,19,86,21,94
		C4531,3683,4561,3681,4640,3659z"/>
	<path d="M4868,4709c-24-14-23-18,17-64c19-22,35-42,35-46c0-3-13-15-28-26c-16-12-37-42-46-68c-25-64-15-105,36-155
		c38-36,47-40,94-40c51,0,53,1,109,62c31,33,62,72,68,86c12,26,4,36-158,177c-38,33-74,66-81,73C4899,4722,4891,4723,4868,4709z"/>
	<path d="M5044,4085c-9-23,3-32,69-53c157-49,187-51,187-13c0,22-25,33-140,62C5070,4104,5051,4104,5044,4085z"/>
</g>
</svg>
