<?xml version="1.0" encoding="utf-8"?>
<!-- Generator: Adobe Illustrator 23.0.2, SVG Export Plug-In . SVG Version: 6.00 Build 0)  -->
<svg version="1.1" id="Layer_1" xmlns="http://www.w3.org/2000/svg" xmlns:xlink="http://www.w3.org/1999/xlink" x="0px" y="0px"
	 viewBox="0 0 900 900" style="enable-background:new 0 0 900 900;" xml:space="preserve">
<g transform="translate(0.000000,900.000000) scale(0.100000,-0.100000)">
	<path d="M4675,5314c-82-20-168-46-181-56c-6-4-43-24-83-44c-79-39-247-190-303-272c-31-44-81-143-111-217c-39-97-40-408-1-530
		c53-165,175-337,324-454c63-50,90-77,86-88c-3-8-6-25-6-37c0-14-36-58-105-129c-58-59-105-111-105-116c0-6-27-50-60-99
		c-33-50-60-97-60-106c0-22,36-56,58-56c26,0,71,48,137,145c75,111,94,111,60-1c-8-27-15-60-15-74s-7-34-15-44c-8-11-15-28-15-39
		c0-10-6-31-14-45c-8-15-22-46-32-70c-9-24-21-45-26-48c-8-5-106,70-133,101c-5,6-30,26-54,43c-56,41-91,42-114,3
		c-20-35-11-69,25-93c12-8,70-55,128-103c145-121,174-139,198-126c19,10,66,96,97,181c10,25,23,57,31,72c8,14,14,33,14,42
		c0,28,41,47,80,36c91-23,158-40,185-45c21-5,67-44,150-128l121-122l33-105c30-94,43-133,72-208c11-28,50-46,83-38c24,6,26,10,26,67
		c0,33-5,70-12,82c-6,12-15,35-19,52c-9,36-27,89-44,130c-7,17-18,44-24,60c-6,17-30,50-52,75c-52,58-94,104-147,163
		c-39,44-42,50-36,89c3,24,11,61,18,83c8,22,19,60,25,83c11,40,17,46,69,69c89,39,112,48,192,78c83,32,96,43,110,96
		c9,33,19,42,81,73c39,20,96,56,127,80c69,53,208,197,224,231c6,14,14,25,17,25c8,0,37,58,76,155c20,49,55,242,55,299
		c-1,48-32,215-51,266c-57,162-99,223-245,366c-114,111-155,138-309,204C5077,5326,4815,5347,4675,5314z M5060,5186
		c41-9,120-39,175-66c89-43,111-59,198-147c53-54,113-120,132-147c37-52,84-167,96-231c4-22,12-68,19-103c7-34,10-68,7-75
		c-4-12-153-45-227-50c-33-2-35-4-33-37c3-71,26-166,45-186c11-12,40-27,66-34s51-16,55-20c23-20-148-215-244-280
		c-146-97-262-130-460-130c-133,0-152,2-236,29c-152,50-205,83-334,211c-107,105-120,123-163,213c-57,119-66,164-66,322
		s10,207,66,324c42,85,59,107,149,197c126,123,203,166,395,218C4772,5213,4960,5209,5060,5186z M4554,3604c9-4,44-61,77-128
		c34-66,67-132,75-146s12-36,9-50c-18-79-27-99-45-105c-20-6-104,15-172,43c-36,14-38,17-38,61c0,25,7,68,15,95s15,60,15,74
		c0,25,38,162,45,162C4537,3610,4546,3607,4554,3604z M4788,3536c2-10-1-23-7-29c-15-15-46,16-37,38C4752,3566,4784,3560,4788,3536z
		"/>
	<path d="M4906,4641c-22-24-20-38,9-57c48-31,48-47,5-101c-48-61-59-113-33-163c46-90,151-106,224-34c21,21,39,43,39,48s12,22,26,37
		l26,28l-52,55c-29,31-92,89-140,131C4927,4655,4922,4658,4906,4641z"/>
	<path d="M5090,4008c0-20,9-27,58-42c167-53,176-55,185-32c3,8,0,21-6,29c-13,17-117,51-189,61C5092,4031,5090,4030,5090,4008z"/>
</g>
</svg>
