<?xml version="1.0" encoding="utf-8"?>
<!-- Generator: Adobe Illustrator 23.0.2, SVG Export Plug-In . SVG Version: 6.00 Build 0)  -->
<svg version="1.1" id="Layer_1" xmlns="http://www.w3.org/2000/svg" xmlns:xlink="http://www.w3.org/1999/xlink" x="0px" y="0px"
	 viewBox="0 0 900 900" style="enable-background:new 0 0 900 900;" xml:space="preserve">
<g transform="translate(0.000000,900.000000) scale(0.100000,-0.100000)">
	<path d="M4710,5190c-58-10-116-22-130-28c-14-5-45-18-70-27c-127-49-219-114-330-232c-65-70-90-107-136-199c-46-94-58-131-75-224
		c-23-136-24-183-3-291c19-103,46-185,86-264c42-84,83-137,182-234c98-98,98-96,32-195c-58-88-86-144-86-172c0-18,19-43,70-91l70-66
		l-1-69l-1-70l123-124c136-138,135-134,49-169c-25-10-59-24-77-31c-17-8-35-14-41-14c-5,0-30-9-56-20c-49-22-66-44-66-85
		c0-54,73-56,183-6c51,23,69,18,61-18c-4-14-11-34-16-44c-15-29-38-110-38-134c0-52,65-71,98-28c11,14,39,73,61,132
		c55,140,66,161,114,206c37,35,39,40,33,78c-5,31-1,58,17,108c13,36,32,101,42,144s23,81,28,84s41-29,79-71c39-42,78-76,88-76
		c21,0,50,31,50,54c0,28-70,145-117,196c-27,30-38,97-26,155l9,40l89,18c50,10,117,25,150,34c73,20,226,94,279,136
		c51,41,226,218,226,230c0,4,12,23,26,42c37,49,83,184,106,310c20,107,20,113,3,225c-10,63-24,127-31,142c-8,15-14,34-14,42
		c0,24-64,156-99,203c-47,65-160,181-224,230c-61,47-224,133-252,133c-9,0-25,5-36,10c-24,14-242,50-289,49
		C4831,5208,4768,5200,4710,5190z M5120,5040c126-43,251-122,340-216c80-85,128-157,166-249c26-64,29-81,29-190
		c0-137,11-123-112-146c-88-17-96-24-78-74c8-22,14-55,15-74c0-40,40-98,76-111c38-15,38-34-1-92c-64-95-182-198-287-249
		c-124-61-145-68-267-87c-89-13-118-13-200-2c-125,16-273,64-328,106c-17,13-36,24-41,24c-16,0-155,135-203,198
		c-62,82-116,195-130,269c-7,34-9,124-6,218c4,156,5,162,38,235c57,124,75,152,143,227c72,77,170,148,256,183c30,12,66,27,80,33
		C4683,5074,5026,5072,5120,5040z M4660,3456c25-8,61-17,82-20c44-8,53-27,35-80c-8-23-21-66-30-96c-44-156-63-205-81-208
		c-13-3-46,23-103,80l-85,83l7,79c4,44,13,96,20,115c7,20,16,44,19,55c5,16,13,18,49,12C4596,3472,4635,3463,4660,3456z M4368,3359
		c-5-35-28-36-28-1c0,16,3,32,7,36C4358,3405,4372,3384,4368,3359z"/>
	<path d="M4936,4493c-5-12,4-28,29-51c28-27,33-37,25-51c-5-10-16-21-24-24c-30-12-48-67-44-129c4-50,9-64,36-91c29-29,38-32,90-32
		c70,0,104,23,152,105c38,66,35,78-47,146c-32,27-60,51-63,54s-27,24-54,48C4985,4512,4947,4522,4936,4493z"/>
	<path d="M5124,3885c-9-22,3-29,98-60c74-24,147-32,161-18c10,10-34,53-53,53c-10,0-36,7-59,15s-64,17-91,21
		C5138,3901,5129,3900,5124,3885z"/>
</g>
</svg>
