<?xml version="1.0" encoding="utf-8"?>
<!-- Generator: Adobe Illustrator 23.0.2, SVG Export Plug-In . SVG Version: 6.00 Build 0)  -->
<svg version="1.1" id="Layer_1" xmlns="http://www.w3.org/2000/svg" xmlns:xlink="http://www.w3.org/1999/xlink" x="0px" y="0px"
	 viewBox="0 0 900 900" style="enable-background:new 0 0 900 900;" xml:space="preserve">
<g transform="translate(0.000000,900.000000) scale(0.100000,-0.100000)">
	<path d="M4710,5294c-127-23-266-80-381-155c-59-39-181-164-230-236c-109-158-149-340-128-587c6-66,17-132,25-147c7-15,14-35,14-43
		c0-35,76-164,159-270c24-31,41-61,38-68c-2-7-38-30-78-51c-99-50-110-60-119-104c-8-38-22-97-45-188c-34-131-38-165-27-191
		c11-22,17-25,54-22c42,3,43,4,59,53c9,28,24,84,34,125c27,121,45,177,63,192c9,8,52,32,94,52c85,42,127,43,153,2c12-18,12-30-1-91
		c-8-39-17-86-20-105s-11-60-19-90c-44-179-46-240-9-269c15-12,39-21,54-21c30,0,131-28,143-40c7-6-153-110-170-110
		c-2,0-71-40-153-90c-82-49-152-90-155-90c-4,0-25-13-48-28s-54-34-69-41c-63-32-83-74-58-122c19-35,62-23,195,56
		c70,41,128,75,131,75c2,0,23,14,46,30c22,17,46,30,51,30c6,0,18,6,26,14c9,7,43,28,76,46c125,68,150,82,162,91c6,6,35,22,65,38
		c110,57,147,84,150,111l3,25l124-2c73-1,128-6,134-12c8-8,8-23-2-54c-25-85-33-142-22-170c9-23,16-27,49-27c36,0,40,3,55,38
		c8,20,22,60,30,87c8,28,22,73,31,101c44,141,19,161-212,166c-62,1-117,5-123,9c-15,9-6,78,21,164c12,39,24,85,27,103
		c10,62,69,56,103-10c12-24,38-60,58-80l36-38h198h198l11,24c16,35,3,75-27,86c-14,6-95,10-179,10h-154l-16,31c-22,41-14,55,33,62
		c55,7,204,80,275,135c124,94,194,175,258,297c53,101,67,142,89,255c24,122,24,176,0,297c-23,118-33,149-73,233
		c-115,236-355,430-613,496C5047,5291,4763,5304,4710,5294z M5075,5156c155-43,283-121,396-241c101-108,168-230,189-345
		c35-192,34-182,9-201c-13-10-49-21-79-25c-79-9-93-19-86-57c4-18,10-52,15-77c11-62,28-99,47-107c28-11,32-43,10-83
		c-90-159-279-297-479-350c-94-25-290-27-385-4c-177,43-281,104-413,240c-91,95-136,165-176,273c-21,55-26,90-30,211
		c-6,183,7,251,74,390c38,78,227,265,308,305c89,43,165,68,275,89C4796,5183,5025,5170,5075,5156z M4592,3576c18-8,68-22,112-32
		c43-10,80-23,83-30c5-12-48-203-74-266c-9-20-23-40-31-43c-18-7-190-5-209,2c-24,9-10,127,33,279c8,28,14,60,14,71
		C4520,3593,4539,3599,4592,3576z"/>
	<path d="M4979,4599c-9-18-6-26,27-60l38-39l-30-32c-16-18-35-38-41-46c-16-17-17-91-2-129c22-59,46-73,125-73c71,0,74,1,109,37
		c19,20,35,42,35,49s11,26,25,42c14,17,25,34,25,38c-1,5-16,21-35,35c-18,14-66,54-106,90C5020,4626,5000,4637,4979,4599z"/>
	<path d="M5166,4001c-10-16,11-48,36-54c13-3,55-15,93-26c94-27,135-28,135-1c0,23-14,29-124,61C5211,4009,5174,4014,5166,4001z"/>
</g>
</svg>
