<?xml version="1.0" encoding="utf-8"?>
<!-- Generator: Adobe Illustrator 23.0.2, SVG Export Plug-In . SVG Version: 6.00 Build 0)  -->
<svg version="1.1" id="Layer_1" xmlns="http://www.w3.org/2000/svg" xmlns:xlink="http://www.w3.org/1999/xlink" x="0px" y="0px"
	 viewBox="0 0 900 900" style="enable-background:new 0 0 900 900;" xml:space="preserve">
<g transform="translate(0.000000,900.000000) scale(0.100000,-0.100000)">
	<path d="M4700,5391c-55-7-214-58-260-83c-79-43-147-97-240-194c-110-114-152-182-200-324c-40-118-43-415-6-510
		c46-117,80-191,92-201c8-6,14-17,14-24s7-18,15-25s15-21,15-31c0-15-8-19-37-20c-21,0-60-8-88-17l-50-17l-7-65
		c-19-190-21-305-4-344c14-34,19-38,43-31c16,3,34,12,42,20c19,19,40,135,41,227c0,94,9,102,120,102c69,0,79-2,130-35
		c85-55,93-66,86-113c-4-23-13-70-21-106s-22-101-31-145s-20-96-25-116c-12-50-11-101,4-120c11-15,51-29,167-59c82-22,84-38,8-86
		c-47-30-52-30-107,5c-25,16-84,49-131,73c-47,25-111,59-142,77c-67,36-78,37-109,12c-21-16-22-23-14-56c8-29,19-42,50-59
		c22-12,65-35,95-53c50-29,146-80,260-139c25-13,51-24,59-24c19,0,96,45,151,89c25,20,65,50,90,66c48,32,80,62,80,77c0,4,9,17,20,28
		c17,17,33,20,103,20c45-1,115-5,155-9c68-8,77-12,130-58c31-27,70-60,86-74c16-13,46-38,65-55c20-17,51-39,68-49c32-19,33-19,60,1
		c46,34,42,59-20,117c-105,101-255,223-288,235c-14,6-91,13-172,17c-167,9-161,5-133,95c8,25,22,72,31,105c31,109,28,105,91,105
		c56,0,58-1,133-68c150-134,165-138,262-60c277,223,279,225,279,263c0,24-7,37-25,49c-24,16-28,16-60,0c-19-9-44-26-57-38
		s-43-37-68-56c-25-18-49-38-55-44c-27-30-95-76-112-76c-24,0-90,67-77,79c5,4,32,17,59,27c28,10,69,31,91,46c23,15,47,28,53,28
		c21,0,210,191,258,263c121,175,167,402,128,618c-17,92-28,123-88,249c-56,118-147,225-275,323c-65,50-167,107-191,107
		c-10,0-21,4-27,9c-5,6-38,20-74,31c-52,17-96,22-225,25C4827,5397,4730,5395,4700,5391z M5110,5250c223-70,409-231,506-438
		c38-81,49-121,67-251c13-98,10-102-79-122c-50-11-54-14-54-41c0-15,5-28,10-28c6,0,10-23,10-51c0-35,7-63,21-85c27-45,19-78-38-154
		c-24-33-46-60-48-60s-19,9-38,20c-60,36-223,73-251,58c-21-12-10-34,22-46c36-14,128-38,174-46c21-4,40-11,43-16
		c19-30-151-149-280-195c-100-37-252-51-379-37c-130,16-282,68-337,118c-8,8-20,14-26,14c-14,0-170,153-211,206
		c-37,49-72,117-102,199c-30,84-39,310-16,409c28,120,88,228,178,322c81,84,214,184,246,184c10,0,26,6,37,13c20,14,123,43,180,51
		c17,3,91,3,165,1C5010,5272,5062,5266,5110,5250z M4637,3663c18-7,44-13,58-13c39,0,95-27,95-45c0-22-58-223-74-255
		c-11-24-15-25-134-28l-122-3v28c0,28,20,130,45,233c8,30,17,68,20,83c5,26,8,27,43,21C4588,3680,4619,3671,4637,3663z"/>
	<path d="M5032,4718c-18-18-14-43,9-64c42-38,43-51,6-95c-56-65-55-148,3-204c23-22,41-29,85-33c54-4,56-4,98,40s89,103,95,119
		c4,9-35,50-98,103C5054,4732,5049,4735,5032,4718z"/>
</g>
</svg>
