<?xml version="1.0" encoding="utf-8"?>
<!-- Generator: Adobe Illustrator 23.0.2, SVG Export Plug-In . SVG Version: 6.00 Build 0)  -->
<svg version="1.1" id="Layer_1" xmlns="http://www.w3.org/2000/svg" xmlns:xlink="http://www.w3.org/1999/xlink" x="0px" y="0px"
	 viewBox="0 0 900 900" style="enable-background:new 0 0 900 900;" xml:space="preserve">
<g transform="translate(0.000000,900.000000) scale(0.100000,-0.100000)">
	<path d="M4690,5313c-71-14-115-28-187-59c-17-8-34-14-37-14c-4,0-39-19-79-42c-71-42-260-219-289-271c-95-173-114-230-126-373
		c-11-124,0-282,24-359c28-86,94-209,162-301c48-65,62-92,55-103c-5-8-40-30-79-50c-102-53-116-65-124-108c-8-38-22-97-45-188
		c-34-131-38-165-27-191c11-22,17-25,54-22c42,3,43,4,59,53c9,28,29,102,44,165s33,125,41,136c7,12,47,39,89,60s81,44,87,51
		c15,19,45,16,77-8c25-18,28-25,21-52c-8-33-25-110-55-252c-9-44-21-96-26-116s-9-53-9-73c0-37,24-86,42-86c6,0,43-19,82-42
		c39-24,88-52,109-62c40-21,42-27,27-72c-21-59-40-60-225-4c-145,44-192,43-208-3c-15-46,11-71,95-96c148-43,184-54,223-67
		c75-24,124-27,150-10c14,9,25,20,25,25s14,34,32,65c26,46,37,56,59,56c15,0,32-7,39-15s18-15,25-15c25,0,70-56,93-116
		c39-96,83-207,98-239c7-16,15-38,18-47c7-22,51-34,85-22c21,8,27,17,29,47c2,23-3,48-12,62s-16,31-16,39s-6,27-14,43
		c-13,25-29,63-94,228c-19,48-48,82-76,91c-12,4-42,21-68,38c-37,23-48,37-48,57c0,27,27,130,75,284c7,22,21,69,30,105
		c22,78,30,90,61,90c18,0,29-12,49-52c15-29,43-70,63-90l36-38h198h198l11,24c16,35,3,75-27,86c-14,6-94,10-179,10h-153l-16,26
		c-10,14-16,37-14,51c2,22,11,29,48,39c72,20,153,52,182,74c15,11,30,20,33,20s42,27,85,60c84,64,190,187,229,267c12,26,27,56,32,66
		c16,31,47,120,60,177c27,111,9,383-30,458c-5,9-19,42-31,72c-62,153-272,370-434,449C5109,5320,4882,5351,4690,5313z M5000,5191
		c139-25,214-52,310-113c62-39,213-190,258-258c76-113,144-377,110-423c-9-12-36-21-83-28c-45-6-75-15-82-26c-15-20-17-59-3-68
		c6-3,10-29,10-56c0-46,4-54,40-90c22-22,40-43,40-48c0-31-147-193-241-266c-66-52-142-88-254-122c-86-25-346-25-425,1
		c-175,58-343,170-432,288c-73,97-137,233-150,317c-16,104-4,314,22,386c66,181,176,315,335,408c89,52,171,81,269,96
		c44,6,82,14,85,16C4818,5215,4898,5209,5000,5191z M4610,3590c19-4,62-14,95-20c92-19,88-16,82-58c-2-20-9-50-15-67
		c-6-16-25-77-42-135c-42-134-42-135-76-134c-35,1-117,21-161,40c-30,12-33,18-33,56c0,23,6,67,14,97c8,31,22,90,31,131
		c27,117,24,113,48,105C4565,3601,4591,3595,4610,3590z"/>
	<path d="M4983,4633c-24-9-14-47,17-65c39-22,38-46-1-79c-28-22-33-34-37-82c-10-119,19-158,120-165c42-3,65,0,83,12
		c23,15,105,128,105,146c0,24-247,243-270,239C4997,4639,4989,4636,4983,4633z"/>
	<path d="M5157,4015c-7-17,40-52,83-61c14-2,45-11,70-19c53-18,96-19,105-4c9,14-24,49-47,49c-10,0-31,6-46,14c-15,7-47,16-72,20
		s-55,9-66,12C5170,4030,5161,4026,5157,4015z"/>
</g>
</svg>
