<?xml version="1.0" encoding="utf-8"?>
<!-- Generator: Adobe Illustrator 23.0.2, SVG Export Plug-In . SVG Version: 6.00 Build 0)  -->
<svg version="1.1" id="Layer_1" xmlns="http://www.w3.org/2000/svg" xmlns:xlink="http://www.w3.org/1999/xlink" x="0px" y="0px"
	 viewBox="0 0 900 900" style="enable-background:new 0 0 900 900;" xml:space="preserve">
<g transform="translate(0.000000,900.000000) scale(0.100000,-0.100000)">
	<path d="M4785,5273c-60-4-177-30-223-49c-18-8-38-14-46-14c-18,0-113-50-176-94c-66-45-194-175-236-237c-43-64-94-164-94-183
		c0-10-6-29-14-45c-23-44-36-231-25-351c14-145,38-222,106-340c32-55,132-188,162-214c11-11,21-27,21-36s-34-49-75-89
		c-79-76-88-98-59-139c8-12,21-32,27-45c7-12,38-63,70-114c41-63,66-93,83-97c19-5,23-12,20-29c-13-64-15-153-6-238
		c11-96,9-119-25-249c-8-30-27-102-41-160c-32-122-42-224-24-245c17-20,64-19,83,3c15,17,39,99,57,194c5,27,11,52,15,57
		c3,5,10,31,15,58c5,26,19,80,30,118c11,39,23,120,27,183l6,114l44-7c25-3,63-13,85-21s51-14,63-14c36,0,211-138,203-161
		c-4-11-54-32-113-49c-76-20-102-38-108-72c-6-41,15-78,46-78c12,0,45,7,72,16c49,16,69,24,148,58c21,9,44,16,51,16s34,9,60,20
		c43,20,46,23,46,59c0,34-6,43-47,77c-79,65-197,183-190,190c3,4,31-12,61-35c64-48,106-54,130-19c9,12,16,27,16,32s-41,51-91,102
		l-91,93l15,48c26,83,45,147,51,175c6,25,11,27,73,33c172,17,355,91,484,195c35,29,69,55,75,58c6,4,40,45,75,92
		c64,84,112,173,143,260c22,61,46,210,46,279c-1,59-29,211-50,271c-55,150-85,198-208,324c-167,171-271,231-482,279
		C5000,5269,4866,5279,4785,5273z M5028,5134c198-41,288-91,438-246c75-77,99-110,138-190c26-53,51-118,56-145c4-26,13-74,19-106
		c15-88,6-102-78-121c-38-9-83-16-98-16c-16,0-34-5-41-12c-15-15-16-64-2-73c6-3,10-29,10-56c0-65,10-83,66-111c26-12,49-29,51-36
		c6-16-63-108-136-182c-85-84-233-172-326-192c-22-5-62-14-90-20c-65-13-294-4-361,16c-156,44-340,167-435,291c-27,35-49,67-49,71
		s-18,44-41,90c-51,106-63,181-56,349c5,128,10,147,62,280c33,81,157,221,258,289c99,68,164,93,332,129
		C4794,5154,4958,5149,5028,5134z M4406,3583c-7-41-36-180-42-200c-6-23-18-14-51,35c-52,78-51,84,8,147c29,30,61,55,72,55
		C4410,3620,4411,3615,4406,3583z M4585,3546c22-8,75-22,118-31c45-10,81-23,84-30c2-8-2-36-10-62s-29-100-47-163s-39-121-46-129
		c-11-12-22-12-71-2c-32,7-79,20-105,29c-47,16-48,17-48,56c0,42,21,153,46,242c8,28,14,60,14,71C4520,3563,4528,3566,4585,3546z"/>
	<path d="M4913,4563c-4-11,5-25,30-46c21-16,37-32,37-36c0-5-16-24-35-44c-34-35-35-38-35-116v-80l37-26c30-20,50-25,100-25
		c61,0,62,1,97,44c20,23,36,46,36,50s11,22,25,41l26,33l-83,73c-46,40-103,89-127,111C4974,4583,4925,4593,4913,4563z"/>
	<path d="M5110,3958c1-30,19-39,173-84c62-17,82-12,75,21C5351,3933,5110,3994,5110,3958z"/>
</g>
</svg>
