<?xml version="1.0" encoding="utf-8"?>
<!-- Generator: Adobe Illustrator 23.0.2, SVG Export Plug-In . SVG Version: 6.00 Build 0)  -->
<svg version="1.1" id="Layer_1" xmlns="http://www.w3.org/2000/svg" xmlns:xlink="http://www.w3.org/1999/xlink" x="0px" y="0px"
	 viewBox="0 0 900 900" style="enable-background:new 0 0 900 900;" xml:space="preserve">
<g transform="translate(0.000000,900.000000) scale(0.100000,-0.100000)">
	<path d="M4490,5257c-3-3-43-10-90-16c-149-18-234-48-372-129c-58-34-82-55-193-173c-136-143-199-277-225-478c-21-161,17-365,97-517
		c52-98,194-246,301-314c39-25,71-51,72-59c0-7-34-65-76-127l-76-114l19-31c15-26,30-35,88-51c39-11,84-26,102-33c18-8,55-17,82-21
		c34-4,52-12,56-23c2-9,6-70,7-136l3-120l-40-63c-83-130-115-191-115-216c0-11-7-43-15-73c-8-29-22-77-30-106c-20-71-19-100,3-120
		c19-17,69-22,87-9c10,7,25,52,61,195c24,94,45,148,73,192c14,22,34,58,45,80c35,70,46,74,183,75h121l-5-141c-7-165,11-364,35-391
		c18-22,51-23,78-4c17,13,19,24,15,133c-8,194,7,821,19,828c4,3,21-18,38-45c27-44,35-50,64-50c40,0,269,110,311,148
		c34,32,35,66,2,88c-29,19-39,16-163-43c-101-48-128-49-138-5c-4,15-12,36-19,48c-8,12-16,37-20,56c-8,40,12,68,47,68
		c11,0,40,14,65,30c24,17,46,30,49,30c27,0,236,198,266,253c125,227,148,304,148,492c0,189-38,317-145,485c-38,58-172,196-227,233
		c-77,50-157,91-219,112c-30,10-65,22-79,27s-61,14-105,19c-44,4-102,11-130,15C4518,5259,4493,5260,4490,5257z M4753,5101
		c395-102,653-520,556-904c-32-128-101-256-184-342c-70-73-189-158-255-183c-89-34-152-52-241-67c-81-14-107-15-165-5
		c-38,6-91,15-119,20c-61,10-108,27-202,74c-59,29-96,59-191,153c-175,176-203,243-209,506c-4,152-2,175,17,230
		c88,255,270,430,540,517C4383,5127,4648,5127,4753,5101z M4265,3441c29-119,15-137-84-106c-31,10-61,19-68,21c-13,3,53,114,67,114
		c4,0,10,9,13,20c3,13,14,20,30,20C4245,3510,4249,3503,4265,3441z M4664,3464c3-9,6-114,6-234c0-260,10-242-137-238
		c-98,3-98,3-112,33c-10,21-17,89-22,235c-4,113-5,208-2,213c2,4,62,7,133,7C4637,3480,4659,3477,4664,3464z"/>
	<path d="M4264,4505c-25-18-11-42,39-68c36-19,47-40,27-52c-17-10-40-75-40-109c1-43,30-98,60-114c39-20,150-12,176,14
		c36,36,54,68,54,95c0,15,7,32,15,39c30,25,18,56-27,75c-36,14-153,69-259,121C4287,4517,4279,4517,4264,4505z"/>
	<path d="M5135,4491c-11-3-45-18-75-33c-100-47-185-85-208-93c-26-8-23-36,9-71c11-11,19-30,19-42s18-40,40-63c39-41,40-41,95-37
		c81,7,110,37,110,117c0,42-5,64-17,78c-30,33-22,50,37,74c57,24,66,37,39,63C5167,4501,5165,4501,5135,4491z"/>
	<path d="M4604,3956c-31-23-6-34,86-37c134-4,172-1,168,14C4848,3961,4638,3980,4604,3956z"/>
</g>
</svg>
