<?xml version="1.0" encoding="utf-8"?>
<!-- Generator: Adobe Illustrator 23.0.2, SVG Export Plug-In . SVG Version: 6.00 Build 0)  -->
<svg version="1.1" id="Layer_1" xmlns="http://www.w3.org/2000/svg" xmlns:xlink="http://www.w3.org/1999/xlink" x="0px" y="0px"
	 viewBox="0 0 900 900" style="enable-background:new 0 0 900 900;" xml:space="preserve">
<g transform="translate(0.000000,900.000000) scale(0.100000,-0.100000)">
	<path d="M4334,5219c-126-12-259-58-364-126c-65-42-239-209-283-273c-72-103-110-207-132-360c-13-85-14-123-4-205
		c11-102,54-248,93-319c11-21,27-50,35-64c24-44,183-202,251-250c99-69,101-72,89-94c-11-20-24-37-72-93c-40-48-60-101-47-125
		c12-23,60-50,87-50c10,0,27-6,38-13c17-11,67-29,183-63c9-2,12-42,12-153v-150l-60-124c-33-69-60-138-60-155s-7-66-15-109
		c-20-102-19-136,3-156s75-22,89-4c11,14,29,99,42,202c6,52,22,98,59,176c28,58,57,111,65,117c10,9,52,12,138,10l124-3l6-50
		c3-27,12-95,18-150c7-55,17-127,23-160c5-33,12-73,15-90c10-56,48-79,93-55c29,15,33,58,16,170c-48,326-58,521-40,768
		c8,113,21,118,70,27c18-33,42-67,54-74c20-14,27-12,79,14c31,17,72,42,91,56c19,15,51,35,70,46c85,47,111,67,116,89
		c9,34-3,72-26,84s-52,1-135-55c-85-57-130-79-147-72c-21,7-70,104-66,129c2,14,26,33,75,59c118,61,210,139,296,252
		c95,125,117,171,158,327c14,54,20,109,20,195c1,149-21,248-86,382c-41,85-60,110-158,211c-115,117-209,189-287,217
		c-25,9-69,25-97,35c-50,18-240,41-313,39C4431,5228,4378,5224,4334,5219z M4720,5078c19-9,60-26,90-38c82-34,155-88,251-186
		c68-71,95-107,128-175c23-47,48-112,56-143c17-66,21-312,5-360c-41-129-55-163-93-223c-24-38-84-106-133-153c-72-68-110-95-186-132
		c-53-27-103-48-110-48s-33-7-56-15c-60-21-240-30-335-16c-106,15-233,63-322,123c-75,49-225,206-248,258c-4,8-11,22-16,30
		c-23,35-64,158-73,219c-14,87-4,273,18,336c40,119,87,198,163,278c125,131,213,191,346,236c88,29,93,30,295,27
		C4643,5094,4693,5090,4720,5078z M4195,3473c4-16,8-37,10-48c3-11,2-37-2-57c-6-43-16-45-78-24c-28,10-41,21-43,36c-2,13,0,25,5,29
		c5,3,23,25,42,49C4167,3507,4187,3511,4195,3473z M4605,3275c0-217-4-285-18-302c-11-15-222-18-231-4c-8,12-20,465-14,482
		c4,11,34,14,134,14h129V3275z"/>
	<path d="M4197,4483c-18-17-4-44,32-63c52-26,55-33,31-72c-13-22-20-50-20-86c0-66,31-112,93-137c36-14,47-15,80-4
		c45,15,107,84,107,118c0,13,7,35,16,51c10,15,14,34,11,43c-3,8-69,46-148,86C4269,4484,4215,4501,4197,4483z"/>
	<path d="M5030,4453c-66-31-161-74-212-96c-43-19-47-33-18-70c11-14,20-35,20-47c0-29,26-76,52-94c13-10,44-16,74-16
		c42,0,59,5,83,26c28,23,31,31,31,84c0,37-6,69-17,88c-17,29-17,31,1,51c11,12,25,21,31,21c7,0,23,8,35,18c17,13,21,24,16,40
		C5117,4486,5098,4485,5030,4453z"/>
	<path d="M4568,3933c-34-5-37-28-5-37c12-3,68-6,124-6c100,0,128,9,105,32C4781,3933,4614,3942,4568,3933z"/>
</g>
</svg>
