<?xml version="1.0" encoding="utf-8"?>
<!-- Generator: Adobe Illustrator 23.0.2, SVG Export Plug-In . SVG Version: 6.00 Build 0)  -->
<svg version="1.1" id="Layer_1" xmlns="http://www.w3.org/2000/svg" xmlns:xlink="http://www.w3.org/1999/xlink" x="0px" y="0px"
	 viewBox="0 0 900 900" style="enable-background:new 0 0 900 900;" xml:space="preserve">
<g transform="translate(0.000000,900.000000) scale(0.100000,-0.100000)">
	<path d="M4432,5218c-52-4-107-15-122-23c-16-8-36-15-44-15c-15,0-48-13-126-49c-19-9-39-20-45-24c-15-12-132-99-168-125
		c-17-12-38-35-47-50s-24-33-34-41c-34-28-112-159-144-241c-70-183-70-433,0-620c7-19,18-42,23-50s19-34,31-58c11-24,40-66,65-95
		c62-74,227-225,269-246c19-10,36-26,38-34c3-17-55-112-95-157c-13-14-30-39-38-56c-32-68-17-92,82-134c43-19,87-40,98-47
		c33-22,82-16,101,12c26,40,8,75-59,108c-71,36-72,49-10,142c53,80,61,87,84,75c14-8,17-37,24-197c11-258,11-373,3-404
		c-4-14-34-62-66-105c-31-43-69-104-84-134c-28-59-98-261-98-284c0-22,35-46,66-46c48,0,43-7,110,183c39,110,44,118,132,239
		c60,82,64,86,109,92c65,9,166,7,182-3c11-7,11-24,0-107c-21-156-11-352,19-386c18-22,51-23,78-4c17,13,19,28,20,183
		c0,118,5,186,16,228c11,40,18,126,21,264c3,112,10,208,15,213c11,11,42-16,42-37c0-7,12-21,27-30c25-17,31-17,122-1
		c146,26,203,46,221,78c11,21,12,32,4,45c-21,33-39,37-125,24c-160-23-149-26-182,54c-42,101-48,125-37,145c5,10,45,35,87,56
		c226,111,400,320,469,564c26,90,26,394,1,454c-10,21-17,45-17,52c0,24-62,146-104,204c-94,130-215,236-343,300
		c-117,58-187,78-313,90C4563,5231,4564,5231,4432,5218z M4750,5090c141-26,296-114,413-233c82-86,132-166,167-270
		c28-85,30-100,30-247c0-131-3-166-20-216c-11-32-25-63-30-68c-6-6-10-16-10-22c0-29-74-135-141-203c-69-70-169-151-186-151
		c-4,0-35-13-68-29c-125-60-156-66-335-66c-187,0-208,5-370,83c-81,40-110,61-200,148c-122,119-163,188-214,365c-21,73-22,248-1,315
		c9,27,21,65,26,84c6,19,27,69,48,110c42,87,179,234,273,293c64,41,193,93,260,106C4448,5100,4692,5101,4750,5090z M4710,3455
		c9-11,9-55,1-197c-7-101-13-208-14-238l-2-55h-115h-115l-11,105c-14,119-20,358-9,368c3,4,52,12,108,18
		C4698,3471,4696,3471,4710,3455z"/>
	<path d="M4300,4471c-14-27-14-27,19-41c16-6,37-20,46-30c16-18,16-21-4-53c-30-50-29-131,3-178c48-70,149-74,211-9
		c36,38,87,166,71,178c-25,19-304,152-319,152C4318,4490,4306,4481,4300,4471z"/>
	<path d="M5155,4459c-22-11-62-30-90-41c-147-61-185-83-185-104c0-12,6-27,14-33c7-6,16-25,19-41c4-16,23-47,43-70
		c34-38,39-40,93-40c34,0,65,6,78,15c46,32,53,123,15,188c-16,28-16,29,7,48c13,10,32,19,42,19c23,0,52,42,43,64
		C5226,4485,5204,4484,5155,4459z"/>
	<path d="M4668,3933c-19-3-28-10-28-22c0-15,12-19,72-24c104-9,190,1,186,22c-2,9-17,19-33,22C4832,3938,4710,3939,4668,3933z"/>
</g>
</svg>
