<?xml version="1.0" encoding="utf-8"?>
<!-- Generator: Adobe Illustrator 23.0.2, SVG Export Plug-In . SVG Version: 6.00 Build 0)  -->
<svg version="1.1" id="Layer_1" xmlns="http://www.w3.org/2000/svg" xmlns:xlink="http://www.w3.org/1999/xlink" x="0px" y="0px"
	 viewBox="0 0 900 900" style="enable-background:new 0 0 900 900;" xml:space="preserve">
<g transform="translate(0.000000,900.000000) scale(0.100000,-0.100000)">
	<path d="M4370,5180c-115-12-240-50-344-104c-199-104-388-326-442-520c-32-114-45-246-34-346c13-122,31-181,94-310
		c47-96,61-115,167-222c64-65,123-118,131-118s23-9,32-19c21-23,15-38-50-118c-45-56-48-62-38-101c7-24,32-37,139-74
		c33-11,65-24,70-29c6-4,35-14,65-21l55-14l3-151l3-151l-61-125c-33-69-60-138-60-155s-7-66-15-109c-20-102-19-136,3-156s75-22,89-4
		c11,14,29,99,42,202c6,52,22,98,59,176c28,58,57,111,65,117c10,9,52,12,138,10l124-3l6-50c3-27,12-95,18-150c7-55,17-127,23-160
		c5-33,12-73,15-90c10-56,48-79,93-55c29,15,33,58,16,170c-36,244-49,383-48,525c1,176,11,335,22,335s34-30,65-83
		c40-70,59-76,130-38c33,17,73,42,90,55c16,13,46,32,65,43c114,63,130,82,116,138c-14,57-52,52-161-20c-136-89-153-93-178-37
		c-25,58-22,68,31,94c26,12,72,41,102,64c70,54,206,194,251,259c38,54,86,171,114,274c41,155,9,430-67,571c-67,125-278,343-381,394
		C4745,5163,4559,5198,4370,5180z M4672,5036c173-47,233-81,359-206c117-117,166-186,193-275c10-33,22-73,27-89c15-48,11-298-5-360
		c-8-31-34-95-58-143c-36-75-58-103-148-193c-110-110-172-150-294-191c-155-53-298-62-451-30c-89,19-206,62-236,88c-8,7-20,13-25,13
		s-38,24-74,53c-159,130-263,308-283,488c-12,110,0,267,26,336c54,139,79,177,196,293c96,96,128,120,186,147c164,73,196,80,382,82
		C4571,5050,4636,5045,4672,5036z M4178,3444c18-12,22-25,22-65c0-58-10-61-84-29c-54,23-58,41-19,82C4127,3464,4146,3467,4178,3444
		z M4606,3218c-6-206-8-226-20-246c-10-17-225-17-231,1c-6,16-21,414-17,427c2,6,58,10,139,10h136L4606,3218z"/>
	<path d="M4207,4433c-19-19-5-45,33-60c46-18,51-40,20-80c-14-18-20-41-20-79c0-66,13-96,53-119c40-24,135-25,167-2
		c29,20,60,67,60,90c0,11,8,35,17,54c11,23,13,40,7,49c-12,17-289,154-313,154C4221,4440,4210,4437,4207,4433z"/>
	<path d="M5070,4415c-14-8-30-14-37-15c-6,0-54-20-105-44s-103-46-115-50c-31-10-37-36-13-68c11-15,20-37,20-50c0-28,33-83,57-96
		c45-24,124-18,157,13c23,21,26,32,26,88c0,46-4,68-15,77c-27,23-13,52,38,79c47,25,58,46,35,69C5103,4433,5101,4433,5070,4415z"/>
	<path d="M4540,3889c-25-10-25-11-5-25c16-12,45-15,137-12c114,3,141,9,122,28C4780,3894,4570,3902,4540,3889z"/>
</g>
</svg>
