<?xml version="1.0" encoding="utf-8"?>
<!-- Generator: Adobe Illustrator 23.0.2, SVG Export Plug-In . SVG Version: 6.00 Build 0)  -->
<svg version="1.1" id="Layer_1" xmlns="http://www.w3.org/2000/svg" xmlns:xlink="http://www.w3.org/1999/xlink" x="0px" y="0px"
	 viewBox="0 0 900 900" style="enable-background:new 0 0 900 900;" xml:space="preserve">
<g transform="translate(0.000000,900.000000) scale(0.100000,-0.100000)">
	<path d="M4205,5103c-33-8-73-21-90-28c-16-7-50-21-75-31c-159-64-401-307-455-456c-44-120-75-262-75-339c0-59,25-221,44-280
		c47-150,173-320,329-443c26-20,47-41,47-46c0-4-15-27-34-49c-42-50-51-74-36-101c11-21,81-70,100-70c5,0,40-14,77-31
		c38-16,86-39,109-49l41-18l6-154l6-153l-50-100c-44-87-52-112-65-209c-19-148-18-189,4-209s75-22,89-4c5,6,18,73,27,147
		c15,113,24,147,53,208c52,105,63,112,192,112c58,0,111-4,117-8c19-12,36-53,44-106c32-202,60-328,78-348c31-37,88-15,98,37
		c3,19-1,66-10,107c-8,40-22,111-31,158s-22,105-28,130c-13,55-20,579-8,599c13,20,34,4,83-69c54-79,77-86,141-42
		c23,16,77,53,120,82c99,68,167,131,167,156c0,28-20,52-51,59c-21,5-41-5-105-52c-43-32-100-73-126-90l-47-31l-15,23
		c-24,36-20,50,22,68c85,37,222,159,309,272c33,44,123,225,123,249c0,8,7,41,15,73c23,87,20,271-6,380c-37,156-103,274-220,394
		c-103,105-140,132-254,189c-154,77-217,90-425,89C4320,5118,4246,5113,4205,5103z M4641,4984c173-51,238-90,362-212
		c144-142,180-204,218-376c24-113,24-189-1-310c-24-120-56-186-143-303c-51-68-86-103-140-140c-95-66-233-132-299-143
		c-29-5-71-14-93-20c-131-32-352,12-530,107c-64,34-245,204-245,230c0,6-6,15-13,21c-16,14-70,124-91,187c-26,79-23,355,4,436
		c71,211,251,405,445,480c138,54,156,57,316,58C4548,5000,4601,4996,4641,4984z M4144,3389c17-14,26-29,24-43c-3-24-24-25-78-4
		c-56,21-61,27-50,49C4054,3417,4109,3416,4144,3389z M4578,3166c3-245,8-236-132-236c-82,0-106,3-117,16c-14,17-31,381-18,399
		c4,6,61,10,136,10h128L4578,3166z"/>
	<path d="M4170,4375c-16-19,2-43,48-62c17-7,32-17,32-23c0-5-11-30-25-56c-29-55-32-96-7-144c20-41,83-80,131-80
		c58,0,141,80,141,138c0,12,7,33,15,46c15,23,11,56-7,56c-5,0-72,32-149,70c-78,39-147,70-154,70S4177,4383,4170,4375z"/>
	<path d="M4975,4337c-33-16-73-36-90-43c-90-38-145-66-145-74c0-5,11-20,24-35c13-14,26-43,30-64c8-51,33-80,78-90
		c131-30,207,72,143,192l-24,46l46,21c25,11,49,20,54,20c15,0,20,20,9,40C5085,4378,5048,4374,4975,4337z"/>
	<path d="M4502,3828c-21-26,6-35,129-43c103-6,118-5,133,11c27,26,5,33-131,40C4534,3842,4513,3840,4502,3828z"/>
</g>
</svg>
